M48
; DRILL file {KiCad 8.0.5} date 2024-10-31T12:59:38-0700
; FORMAT={-:-/ absolute / inch / decimal}
; #@! TF.CreationDate,2024-10-31T12:59:38-07:00
; #@! TF.GenerationSoftware,Kicad,Pcbnew,8.0.5
; #@! TF.FileFunction,Plated,1,4,PTH
FMAT,2
INCH
; #@! TA.AperFunction,Plated,PTH,ViaDrill
T1C0.0079
; #@! TA.AperFunction,Plated,PTH,ComponentDrill
T2C0.0079
; #@! TA.AperFunction,Plated,PTH,ComponentDrill
T3C0.0394
; #@! TA.AperFunction,Plated,PTH,ComponentDrill
T4C0.0551
%
G90
G05
T1
X4.1843Y-4.5842
X4.2237Y-4.5842
X4.2618Y-3.4154
X4.2618Y-3.6363
X4.2618Y-3.8091
X4.2825Y-3.4361
X4.2825Y-3.7894
X4.2825Y-4.0551
X4.2825Y-3.6213
X4.3012Y-3.2283
X4.3031Y-3.5917
X4.3105Y-3.4932
X4.3209Y-3.2283
X4.3234Y-3.6073
X4.3406Y-3.4558
X4.3615Y-4.5054
X4.449Y-3.1406
X4.4915Y-3.1406
X4.532Y-3.1406
X4.5374Y-3.7697
X4.5571Y-2.874
X4.5571Y-2.9134
X4.5571Y-3.8287
X4.565Y-3.1406
X4.5669Y-2.8937
X4.5669Y-2.9331
X4.5669Y-3.6063
X4.5669Y-3.6378
X4.5669Y-3.6713
X4.5669Y-3.7028
X4.5669Y-3.7343
X4.588Y-3.209
X4.6063Y-3.4941
X4.608Y-3.152
X4.615Y-3.386
X4.6161Y-3.5433
X4.6457Y-3.4547
X4.6457Y-4.0453
X4.6457Y-4.0748
X4.652Y-3.385
X4.6654Y-4.1043
X4.7047Y-3.2382
X4.7146Y-4.1043
X4.7343Y-3.2382
X4.7343Y-3.2677
X4.7343Y-4.0453
X4.7343Y-4.0748
X4.7638Y-3.3169
X4.7638Y-3.4252
X4.7638Y-3.4843
X4.7736Y-3.7008
X4.7835Y-3.4646
X4.7835Y-3.8681
X4.7835Y-3.8976
X4.7835Y-3.9272
X4.7933Y-3.3169
X4.8031Y-3.4252
X4.8031Y-3.4843
X4.8031Y-3.8484
X4.8228Y-4.0059
X4.8327Y-3.8484
X4.8425Y-3.622
X4.8425Y-3.9961
X4.8524Y-4.0157
X4.8622Y-4.0354
X4.9016Y-3.4252
X4.9016Y-3.4646
X4.9016Y-3.5827
X4.9016Y-3.622
X4.9114Y-3.2874
X4.9114Y-3.3169
X4.9114Y-3.3465
X4.9114Y-3.7008
X4.9114Y-3.75
X4.9213Y-3.8386
X4.9213Y-4.1142
X4.9409Y-3.4843
X4.9409Y-3.563
X4.9409Y-3.9567
X4.9409Y-3.9961
X4.9606Y-3.8386
X4.9606Y-4.1142
X4.9803Y-3.4843
X4.9803Y-3.563
X5.0Y-3.8583
X5.0Y-3.8976
X5.0Y-3.937
X5.0Y-4.0157
X5.0Y-4.0551
X5.0Y-4.0945
X5.0098Y-3.7008
X5.0098Y-3.75
X5.0197Y-3.4252
X5.0197Y-3.4646
X5.0197Y-3.5827
X5.0197Y-3.622
X5.037Y-3.031
X5.0404Y-3.23
X5.052Y-3.286
X5.0689Y-3.9469
X5.093Y-3.239
X5.1181Y-3.5531
X5.1181Y-3.6112
X5.187Y-3.8976
X5.261Y-3.29
X5.266Y-3.139
X5.294Y-3.351
X5.315Y-3.2283
X5.315Y-3.5433
X5.315Y-3.8583
X5.315Y-4.1732
X5.319Y-3.29
X5.3543Y-3.2283
X5.3543Y-3.5433
X5.3543Y-3.8583
X5.3543Y-4.1732
X5.3937Y-3.189
X5.3937Y-3.2283
X5.3937Y-3.5039
X5.3937Y-3.5433
X5.3937Y-3.8189
X5.3937Y-3.8583
X5.3937Y-4.1339
X5.3937Y-4.1732
X5.4035Y-4.0846
X5.406Y-3.2638
X5.411Y-3.448
X5.4134Y-3.2087
X5.4134Y-3.5236
X5.4134Y-3.6614
X5.4134Y-3.7598
X5.4134Y-3.8386
X5.4134Y-4.1535
X5.4232Y-3.8976
X5.4242Y-3.9232
X5.6388Y-3.9075
X5.6388Y-4.2028
X5.6398Y-4.2618
X5.679Y-4.252
X5.8071Y-3.7402
T2
X4.4283Y-3.4253
X4.4283Y-3.4647
X4.4283Y-3.5041
X4.4677Y-3.4253
X4.4677Y-3.4647
X4.4677Y-3.5041
X4.5071Y-3.4253
X4.5071Y-3.4647
X4.5071Y-3.5041
T3
X4.1905Y-3.0709
X4.1905Y-3.1709
X4.191Y-3.357
X4.191Y-3.457
X4.191Y-3.557
X4.191Y-3.657
X4.1929Y-3.9154
X4.1929Y-4.0154
X4.1929Y-4.1154
X4.1929Y-4.2154
X5.9449Y-3.6402
X5.9449Y-3.7402
X5.9449Y-3.8402
X5.9449Y-3.9402
X5.9449Y-4.0945
X5.9449Y-4.2913
X5.9449Y-4.3913
X5.9449Y-4.5669
T4
X5.6299Y-3.1496
X5.6299Y-3.3465
M30
