%TF.GenerationSoftware,KiCad,Pcbnew,8.0.5*%
%TF.CreationDate,2024-10-31T12:59:41-07:00*%
%TF.ProjectId,team6_pcb,7465616d-365f-4706-9362-2e6b69636164,rev?*%
%TF.SameCoordinates,Original*%
%TF.FileFunction,Copper,L4,Bot*%
%TF.FilePolarity,Positive*%
%FSLAX46Y46*%
G04 Gerber Fmt 4.6, Leading zero omitted, Abs format (unit mm)*
G04 Created by KiCad (PCBNEW 8.0.5) date 2024-10-31 12:59:41*
%MOMM*%
%LPD*%
G01*
G04 APERTURE LIST*
G04 Aperture macros list*
%AMRoundRect*
0 Rectangle with rounded corners*
0 $1 Rounding radius*
0 $2 $3 $4 $5 $6 $7 $8 $9 X,Y pos of 4 corners*
0 Add a 4 corners polygon primitive as box body*
4,1,4,$2,$3,$4,$5,$6,$7,$8,$9,$2,$3,0*
0 Add four circle primitives for the rounded corners*
1,1,$1+$1,$2,$3*
1,1,$1+$1,$4,$5*
1,1,$1+$1,$6,$7*
1,1,$1+$1,$8,$9*
0 Add four rect primitives between the rounded corners*
20,1,$1+$1,$2,$3,$4,$5,0*
20,1,$1+$1,$4,$5,$6,$7,0*
20,1,$1+$1,$6,$7,$8,$9,0*
20,1,$1+$1,$8,$9,$2,$3,0*%
G04 Aperture macros list end*
%TA.AperFunction,ComponentPad*%
%ADD10RoundRect,0.250000X1.550000X-0.750000X1.550000X0.750000X-1.550000X0.750000X-1.550000X-0.750000X0*%
%TD*%
%TA.AperFunction,ComponentPad*%
%ADD11O,3.600000X2.000000*%
%TD*%
%TA.AperFunction,ComponentPad*%
%ADD12R,1.700000X1.700000*%
%TD*%
%TA.AperFunction,ComponentPad*%
%ADD13O,1.700000X1.700000*%
%TD*%
%TA.AperFunction,HeatsinkPad*%
%ADD14C,0.500000*%
%TD*%
%TA.AperFunction,HeatsinkPad*%
%ADD15R,2.500000X2.500000*%
%TD*%
%TA.AperFunction,ViaPad*%
%ADD16C,0.450000*%
%TD*%
%TA.AperFunction,Conductor*%
%ADD17C,0.200000*%
%TD*%
G04 APERTURE END LIST*
D10*
%TO.P,P9,1,Pin_1*%
%TO.N,VM*%
X143000000Y-85000000D03*
D11*
%TO.P,P9,2,Pin_2*%
%TO.N,GND*%
X143000000Y-80000000D03*
%TD*%
D12*
%TO.P,P8,1,Pin_1*%
%TO.N,VCC_IO*%
X106437500Y-78000000D03*
D13*
%TO.P,P8,2,Pin_2*%
%TO.N,GND*%
X106437500Y-80540000D03*
%TD*%
D12*
%TO.P,P2,1,Pin_1*%
%TO.N,Net-(IC1-DIR)*%
X151000000Y-109000000D03*
D13*
%TO.P,P2,2,Pin_2*%
%TO.N,Net-(IC1-STEP)*%
X151000000Y-111540000D03*
%TD*%
D12*
%TO.P,P3,1,Pin_1*%
%TO.N,SG_TEST*%
X106451400Y-92887800D03*
D13*
%TO.P,P3,2,Pin_2*%
%TO.N,CLK16*%
X106451400Y-90347800D03*
%TO.P,P3,3,Pin_3*%
%TO.N,DRV_EN*%
X106451400Y-87807800D03*
%TO.P,P3,4,Pin_4*%
%TO.N,GND*%
X106451400Y-85267800D03*
%TD*%
D12*
%TO.P,P10,1,Pin_1*%
%TO.N,A2*%
X151000000Y-92460000D03*
D13*
%TO.P,P10,2,Pin_2*%
%TO.N,A1*%
X151000000Y-95000000D03*
%TO.P,P10,3,Pin_3*%
%TO.N,B1*%
X151000000Y-97540000D03*
%TO.P,P10,4,Pin_4*%
%TO.N,B2*%
X151000000Y-100080000D03*
%TD*%
D12*
%TO.P,P5,1,Pin_1*%
%TO.N,GND*%
X151000000Y-116000000D03*
%TD*%
%TO.P,P4,1,Pin_1*%
%TO.N,GND*%
X151000000Y-104000000D03*
%TD*%
%TO.P,P1,1,Pin_1*%
%TO.N,CSN*%
X106500000Y-99450000D03*
D13*
%TO.P,P1,2,Pin_2*%
%TO.N,SCK*%
X106500000Y-101990000D03*
%TO.P,P1,3,Pin_3*%
%TO.N,SDI*%
X106500000Y-104530000D03*
%TO.P,P1,4,Pin_4*%
%TO.N,SDO*%
X106500000Y-107070000D03*
%TD*%
D14*
%TO.P,IC1,33,GND_PAD*%
%TO.N,GND*%
X114479200Y-87003000D03*
X113479200Y-87003000D03*
X112479200Y-87003000D03*
X114479200Y-88003000D03*
X113479200Y-88003000D03*
D15*
X113479200Y-88003000D03*
D14*
X112479200Y-88003000D03*
X114479200Y-89003000D03*
X113479200Y-89003000D03*
X112479200Y-89003000D03*
%TD*%
D16*
%TO.N,GND*%
X107281250Y-116437500D03*
X120250000Y-82250000D03*
X121750000Y-84250000D03*
X124750000Y-84250000D03*
X121500000Y-98250000D03*
X123000000Y-101500000D03*
X119750000Y-104250000D03*
X121000000Y-84250000D03*
X116000000Y-74500000D03*
X109750000Y-82000000D03*
X122500000Y-101750000D03*
X120250000Y-102750000D03*
X109250000Y-82000000D03*
X120250000Y-103500000D03*
X123250000Y-102000000D03*
X121500000Y-99000000D03*
X115750000Y-73000000D03*
X123500000Y-102500000D03*
X124750000Y-85000000D03*
X122750000Y-97750000D03*
X122000000Y-97750000D03*
X118500000Y-104250000D03*
X115750000Y-74000000D03*
X124750000Y-94000000D03*
X118000000Y-102750000D03*
X118000000Y-103500000D03*
X119500000Y-82250000D03*
X116000000Y-73500000D03*
X124750000Y-83500000D03*
X127250000Y-95250000D03*
X106281250Y-116437500D03*
X124750000Y-95250000D03*
X121500000Y-99750000D03*
X120250000Y-83000000D03*
X127250000Y-94000000D03*
%TO.N,VM*%
X121000000Y-88500000D03*
X135000000Y-106000000D03*
X137000000Y-82000000D03*
X135000000Y-90000000D03*
X136000000Y-98000000D03*
X137000000Y-105000000D03*
X124500000Y-87000000D03*
X127000000Y-104000000D03*
X127000000Y-102000000D03*
X127500000Y-88000000D03*
X122000000Y-87000000D03*
X117250000Y-90000000D03*
X126500000Y-88500000D03*
X126000000Y-97500000D03*
X126500000Y-90500000D03*
X137000000Y-89000000D03*
X121000000Y-87000000D03*
X121500000Y-88000000D03*
X136000000Y-90000000D03*
X127000000Y-100000000D03*
X127500000Y-92000000D03*
X137500000Y-97500000D03*
X137000000Y-97000000D03*
X137000000Y-106000000D03*
X127000000Y-103000000D03*
X125000000Y-97500000D03*
X127000000Y-98000000D03*
X136000000Y-106000000D03*
X122000000Y-88500000D03*
X137000000Y-81000000D03*
X124500000Y-92000000D03*
X135000000Y-82000000D03*
X125500000Y-90500000D03*
X137000000Y-98000000D03*
X137500000Y-105500000D03*
X127500000Y-91000000D03*
X127000000Y-99000000D03*
X135000000Y-98000000D03*
X126000000Y-104500000D03*
X125000000Y-104500000D03*
X127500000Y-87000000D03*
X124500000Y-88000000D03*
X125500000Y-101500000D03*
X124500000Y-91000000D03*
X125500000Y-100500000D03*
X137000000Y-90000000D03*
X125500000Y-88500000D03*
X137500000Y-89500000D03*
X137500000Y-81500000D03*
X136000000Y-82000000D03*
%TO.N,VCC_IO*%
X116535200Y-81508600D03*
X123000000Y-92000000D03*
X110781250Y-114437500D03*
X118000000Y-87750000D03*
X115250000Y-95750000D03*
%TO.N,HB2*%
X137250000Y-103750000D03*
X116000000Y-92400003D03*
%TO.N,A1*%
X130000000Y-90250000D03*
X114084465Y-79771800D03*
X147500000Y-95000000D03*
X128320800Y-83464400D03*
X130000000Y-91725000D03*
%TO.N,SDI*%
X108776098Y-91981063D03*
X108775000Y-87278000D03*
X108775000Y-96250000D03*
X108775000Y-103000000D03*
%TO.N,LA1*%
X134467600Y-85115400D03*
X113004600Y-79771800D03*
%TO.N,Net-(IC1-DIR)*%
X144246600Y-108000800D03*
X118160800Y-85979000D03*
%TO.N,SG_TEST*%
X117000000Y-88750000D03*
%TO.N,Net-(IC1-STEP)*%
X117221000Y-86004400D03*
%TO.N,LB2*%
X137775007Y-99649521D03*
X115750000Y-97250000D03*
X143225000Y-106750000D03*
X143250000Y-108250000D03*
%TO.N,HB1*%
X116000000Y-91600000D03*
X137500000Y-95500000D03*
%TO.N,SDO*%
X108250000Y-92362800D03*
X108250000Y-96750000D03*
X108250000Y-86750000D03*
%TO.N,A2*%
X137312400Y-82900000D03*
X127939800Y-76987400D03*
X115112800Y-79771800D03*
%TO.N,SCK*%
X109815621Y-91624843D03*
X110250000Y-87778000D03*
%TO.N,B2*%
X137750000Y-99000000D03*
X116000000Y-93250000D03*
X131750000Y-99000000D03*
X128750000Y-100250000D03*
X143225000Y-99250000D03*
%TO.N,CSN*%
X109487200Y-88728000D03*
X109300000Y-91229073D03*
%TO.N,B1*%
X116000000Y-94050003D03*
X121250000Y-94000000D03*
%TO.N,HA2*%
X133756400Y-79730600D03*
X129362200Y-82270600D03*
X128025600Y-82042000D03*
X115951000Y-79771800D03*
%TO.N,HA1*%
X133629400Y-83566000D03*
X137439400Y-87579200D03*
X135102600Y-83566000D03*
X117043200Y-80060800D03*
%TO.N,LB1*%
X116000000Y-94850006D03*
X137500000Y-93000000D03*
%TD*%
D17*
%TO.N,VCC_IO*%
X110500000Y-101500000D02*
X110500000Y-114156250D01*
X115250000Y-95750000D02*
X111500000Y-95750000D01*
X118750000Y-87750000D02*
X118000000Y-87750000D01*
X116535200Y-81508600D02*
X113512600Y-81508600D01*
X111500000Y-100500000D02*
X110500000Y-101500000D01*
X106437500Y-78000000D02*
X109960000Y-78000000D01*
X111500000Y-95750000D02*
X111500000Y-100500000D01*
X123000000Y-92000000D02*
X118750000Y-87750000D01*
X109960000Y-78000000D02*
X109982000Y-77978000D01*
X110500000Y-114156250D02*
X110781250Y-114437500D01*
X113512600Y-81508600D02*
X109982000Y-77978000D01*
%TO.N,HB2*%
X132500000Y-98750000D02*
X133000000Y-99250000D01*
X121400003Y-92400003D02*
X123250000Y-94250000D01*
X133000000Y-99250000D02*
X137250000Y-99250000D01*
X124000000Y-96000000D02*
X129750000Y-96000000D01*
X137250000Y-99250000D02*
X137250000Y-103750000D01*
X124000000Y-95000000D02*
X124000000Y-96000000D01*
X116000000Y-92400003D02*
X121400003Y-92400003D01*
X129750000Y-96000000D02*
X132500000Y-98750000D01*
X123250000Y-94250000D02*
X124000000Y-95000000D01*
%TO.N,A1*%
X130000000Y-90250000D02*
X130000000Y-91725000D01*
X118189665Y-75666600D02*
X128625600Y-75666600D01*
X147500000Y-95000000D02*
X151000000Y-95000000D01*
X128625600Y-83159600D02*
X128320800Y-83464400D01*
X128625600Y-75666600D02*
X128625600Y-83159600D01*
X114084465Y-79771800D02*
X118189665Y-75666600D01*
%TO.N,SDI*%
X108775000Y-91979965D02*
X108776098Y-91981063D01*
X108775000Y-96250000D02*
X108775000Y-103000000D01*
X108775000Y-87278000D02*
X108775000Y-91979965D01*
%TO.N,LA1*%
X134400000Y-75429400D02*
X134237200Y-75266600D01*
X117509800Y-75266600D02*
X113004600Y-79771800D01*
X134400000Y-75429400D02*
X134400000Y-85047800D01*
X134237200Y-75266600D02*
X117509800Y-75266600D01*
X134400000Y-85047800D02*
X134467600Y-85115400D01*
%TO.N,Net-(IC1-DIR)*%
X142392400Y-91744800D02*
X144272000Y-93624400D01*
X133146800Y-85394800D02*
X133273800Y-85521800D01*
X144272000Y-107975400D02*
X144246600Y-108000800D01*
X118160800Y-80423286D02*
X120120043Y-78464043D01*
X124768243Y-78464043D02*
X125755400Y-79451200D01*
X133273800Y-85521800D02*
X133273800Y-91744800D01*
X120120043Y-78464043D02*
X124768243Y-78464043D01*
X125755400Y-84429600D02*
X126720600Y-85394800D01*
X125755400Y-79451200D02*
X125755400Y-84429600D01*
X144272000Y-93624400D02*
X144272000Y-107975400D01*
X126720600Y-85394800D02*
X133146800Y-85394800D01*
X133273800Y-91744800D02*
X142392400Y-91744800D01*
X118160800Y-85979000D02*
X118160800Y-80423286D01*
%TO.N,SG_TEST*%
X113362200Y-92887800D02*
X106451400Y-92887800D01*
X117000000Y-88750000D02*
X117000000Y-89250000D01*
X117000000Y-89250000D02*
X113362200Y-92887800D01*
%TO.N,Net-(IC1-STEP)*%
X126212600Y-83794600D02*
X127076200Y-84658200D01*
X117221000Y-86004400D02*
X117754400Y-85471000D01*
X117754400Y-85471000D02*
X117754400Y-80264000D01*
X133299200Y-84658200D02*
X133832600Y-85191600D01*
X117754400Y-80264000D02*
X120148400Y-77870000D01*
X144957800Y-93345000D02*
X144957800Y-108407200D01*
X133832600Y-91160600D02*
X142773400Y-91160600D01*
X148090600Y-111540000D02*
X151000000Y-111540000D01*
X124961600Y-77870000D02*
X126212600Y-79121000D01*
X127076200Y-84658200D02*
X133299200Y-84658200D01*
X142773400Y-91160600D02*
X144957800Y-93345000D01*
X120148400Y-77870000D02*
X124961600Y-77870000D01*
X144957800Y-108407200D02*
X148090600Y-111540000D01*
X133832600Y-85191600D02*
X133832600Y-91160600D01*
X126212600Y-79121000D02*
X126212600Y-83794600D01*
%TO.N,LB2*%
X142649521Y-99649521D02*
X143350000Y-100350000D01*
X128750000Y-110250000D02*
X138750000Y-110250000D01*
X143350000Y-106625000D02*
X143225000Y-106750000D01*
X137775007Y-99649521D02*
X142649521Y-99649521D01*
X143250000Y-108250000D02*
X141250000Y-110250000D01*
X115750000Y-97250000D02*
X128750000Y-110250000D01*
X143350000Y-100500000D02*
X143350000Y-106625000D01*
X143350000Y-100350000D02*
X143350000Y-100500000D01*
X141250000Y-110250000D02*
X138750000Y-110250000D01*
%TO.N,HB1*%
X116000000Y-91600000D02*
X121350000Y-91600000D01*
X134250000Y-92250000D02*
X137500000Y-95500000D01*
X128000000Y-93250000D02*
X128250000Y-93000000D01*
X128250000Y-92250000D02*
X134250000Y-92250000D01*
X121350000Y-91600000D02*
X123000000Y-93250000D01*
X123000000Y-93250000D02*
X128000000Y-93250000D01*
X128250000Y-93000000D02*
X128250000Y-92250000D01*
%TO.N,SDO*%
X108250000Y-105320000D02*
X106500000Y-107070000D01*
X108250000Y-86750000D02*
X108250000Y-92362800D01*
X108250000Y-96750000D02*
X108250000Y-105320000D01*
%TO.N,A2*%
X137312400Y-83360929D02*
X146509071Y-92557600D01*
X148967000Y-92460000D02*
X148869400Y-92557600D01*
X119151400Y-76066600D02*
X127019000Y-76066600D01*
X118675200Y-76066600D02*
X119151400Y-76066600D01*
X115112800Y-79771800D02*
X115112800Y-79629000D01*
X137312400Y-82900000D02*
X137312400Y-83360929D01*
X115112800Y-79629000D02*
X118675200Y-76066600D01*
X146509071Y-92557600D02*
X148869400Y-92557600D01*
X151000000Y-92460000D02*
X148967000Y-92460000D01*
X127019000Y-76066600D02*
X127939800Y-76987400D01*
%TO.N,SCK*%
X110012200Y-88015800D02*
X110012200Y-91428264D01*
X110012200Y-91428264D02*
X109815621Y-91624843D01*
X110250000Y-87778000D02*
X110012200Y-88015800D01*
%TO.N,B2*%
X130250000Y-100250000D02*
X130500000Y-100250000D01*
X123500000Y-95250000D02*
X123500000Y-96250000D01*
X121500000Y-93250000D02*
X123500000Y-95250000D01*
X126000000Y-96400000D02*
X129150000Y-96400000D01*
X143075000Y-99100000D02*
X143225000Y-99250000D01*
X123650000Y-96400000D02*
X126000000Y-96400000D01*
X130250000Y-100250000D02*
X128750000Y-100250000D01*
X137750000Y-99000000D02*
X137850000Y-99100000D01*
X130500000Y-100250000D02*
X131750000Y-99000000D01*
X137850000Y-99100000D02*
X143075000Y-99100000D01*
X123500000Y-96250000D02*
X123650000Y-96400000D01*
X130250000Y-97500000D02*
X130250000Y-100250000D01*
X116000000Y-93250000D02*
X121500000Y-93250000D01*
X129150000Y-96400000D02*
X130250000Y-97500000D01*
%TO.N,CSN*%
X109487200Y-88728000D02*
X109487200Y-91041873D01*
X109487200Y-91041873D02*
X109300000Y-91229073D01*
%TO.N,B1*%
X121199997Y-94050003D02*
X121250000Y-94000000D01*
X116000000Y-94050003D02*
X121199997Y-94050003D01*
%TO.N,HA2*%
X129362200Y-82270600D02*
X131216400Y-82270600D01*
X115951000Y-79756000D02*
X119075200Y-76631800D01*
X126695200Y-76733400D02*
X128025600Y-78063800D01*
X119253000Y-76631800D02*
X119354600Y-76733400D01*
X115951000Y-79771800D02*
X115951000Y-79756000D01*
X119075200Y-76631800D02*
X119253000Y-76631800D01*
X131216400Y-82270600D02*
X133756400Y-79730600D01*
X128025600Y-78063800D02*
X128025600Y-82042000D01*
X119354600Y-76733400D02*
X126695200Y-76733400D01*
%TO.N,HA1*%
X127025400Y-78333600D02*
X126161800Y-77470000D01*
X137337800Y-85039200D02*
X135864600Y-83566000D01*
X127050800Y-83185000D02*
X127025400Y-83159600D01*
X133629400Y-83566000D02*
X133131000Y-84064400D01*
X127025400Y-83159600D02*
X127025400Y-78333600D01*
X135864600Y-83566000D02*
X135102600Y-83566000D01*
X127930200Y-84064400D02*
X127050800Y-83185000D01*
X119634000Y-77470000D02*
X117043200Y-80060800D01*
X126161800Y-77470000D02*
X119634000Y-77470000D01*
X133131000Y-84064400D02*
X127930200Y-84064400D01*
X137439400Y-85140800D02*
X137337800Y-85039200D01*
X137439400Y-87579200D02*
X137439400Y-85140800D01*
%TO.N,LB1*%
X141250000Y-109500000D02*
X129257537Y-109500000D01*
X143750000Y-93668086D02*
X143750000Y-107000000D01*
X137500000Y-93000000D02*
X143081914Y-93000000D01*
X116000000Y-96242463D02*
X116000000Y-94850006D01*
X129257537Y-109500000D02*
X116000000Y-96242463D01*
X143081914Y-93000000D02*
X143750000Y-93668086D01*
X143750000Y-107000000D02*
X141250000Y-109500000D01*
%TD*%
M02*
