%TF.GenerationSoftware,KiCad,Pcbnew,8.0.5*%
%TF.CreationDate,2024-10-31T12:59:41-07:00*%
%TF.ProjectId,team6_pcb,7465616d-365f-4706-9362-2e6b69636164,rev?*%
%TF.SameCoordinates,Original*%
%TF.FileFunction,Copper,L1,Top*%
%TF.FilePolarity,Positive*%
%FSLAX46Y46*%
G04 Gerber Fmt 4.6, Leading zero omitted, Abs format (unit mm)*
G04 Created by KiCad (PCBNEW 8.0.5) date 2024-10-31 12:59:41*
%MOMM*%
%LPD*%
G01*
G04 APERTURE LIST*
G04 Aperture macros list*
%AMRoundRect*
0 Rectangle with rounded corners*
0 $1 Rounding radius*
0 $2 $3 $4 $5 $6 $7 $8 $9 X,Y pos of 4 corners*
0 Add a 4 corners polygon primitive as box body*
4,1,4,$2,$3,$4,$5,$6,$7,$8,$9,$2,$3,0*
0 Add four circle primitives for the rounded corners*
1,1,$1+$1,$2,$3*
1,1,$1+$1,$4,$5*
1,1,$1+$1,$6,$7*
1,1,$1+$1,$8,$9*
0 Add four rect primitives between the rounded corners*
20,1,$1+$1,$2,$3,$4,$5,0*
20,1,$1+$1,$4,$5,$6,$7,0*
20,1,$1+$1,$6,$7,$8,$9,0*
20,1,$1+$1,$8,$9,$2,$3,0*%
G04 Aperture macros list end*
%TA.AperFunction,SMDPad,CuDef*%
%ADD10RoundRect,0.135000X0.185000X-0.135000X0.185000X0.135000X-0.185000X0.135000X-0.185000X-0.135000X0*%
%TD*%
%TA.AperFunction,ComponentPad*%
%ADD11RoundRect,0.250000X1.550000X-0.750000X1.550000X0.750000X-1.550000X0.750000X-1.550000X-0.750000X0*%
%TD*%
%TA.AperFunction,ComponentPad*%
%ADD12O,3.600000X2.000000*%
%TD*%
%TA.AperFunction,SMDPad,CuDef*%
%ADD13RoundRect,0.250000X-0.325000X-0.650000X0.325000X-0.650000X0.325000X0.650000X-0.325000X0.650000X0*%
%TD*%
%TA.AperFunction,SMDPad,CuDef*%
%ADD14R,1.500000X0.600000*%
%TD*%
%TA.AperFunction,SMDPad,CuDef*%
%ADD15RoundRect,0.250000X-0.362500X-1.425000X0.362500X-1.425000X0.362500X1.425000X-0.362500X1.425000X0*%
%TD*%
%TA.AperFunction,ComponentPad*%
%ADD16R,1.700000X1.700000*%
%TD*%
%TA.AperFunction,ComponentPad*%
%ADD17O,1.700000X1.700000*%
%TD*%
%TA.AperFunction,SMDPad,CuDef*%
%ADD18RoundRect,0.243750X0.456250X-0.243750X0.456250X0.243750X-0.456250X0.243750X-0.456250X-0.243750X0*%
%TD*%
%TA.AperFunction,SMDPad,CuDef*%
%ADD19RoundRect,0.250000X0.650000X-0.325000X0.650000X0.325000X-0.650000X0.325000X-0.650000X-0.325000X0*%
%TD*%
%TA.AperFunction,SMDPad,CuDef*%
%ADD20RoundRect,0.140000X-0.170000X0.140000X-0.170000X-0.140000X0.170000X-0.140000X0.170000X0.140000X0*%
%TD*%
%TA.AperFunction,SMDPad,CuDef*%
%ADD21RoundRect,0.200000X0.275000X-0.200000X0.275000X0.200000X-0.275000X0.200000X-0.275000X-0.200000X0*%
%TD*%
%TA.AperFunction,SMDPad,CuDef*%
%ADD22RoundRect,0.140000X0.140000X0.170000X-0.140000X0.170000X-0.140000X-0.170000X0.140000X-0.170000X0*%
%TD*%
%TA.AperFunction,SMDPad,CuDef*%
%ADD23RoundRect,0.225000X-0.250000X0.225000X-0.250000X-0.225000X0.250000X-0.225000X0.250000X0.225000X0*%
%TD*%
%TA.AperFunction,SMDPad,CuDef*%
%ADD24RoundRect,0.250000X-0.650000X0.325000X-0.650000X-0.325000X0.650000X-0.325000X0.650000X0.325000X0*%
%TD*%
%TA.AperFunction,SMDPad,CuDef*%
%ADD25RoundRect,0.200000X-0.275000X0.200000X-0.275000X-0.200000X0.275000X-0.200000X0.275000X0.200000X0*%
%TD*%
%TA.AperFunction,SMDPad,CuDef*%
%ADD26RoundRect,0.062500X-0.062500X0.375000X-0.062500X-0.375000X0.062500X-0.375000X0.062500X0.375000X0*%
%TD*%
%TA.AperFunction,SMDPad,CuDef*%
%ADD27RoundRect,0.062500X-0.375000X0.062500X-0.375000X-0.062500X0.375000X-0.062500X0.375000X0.062500X0*%
%TD*%
%TA.AperFunction,HeatsinkPad*%
%ADD28C,0.500000*%
%TD*%
%TA.AperFunction,HeatsinkPad*%
%ADD29R,3.300000X3.300000*%
%TD*%
%TA.AperFunction,SMDPad,CuDef*%
%ADD30RoundRect,0.250000X0.362500X1.425000X-0.362500X1.425000X-0.362500X-1.425000X0.362500X-1.425000X0*%
%TD*%
%TA.AperFunction,ViaPad*%
%ADD31C,0.450000*%
%TD*%
%TA.AperFunction,Conductor*%
%ADD32C,0.200000*%
%TD*%
%TA.AperFunction,Conductor*%
%ADD33C,0.254000*%
%TD*%
G04 APERTURE END LIST*
D10*
%TO.P,R3,1,1*%
%TO.N,VCC_IO*%
X109781250Y-114457500D03*
%TO.P,R3,2,2*%
%TO.N,Net-(D1-A)*%
X109781250Y-113437500D03*
%TD*%
D11*
%TO.P,P9,1,Pin_1*%
%TO.N,VM*%
X143000000Y-85000000D03*
D12*
%TO.P,P9,2,Pin_2*%
%TO.N,GND*%
X143000000Y-80000000D03*
%TD*%
D13*
%TO.P,C8,1,1*%
%TO.N,GND*%
X122525000Y-99000000D03*
%TO.P,C8,2,2*%
%TO.N,VM*%
X125475000Y-99000000D03*
%TD*%
D14*
%TO.P,Q3,1,S*%
%TO.N,VM*%
X135700000Y-104905000D03*
%TO.P,Q3,2,G1*%
%TO.N,HB2*%
X135700000Y-103635000D03*
%TO.P,Q3,3,S2*%
%TO.N,SRB*%
X135700000Y-102365000D03*
%TO.P,Q3,4,G2*%
%TO.N,LB2*%
X135700000Y-101095000D03*
%TO.P,Q3,5,D2_1*%
%TO.N,B2*%
X130300000Y-101095000D03*
%TO.P,Q3,6,D2_2*%
X130300000Y-102365000D03*
%TO.P,Q3,7,D1_1*%
X130300000Y-103635000D03*
%TO.P,Q3,8,D1_2*%
X130300000Y-104905000D03*
%TD*%
D15*
%TO.P,R5,1,1*%
%TO.N,SRB*%
X113162500Y-102250000D03*
%TO.P,R5,2,2*%
%TO.N,GND*%
X119087500Y-102250000D03*
%TD*%
D16*
%TO.P,P8,1,Pin_1*%
%TO.N,VCC_IO*%
X106437500Y-78000000D03*
D17*
%TO.P,P8,2,Pin_2*%
%TO.N,GND*%
X106437500Y-80540000D03*
%TD*%
D14*
%TO.P,Q4,1,S*%
%TO.N,VM*%
X135700000Y-96905000D03*
%TO.P,Q4,2,G1*%
%TO.N,HB1*%
X135700000Y-95635000D03*
%TO.P,Q4,3,S2*%
%TO.N,SRB*%
X135700000Y-94365000D03*
%TO.P,Q4,4,G2*%
%TO.N,LB1*%
X135700000Y-93095000D03*
%TO.P,Q4,5,D2_1*%
%TO.N,B1*%
X130300000Y-93095000D03*
%TO.P,Q4,6,D2_2*%
X130300000Y-94365000D03*
%TO.P,Q4,7,D1_1*%
X130300000Y-95635000D03*
%TO.P,Q4,8,D1_2*%
X130300000Y-96905000D03*
%TD*%
%TO.P,Q1,1,S*%
%TO.N,VM*%
X135700000Y-80905000D03*
%TO.P,Q1,2,G1*%
%TO.N,HA2*%
X135700000Y-79635000D03*
%TO.P,Q1,3,S2*%
%TO.N,SRA*%
X135700000Y-78365000D03*
%TO.P,Q1,4,G2*%
%TO.N,LA2*%
X135700000Y-77095000D03*
%TO.P,Q1,5,D2_1*%
%TO.N,A2*%
X130300000Y-77095000D03*
%TO.P,Q1,6,D2_2*%
X130300000Y-78365000D03*
%TO.P,Q1,7,D1_1*%
X130300000Y-79635000D03*
%TO.P,Q1,8,D1_2*%
X130300000Y-80905000D03*
%TD*%
D16*
%TO.P,P2,1,Pin_1*%
%TO.N,Net-(IC1-DIR)*%
X151000000Y-109000000D03*
D17*
%TO.P,P2,2,Pin_2*%
%TO.N,Net-(IC1-STEP)*%
X151000000Y-111540000D03*
%TD*%
D18*
%TO.P,D1,1,K*%
%TO.N,GND*%
X106781250Y-115375000D03*
%TO.P,D1,2,A*%
%TO.N,Net-(D1-A)*%
X106781250Y-113500000D03*
%TD*%
D19*
%TO.P,C6,1,1*%
%TO.N,GND*%
X126000000Y-94475000D03*
%TO.P,C6,2,2*%
%TO.N,VM*%
X126000000Y-91525000D03*
%TD*%
D20*
%TO.P,C2,1,1*%
%TO.N,GND*%
X109474000Y-82730400D03*
%TO.P,C2,2,2*%
%TO.N,Net-(IC1-5V_OUT)*%
X109474000Y-83690400D03*
%TD*%
D16*
%TO.P,P3,1,Pin_1*%
%TO.N,SG_TEST*%
X106451400Y-92887800D03*
D17*
%TO.P,P3,2,Pin_2*%
%TO.N,CLK16*%
X106451400Y-90347800D03*
%TO.P,P3,3,Pin_3*%
%TO.N,DRV_EN*%
X106451400Y-87807800D03*
%TO.P,P3,4,Pin_4*%
%TO.N,GND*%
X106451400Y-85267800D03*
%TD*%
D20*
%TO.P,C4,1,1*%
%TO.N,GND*%
X121437500Y-85040000D03*
%TO.P,C4,2,2*%
%TO.N,VM*%
X121437500Y-86000000D03*
%TD*%
D21*
%TO.P,R1,1,1*%
%TO.N,Net-(IC1-SRA)*%
X111683800Y-77152000D03*
%TO.P,R1,2,2*%
%TO.N,SRA*%
X111683800Y-75502000D03*
%TD*%
D16*
%TO.P,P10,1,Pin_1*%
%TO.N,A2*%
X151000000Y-92460000D03*
D17*
%TO.P,P10,2,Pin_2*%
%TO.N,A1*%
X151000000Y-95000000D03*
%TO.P,P10,3,Pin_3*%
%TO.N,B1*%
X151000000Y-97540000D03*
%TO.P,P10,4,Pin_4*%
%TO.N,B2*%
X151000000Y-100080000D03*
%TD*%
D16*
%TO.P,P5,1,Pin_1*%
%TO.N,GND*%
X151000000Y-116000000D03*
%TD*%
D22*
%TO.P,C3,1,1*%
%TO.N,GND*%
X119480000Y-83000000D03*
%TO.P,C3,2,2*%
%TO.N,VCC_IO*%
X118520000Y-83000000D03*
%TD*%
D23*
%TO.P,C1,1,1*%
%TO.N,VM*%
X121437500Y-89450000D03*
%TO.P,C1,2,2*%
%TO.N,Net-(IC1-VHS)*%
X121437500Y-91000000D03*
%TD*%
D13*
%TO.P,C7,1,1*%
%TO.N,GND*%
X122525000Y-103000000D03*
%TO.P,C7,2,2*%
%TO.N,VM*%
X125475000Y-103000000D03*
%TD*%
D16*
%TO.P,P4,1,Pin_1*%
%TO.N,GND*%
X151000000Y-104000000D03*
%TD*%
D24*
%TO.P,C5,1,1*%
%TO.N,GND*%
X126000000Y-84525000D03*
%TO.P,C5,2,2*%
%TO.N,VM*%
X126000000Y-87475000D03*
%TD*%
D16*
%TO.P,P1,1,Pin_1*%
%TO.N,CSN*%
X106500000Y-99450000D03*
D17*
%TO.P,P1,2,Pin_2*%
%TO.N,SCK*%
X106500000Y-101990000D03*
%TO.P,P1,3,Pin_3*%
%TO.N,SDI*%
X106500000Y-104530000D03*
%TO.P,P1,4,Pin_4*%
%TO.N,SDO*%
X106500000Y-107070000D03*
%TD*%
D25*
%TO.P,R2,1,1*%
%TO.N,Net-(IC1-SRB)*%
X113000000Y-97175000D03*
%TO.P,R2,2,2*%
%TO.N,SRB*%
X113000000Y-98825000D03*
%TD*%
D26*
%TO.P,IC1,1,GND_1*%
%TO.N,GND*%
X115229200Y-85565500D03*
%TO.P,IC1,2,HA1*%
%TO.N,HA1*%
X114729200Y-85565500D03*
%TO.P,IC1,3,HA2*%
%TO.N,HA2*%
X114229200Y-85565500D03*
%TO.P,IC1,4,BMA2*%
%TO.N,A2*%
X113729200Y-85565500D03*
%TO.P,IC1,5,BMA1*%
%TO.N,A1*%
X113229200Y-85565500D03*
%TO.P,IC1,6,LA1*%
%TO.N,LA1*%
X112729200Y-85565500D03*
%TO.P,IC1,7,LA2*%
%TO.N,LA2*%
X112229200Y-85565500D03*
%TO.P,IC1,8,SRA*%
%TO.N,Net-(IC1-SRA)*%
X111729200Y-85565500D03*
D27*
%TO.P,IC1,9,5V_OUT*%
%TO.N,Net-(IC1-5V_OUT)*%
X111041700Y-86253000D03*
%TO.P,IC1,10,SDO*%
%TO.N,SDO*%
X111041700Y-86753000D03*
%TO.P,IC1,11,SDI*%
%TO.N,SDI*%
X111041700Y-87253000D03*
%TO.P,IC1,12,SCK*%
%TO.N,SCK*%
X111041700Y-87753000D03*
%TO.P,IC1,13,GND_2*%
%TO.N,GND*%
X111041700Y-88253000D03*
%TO.P,IC1,14,~{CS}*%
%TO.N,CSN*%
X111041700Y-88753000D03*
%TO.P,IC1,15,~{EN}*%
%TO.N,DRV_EN*%
X111041700Y-89253000D03*
%TO.P,IC1,16,CLK*%
%TO.N,CLK16*%
X111041700Y-89753000D03*
D26*
%TO.P,IC1,17,SRB*%
%TO.N,Net-(IC1-SRB)*%
X111729200Y-90440500D03*
%TO.P,IC1,18,LB2*%
%TO.N,LB2*%
X112229200Y-90440500D03*
%TO.P,IC1,19,LB1*%
%TO.N,LB1*%
X112729200Y-90440500D03*
%TO.P,IC1,20,BMB1*%
%TO.N,B1*%
X113229200Y-90440500D03*
%TO.P,IC1,21,BMB2*%
%TO.N,B2*%
X113729200Y-90440500D03*
%TO.P,IC1,22,HB2*%
%TO.N,HB2*%
X114229200Y-90440500D03*
%TO.P,IC1,23,HB1*%
%TO.N,HB1*%
X114729200Y-90440500D03*
%TO.P,IC1,24,VHS*%
%TO.N,Net-(IC1-VHS)*%
X115229200Y-90440500D03*
D27*
%TO.P,IC1,25,VS*%
%TO.N,VM*%
X115916700Y-89753000D03*
%TO.P,IC1,26,TST_ANA*%
%TO.N,unconnected-(IC1-TST_ANA-Pad26)*%
X115916700Y-89253000D03*
%TO.P,IC1,27,SG_TST*%
%TO.N,SG_TEST*%
X115916700Y-88753000D03*
%TO.P,IC1,28,GNDP*%
%TO.N,GND*%
X115916700Y-88253000D03*
%TO.P,IC1,29,VCC_IO*%
%TO.N,VCC_IO*%
X115916700Y-87753000D03*
%TO.P,IC1,30,DIR*%
%TO.N,Net-(IC1-DIR)*%
X115916700Y-87253000D03*
%TO.P,IC1,31,STEP*%
%TO.N,Net-(IC1-STEP)*%
X115916700Y-86753000D03*
%TO.P,IC1,32,TST_MODE*%
%TO.N,GND*%
X115916700Y-86253000D03*
D28*
%TO.P,IC1,33,GND_PAD*%
X114479200Y-87003000D03*
X113479200Y-87003000D03*
X112479200Y-87003000D03*
X114479200Y-88003000D03*
X113479200Y-88003000D03*
D29*
X113479200Y-88003000D03*
D28*
X112479200Y-88003000D03*
X114479200Y-89003000D03*
X113479200Y-89003000D03*
X112479200Y-89003000D03*
%TD*%
D14*
%TO.P,Q2,1,S*%
%TO.N,VM*%
X135700000Y-88905000D03*
%TO.P,Q2,2,G1*%
%TO.N,HA1*%
X135700000Y-87635000D03*
%TO.P,Q2,3,S2*%
%TO.N,SRA*%
X135700000Y-86365000D03*
%TO.P,Q2,4,G2*%
%TO.N,LA1*%
X135700000Y-85095000D03*
%TO.P,Q2,5,D2_1*%
%TO.N,A1*%
X130300000Y-85095000D03*
%TO.P,Q2,6,D2_2*%
X130300000Y-86365000D03*
%TO.P,Q2,7,D1_1*%
X130300000Y-87635000D03*
%TO.P,Q2,8,D1_2*%
X130300000Y-88905000D03*
%TD*%
D30*
%TO.P,R4,1,1*%
%TO.N,SRA*%
X122962500Y-74750000D03*
%TO.P,R4,2,2*%
%TO.N,GND*%
X117037500Y-74750000D03*
%TD*%
D31*
%TO.N,GND*%
X107281250Y-116437500D03*
X120250000Y-82250000D03*
X121750000Y-84250000D03*
X124750000Y-84250000D03*
X121500000Y-98250000D03*
X123000000Y-101500000D03*
X119750000Y-104250000D03*
X121000000Y-84250000D03*
X116000000Y-74500000D03*
X109750000Y-82000000D03*
X122500000Y-101750000D03*
X120250000Y-102750000D03*
X109250000Y-82000000D03*
X120250000Y-103500000D03*
X123250000Y-102000000D03*
X121500000Y-99000000D03*
X115750000Y-73000000D03*
X123500000Y-102500000D03*
X124750000Y-85000000D03*
X122750000Y-97750000D03*
X122000000Y-97750000D03*
X118500000Y-104250000D03*
X115750000Y-74000000D03*
X124750000Y-94000000D03*
X118000000Y-102750000D03*
X118000000Y-103500000D03*
X119500000Y-82250000D03*
X116000000Y-73500000D03*
X124750000Y-83500000D03*
X127250000Y-95250000D03*
X106281250Y-116437500D03*
X124750000Y-95250000D03*
X121500000Y-99750000D03*
X120250000Y-83000000D03*
X127250000Y-94000000D03*
%TO.N,VM*%
X121000000Y-88500000D03*
X135000000Y-106000000D03*
X137000000Y-82000000D03*
X135000000Y-90000000D03*
X136000000Y-98000000D03*
X137000000Y-105000000D03*
X124500000Y-87000000D03*
X127000000Y-104000000D03*
X127000000Y-102000000D03*
X127500000Y-88000000D03*
X122000000Y-87000000D03*
X117250000Y-90000000D03*
X126500000Y-88500000D03*
X126000000Y-97500000D03*
X126500000Y-90500000D03*
X137000000Y-89000000D03*
X121000000Y-87000000D03*
X121500000Y-88000000D03*
X136000000Y-90000000D03*
X127000000Y-100000000D03*
X127500000Y-92000000D03*
X137500000Y-97500000D03*
X137000000Y-97000000D03*
X137000000Y-106000000D03*
X127000000Y-103000000D03*
X125000000Y-97500000D03*
X127000000Y-98000000D03*
X136000000Y-106000000D03*
X122000000Y-88500000D03*
X137000000Y-81000000D03*
X124500000Y-92000000D03*
X135000000Y-82000000D03*
X125500000Y-90500000D03*
X137000000Y-98000000D03*
X137500000Y-105500000D03*
X127500000Y-91000000D03*
X127000000Y-99000000D03*
X135000000Y-98000000D03*
X126000000Y-104500000D03*
X125000000Y-104500000D03*
X127500000Y-87000000D03*
X124500000Y-88000000D03*
X125500000Y-101500000D03*
X124500000Y-91000000D03*
X125500000Y-100500000D03*
X137000000Y-90000000D03*
X125500000Y-88500000D03*
X137500000Y-89500000D03*
X137500000Y-81500000D03*
X136000000Y-82000000D03*
%TO.N,VCC_IO*%
X116535200Y-81508600D03*
X123000000Y-92000000D03*
X110781250Y-114437500D03*
X118000000Y-87750000D03*
X115250000Y-95750000D03*
%TO.N,HB2*%
X137250000Y-103750000D03*
X116000000Y-92400003D03*
%TO.N,A1*%
X130000000Y-90250000D03*
X114084465Y-79771800D03*
X147500000Y-95000000D03*
X128320800Y-83464400D03*
X130000000Y-91725000D03*
%TO.N,SDI*%
X108776098Y-91981063D03*
X108775000Y-87278000D03*
X108775000Y-96250000D03*
X108775000Y-103000000D03*
%TO.N,LA1*%
X134467600Y-85115400D03*
X113004600Y-79771800D03*
%TO.N,Net-(IC1-DIR)*%
X144246600Y-108000800D03*
X118160800Y-85979000D03*
%TO.N,SG_TEST*%
X117000000Y-88750000D03*
%TO.N,Net-(IC1-STEP)*%
X117221000Y-86004400D03*
%TO.N,LB2*%
X137775007Y-99649521D03*
X115750000Y-97250000D03*
X143225000Y-106750000D03*
X143250000Y-108250000D03*
%TO.N,HB1*%
X116000000Y-91600000D03*
X137500000Y-95500000D03*
%TO.N,SDO*%
X108250000Y-92362800D03*
X108250000Y-96750000D03*
X108250000Y-86750000D03*
%TO.N,A2*%
X137312400Y-82900000D03*
X127939800Y-76987400D03*
X115112800Y-79771800D03*
%TO.N,SCK*%
X109815621Y-91624843D03*
X110250000Y-87778000D03*
%TO.N,B2*%
X137750000Y-99000000D03*
X116000000Y-93250000D03*
X131750000Y-99000000D03*
X128750000Y-100250000D03*
X143225000Y-99250000D03*
%TO.N,CSN*%
X109487200Y-88728000D03*
X109300000Y-91229073D03*
%TO.N,B1*%
X116000000Y-94050003D03*
X121250000Y-94000000D03*
%TO.N,HA2*%
X133756400Y-79730600D03*
X129362200Y-82270600D03*
X128025600Y-82042000D03*
X115951000Y-79771800D03*
%TO.N,HA1*%
X133629400Y-83566000D03*
X137439400Y-87579200D03*
X135102600Y-83566000D03*
X117043200Y-80060800D03*
%TO.N,LB1*%
X116000000Y-94850006D03*
X137500000Y-93000000D03*
%TD*%
D32*
%TO.N,Net-(IC1-5V_OUT)*%
X109474000Y-84685300D02*
X111041700Y-86253000D01*
X109474000Y-83690400D02*
X109474000Y-84685300D01*
%TO.N,GND*%
X111041700Y-88253000D02*
X112229200Y-88253000D01*
X114479200Y-87003000D02*
X115229200Y-86253000D01*
X115229200Y-86253000D02*
X115916700Y-86253000D01*
X115916700Y-88253000D02*
X114729200Y-88253000D01*
X112229200Y-88253000D02*
X112479200Y-88003000D01*
X115229200Y-86253000D02*
X115229200Y-85565500D01*
X114729200Y-88253000D02*
X114479200Y-88003000D01*
%TO.N,Net-(IC1-VHS)*%
X115788700Y-91000000D02*
X121437500Y-91000000D01*
X115229200Y-90440500D02*
X115788700Y-91000000D01*
%TO.N,VCC_IO*%
X109781250Y-114457500D02*
X110761250Y-114457500D01*
X120500000Y-92000000D02*
X123000000Y-92000000D01*
X118520000Y-85576200D02*
X118520000Y-83000000D01*
X115916700Y-87753000D02*
X117148800Y-87753000D01*
X117151800Y-87750000D02*
X117148800Y-87753000D01*
X115250000Y-95750000D02*
X116750000Y-95750000D01*
X118520000Y-83000000D02*
X117028600Y-81508600D01*
X110761250Y-114457500D02*
X110781250Y-114437500D01*
X116750000Y-95750000D02*
X120500000Y-92000000D01*
X118922800Y-85979000D02*
X118520000Y-85576200D01*
X117148800Y-87753000D02*
X118922800Y-85979000D01*
X118000000Y-87750000D02*
X117151800Y-87750000D01*
X117028600Y-81508600D02*
X116535200Y-81508600D01*
%TO.N,Net-(D1-A)*%
X109718750Y-113500000D02*
X109781250Y-113437500D01*
X106781250Y-113500000D02*
X109718750Y-113500000D01*
%TO.N,HB2*%
X135815000Y-103750000D02*
X135700000Y-103635000D01*
X137250000Y-103750000D02*
X135815000Y-103750000D01*
X115671131Y-92400003D02*
X116000000Y-92400003D01*
X114229200Y-90958072D02*
X115671131Y-92400003D01*
X114229200Y-90440500D02*
X114229200Y-90958072D01*
%TO.N,A1*%
X128879600Y-87655400D02*
X128879600Y-88925400D01*
X113229200Y-80627065D02*
X114084465Y-79771800D01*
X128778000Y-86258400D02*
X128778000Y-87553800D01*
X128798400Y-85095000D02*
X130300000Y-85095000D01*
X128879600Y-88925400D02*
X128900000Y-88905000D01*
X128778000Y-85115400D02*
X128778000Y-86258400D01*
X128859200Y-87635000D02*
X130300000Y-87635000D01*
X128884600Y-86365000D02*
X130300000Y-86365000D01*
X113229200Y-85565500D02*
X113229200Y-80627065D01*
X128320800Y-83464400D02*
X128320800Y-84658200D01*
X128320800Y-84658200D02*
X128778000Y-85115400D01*
X128879600Y-88925400D02*
X128879600Y-89129600D01*
X128879600Y-89129600D02*
X130000000Y-90250000D01*
X130000000Y-91725000D02*
X144159314Y-91725000D01*
X144159314Y-91725000D02*
X147434314Y-95000000D01*
X128900000Y-88905000D02*
X130300000Y-88905000D01*
X147434314Y-95000000D02*
X147500000Y-95000000D01*
X128778000Y-85115400D02*
X128798400Y-85095000D01*
X128778000Y-86258400D02*
X128884600Y-86365000D01*
X128778000Y-87553800D02*
X128859200Y-87635000D01*
X128859200Y-87635000D02*
X128879600Y-87655400D01*
%TO.N,SDI*%
X108030000Y-103000000D02*
X106500000Y-104530000D01*
X108776098Y-96251098D02*
X108775000Y-96250000D01*
X108775000Y-103000000D02*
X108030000Y-103000000D01*
X108800000Y-87253000D02*
X108775000Y-87278000D01*
X108776098Y-96353768D02*
X108776098Y-96251098D01*
X108776098Y-91981063D02*
X108776098Y-95039588D01*
X111041700Y-87253000D02*
X108800000Y-87253000D01*
X108776098Y-95039588D02*
X108776098Y-96353768D01*
%TO.N,LA1*%
X112729200Y-85565500D02*
X112729200Y-80047200D01*
X135679600Y-85115400D02*
X135700000Y-85095000D01*
X112729200Y-80047200D02*
X113004600Y-79771800D01*
X134467600Y-85115400D02*
X135679600Y-85115400D01*
%TO.N,Net-(IC1-DIR)*%
X115916700Y-87253000D02*
X116886800Y-87253000D01*
X116886800Y-87253000D02*
X118160800Y-85979000D01*
X145245800Y-109000000D02*
X151000000Y-109000000D01*
X144246600Y-108000800D02*
X145245800Y-109000000D01*
%TO.N,SG_TEST*%
X116997000Y-88753000D02*
X117000000Y-88750000D01*
X115916700Y-88753000D02*
X116997000Y-88753000D01*
%TO.N,CLK16*%
X111041700Y-89753000D02*
X107046200Y-89753000D01*
X107046200Y-89753000D02*
X106451400Y-90347800D01*
%TO.N,Net-(IC1-STEP)*%
X115916700Y-86753000D02*
X116472400Y-86753000D01*
X116472400Y-86753000D02*
X117221000Y-86004400D01*
%TO.N,Net-(IC1-SRB)*%
X111729200Y-90440500D02*
X110250000Y-91919700D01*
X110250000Y-95250000D02*
X112175000Y-97175000D01*
X112175000Y-97175000D02*
X113000000Y-97175000D01*
X110250000Y-91919700D02*
X110250000Y-95250000D01*
%TO.N,LB2*%
X112229200Y-90440500D02*
X112229200Y-93729200D01*
X143225000Y-106750000D02*
X143225000Y-108225000D01*
X112229200Y-93729200D02*
X115750000Y-97250000D01*
X136329528Y-101095000D02*
X137775007Y-99649521D01*
X135700000Y-101095000D02*
X136329528Y-101095000D01*
X143225000Y-108225000D02*
X143250000Y-108250000D01*
%TO.N,HB1*%
X137500000Y-95500000D02*
X135835000Y-95500000D01*
X114729200Y-90892386D02*
X115436814Y-91600000D01*
X115436814Y-91600000D02*
X116000000Y-91600000D01*
X114729200Y-90440500D02*
X114729200Y-90892386D01*
X135835000Y-95500000D02*
X135700000Y-95635000D01*
%TO.N,SDO*%
X108253000Y-86753000D02*
X108250000Y-86750000D01*
X108250000Y-95000000D02*
X108250000Y-96750000D01*
X108250000Y-92362800D02*
X108250000Y-95000000D01*
X111041700Y-86753000D02*
X108253000Y-86753000D01*
%TO.N,LA2*%
X112217200Y-85553500D02*
X112229200Y-85565500D01*
X125000000Y-76000000D02*
X125000000Y-79171800D01*
X125000000Y-79171800D02*
X112292000Y-79171800D01*
X112217200Y-79246600D02*
X112217200Y-85553500D01*
X135700000Y-76700000D02*
X135000000Y-76000000D01*
X112292000Y-79171800D02*
X112217200Y-79246600D01*
X135700000Y-77095000D02*
X135700000Y-76700000D01*
X135000000Y-76000000D02*
X125000000Y-76000000D01*
%TO.N,A2*%
X132213000Y-80905000D02*
X134137400Y-82829400D01*
X137241800Y-82829400D02*
X137312400Y-82900000D01*
X129165000Y-79635000D02*
X129165000Y-80854200D01*
X129159000Y-79629000D02*
X129165000Y-79635000D01*
X129178400Y-78365000D02*
X130300000Y-78365000D01*
X113729200Y-81155400D02*
X115112800Y-79771800D01*
X128047400Y-77095000D02*
X129184400Y-77095000D01*
X129184400Y-78359000D02*
X129178400Y-78365000D01*
X129165000Y-80854200D02*
X129215800Y-80905000D01*
X129178400Y-78365000D02*
X129178400Y-79609600D01*
X129215800Y-80905000D02*
X130300000Y-80905000D01*
X129184400Y-77095000D02*
X130300000Y-77095000D01*
X113729200Y-85565500D02*
X113729200Y-81155400D01*
X129165000Y-79635000D02*
X130300000Y-79635000D01*
X129184400Y-77095000D02*
X129184400Y-78359000D01*
X130300000Y-80905000D02*
X132213000Y-80905000D01*
X127939800Y-76987400D02*
X128047400Y-77095000D01*
X129178400Y-79609600D02*
X129159000Y-79629000D01*
X134137400Y-82829400D02*
X137241800Y-82829400D01*
%TO.N,SCK*%
X110275000Y-87753000D02*
X110250000Y-87778000D01*
X109815621Y-91624843D02*
X109815621Y-98674379D01*
X109815621Y-98674379D02*
X106500000Y-101990000D01*
X111041700Y-87753000D02*
X110275000Y-87753000D01*
%TO.N,B2*%
X144055000Y-100080000D02*
X151000000Y-100080000D01*
X130185000Y-102250000D02*
X130300000Y-102365000D01*
X128750000Y-100250000D02*
X128750000Y-101000000D01*
X128750000Y-101000000D02*
X129250000Y-101000000D01*
X143225000Y-99250000D02*
X144055000Y-100080000D01*
X128750000Y-102250000D02*
X128750000Y-103500000D01*
X128750000Y-101000000D02*
X128750000Y-102250000D01*
X128750000Y-103500000D02*
X128885000Y-103635000D01*
X113729200Y-91023758D02*
X115955442Y-93250000D01*
X128885000Y-103635000D02*
X128750000Y-103770000D01*
X129345000Y-101095000D02*
X130300000Y-101095000D01*
X128750000Y-102250000D02*
X130185000Y-102250000D01*
X115955442Y-93250000D02*
X116000000Y-93250000D01*
X128750000Y-103770000D02*
X128750000Y-104750000D01*
X129250000Y-101000000D02*
X129345000Y-101095000D01*
X128750000Y-104750000D02*
X128905000Y-104905000D01*
X128905000Y-104905000D02*
X130300000Y-104905000D01*
X113729200Y-90440500D02*
X113729200Y-91023758D01*
X131750000Y-99000000D02*
X137750000Y-99000000D01*
X128885000Y-103635000D02*
X130300000Y-103635000D01*
%TO.N,Net-(IC1-SRA)*%
X111683800Y-85520100D02*
X111729200Y-85565500D01*
X111683800Y-77152000D02*
X111683800Y-85520100D01*
%TO.N,CSN*%
X109300000Y-91229073D02*
X109250000Y-91279073D01*
X109512200Y-88753000D02*
X109487200Y-88728000D01*
X109250000Y-91279073D02*
X109250000Y-91712502D01*
X109250000Y-91712502D02*
X109301098Y-91763600D01*
X109301098Y-96648902D02*
X106500000Y-99450000D01*
X111041700Y-88753000D02*
X109512200Y-88753000D01*
X109301098Y-91763600D02*
X109301098Y-96648902D01*
%TO.N,B1*%
X121250000Y-94000000D02*
X122000000Y-93250000D01*
X113229200Y-90440500D02*
X113229200Y-91327729D01*
X129000000Y-97000000D02*
X129095000Y-96905000D01*
X113229200Y-91327729D02*
X115951474Y-94050003D01*
X128500000Y-95750000D02*
X128500000Y-97000000D01*
X128500000Y-94500000D02*
X128500000Y-95750000D01*
X144000000Y-91000000D02*
X145250000Y-92250000D01*
X115951474Y-94050003D02*
X116000000Y-94050003D01*
X128500000Y-95750000D02*
X129000000Y-95750000D01*
X122000000Y-93250000D02*
X128500000Y-93250000D01*
X128500000Y-97000000D02*
X129000000Y-97000000D01*
X129095000Y-96905000D02*
X130300000Y-96905000D01*
X128500000Y-93250000D02*
X128655000Y-93095000D01*
X128750000Y-94500000D02*
X128885000Y-94365000D01*
X128500000Y-93250000D02*
X128500000Y-94500000D01*
X128655000Y-93095000D02*
X130300000Y-93095000D01*
X145710000Y-92250000D02*
X151000000Y-97540000D01*
X129000000Y-92750000D02*
X129000000Y-91000000D01*
X128500000Y-94500000D02*
X128750000Y-94500000D01*
X145250000Y-92250000D02*
X145710000Y-92250000D01*
X129000000Y-91000000D02*
X144000000Y-91000000D01*
X129115000Y-95635000D02*
X130300000Y-95635000D01*
X128655000Y-93095000D02*
X129000000Y-92750000D01*
X129000000Y-95750000D02*
X129115000Y-95635000D01*
X128885000Y-94365000D02*
X130300000Y-94365000D01*
%TO.N,HA2*%
X128025600Y-82042000D02*
X129133600Y-82042000D01*
X115951000Y-79782129D02*
X115951000Y-79771800D01*
X114229200Y-81503929D02*
X115951000Y-79782129D01*
X135604400Y-79730600D02*
X135700000Y-79635000D01*
X129133600Y-82042000D02*
X129362200Y-82270600D01*
X114229200Y-85565500D02*
X114229200Y-81503929D01*
X133756400Y-79730600D02*
X135604400Y-79730600D01*
%TO.N,HA1*%
X135700000Y-87635000D02*
X137383600Y-87635000D01*
X114729200Y-82374800D02*
X114729200Y-85565500D01*
X137383600Y-87635000D02*
X137439400Y-87579200D01*
X117043200Y-80060800D02*
X114729200Y-82374800D01*
X135102600Y-83566000D02*
X133629400Y-83566000D01*
%TO.N,LB1*%
X137405000Y-93095000D02*
X137500000Y-93000000D01*
X112729200Y-91627732D02*
X112729200Y-90440500D01*
X116000000Y-94850006D02*
X115951474Y-94850006D01*
X135700000Y-93095000D02*
X137405000Y-93095000D01*
X115951474Y-94850006D02*
X112729200Y-91627732D01*
%TO.N,DRV_EN*%
X107896600Y-89253000D02*
X106451400Y-87807800D01*
X111041700Y-89253000D02*
X107896600Y-89253000D01*
D33*
%TO.N,SRA*%
X122000000Y-77500000D02*
X122962500Y-76537500D01*
X113002000Y-75502000D02*
X115000000Y-77500000D01*
X122962500Y-76537500D02*
X122962500Y-74750000D01*
X115000000Y-77500000D02*
X122000000Y-77500000D01*
X111683800Y-75502000D02*
X113002000Y-75502000D01*
%TO.N,SRB*%
X113162500Y-102087500D02*
X113000000Y-101925000D01*
X113162500Y-102250000D02*
X113162500Y-102087500D01*
X113000000Y-102087500D02*
X113162500Y-102250000D01*
X113000000Y-98825000D02*
X113000000Y-102087500D01*
%TD*%
%TA.AperFunction,Conductor*%
%TO.N,VM*%
G36*
X137943039Y-104519685D02*
G01*
X137988794Y-104572489D01*
X138000000Y-104624000D01*
X138000000Y-106376000D01*
X137980315Y-106443039D01*
X137927511Y-106488794D01*
X137876000Y-106500000D01*
X134624000Y-106500000D01*
X134556961Y-106480315D01*
X134511206Y-106427511D01*
X134500000Y-106376000D01*
X134500000Y-104624000D01*
X134519685Y-104556961D01*
X134572489Y-104511206D01*
X134624000Y-104500000D01*
X137876000Y-104500000D01*
X137943039Y-104519685D01*
G37*
%TD.AperFunction*%
%TD*%
%TA.AperFunction,Conductor*%
%TO.N,GND*%
G36*
X117693039Y-72769685D02*
G01*
X117738794Y-72822489D01*
X117750000Y-72874000D01*
X117750000Y-74626000D01*
X117730315Y-74693039D01*
X117677511Y-74738794D01*
X117626000Y-74750000D01*
X115374000Y-74750000D01*
X115306961Y-74730315D01*
X115261206Y-74677511D01*
X115250000Y-74626000D01*
X115250000Y-72874000D01*
X115269685Y-72806961D01*
X115322489Y-72761206D01*
X115374000Y-72750000D01*
X117626000Y-72750000D01*
X117693039Y-72769685D01*
G37*
%TD.AperFunction*%
%TD*%
%TA.AperFunction,Conductor*%
%TO.N,VM*%
G36*
X137943039Y-96519685D02*
G01*
X137988794Y-96572489D01*
X138000000Y-96624000D01*
X138000000Y-98159320D01*
X137980315Y-98226359D01*
X137927511Y-98272114D01*
X137862118Y-98282540D01*
X137750005Y-98269909D01*
X137749996Y-98269909D01*
X137587544Y-98288212D01*
X137433225Y-98342210D01*
X137372298Y-98380494D01*
X137306326Y-98399500D01*
X134624000Y-98399500D01*
X134556961Y-98379815D01*
X134511206Y-98327011D01*
X134500000Y-98275500D01*
X134500000Y-96624000D01*
X134519685Y-96556961D01*
X134572489Y-96511206D01*
X134624000Y-96500000D01*
X137876000Y-96500000D01*
X137943039Y-96519685D01*
G37*
%TD.AperFunction*%
%TD*%
%TA.AperFunction,Conductor*%
%TO.N,SRA*%
G36*
X139750000Y-86876000D02*
G01*
X139730315Y-86943039D01*
X139677511Y-86988794D01*
X139626000Y-87000000D01*
X134874000Y-87000000D01*
X134806961Y-86980315D01*
X134761206Y-86927511D01*
X134750000Y-86876000D01*
X134750000Y-85874000D01*
X134769685Y-85806961D01*
X134822489Y-85761206D01*
X134874000Y-85750000D01*
X138000000Y-85750000D01*
X138000000Y-79000000D01*
X138000000Y-77750000D01*
X139750000Y-77750000D01*
X139750000Y-86876000D01*
G37*
%TD.AperFunction*%
%TD*%
%TA.AperFunction,Conductor*%
%TO.N,SRB*%
G36*
X139000000Y-103000000D02*
G01*
X134624000Y-103000000D01*
X134556961Y-102980315D01*
X134511206Y-102927511D01*
X134500000Y-102876000D01*
X134500000Y-101874000D01*
X134519685Y-101806961D01*
X134572489Y-101761206D01*
X134624000Y-101750000D01*
X138750000Y-101750000D01*
X139000000Y-101750000D01*
X139000000Y-103000000D01*
G37*
%TD.AperFunction*%
%TD*%
%TA.AperFunction,Conductor*%
%TO.N,VM*%
G36*
X137437539Y-80519685D02*
G01*
X137483294Y-80572489D01*
X137494500Y-80624000D01*
X137494500Y-82051670D01*
X137474815Y-82118709D01*
X137422011Y-82164464D01*
X137356618Y-82174890D01*
X137312405Y-82169909D01*
X137312396Y-82169909D01*
X137149942Y-82188212D01*
X137053554Y-82221941D01*
X137012599Y-82228900D01*
X134624000Y-82228900D01*
X134556961Y-82209215D01*
X134511206Y-82156411D01*
X134500000Y-82104900D01*
X134500000Y-80624000D01*
X134519685Y-80556961D01*
X134572489Y-80511206D01*
X134624000Y-80500000D01*
X137370500Y-80500000D01*
X137437539Y-80519685D01*
G37*
%TD.AperFunction*%
%TD*%
%TA.AperFunction,Conductor*%
%TO.N,SRB*%
G36*
X141191117Y-93269685D02*
G01*
X141236872Y-93322489D01*
X141248063Y-93375907D01*
X141001878Y-109377907D01*
X140981165Y-109444636D01*
X140927663Y-109489573D01*
X140877893Y-109500000D01*
X112374000Y-109500000D01*
X112306961Y-109480315D01*
X112261206Y-109427511D01*
X112250000Y-109376000D01*
X112250000Y-101624000D01*
X112269685Y-101556961D01*
X112322489Y-101511206D01*
X112374000Y-101500000D01*
X114626000Y-101500000D01*
X114693039Y-101519685D01*
X114738794Y-101572489D01*
X114750000Y-101624000D01*
X114750000Y-107000000D01*
X138750000Y-107000000D01*
X138750000Y-103000000D01*
X139000000Y-103000000D01*
X139000000Y-101750000D01*
X138750000Y-101750000D01*
X138750000Y-95000000D01*
X134874000Y-95000000D01*
X134806961Y-94980315D01*
X134761206Y-94927511D01*
X134750000Y-94876000D01*
X134750000Y-93874000D01*
X134769685Y-93806961D01*
X134822489Y-93761206D01*
X134874000Y-93750000D01*
X137750000Y-93750000D01*
X138723818Y-93263090D01*
X138779272Y-93250000D01*
X141124078Y-93250000D01*
X141191117Y-93269685D01*
G37*
%TD.AperFunction*%
%TD*%
%TA.AperFunction,Conductor*%
%TO.N,VM*%
G36*
X127943039Y-86519685D02*
G01*
X127988794Y-86572489D01*
X128000000Y-86624000D01*
X128000000Y-92376000D01*
X127980315Y-92443039D01*
X127927511Y-92488794D01*
X127876000Y-92500000D01*
X124124000Y-92500000D01*
X124056961Y-92480315D01*
X124011206Y-92427511D01*
X124000000Y-92376000D01*
X124000000Y-86624000D01*
X124019685Y-86556961D01*
X124072489Y-86511206D01*
X124124000Y-86500000D01*
X127876000Y-86500000D01*
X127943039Y-86519685D01*
G37*
%TD.AperFunction*%
%TD*%
%TA.AperFunction,Conductor*%
%TO.N,GND*%
G36*
X122443039Y-83769685D02*
G01*
X122488794Y-83822489D01*
X122500000Y-83874000D01*
X122500000Y-85376000D01*
X122480315Y-85443039D01*
X122427511Y-85488794D01*
X122376000Y-85500000D01*
X122204667Y-85500000D01*
X122137628Y-85480315D01*
X122116986Y-85463681D01*
X122003192Y-85349887D01*
X122003184Y-85349881D01*
X121863893Y-85267505D01*
X121863890Y-85267504D01*
X121708497Y-85222357D01*
X121708491Y-85222356D01*
X121672197Y-85219500D01*
X121672190Y-85219500D01*
X121202810Y-85219500D01*
X121202802Y-85219500D01*
X121166508Y-85222356D01*
X121166502Y-85222357D01*
X121011109Y-85267504D01*
X121011106Y-85267505D01*
X120871815Y-85349881D01*
X120871807Y-85349887D01*
X120758014Y-85463681D01*
X120696691Y-85497166D01*
X120670333Y-85500000D01*
X120624000Y-85500000D01*
X120556961Y-85480315D01*
X120511206Y-85427511D01*
X120500000Y-85376000D01*
X120500000Y-83750000D01*
X120750000Y-83750000D01*
X122376000Y-83750000D01*
X122443039Y-83769685D01*
G37*
%TD.AperFunction*%
%TD*%
%TA.AperFunction,Conductor*%
%TO.N,GND*%
G36*
X106071493Y-114443794D02*
G01*
X106119794Y-114459799D01*
X106173475Y-114477587D01*
X106275402Y-114488000D01*
X106275407Y-114488000D01*
X107287093Y-114488000D01*
X107287098Y-114488000D01*
X107389025Y-114477587D01*
X107476183Y-114448706D01*
X107491007Y-114443794D01*
X107530010Y-114437500D01*
X107907250Y-114437500D01*
X107974289Y-114457185D01*
X108020044Y-114509989D01*
X108031250Y-114561500D01*
X108031250Y-116813500D01*
X108011565Y-116880539D01*
X107958761Y-116926294D01*
X107907250Y-116937500D01*
X105905250Y-116937500D01*
X105838211Y-116917815D01*
X105792456Y-116865011D01*
X105781250Y-116813500D01*
X105781250Y-114561500D01*
X105800935Y-114494461D01*
X105853739Y-114448706D01*
X105905250Y-114437500D01*
X106032490Y-114437500D01*
X106071493Y-114443794D01*
G37*
%TD.AperFunction*%
%TD*%
%TA.AperFunction,Conductor*%
%TO.N,GND*%
G36*
X123047693Y-101054840D02*
G01*
X123076045Y-101076045D01*
X124148902Y-102148902D01*
X124182387Y-102210225D01*
X124177403Y-102279917D01*
X124135621Y-102335783D01*
X123336035Y-102935473D01*
X123270593Y-102959949D01*
X123202306Y-102945159D01*
X123173954Y-102923954D01*
X122101097Y-101851097D01*
X122067612Y-101789774D01*
X122072596Y-101720082D01*
X122114377Y-101664217D01*
X122913966Y-101064525D01*
X122979406Y-101040050D01*
X123047693Y-101054840D01*
G37*
%TD.AperFunction*%
%TD*%
%TA.AperFunction,Conductor*%
%TO.N,SRA*%
G36*
X139693039Y-73019685D02*
G01*
X139738794Y-73072489D01*
X139750000Y-73124000D01*
X139750000Y-77750000D01*
X138000000Y-77750000D01*
X138000000Y-79000000D01*
X134874000Y-79000000D01*
X134806961Y-78980315D01*
X134761206Y-78927511D01*
X134750000Y-78876000D01*
X134750000Y-77874000D01*
X134769685Y-77806961D01*
X134822489Y-77761206D01*
X134874000Y-77750000D01*
X136750000Y-77750000D01*
X137000000Y-76750000D01*
X137000000Y-75500000D01*
X122124000Y-75500000D01*
X122056961Y-75480315D01*
X122011206Y-75427511D01*
X122000000Y-75376000D01*
X122000000Y-73124000D01*
X122019685Y-73056961D01*
X122072489Y-73011206D01*
X122124000Y-73000000D01*
X139626000Y-73000000D01*
X139693039Y-73019685D01*
G37*
%TD.AperFunction*%
%TD*%
%TA.AperFunction,Conductor*%
%TO.N,VM*%
G36*
X127443039Y-97019685D02*
G01*
X127488794Y-97072489D01*
X127500000Y-97124000D01*
X127500000Y-104876000D01*
X127480315Y-104943039D01*
X127427511Y-104988794D01*
X127376000Y-105000000D01*
X124624000Y-105000000D01*
X124556961Y-104980315D01*
X124511206Y-104927511D01*
X124500000Y-104876000D01*
X124500000Y-102730334D01*
X124519685Y-102663295D01*
X124536262Y-102642710D01*
X124540429Y-102638538D01*
X124582211Y-102582672D01*
X124651032Y-102456568D01*
X124651032Y-102456564D01*
X124651034Y-102456562D01*
X124681613Y-102315987D01*
X124681613Y-102315984D01*
X124681615Y-102315976D01*
X124686599Y-102246284D01*
X124676335Y-102102773D01*
X124626053Y-101967964D01*
X124592568Y-101906641D01*
X124524732Y-101816024D01*
X124500316Y-101750560D01*
X124500000Y-101741714D01*
X124500000Y-97124000D01*
X124519685Y-97056961D01*
X124572489Y-97011206D01*
X124624000Y-97000000D01*
X127376000Y-97000000D01*
X127443039Y-97019685D01*
G37*
%TD.AperFunction*%
%TD*%
%TA.AperFunction,Conductor*%
%TO.N,VM*%
G36*
X137943039Y-88519685D02*
G01*
X137988794Y-88572489D01*
X138000000Y-88624000D01*
X138000000Y-90275500D01*
X137980315Y-90342539D01*
X137927511Y-90388294D01*
X137876000Y-90399500D01*
X134624000Y-90399500D01*
X134556961Y-90379815D01*
X134511206Y-90327011D01*
X134500000Y-90275500D01*
X134500000Y-88624000D01*
X134519685Y-88556961D01*
X134572489Y-88511206D01*
X134624000Y-88500000D01*
X137876000Y-88500000D01*
X137943039Y-88519685D01*
G37*
%TD.AperFunction*%
%TD*%
%TA.AperFunction,Conductor*%
%TO.N,GND*%
G36*
X110193039Y-81519685D02*
G01*
X110238794Y-81572489D01*
X110250000Y-81624000D01*
X110250000Y-82951233D01*
X110230315Y-83018272D01*
X110177511Y-83064027D01*
X110108353Y-83073971D01*
X110044797Y-83044946D01*
X110040301Y-83040759D01*
X110039684Y-83040281D01*
X109900393Y-82957905D01*
X109900390Y-82957904D01*
X109744997Y-82912757D01*
X109744991Y-82912756D01*
X109708697Y-82909900D01*
X109708690Y-82909900D01*
X109239310Y-82909900D01*
X109239302Y-82909900D01*
X109203008Y-82912756D01*
X109203002Y-82912757D01*
X109047609Y-82957904D01*
X109047608Y-82957904D01*
X108937120Y-83023246D01*
X108869396Y-83040428D01*
X108803134Y-83018268D01*
X108759371Y-82963801D01*
X108750000Y-82916513D01*
X108750000Y-81624000D01*
X108769685Y-81556961D01*
X108822489Y-81511206D01*
X108874000Y-81500000D01*
X110126000Y-81500000D01*
X110193039Y-81519685D01*
G37*
%TD.AperFunction*%
%TD*%
%TA.AperFunction,Conductor*%
%TO.N,VM*%
G36*
X117943039Y-89519685D02*
G01*
X117988794Y-89572489D01*
X118000000Y-89624000D01*
X118000000Y-90376000D01*
X117980315Y-90443039D01*
X117927511Y-90488794D01*
X117876000Y-90500000D01*
X115835744Y-90500000D01*
X115768705Y-90480315D01*
X115748063Y-90463681D01*
X115729847Y-90445465D01*
X115706619Y-90413238D01*
X115617790Y-90235580D01*
X115604699Y-90180126D01*
X115604699Y-90028819D01*
X115598699Y-89983243D01*
X115598699Y-89983240D01*
X115552050Y-89883201D01*
X115509029Y-89840180D01*
X115475544Y-89778857D01*
X115480528Y-89709165D01*
X115522400Y-89653232D01*
X115587864Y-89628815D01*
X115596685Y-89628499D01*
X116328378Y-89628499D01*
X116328380Y-89628499D01*
X116343572Y-89626499D01*
X116373960Y-89622499D01*
X116473999Y-89575850D01*
X116513530Y-89536319D01*
X116574853Y-89502834D01*
X116601211Y-89500000D01*
X117876000Y-89500000D01*
X117943039Y-89519685D01*
G37*
%TD.AperFunction*%
%TD*%
%TA.AperFunction,Conductor*%
%TO.N,GND*%
G36*
X127443039Y-83019685D02*
G01*
X127488794Y-83072489D01*
X127500000Y-83124000D01*
X127500000Y-85376000D01*
X127480315Y-85443039D01*
X127427511Y-85488794D01*
X127376000Y-85500000D01*
X124374000Y-85500000D01*
X124306961Y-85480315D01*
X124261206Y-85427511D01*
X124250000Y-85376000D01*
X124250000Y-83124000D01*
X124269685Y-83056961D01*
X124322489Y-83011206D01*
X124374000Y-83000000D01*
X127376000Y-83000000D01*
X127443039Y-83019685D01*
G37*
%TD.AperFunction*%
%TD*%
%TA.AperFunction,Conductor*%
%TO.N,VM*%
G36*
X121171118Y-85818005D02*
G01*
X121202810Y-85820500D01*
X121202818Y-85820500D01*
X121672182Y-85820500D01*
X121672190Y-85820500D01*
X121698845Y-85818402D01*
X121767222Y-85832766D01*
X121791437Y-85849772D01*
X121799785Y-85857271D01*
X121799797Y-85857281D01*
X121799805Y-85857288D01*
X121820447Y-85873922D01*
X121864331Y-85905567D01*
X121995208Y-85965338D01*
X122062247Y-85985023D01*
X122062251Y-85985024D01*
X122204667Y-86005500D01*
X122204670Y-86005500D01*
X122376000Y-86005500D01*
X122443039Y-86025185D01*
X122488794Y-86077989D01*
X122500000Y-86129500D01*
X122500000Y-89876000D01*
X122480315Y-89943039D01*
X122427511Y-89988794D01*
X122376000Y-90000000D01*
X120624000Y-90000000D01*
X120556961Y-89980315D01*
X120511206Y-89927511D01*
X120500000Y-89876000D01*
X120500000Y-86129500D01*
X120519685Y-86062461D01*
X120572489Y-86016706D01*
X120624000Y-86005500D01*
X120670335Y-86005500D01*
X120680481Y-86004955D01*
X120724373Y-86002603D01*
X120724381Y-86002602D01*
X120724383Y-86002602D01*
X120724384Y-86002602D01*
X120731377Y-86001849D01*
X120750731Y-85999769D01*
X120750741Y-85999767D01*
X120750744Y-85999767D01*
X120760343Y-85998211D01*
X120804143Y-85991114D01*
X120938952Y-85940832D01*
X120990545Y-85912659D01*
X120996837Y-85909921D01*
X121000275Y-85907347D01*
X121000276Y-85907347D01*
X121087091Y-85842357D01*
X121152553Y-85817940D01*
X121171118Y-85818005D01*
G37*
%TD.AperFunction*%
%TD*%
%TA.AperFunction,Conductor*%
%TO.N,GND*%
G36*
X120693039Y-81769685D02*
G01*
X120738794Y-81822489D01*
X120750000Y-81874000D01*
X120750000Y-83750000D01*
X119278510Y-83750000D01*
X119211471Y-83730315D01*
X119165716Y-83677511D01*
X119155772Y-83608353D01*
X119171778Y-83562879D01*
X119190396Y-83531397D01*
X119252494Y-83426395D01*
X119297643Y-83270993D01*
X119300500Y-83234690D01*
X119300500Y-82765310D01*
X119297643Y-82729007D01*
X119252494Y-82573605D01*
X119170117Y-82434313D01*
X119055687Y-82319883D01*
X119055681Y-82319879D01*
X119049521Y-82315101D01*
X119051343Y-82312751D01*
X119013176Y-82271846D01*
X119000000Y-82216221D01*
X119000000Y-81874000D01*
X119019685Y-81806961D01*
X119072489Y-81761206D01*
X119124000Y-81750000D01*
X120626000Y-81750000D01*
X120693039Y-81769685D01*
G37*
%TD.AperFunction*%
%TD*%
%TA.AperFunction,Conductor*%
%TO.N,GND*%
G36*
X127693039Y-93870185D02*
G01*
X127738794Y-93922989D01*
X127750000Y-93974500D01*
X127750000Y-95626000D01*
X127730315Y-95693039D01*
X127677511Y-95738794D01*
X127626000Y-95750000D01*
X124374000Y-95750000D01*
X124306961Y-95730315D01*
X124261206Y-95677511D01*
X124250000Y-95626000D01*
X124250000Y-93974500D01*
X124269685Y-93907461D01*
X124322489Y-93861706D01*
X124374000Y-93850500D01*
X127626000Y-93850500D01*
X127693039Y-93870185D01*
G37*
%TD.AperFunction*%
%TD*%
%TA.AperFunction,Conductor*%
%TO.N,GND*%
G36*
X120443039Y-102269685D02*
G01*
X120488794Y-102322489D01*
X120500000Y-102374000D01*
X120500000Y-104876000D01*
X120480315Y-104943039D01*
X120427511Y-104988794D01*
X120376000Y-105000000D01*
X117874000Y-105000000D01*
X117806961Y-104980315D01*
X117761206Y-104927511D01*
X117750000Y-104876000D01*
X117750000Y-102374000D01*
X117769685Y-102306961D01*
X117822489Y-102261206D01*
X117874000Y-102250000D01*
X120376000Y-102250000D01*
X120443039Y-102269685D01*
G37*
%TD.AperFunction*%
%TD*%
%TA.AperFunction,Conductor*%
%TO.N,GND*%
G36*
X123193039Y-97269685D02*
G01*
X123238794Y-97322489D01*
X123250000Y-97374000D01*
X123250000Y-99876000D01*
X123230315Y-99943039D01*
X123177511Y-99988794D01*
X123126000Y-100000000D01*
X121124000Y-100000000D01*
X121056961Y-99980315D01*
X121011206Y-99927511D01*
X121000000Y-99876000D01*
X121000000Y-97374000D01*
X121019685Y-97306961D01*
X121072489Y-97261206D01*
X121124000Y-97250000D01*
X123126000Y-97250000D01*
X123193039Y-97269685D01*
G37*
%TD.AperFunction*%
%TD*%
M02*
