%TF.GenerationSoftware,KiCad,Pcbnew,8.0.5*%
%TF.CreationDate,2024-10-31T12:59:41-07:00*%
%TF.ProjectId,team6_pcb,7465616d-365f-4706-9362-2e6b69636164,rev?*%
%TF.SameCoordinates,Original*%
%TF.FileFunction,Copper,L3,Inr*%
%TF.FilePolarity,Positive*%
%FSLAX46Y46*%
G04 Gerber Fmt 4.6, Leading zero omitted, Abs format (unit mm)*
G04 Created by KiCad (PCBNEW 8.0.5) date 2024-10-31 12:59:41*
%MOMM*%
%LPD*%
G01*
G04 APERTURE LIST*
G04 Aperture macros list*
%AMRoundRect*
0 Rectangle with rounded corners*
0 $1 Rounding radius*
0 $2 $3 $4 $5 $6 $7 $8 $9 X,Y pos of 4 corners*
0 Add a 4 corners polygon primitive as box body*
4,1,4,$2,$3,$4,$5,$6,$7,$8,$9,$2,$3,0*
0 Add four circle primitives for the rounded corners*
1,1,$1+$1,$2,$3*
1,1,$1+$1,$4,$5*
1,1,$1+$1,$6,$7*
1,1,$1+$1,$8,$9*
0 Add four rect primitives between the rounded corners*
20,1,$1+$1,$2,$3,$4,$5,0*
20,1,$1+$1,$4,$5,$6,$7,0*
20,1,$1+$1,$6,$7,$8,$9,0*
20,1,$1+$1,$8,$9,$2,$3,0*%
G04 Aperture macros list end*
%TA.AperFunction,ComponentPad*%
%ADD10RoundRect,0.250000X1.550000X-0.750000X1.550000X0.750000X-1.550000X0.750000X-1.550000X-0.750000X0*%
%TD*%
%TA.AperFunction,ComponentPad*%
%ADD11O,3.600000X2.000000*%
%TD*%
%TA.AperFunction,ComponentPad*%
%ADD12R,1.700000X1.700000*%
%TD*%
%TA.AperFunction,ComponentPad*%
%ADD13O,1.700000X1.700000*%
%TD*%
%TA.AperFunction,HeatsinkPad*%
%ADD14C,0.500000*%
%TD*%
%TA.AperFunction,ViaPad*%
%ADD15C,0.450000*%
%TD*%
G04 APERTURE END LIST*
D10*
%TO.N,VM*%
%TO.C,P9*%
X143000000Y-85000000D03*
D11*
%TO.N,GND*%
X143000000Y-80000000D03*
%TD*%
D12*
%TO.N,VCC_IO*%
%TO.C,P8*%
X106437500Y-78000000D03*
D13*
%TO.N,GND*%
X106437500Y-80540000D03*
%TD*%
D12*
%TO.N,Net-(IC1-DIR)*%
%TO.C,P2*%
X151000000Y-109000000D03*
D13*
%TO.N,Net-(IC1-STEP)*%
X151000000Y-111540000D03*
%TD*%
D12*
%TO.N,SG_TEST*%
%TO.C,P3*%
X106451400Y-92887800D03*
D13*
%TO.N,CLK16*%
X106451400Y-90347800D03*
%TO.N,DRV_EN*%
X106451400Y-87807800D03*
%TO.N,GND*%
X106451400Y-85267800D03*
%TD*%
D12*
%TO.N,A2*%
%TO.C,P10*%
X151000000Y-92460000D03*
D13*
%TO.N,A1*%
X151000000Y-95000000D03*
%TO.N,B1*%
X151000000Y-97540000D03*
%TO.N,B2*%
X151000000Y-100080000D03*
%TD*%
D12*
%TO.N,GND*%
%TO.C,P5*%
X151000000Y-116000000D03*
%TD*%
%TO.N,GND*%
%TO.C,P4*%
X151000000Y-104000000D03*
%TD*%
%TO.N,CSN*%
%TO.C,P1*%
X106500000Y-99450000D03*
D13*
%TO.N,SCK*%
X106500000Y-101990000D03*
%TO.N,SDI*%
X106500000Y-104530000D03*
%TO.N,SDO*%
X106500000Y-107070000D03*
%TD*%
D14*
%TO.N,GND*%
%TO.C,IC1*%
X114479200Y-87003000D03*
X113479200Y-87003000D03*
X112479200Y-87003000D03*
X114479200Y-88003000D03*
X113479200Y-88003000D03*
X112479200Y-88003000D03*
X114479200Y-89003000D03*
X113479200Y-89003000D03*
X112479200Y-89003000D03*
%TD*%
D15*
%TO.N,GND*%
X107281250Y-116437500D03*
X120250000Y-82250000D03*
X121750000Y-84250000D03*
X124750000Y-84250000D03*
X121500000Y-98250000D03*
X123000000Y-101500000D03*
X119750000Y-104250000D03*
X121000000Y-84250000D03*
X116000000Y-74500000D03*
X109750000Y-82000000D03*
X122500000Y-101750000D03*
X120250000Y-102750000D03*
X109250000Y-82000000D03*
X120250000Y-103500000D03*
X123250000Y-102000000D03*
X121500000Y-99000000D03*
X115750000Y-73000000D03*
X123500000Y-102500000D03*
X124750000Y-85000000D03*
X122750000Y-97750000D03*
X122000000Y-97750000D03*
X118500000Y-104250000D03*
X115750000Y-74000000D03*
X124750000Y-94000000D03*
X118000000Y-102750000D03*
X118000000Y-103500000D03*
X119500000Y-82250000D03*
X116000000Y-73500000D03*
X124750000Y-83500000D03*
X127250000Y-95250000D03*
X106281250Y-116437500D03*
X124750000Y-95250000D03*
X121500000Y-99750000D03*
X120250000Y-83000000D03*
X127250000Y-94000000D03*
%TO.N,VM*%
X121000000Y-88500000D03*
X135000000Y-106000000D03*
X137000000Y-82000000D03*
X135000000Y-90000000D03*
X136000000Y-98000000D03*
X137000000Y-105000000D03*
X124500000Y-87000000D03*
X127000000Y-104000000D03*
X127000000Y-102000000D03*
X127500000Y-88000000D03*
X122000000Y-87000000D03*
X117250000Y-90000000D03*
X126500000Y-88500000D03*
X126000000Y-97500000D03*
X126500000Y-90500000D03*
X137000000Y-89000000D03*
X121000000Y-87000000D03*
X121500000Y-88000000D03*
X136000000Y-90000000D03*
X127000000Y-100000000D03*
X127500000Y-92000000D03*
X137500000Y-97500000D03*
X137000000Y-97000000D03*
X137000000Y-106000000D03*
X127000000Y-103000000D03*
X125000000Y-97500000D03*
X127000000Y-98000000D03*
X136000000Y-106000000D03*
X122000000Y-88500000D03*
X137000000Y-81000000D03*
X124500000Y-92000000D03*
X135000000Y-82000000D03*
X125500000Y-90500000D03*
X137000000Y-98000000D03*
X137500000Y-105500000D03*
X127500000Y-91000000D03*
X127000000Y-99000000D03*
X135000000Y-98000000D03*
X126000000Y-104500000D03*
X125000000Y-104500000D03*
X127500000Y-87000000D03*
X124500000Y-88000000D03*
X125500000Y-101500000D03*
X124500000Y-91000000D03*
X125500000Y-100500000D03*
X137000000Y-90000000D03*
X125500000Y-88500000D03*
X137500000Y-89500000D03*
X137500000Y-81500000D03*
X136000000Y-82000000D03*
%TO.N,VCC_IO*%
X116535200Y-81508600D03*
X123000000Y-92000000D03*
X110781250Y-114437500D03*
X118000000Y-87750000D03*
X115250000Y-95750000D03*
%TO.N,HB2*%
X137250000Y-103750000D03*
X116000000Y-92400003D03*
%TO.N,A1*%
X130000000Y-90250000D03*
X114084465Y-79771800D03*
X147500000Y-95000000D03*
X128320800Y-83464400D03*
X130000000Y-91725000D03*
%TO.N,SDI*%
X108776098Y-91981063D03*
X108775000Y-87278000D03*
X108775000Y-96250000D03*
X108775000Y-103000000D03*
%TO.N,LA1*%
X134467600Y-85115400D03*
X113004600Y-79771800D03*
%TO.N,Net-(IC1-DIR)*%
X144246600Y-108000800D03*
X118160800Y-85979000D03*
%TO.N,SG_TEST*%
X117000000Y-88750000D03*
%TO.N,Net-(IC1-STEP)*%
X117221000Y-86004400D03*
%TO.N,LB2*%
X137775007Y-99649521D03*
X115750000Y-97250000D03*
X143225000Y-106750000D03*
X143250000Y-108250000D03*
%TO.N,HB1*%
X116000000Y-91600000D03*
X137500000Y-95500000D03*
%TO.N,SDO*%
X108250000Y-92362800D03*
X108250000Y-96750000D03*
X108250000Y-86750000D03*
%TO.N,A2*%
X137312400Y-82900000D03*
X127939800Y-76987400D03*
X115112800Y-79771800D03*
%TO.N,SCK*%
X109815621Y-91624843D03*
X110250000Y-87778000D03*
%TO.N,B2*%
X137750000Y-99000000D03*
X116000000Y-93250000D03*
X131750000Y-99000000D03*
X128750000Y-100250000D03*
X143225000Y-99250000D03*
%TO.N,CSN*%
X109487200Y-88728000D03*
X109300000Y-91229073D03*
%TO.N,B1*%
X116000000Y-94050003D03*
X121250000Y-94000000D03*
%TO.N,HA2*%
X133756400Y-79730600D03*
X129362200Y-82270600D03*
X128025600Y-82042000D03*
X115951000Y-79771800D03*
%TO.N,HA1*%
X133629400Y-83566000D03*
X137439400Y-87579200D03*
X135102600Y-83566000D03*
X117043200Y-80060800D03*
%TO.N,LB1*%
X116000000Y-94850006D03*
X137500000Y-93000000D03*
%TD*%
%TA.AperFunction,Conductor*%
%TO.N,VM*%
G36*
X115066651Y-72368672D02*
G01*
X115133502Y-72388976D01*
X115178766Y-72442201D01*
X115188069Y-72511449D01*
X115170494Y-72558638D01*
X115092210Y-72683225D01*
X115038212Y-72837544D01*
X115019909Y-72999996D01*
X115019909Y-73000003D01*
X115038212Y-73162455D01*
X115092210Y-73316774D01*
X115165886Y-73434028D01*
X115184886Y-73501265D01*
X115165886Y-73565972D01*
X115092210Y-73683225D01*
X115038212Y-73837544D01*
X115019909Y-73999996D01*
X115019909Y-74000003D01*
X115038212Y-74162455D01*
X115092210Y-74316774D01*
X115179192Y-74455204D01*
X115245058Y-74521070D01*
X115278543Y-74582393D01*
X115280597Y-74594867D01*
X115288212Y-74662455D01*
X115342210Y-74816774D01*
X115342211Y-74816775D01*
X115429192Y-74955204D01*
X115544796Y-75070808D01*
X115683225Y-75157789D01*
X115837539Y-75211786D01*
X115837542Y-75211786D01*
X115837544Y-75211787D01*
X115999996Y-75230091D01*
X116000000Y-75230091D01*
X116000004Y-75230091D01*
X116162455Y-75211787D01*
X116162456Y-75211786D01*
X116162461Y-75211786D01*
X116316775Y-75157789D01*
X116455204Y-75070808D01*
X116570808Y-74955204D01*
X116657789Y-74816775D01*
X116711786Y-74662461D01*
X116730091Y-74500000D01*
X116711786Y-74337539D01*
X116657789Y-74183225D01*
X116584113Y-74065971D01*
X116565113Y-73998736D01*
X116584114Y-73934027D01*
X116657788Y-73816776D01*
X116657789Y-73816775D01*
X116711786Y-73662461D01*
X116725044Y-73544796D01*
X116730091Y-73500003D01*
X116730091Y-73499996D01*
X116711787Y-73337544D01*
X116711786Y-73337542D01*
X116711786Y-73337539D01*
X116657789Y-73183225D01*
X116570808Y-73044796D01*
X116504940Y-72978928D01*
X116471455Y-72917605D01*
X116469403Y-72905146D01*
X116461786Y-72837539D01*
X116461785Y-72837536D01*
X116461784Y-72837531D01*
X116407790Y-72683227D01*
X116337517Y-72571388D01*
X116318517Y-72504152D01*
X116338885Y-72437316D01*
X116392152Y-72392102D01*
X116443653Y-72381422D01*
X154876652Y-72737283D01*
X154943502Y-72757587D01*
X154988766Y-72810812D01*
X154999500Y-72861277D01*
X154999500Y-119875500D01*
X154979815Y-119942539D01*
X154927011Y-119988294D01*
X154875500Y-119999500D01*
X103374500Y-119999500D01*
X103307461Y-119979815D01*
X103261706Y-119927011D01*
X103250500Y-119875500D01*
X103250500Y-116437496D01*
X105551159Y-116437496D01*
X105551159Y-116437503D01*
X105569462Y-116599955D01*
X105623460Y-116754274D01*
X105623461Y-116754275D01*
X105710442Y-116892704D01*
X105826046Y-117008308D01*
X105964475Y-117095289D01*
X106118789Y-117149286D01*
X106118792Y-117149286D01*
X106118794Y-117149287D01*
X106281246Y-117167591D01*
X106281250Y-117167591D01*
X106281254Y-117167591D01*
X106443705Y-117149287D01*
X106443706Y-117149286D01*
X106443711Y-117149286D01*
X106598025Y-117095289D01*
X106715278Y-117021613D01*
X106782514Y-117002613D01*
X106847221Y-117021613D01*
X106921027Y-117067989D01*
X106959773Y-117092335D01*
X106964475Y-117095289D01*
X107118789Y-117149286D01*
X107118792Y-117149286D01*
X107118794Y-117149287D01*
X107281246Y-117167591D01*
X107281250Y-117167591D01*
X107281254Y-117167591D01*
X107443705Y-117149287D01*
X107443706Y-117149286D01*
X107443711Y-117149286D01*
X107598025Y-117095289D01*
X107736454Y-117008308D01*
X107852058Y-116892704D01*
X107939039Y-116754275D01*
X107993036Y-116599961D01*
X108011341Y-116437500D01*
X107993036Y-116275039D01*
X107939039Y-116120725D01*
X107852058Y-115982296D01*
X107736454Y-115866692D01*
X107715278Y-115853386D01*
X107598024Y-115779710D01*
X107443705Y-115725712D01*
X107281254Y-115707409D01*
X107281246Y-115707409D01*
X107118794Y-115725712D01*
X106964475Y-115779710D01*
X106847222Y-115853386D01*
X106779985Y-115872386D01*
X106715278Y-115853386D01*
X106598024Y-115779710D01*
X106443705Y-115725712D01*
X106281254Y-115707409D01*
X106281246Y-115707409D01*
X106118794Y-115725712D01*
X105964475Y-115779710D01*
X105826045Y-115866692D01*
X105710442Y-115982295D01*
X105623460Y-116120725D01*
X105569462Y-116275044D01*
X105551159Y-116437496D01*
X103250500Y-116437496D01*
X103250500Y-114437496D01*
X110051159Y-114437496D01*
X110051159Y-114437503D01*
X110069462Y-114599955D01*
X110123460Y-114754274D01*
X110147451Y-114792455D01*
X110210442Y-114892704D01*
X110326046Y-115008308D01*
X110464475Y-115095289D01*
X110618789Y-115149286D01*
X110618792Y-115149286D01*
X110618794Y-115149287D01*
X110781246Y-115167591D01*
X110781250Y-115167591D01*
X110781254Y-115167591D01*
X110943705Y-115149287D01*
X110943706Y-115149286D01*
X110943711Y-115149286D01*
X111078460Y-115102135D01*
X149649500Y-115102135D01*
X149649500Y-116897870D01*
X149649501Y-116897876D01*
X149655908Y-116957483D01*
X149706202Y-117092328D01*
X149706206Y-117092335D01*
X149792452Y-117207544D01*
X149792455Y-117207547D01*
X149907664Y-117293793D01*
X149907671Y-117293797D01*
X150042517Y-117344091D01*
X150042516Y-117344091D01*
X150049444Y-117344835D01*
X150102127Y-117350500D01*
X151897872Y-117350499D01*
X151957483Y-117344091D01*
X152092331Y-117293796D01*
X152207546Y-117207546D01*
X152293796Y-117092331D01*
X152344091Y-116957483D01*
X152350500Y-116897873D01*
X152350499Y-115102128D01*
X152344091Y-115042517D01*
X152293796Y-114907669D01*
X152293795Y-114907668D01*
X152293793Y-114907664D01*
X152207547Y-114792455D01*
X152207544Y-114792452D01*
X152092335Y-114706206D01*
X152092328Y-114706202D01*
X151957482Y-114655908D01*
X151957483Y-114655908D01*
X151897883Y-114649501D01*
X151897881Y-114649500D01*
X151897873Y-114649500D01*
X151897864Y-114649500D01*
X150102129Y-114649500D01*
X150102123Y-114649501D01*
X150042516Y-114655908D01*
X149907671Y-114706202D01*
X149907664Y-114706206D01*
X149792455Y-114792452D01*
X149792452Y-114792455D01*
X149706206Y-114907664D01*
X149706202Y-114907671D01*
X149655908Y-115042517D01*
X149650235Y-115095289D01*
X149649501Y-115102123D01*
X149649500Y-115102135D01*
X111078460Y-115102135D01*
X111098025Y-115095289D01*
X111236454Y-115008308D01*
X111352058Y-114892704D01*
X111439039Y-114754275D01*
X111493036Y-114599961D01*
X111511341Y-114437500D01*
X111493036Y-114275039D01*
X111439039Y-114120725D01*
X111352058Y-113982296D01*
X111236454Y-113866692D01*
X111098024Y-113779710D01*
X110943705Y-113725712D01*
X110781254Y-113707409D01*
X110781246Y-113707409D01*
X110618794Y-113725712D01*
X110464475Y-113779710D01*
X110326045Y-113866692D01*
X110210442Y-113982295D01*
X110123460Y-114120725D01*
X110069462Y-114275044D01*
X110051159Y-114437496D01*
X103250500Y-114437496D01*
X103250500Y-111539999D01*
X149644341Y-111539999D01*
X149644341Y-111540000D01*
X149664936Y-111775403D01*
X149664938Y-111775413D01*
X149726094Y-112003655D01*
X149726096Y-112003659D01*
X149726097Y-112003663D01*
X149825965Y-112217830D01*
X149825967Y-112217834D01*
X149934281Y-112372521D01*
X149961505Y-112411401D01*
X150128599Y-112578495D01*
X150225384Y-112646265D01*
X150322165Y-112714032D01*
X150322167Y-112714033D01*
X150322170Y-112714035D01*
X150536337Y-112813903D01*
X150764592Y-112875063D01*
X150952918Y-112891539D01*
X150999999Y-112895659D01*
X151000000Y-112895659D01*
X151000001Y-112895659D01*
X151039234Y-112892226D01*
X151235408Y-112875063D01*
X151463663Y-112813903D01*
X151677830Y-112714035D01*
X151871401Y-112578495D01*
X152038495Y-112411401D01*
X152174035Y-112217830D01*
X152273903Y-112003663D01*
X152335063Y-111775408D01*
X152355659Y-111540000D01*
X152335063Y-111304592D01*
X152273903Y-111076337D01*
X152174035Y-110862171D01*
X152038495Y-110668599D01*
X151916567Y-110546671D01*
X151883084Y-110485351D01*
X151888068Y-110415659D01*
X151929939Y-110359725D01*
X151960915Y-110342810D01*
X152092331Y-110293796D01*
X152207546Y-110207546D01*
X152293796Y-110092331D01*
X152344091Y-109957483D01*
X152350500Y-109897873D01*
X152350499Y-108102128D01*
X152344091Y-108042517D01*
X152293796Y-107907669D01*
X152293795Y-107907668D01*
X152293793Y-107907664D01*
X152207547Y-107792455D01*
X152207544Y-107792452D01*
X152092335Y-107706206D01*
X152092328Y-107706202D01*
X151957482Y-107655908D01*
X151957483Y-107655908D01*
X151897883Y-107649501D01*
X151897881Y-107649500D01*
X151897873Y-107649500D01*
X151897864Y-107649500D01*
X150102129Y-107649500D01*
X150102123Y-107649501D01*
X150042516Y-107655908D01*
X149907671Y-107706202D01*
X149907664Y-107706206D01*
X149792455Y-107792452D01*
X149792452Y-107792455D01*
X149706206Y-107907664D01*
X149706202Y-107907671D01*
X149655908Y-108042517D01*
X149651068Y-108087539D01*
X149649501Y-108102123D01*
X149649500Y-108102135D01*
X149649500Y-109897870D01*
X149649501Y-109897876D01*
X149655908Y-109957483D01*
X149706202Y-110092328D01*
X149706206Y-110092335D01*
X149792452Y-110207544D01*
X149792455Y-110207547D01*
X149907664Y-110293793D01*
X149907671Y-110293797D01*
X150039081Y-110342810D01*
X150095015Y-110384681D01*
X150119432Y-110450145D01*
X150104580Y-110518418D01*
X150083430Y-110546673D01*
X149961503Y-110668600D01*
X149825965Y-110862169D01*
X149825964Y-110862171D01*
X149726098Y-111076335D01*
X149726094Y-111076344D01*
X149664938Y-111304586D01*
X149664936Y-111304596D01*
X149644341Y-111539999D01*
X103250500Y-111539999D01*
X103250500Y-101989999D01*
X105144341Y-101989999D01*
X105144341Y-101990000D01*
X105164936Y-102225403D01*
X105164938Y-102225413D01*
X105226094Y-102453655D01*
X105226096Y-102453659D01*
X105226097Y-102453663D01*
X105268593Y-102544795D01*
X105325965Y-102667830D01*
X105325967Y-102667834D01*
X105461501Y-102861395D01*
X105461506Y-102861402D01*
X105628597Y-103028493D01*
X105628603Y-103028498D01*
X105814158Y-103158425D01*
X105857783Y-103213002D01*
X105864977Y-103282500D01*
X105833454Y-103344855D01*
X105814158Y-103361575D01*
X105628597Y-103491505D01*
X105461505Y-103658597D01*
X105325965Y-103852169D01*
X105325964Y-103852171D01*
X105226098Y-104066335D01*
X105226094Y-104066344D01*
X105164938Y-104294586D01*
X105164936Y-104294596D01*
X105144341Y-104529999D01*
X105144341Y-104530000D01*
X105164936Y-104765403D01*
X105164938Y-104765413D01*
X105226094Y-104993655D01*
X105226096Y-104993659D01*
X105226097Y-104993663D01*
X105272107Y-105092331D01*
X105325965Y-105207830D01*
X105325967Y-105207834D01*
X105461501Y-105401395D01*
X105461506Y-105401402D01*
X105628597Y-105568493D01*
X105628603Y-105568498D01*
X105814158Y-105698425D01*
X105857783Y-105753002D01*
X105864977Y-105822500D01*
X105833454Y-105884855D01*
X105814158Y-105901575D01*
X105628597Y-106031505D01*
X105461505Y-106198597D01*
X105325965Y-106392169D01*
X105325964Y-106392171D01*
X105226098Y-106606335D01*
X105226094Y-106606344D01*
X105164938Y-106834586D01*
X105164936Y-106834596D01*
X105144341Y-107069999D01*
X105144341Y-107070000D01*
X105164936Y-107305403D01*
X105164938Y-107305413D01*
X105226094Y-107533655D01*
X105226096Y-107533659D01*
X105226097Y-107533663D01*
X105306555Y-107706206D01*
X105325965Y-107747830D01*
X105325967Y-107747834D01*
X105434281Y-107902521D01*
X105461505Y-107941401D01*
X105628599Y-108108495D01*
X105706804Y-108163255D01*
X105822165Y-108244032D01*
X105822167Y-108244033D01*
X105822170Y-108244035D01*
X106036337Y-108343903D01*
X106264592Y-108405063D01*
X106452918Y-108421539D01*
X106499999Y-108425659D01*
X106500000Y-108425659D01*
X106500001Y-108425659D01*
X106539234Y-108422226D01*
X106735408Y-108405063D01*
X106963663Y-108343903D01*
X107177830Y-108244035D01*
X107371401Y-108108495D01*
X107538495Y-107941401D01*
X107674035Y-107747830D01*
X107773903Y-107533663D01*
X107835063Y-107305408D01*
X107855659Y-107070000D01*
X107835063Y-106834592D01*
X107812396Y-106749996D01*
X142494909Y-106749996D01*
X142494909Y-106750003D01*
X142513212Y-106912455D01*
X142567210Y-107066774D01*
X142654192Y-107205204D01*
X142769795Y-107320807D01*
X142769801Y-107320812D01*
X142900380Y-107402861D01*
X142946671Y-107455195D01*
X142957319Y-107524249D01*
X142928944Y-107588097D01*
X142900381Y-107612847D01*
X142794798Y-107679190D01*
X142794795Y-107679192D01*
X142679192Y-107794795D01*
X142592210Y-107933225D01*
X142538212Y-108087544D01*
X142519909Y-108249996D01*
X142519909Y-108250003D01*
X142538212Y-108412455D01*
X142592210Y-108566774D01*
X142627334Y-108622673D01*
X142679192Y-108705204D01*
X142794796Y-108820808D01*
X142933225Y-108907789D01*
X143087539Y-108961786D01*
X143087542Y-108961786D01*
X143087544Y-108961787D01*
X143249996Y-108980091D01*
X143250000Y-108980091D01*
X143250004Y-108980091D01*
X143412455Y-108961787D01*
X143412456Y-108961786D01*
X143412461Y-108961786D01*
X143566775Y-108907789D01*
X143705204Y-108820808D01*
X143820808Y-108705204D01*
X143820808Y-108705203D01*
X143825732Y-108700280D01*
X143827247Y-108701795D01*
X143875977Y-108667585D01*
X143945789Y-108664729D01*
X143956699Y-108667992D01*
X144084139Y-108712586D01*
X144084142Y-108712586D01*
X144084144Y-108712587D01*
X144246596Y-108730891D01*
X144246600Y-108730891D01*
X144246604Y-108730891D01*
X144409055Y-108712587D01*
X144409056Y-108712586D01*
X144409061Y-108712586D01*
X144563375Y-108658589D01*
X144701804Y-108571608D01*
X144817408Y-108456004D01*
X144904389Y-108317575D01*
X144958386Y-108163261D01*
X144958387Y-108163255D01*
X144976691Y-108000803D01*
X144976691Y-108000796D01*
X144958387Y-107838344D01*
X144958386Y-107838342D01*
X144958386Y-107838339D01*
X144904389Y-107684025D01*
X144817408Y-107545596D01*
X144701804Y-107429992D01*
X144666468Y-107407789D01*
X144563374Y-107343010D01*
X144409055Y-107289012D01*
X144246604Y-107270709D01*
X144246596Y-107270709D01*
X144084143Y-107289012D01*
X143981528Y-107324918D01*
X143911749Y-107328479D01*
X143851122Y-107293749D01*
X143818896Y-107231756D01*
X143825302Y-107162180D01*
X143835578Y-107141909D01*
X143882789Y-107066775D01*
X143936786Y-106912461D01*
X143936787Y-106912455D01*
X143955091Y-106750003D01*
X143955091Y-106749996D01*
X143936787Y-106587544D01*
X143936786Y-106587542D01*
X143936786Y-106587539D01*
X143882789Y-106433225D01*
X143795808Y-106294796D01*
X143680204Y-106179192D01*
X143541774Y-106092210D01*
X143387455Y-106038212D01*
X143225004Y-106019909D01*
X143224996Y-106019909D01*
X143062544Y-106038212D01*
X142908225Y-106092210D01*
X142769795Y-106179192D01*
X142654192Y-106294795D01*
X142567210Y-106433225D01*
X142513212Y-106587544D01*
X142494909Y-106749996D01*
X107812396Y-106749996D01*
X107773903Y-106606337D01*
X107674035Y-106392171D01*
X107538495Y-106198599D01*
X107538494Y-106198597D01*
X107371402Y-106031506D01*
X107371396Y-106031501D01*
X107185842Y-105901575D01*
X107142217Y-105846998D01*
X107135023Y-105777500D01*
X107166546Y-105715145D01*
X107185842Y-105698425D01*
X107208026Y-105682891D01*
X107371401Y-105568495D01*
X107538495Y-105401401D01*
X107674035Y-105207830D01*
X107773903Y-104993663D01*
X107835063Y-104765408D01*
X107855659Y-104530000D01*
X107835063Y-104294592D01*
X107773903Y-104066337D01*
X107674035Y-103852171D01*
X107630369Y-103789808D01*
X107538494Y-103658597D01*
X107371402Y-103491506D01*
X107371396Y-103491501D01*
X107185842Y-103361575D01*
X107142217Y-103306998D01*
X107135023Y-103237500D01*
X107166546Y-103175145D01*
X107185842Y-103158425D01*
X107266242Y-103102128D01*
X107371401Y-103028495D01*
X107399900Y-102999996D01*
X108044909Y-102999996D01*
X108044909Y-103000003D01*
X108063212Y-103162455D01*
X108117210Y-103316774D01*
X108130261Y-103337544D01*
X108204192Y-103455204D01*
X108319796Y-103570808D01*
X108458225Y-103657789D01*
X108612539Y-103711786D01*
X108612542Y-103711786D01*
X108612544Y-103711787D01*
X108774996Y-103730091D01*
X108775000Y-103730091D01*
X108775004Y-103730091D01*
X108937455Y-103711787D01*
X108937456Y-103711786D01*
X108937461Y-103711786D01*
X109091775Y-103657789D01*
X109230204Y-103570808D01*
X109345808Y-103455204D01*
X109432789Y-103316775D01*
X109486786Y-103162461D01*
X109487241Y-103158425D01*
X109505091Y-103000003D01*
X109505091Y-102999996D01*
X109486787Y-102837544D01*
X109486786Y-102837542D01*
X109486786Y-102837539D01*
X109456153Y-102749996D01*
X117269909Y-102749996D01*
X117269909Y-102750003D01*
X117288212Y-102912455D01*
X117342211Y-103066778D01*
X117344342Y-103071202D01*
X117355692Y-103140143D01*
X117344342Y-103178798D01*
X117342211Y-103183221D01*
X117288212Y-103337544D01*
X117269909Y-103499996D01*
X117269909Y-103500003D01*
X117288212Y-103662455D01*
X117342210Y-103816774D01*
X117364452Y-103852171D01*
X117429192Y-103955204D01*
X117544796Y-104070808D01*
X117683223Y-104157788D01*
X117683225Y-104157789D01*
X117689101Y-104159845D01*
X117745880Y-104200563D01*
X117771374Y-104263006D01*
X117788212Y-104412455D01*
X117842210Y-104566774D01*
X117842211Y-104566775D01*
X117929192Y-104705204D01*
X118044796Y-104820808D01*
X118183225Y-104907789D01*
X118337539Y-104961786D01*
X118337542Y-104961786D01*
X118337544Y-104961787D01*
X118499996Y-104980091D01*
X118500000Y-104980091D01*
X118500004Y-104980091D01*
X118662455Y-104961787D01*
X118662456Y-104961786D01*
X118662461Y-104961786D01*
X118816775Y-104907789D01*
X118955204Y-104820808D01*
X119037319Y-104738693D01*
X119098642Y-104705208D01*
X119168334Y-104710192D01*
X119212681Y-104738693D01*
X119294796Y-104820808D01*
X119433225Y-104907789D01*
X119587539Y-104961786D01*
X119587542Y-104961786D01*
X119587544Y-104961787D01*
X119749996Y-104980091D01*
X119750000Y-104980091D01*
X119750004Y-104980091D01*
X119912455Y-104961787D01*
X119912456Y-104961786D01*
X119912461Y-104961786D01*
X120066775Y-104907789D01*
X120205204Y-104820808D01*
X120320808Y-104705204D01*
X120407789Y-104566775D01*
X120461786Y-104412461D01*
X120462313Y-104407789D01*
X120475066Y-104294596D01*
X120478625Y-104263004D01*
X120505691Y-104198592D01*
X120560896Y-104159845D01*
X120566775Y-104157789D01*
X120705204Y-104070808D01*
X120820808Y-103955204D01*
X120907789Y-103816775D01*
X120931156Y-103749996D01*
X136519909Y-103749996D01*
X136519909Y-103750003D01*
X136538212Y-103912455D01*
X136592210Y-104066774D01*
X136592211Y-104066775D01*
X136679192Y-104205204D01*
X136794796Y-104320808D01*
X136933225Y-104407789D01*
X137087539Y-104461786D01*
X137087542Y-104461786D01*
X137087544Y-104461787D01*
X137249996Y-104480091D01*
X137250000Y-104480091D01*
X137250004Y-104480091D01*
X137412455Y-104461787D01*
X137412456Y-104461786D01*
X137412461Y-104461786D01*
X137566775Y-104407789D01*
X137705204Y-104320808D01*
X137820808Y-104205204D01*
X137907789Y-104066775D01*
X137961786Y-103912461D01*
X137961787Y-103912455D01*
X137980091Y-103750003D01*
X137980091Y-103749996D01*
X137961787Y-103587544D01*
X137961786Y-103587542D01*
X137961786Y-103587539D01*
X137907789Y-103433225D01*
X137820808Y-103294796D01*
X137705204Y-103179192D01*
X137672154Y-103158425D01*
X137582569Y-103102135D01*
X149649500Y-103102135D01*
X149649500Y-104897870D01*
X149649501Y-104897876D01*
X149655908Y-104957483D01*
X149706202Y-105092328D01*
X149706206Y-105092335D01*
X149792452Y-105207544D01*
X149792455Y-105207547D01*
X149907664Y-105293793D01*
X149907671Y-105293797D01*
X150042517Y-105344091D01*
X150042516Y-105344091D01*
X150049444Y-105344835D01*
X150102127Y-105350500D01*
X151897872Y-105350499D01*
X151957483Y-105344091D01*
X152092331Y-105293796D01*
X152207546Y-105207546D01*
X152293796Y-105092331D01*
X152344091Y-104957483D01*
X152350500Y-104897873D01*
X152350499Y-103102128D01*
X152344091Y-103042517D01*
X152342485Y-103038212D01*
X152293797Y-102907671D01*
X152293793Y-102907664D01*
X152207547Y-102792455D01*
X152207544Y-102792452D01*
X152092335Y-102706206D01*
X152092328Y-102706202D01*
X151957482Y-102655908D01*
X151957483Y-102655908D01*
X151897883Y-102649501D01*
X151897881Y-102649500D01*
X151897873Y-102649500D01*
X151897864Y-102649500D01*
X150102129Y-102649500D01*
X150102123Y-102649501D01*
X150042516Y-102655908D01*
X149907671Y-102706202D01*
X149907664Y-102706206D01*
X149792455Y-102792452D01*
X149792452Y-102792455D01*
X149706206Y-102907664D01*
X149706202Y-102907671D01*
X149655908Y-103042517D01*
X149650566Y-103092210D01*
X149649501Y-103102123D01*
X149649500Y-103102135D01*
X137582569Y-103102135D01*
X137566774Y-103092210D01*
X137412455Y-103038212D01*
X137250004Y-103019909D01*
X137249996Y-103019909D01*
X137087544Y-103038212D01*
X136933225Y-103092210D01*
X136794795Y-103179192D01*
X136679192Y-103294795D01*
X136592210Y-103433225D01*
X136538212Y-103587544D01*
X136519909Y-103749996D01*
X120931156Y-103749996D01*
X120961786Y-103662461D01*
X120962221Y-103658599D01*
X120980091Y-103500003D01*
X120980091Y-103499996D01*
X120961787Y-103337542D01*
X120907792Y-103183233D01*
X120907791Y-103183231D01*
X120907789Y-103183225D01*
X120907785Y-103183219D01*
X120905660Y-103178807D01*
X120894305Y-103109866D01*
X120905660Y-103071193D01*
X120907783Y-103066784D01*
X120907789Y-103066775D01*
X120961786Y-102912461D01*
X120961786Y-102912459D01*
X120961787Y-102912457D01*
X120980091Y-102750003D01*
X120980091Y-102749996D01*
X120961787Y-102587544D01*
X120961786Y-102587542D01*
X120961786Y-102587539D01*
X120907789Y-102433225D01*
X120820808Y-102294796D01*
X120705204Y-102179192D01*
X120566774Y-102092210D01*
X120412455Y-102038212D01*
X120250004Y-102019909D01*
X120249996Y-102019909D01*
X120087544Y-102038212D01*
X119933225Y-102092210D01*
X119794795Y-102179192D01*
X119679192Y-102294795D01*
X119592210Y-102433225D01*
X119538212Y-102587544D01*
X119519909Y-102749996D01*
X119519909Y-102750003D01*
X119538212Y-102912455D01*
X119592211Y-103066778D01*
X119594342Y-103071202D01*
X119605692Y-103140143D01*
X119594342Y-103178798D01*
X119592211Y-103183221D01*
X119538212Y-103337544D01*
X119521373Y-103486994D01*
X119494306Y-103551408D01*
X119439120Y-103590147D01*
X119433229Y-103592208D01*
X119294795Y-103679192D01*
X119212681Y-103761307D01*
X119151358Y-103794792D01*
X119081666Y-103789808D01*
X119037319Y-103761307D01*
X118955204Y-103679192D01*
X118816777Y-103592212D01*
X118816771Y-103592209D01*
X118810884Y-103590149D01*
X118754110Y-103549425D01*
X118728625Y-103486994D01*
X118721723Y-103425739D01*
X118711787Y-103337542D01*
X118657792Y-103183233D01*
X118657791Y-103183231D01*
X118657789Y-103183225D01*
X118657785Y-103183219D01*
X118655660Y-103178807D01*
X118644305Y-103109866D01*
X118655660Y-103071193D01*
X118657783Y-103066784D01*
X118657789Y-103066775D01*
X118711786Y-102912461D01*
X118711786Y-102912459D01*
X118711787Y-102912457D01*
X118730091Y-102750003D01*
X118730091Y-102749996D01*
X118711787Y-102587544D01*
X118711786Y-102587542D01*
X118711786Y-102587539D01*
X118657789Y-102433225D01*
X118570808Y-102294796D01*
X118455204Y-102179192D01*
X118316774Y-102092210D01*
X118162455Y-102038212D01*
X118000004Y-102019909D01*
X117999996Y-102019909D01*
X117837544Y-102038212D01*
X117683225Y-102092210D01*
X117544795Y-102179192D01*
X117429192Y-102294795D01*
X117342210Y-102433225D01*
X117288212Y-102587544D01*
X117269909Y-102749996D01*
X109456153Y-102749996D01*
X109432789Y-102683225D01*
X109345808Y-102544796D01*
X109230204Y-102429192D01*
X109091774Y-102342210D01*
X108937455Y-102288212D01*
X108775004Y-102269909D01*
X108774996Y-102269909D01*
X108612544Y-102288212D01*
X108458225Y-102342210D01*
X108319795Y-102429192D01*
X108204192Y-102544795D01*
X108117210Y-102683225D01*
X108063212Y-102837544D01*
X108044909Y-102999996D01*
X107399900Y-102999996D01*
X107538495Y-102861401D01*
X107674035Y-102667830D01*
X107773903Y-102453663D01*
X107835063Y-102225408D01*
X107855659Y-101990000D01*
X107835063Y-101754592D01*
X107833832Y-101749996D01*
X121769909Y-101749996D01*
X121769909Y-101750003D01*
X121788212Y-101912455D01*
X121842210Y-102066774D01*
X121915382Y-102183225D01*
X121929192Y-102205204D01*
X122044796Y-102320808D01*
X122183225Y-102407789D01*
X122337539Y-102461786D01*
X122337542Y-102461786D01*
X122337544Y-102461787D01*
X122499996Y-102480091D01*
X122500000Y-102480091D01*
X122500002Y-102480091D01*
X122553361Y-102474078D01*
X122624074Y-102466111D01*
X122692895Y-102478165D01*
X122725638Y-102501650D01*
X122745058Y-102521070D01*
X122778543Y-102582393D01*
X122780597Y-102594867D01*
X122788212Y-102662455D01*
X122842210Y-102816774D01*
X122899324Y-102907669D01*
X122929192Y-102955204D01*
X123044796Y-103070808D01*
X123183225Y-103157789D01*
X123337539Y-103211786D01*
X123337542Y-103211786D01*
X123337544Y-103211787D01*
X123499996Y-103230091D01*
X123500000Y-103230091D01*
X123500004Y-103230091D01*
X123662455Y-103211787D01*
X123662456Y-103211786D01*
X123662461Y-103211786D01*
X123816775Y-103157789D01*
X123955204Y-103070808D01*
X124070808Y-102955204D01*
X124157789Y-102816775D01*
X124211786Y-102662461D01*
X124211787Y-102662455D01*
X124230091Y-102500003D01*
X124230091Y-102499996D01*
X124211787Y-102337544D01*
X124211786Y-102337542D01*
X124211786Y-102337539D01*
X124157789Y-102183225D01*
X124070808Y-102044796D01*
X124004940Y-101978928D01*
X123971455Y-101917605D01*
X123969403Y-101905146D01*
X123961786Y-101837539D01*
X123961785Y-101837536D01*
X123961784Y-101837531D01*
X123907790Y-101683227D01*
X123820807Y-101544795D01*
X123754940Y-101478928D01*
X123721455Y-101417605D01*
X123719403Y-101405146D01*
X123711786Y-101337539D01*
X123711785Y-101337536D01*
X123711784Y-101337531D01*
X123657790Y-101183227D01*
X123617182Y-101118600D01*
X123570808Y-101044796D01*
X123455204Y-100929192D01*
X123316774Y-100842210D01*
X123179256Y-100794091D01*
X123162461Y-100788214D01*
X123162460Y-100788213D01*
X123162455Y-100788212D01*
X123000004Y-100769909D01*
X122999996Y-100769909D01*
X122837544Y-100788212D01*
X122683225Y-100842210D01*
X122544792Y-100929194D01*
X122544791Y-100929195D01*
X122478926Y-100995059D01*
X122417602Y-101028544D01*
X122405131Y-101030597D01*
X122337544Y-101038212D01*
X122183225Y-101092210D01*
X122044795Y-101179192D01*
X121929192Y-101294795D01*
X121842210Y-101433225D01*
X121788212Y-101587544D01*
X121769909Y-101749996D01*
X107833832Y-101749996D01*
X107773903Y-101526337D01*
X107674035Y-101312171D01*
X107661868Y-101294795D01*
X107538496Y-101118600D01*
X107512106Y-101092210D01*
X107416567Y-100996671D01*
X107383084Y-100935351D01*
X107388068Y-100865659D01*
X107429939Y-100809725D01*
X107460915Y-100792810D01*
X107592331Y-100743796D01*
X107707546Y-100657546D01*
X107793796Y-100542331D01*
X107844091Y-100407483D01*
X107850500Y-100347873D01*
X107850499Y-98552128D01*
X107844091Y-98492517D01*
X107839456Y-98480091D01*
X107793797Y-98357671D01*
X107793793Y-98357664D01*
X107713192Y-98249996D01*
X120769909Y-98249996D01*
X120769909Y-98250003D01*
X120788212Y-98412455D01*
X120842211Y-98566778D01*
X120844342Y-98571202D01*
X120855692Y-98640143D01*
X120844342Y-98678798D01*
X120842211Y-98683221D01*
X120788212Y-98837544D01*
X120769909Y-98999996D01*
X120769909Y-99000003D01*
X120788212Y-99162455D01*
X120842211Y-99316778D01*
X120844342Y-99321202D01*
X120855692Y-99390143D01*
X120844342Y-99428798D01*
X120842211Y-99433221D01*
X120788212Y-99587544D01*
X120769909Y-99749996D01*
X120769909Y-99750003D01*
X120788212Y-99912455D01*
X120842210Y-100066774D01*
X120929192Y-100205204D01*
X121044796Y-100320808D01*
X121183225Y-100407789D01*
X121337539Y-100461786D01*
X121337542Y-100461786D01*
X121337544Y-100461787D01*
X121499996Y-100480091D01*
X121500000Y-100480091D01*
X121500004Y-100480091D01*
X121662455Y-100461787D01*
X121662456Y-100461786D01*
X121662461Y-100461786D01*
X121816775Y-100407789D01*
X121955204Y-100320808D01*
X122026016Y-100249996D01*
X128019909Y-100249996D01*
X128019909Y-100250003D01*
X128038212Y-100412455D01*
X128092210Y-100566774D01*
X128092211Y-100566775D01*
X128179192Y-100705204D01*
X128294796Y-100820808D01*
X128433225Y-100907789D01*
X128587539Y-100961786D01*
X128587542Y-100961786D01*
X128587544Y-100961787D01*
X128749996Y-100980091D01*
X128750000Y-100980091D01*
X128750004Y-100980091D01*
X128912455Y-100961787D01*
X128912456Y-100961786D01*
X128912461Y-100961786D01*
X129066775Y-100907789D01*
X129205204Y-100820808D01*
X129320808Y-100705204D01*
X129407789Y-100566775D01*
X129461786Y-100412461D01*
X129461787Y-100412455D01*
X129480091Y-100250003D01*
X129480091Y-100249996D01*
X129461787Y-100087544D01*
X129461786Y-100087542D01*
X129461786Y-100087539D01*
X129407789Y-99933225D01*
X129320808Y-99794796D01*
X129205204Y-99679192D01*
X129066774Y-99592210D01*
X128912455Y-99538212D01*
X128750004Y-99519909D01*
X128749996Y-99519909D01*
X128587544Y-99538212D01*
X128433225Y-99592210D01*
X128294795Y-99679192D01*
X128179192Y-99794795D01*
X128092210Y-99933225D01*
X128038212Y-100087544D01*
X128019909Y-100249996D01*
X122026016Y-100249996D01*
X122070808Y-100205204D01*
X122157789Y-100066775D01*
X122211786Y-99912461D01*
X122211787Y-99912455D01*
X122230091Y-99750003D01*
X122230091Y-99749996D01*
X122211787Y-99587542D01*
X122157792Y-99433233D01*
X122157791Y-99433231D01*
X122157789Y-99433225D01*
X122157785Y-99433219D01*
X122155660Y-99428807D01*
X122144305Y-99359866D01*
X122155660Y-99321193D01*
X122157783Y-99316784D01*
X122157789Y-99316775D01*
X122211786Y-99162461D01*
X122211786Y-99162459D01*
X122211787Y-99162457D01*
X122230091Y-99000003D01*
X122230091Y-98999996D01*
X131019909Y-98999996D01*
X131019909Y-99000003D01*
X131038212Y-99162455D01*
X131092210Y-99316774D01*
X131102246Y-99332746D01*
X131179192Y-99455204D01*
X131294796Y-99570808D01*
X131433225Y-99657789D01*
X131587539Y-99711786D01*
X131587542Y-99711786D01*
X131587544Y-99711787D01*
X131749996Y-99730091D01*
X131750000Y-99730091D01*
X131750004Y-99730091D01*
X131912455Y-99711787D01*
X131912456Y-99711786D01*
X131912461Y-99711786D01*
X132066775Y-99657789D01*
X132205204Y-99570808D01*
X132320808Y-99455204D01*
X132407789Y-99316775D01*
X132461786Y-99162461D01*
X132470228Y-99087539D01*
X132480091Y-99000003D01*
X132480091Y-98999996D01*
X137019909Y-98999996D01*
X137019909Y-99000003D01*
X137038212Y-99162454D01*
X137038213Y-99162459D01*
X137038214Y-99162461D01*
X137086856Y-99301470D01*
X137093178Y-99319538D01*
X137096739Y-99389316D01*
X137093178Y-99401446D01*
X137063220Y-99487062D01*
X137044916Y-99649517D01*
X137044916Y-99649524D01*
X137063219Y-99811976D01*
X137117217Y-99966295D01*
X137117218Y-99966296D01*
X137204199Y-100104725D01*
X137319803Y-100220329D01*
X137458232Y-100307310D01*
X137612546Y-100361307D01*
X137612549Y-100361307D01*
X137612551Y-100361308D01*
X137775003Y-100379612D01*
X137775007Y-100379612D01*
X137775011Y-100379612D01*
X137937462Y-100361308D01*
X137937463Y-100361307D01*
X137937468Y-100361307D01*
X138091782Y-100307310D01*
X138230211Y-100220329D01*
X138345815Y-100104725D01*
X138432796Y-99966296D01*
X138486793Y-99811982D01*
X138486794Y-99811976D01*
X138505098Y-99649524D01*
X138505098Y-99649517D01*
X138486794Y-99487065D01*
X138486793Y-99487062D01*
X138486793Y-99487060D01*
X138432796Y-99332746D01*
X138431828Y-99329979D01*
X138428267Y-99260200D01*
X138431263Y-99249996D01*
X142494909Y-99249996D01*
X142494909Y-99250003D01*
X142513212Y-99412455D01*
X142567210Y-99566774D01*
X142654192Y-99705204D01*
X142769796Y-99820808D01*
X142908225Y-99907789D01*
X143062539Y-99961786D01*
X143062542Y-99961786D01*
X143062544Y-99961787D01*
X143224996Y-99980091D01*
X143225000Y-99980091D01*
X143225004Y-99980091D01*
X143387455Y-99961787D01*
X143387456Y-99961786D01*
X143387461Y-99961786D01*
X143541775Y-99907789D01*
X143680204Y-99820808D01*
X143795808Y-99705204D01*
X143882789Y-99566775D01*
X143936786Y-99412461D01*
X143936787Y-99412455D01*
X143955091Y-99250003D01*
X143955091Y-99249996D01*
X143936787Y-99087544D01*
X143936786Y-99087542D01*
X143936786Y-99087539D01*
X143882789Y-98933225D01*
X143795808Y-98794796D01*
X143680204Y-98679192D01*
X143618058Y-98640143D01*
X143541774Y-98592210D01*
X143387455Y-98538212D01*
X143225004Y-98519909D01*
X143224996Y-98519909D01*
X143062544Y-98538212D01*
X142908225Y-98592210D01*
X142769795Y-98679192D01*
X142654192Y-98794795D01*
X142567210Y-98933225D01*
X142513212Y-99087544D01*
X142494909Y-99249996D01*
X138431263Y-99249996D01*
X138431823Y-99248087D01*
X138461786Y-99162461D01*
X138470228Y-99087539D01*
X138480091Y-99000003D01*
X138480091Y-98999996D01*
X138461787Y-98837544D01*
X138461786Y-98837542D01*
X138461786Y-98837539D01*
X138407789Y-98683225D01*
X138320808Y-98544796D01*
X138205204Y-98429192D01*
X138178567Y-98412455D01*
X138066774Y-98342210D01*
X137912455Y-98288212D01*
X137750004Y-98269909D01*
X137749996Y-98269909D01*
X137587544Y-98288212D01*
X137433225Y-98342210D01*
X137294795Y-98429192D01*
X137179192Y-98544795D01*
X137092210Y-98683225D01*
X137038212Y-98837544D01*
X137019909Y-98999996D01*
X132480091Y-98999996D01*
X132461787Y-98837544D01*
X132461786Y-98837542D01*
X132461786Y-98837539D01*
X132407789Y-98683225D01*
X132320808Y-98544796D01*
X132205204Y-98429192D01*
X132178567Y-98412455D01*
X132066774Y-98342210D01*
X131912455Y-98288212D01*
X131750004Y-98269909D01*
X131749996Y-98269909D01*
X131587544Y-98288212D01*
X131433225Y-98342210D01*
X131294795Y-98429192D01*
X131179192Y-98544795D01*
X131092210Y-98683225D01*
X131038212Y-98837544D01*
X131019909Y-98999996D01*
X122230091Y-98999996D01*
X122211787Y-98837542D01*
X122202150Y-98810000D01*
X122157789Y-98683225D01*
X122157783Y-98683215D01*
X122155658Y-98678802D01*
X122144306Y-98609860D01*
X122155666Y-98571180D01*
X122157783Y-98566784D01*
X122157789Y-98566775D01*
X122179277Y-98505364D01*
X122219998Y-98448589D01*
X122255365Y-98429277D01*
X122306450Y-98411402D01*
X122316775Y-98407789D01*
X122316784Y-98407783D01*
X122321180Y-98405666D01*
X122390119Y-98394303D01*
X122428802Y-98405658D01*
X122433215Y-98407783D01*
X122433225Y-98407789D01*
X122550999Y-98449000D01*
X122587542Y-98461787D01*
X122749996Y-98480091D01*
X122750000Y-98480091D01*
X122750004Y-98480091D01*
X122912455Y-98461787D01*
X122912456Y-98461786D01*
X122912461Y-98461786D01*
X123066775Y-98407789D01*
X123205204Y-98320808D01*
X123320808Y-98205204D01*
X123407789Y-98066775D01*
X123461786Y-97912461D01*
X123461787Y-97912455D01*
X123480091Y-97750003D01*
X123480091Y-97749996D01*
X123461787Y-97587544D01*
X123461786Y-97587542D01*
X123461786Y-97587539D01*
X123407789Y-97433225D01*
X123320808Y-97294796D01*
X123205204Y-97179192D01*
X123066774Y-97092210D01*
X122912455Y-97038212D01*
X122750004Y-97019909D01*
X122749996Y-97019909D01*
X122587544Y-97038212D01*
X122433221Y-97092211D01*
X122428798Y-97094342D01*
X122359857Y-97105692D01*
X122321202Y-97094342D01*
X122316778Y-97092211D01*
X122162455Y-97038212D01*
X122000004Y-97019909D01*
X121999996Y-97019909D01*
X121837544Y-97038212D01*
X121683225Y-97092210D01*
X121544795Y-97179192D01*
X121429192Y-97294795D01*
X121342212Y-97433222D01*
X121320721Y-97494637D01*
X121279998Y-97551412D01*
X121244637Y-97570721D01*
X121183222Y-97592212D01*
X121044795Y-97679192D01*
X120929192Y-97794795D01*
X120842210Y-97933225D01*
X120788212Y-98087544D01*
X120769909Y-98249996D01*
X107713192Y-98249996D01*
X107707547Y-98242455D01*
X107707544Y-98242452D01*
X107592335Y-98156206D01*
X107592328Y-98156202D01*
X107457482Y-98105908D01*
X107457483Y-98105908D01*
X107397883Y-98099501D01*
X107397881Y-98099500D01*
X107397873Y-98099500D01*
X107397864Y-98099500D01*
X105602129Y-98099500D01*
X105602123Y-98099501D01*
X105542516Y-98105908D01*
X105407671Y-98156202D01*
X105407664Y-98156206D01*
X105292455Y-98242452D01*
X105292452Y-98242455D01*
X105206206Y-98357664D01*
X105206202Y-98357671D01*
X105155908Y-98492517D01*
X105150288Y-98544795D01*
X105149501Y-98552123D01*
X105149500Y-98552135D01*
X105149500Y-100347870D01*
X105149501Y-100347876D01*
X105155908Y-100407483D01*
X105206202Y-100542328D01*
X105206206Y-100542335D01*
X105292452Y-100657544D01*
X105292455Y-100657547D01*
X105407664Y-100743793D01*
X105407671Y-100743797D01*
X105539081Y-100792810D01*
X105595015Y-100834681D01*
X105619432Y-100900145D01*
X105604580Y-100968418D01*
X105583430Y-100996673D01*
X105461503Y-101118600D01*
X105325965Y-101312169D01*
X105325964Y-101312171D01*
X105226098Y-101526335D01*
X105226094Y-101526344D01*
X105164938Y-101754586D01*
X105164936Y-101754596D01*
X105144341Y-101989999D01*
X103250500Y-101989999D01*
X103250500Y-96749996D01*
X107519909Y-96749996D01*
X107519909Y-96750003D01*
X107538212Y-96912455D01*
X107592210Y-97066774D01*
X107679192Y-97205204D01*
X107794796Y-97320808D01*
X107933225Y-97407789D01*
X108087539Y-97461786D01*
X108087542Y-97461786D01*
X108087544Y-97461787D01*
X108249996Y-97480091D01*
X108250000Y-97480091D01*
X108250004Y-97480091D01*
X108412455Y-97461787D01*
X108412456Y-97461786D01*
X108412461Y-97461786D01*
X108566775Y-97407789D01*
X108705204Y-97320808D01*
X108820808Y-97205204D01*
X108907789Y-97066775D01*
X108925789Y-97015332D01*
X108966511Y-96958557D01*
X109001875Y-96939245D01*
X109091775Y-96907789D01*
X109230204Y-96820808D01*
X109345808Y-96705204D01*
X109432789Y-96566775D01*
X109486786Y-96412461D01*
X109486787Y-96412455D01*
X109505091Y-96250003D01*
X109505091Y-96249996D01*
X109486787Y-96087544D01*
X109486786Y-96087542D01*
X109486786Y-96087539D01*
X109432789Y-95933225D01*
X109345808Y-95794796D01*
X109301008Y-95749996D01*
X114519909Y-95749996D01*
X114519909Y-95750003D01*
X114538212Y-95912455D01*
X114592210Y-96066774D01*
X114666588Y-96185145D01*
X114679192Y-96205204D01*
X114794796Y-96320808D01*
X114933225Y-96407789D01*
X115087539Y-96461786D01*
X115087542Y-96461786D01*
X115087544Y-96461787D01*
X115179404Y-96472136D01*
X115213329Y-96475959D01*
X115277743Y-96503025D01*
X115317298Y-96560620D01*
X115319436Y-96630457D01*
X115287128Y-96686860D01*
X115179191Y-96794797D01*
X115092210Y-96933225D01*
X115038212Y-97087544D01*
X115019909Y-97249996D01*
X115019909Y-97250003D01*
X115038212Y-97412455D01*
X115092210Y-97566774D01*
X115179192Y-97705204D01*
X115294796Y-97820808D01*
X115433225Y-97907789D01*
X115587539Y-97961786D01*
X115587542Y-97961786D01*
X115587544Y-97961787D01*
X115749996Y-97980091D01*
X115750000Y-97980091D01*
X115750004Y-97980091D01*
X115912455Y-97961787D01*
X115912456Y-97961786D01*
X115912461Y-97961786D01*
X116066775Y-97907789D01*
X116205204Y-97820808D01*
X116320808Y-97705204D01*
X116407789Y-97566775D01*
X116461786Y-97412461D01*
X116461787Y-97412455D01*
X116480091Y-97250003D01*
X116480091Y-97249996D01*
X116461787Y-97087544D01*
X116461786Y-97087542D01*
X116461786Y-97087539D01*
X116407789Y-96933225D01*
X116320808Y-96794796D01*
X116205204Y-96679192D01*
X116127643Y-96630457D01*
X116066774Y-96592210D01*
X115912455Y-96538212D01*
X115786669Y-96524040D01*
X115722255Y-96496974D01*
X115682700Y-96439379D01*
X115680563Y-96369542D01*
X115712869Y-96313142D01*
X115820808Y-96205204D01*
X115907789Y-96066775D01*
X115961786Y-95912461D01*
X115961787Y-95912455D01*
X115980091Y-95750003D01*
X115980091Y-95750000D01*
X115980091Y-95749996D01*
X115975320Y-95707660D01*
X115987373Y-95638842D01*
X116034721Y-95587462D01*
X116084652Y-95570558D01*
X116162461Y-95561792D01*
X116316775Y-95507795D01*
X116455204Y-95420814D01*
X116570808Y-95305210D01*
X116657789Y-95166781D01*
X116711786Y-95012467D01*
X116711787Y-95012461D01*
X116730091Y-94850009D01*
X116730091Y-94850002D01*
X116711787Y-94687550D01*
X116711786Y-94687548D01*
X116711786Y-94687545D01*
X116657789Y-94533231D01*
X116646946Y-94515975D01*
X116627946Y-94448741D01*
X116646947Y-94384032D01*
X116657789Y-94366778D01*
X116711786Y-94212464D01*
X116711786Y-94212462D01*
X116711787Y-94212460D01*
X116730091Y-94050006D01*
X116730091Y-94049999D01*
X116724457Y-93999996D01*
X120519909Y-93999996D01*
X120519909Y-94000003D01*
X120538212Y-94162455D01*
X120592210Y-94316774D01*
X120675131Y-94448741D01*
X120679192Y-94455204D01*
X120794796Y-94570808D01*
X120933225Y-94657789D01*
X121087539Y-94711786D01*
X121087542Y-94711786D01*
X121087544Y-94711787D01*
X121249996Y-94730091D01*
X121250000Y-94730091D01*
X121250004Y-94730091D01*
X121412455Y-94711787D01*
X121412456Y-94711786D01*
X121412461Y-94711786D01*
X121566775Y-94657789D01*
X121705204Y-94570808D01*
X121820808Y-94455204D01*
X121907789Y-94316775D01*
X121961786Y-94162461D01*
X121961787Y-94162455D01*
X121980091Y-94000003D01*
X121980091Y-93999996D01*
X124019909Y-93999996D01*
X124019909Y-94000003D01*
X124038212Y-94162455D01*
X124092210Y-94316774D01*
X124179192Y-94455204D01*
X124261307Y-94537319D01*
X124294792Y-94598642D01*
X124289808Y-94668334D01*
X124261307Y-94712681D01*
X124179192Y-94794795D01*
X124092210Y-94933225D01*
X124038212Y-95087544D01*
X124019909Y-95249996D01*
X124019909Y-95250003D01*
X124038212Y-95412455D01*
X124092210Y-95566774D01*
X124179192Y-95705204D01*
X124294796Y-95820808D01*
X124433225Y-95907789D01*
X124587539Y-95961786D01*
X124587542Y-95961786D01*
X124587544Y-95961787D01*
X124749996Y-95980091D01*
X124750000Y-95980091D01*
X124750004Y-95980091D01*
X124912455Y-95961787D01*
X124912456Y-95961786D01*
X124912461Y-95961786D01*
X125066775Y-95907789D01*
X125205204Y-95820808D01*
X125320808Y-95705204D01*
X125407789Y-95566775D01*
X125461786Y-95412461D01*
X125470228Y-95337539D01*
X125480091Y-95250003D01*
X125480091Y-95249996D01*
X125461787Y-95087544D01*
X125461786Y-95087542D01*
X125461786Y-95087539D01*
X125407789Y-94933225D01*
X125320808Y-94794796D01*
X125238693Y-94712681D01*
X125205208Y-94651358D01*
X125210192Y-94581666D01*
X125238693Y-94537319D01*
X125260040Y-94515972D01*
X125320808Y-94455204D01*
X125407789Y-94316775D01*
X125461786Y-94162461D01*
X125461787Y-94162455D01*
X125480091Y-94000003D01*
X125480091Y-93999996D01*
X126519909Y-93999996D01*
X126519909Y-94000003D01*
X126538212Y-94162455D01*
X126592210Y-94316774D01*
X126679192Y-94455204D01*
X126761307Y-94537319D01*
X126794792Y-94598642D01*
X126789808Y-94668334D01*
X126761307Y-94712681D01*
X126679192Y-94794795D01*
X126592210Y-94933225D01*
X126538212Y-95087544D01*
X126519909Y-95249996D01*
X126519909Y-95250003D01*
X126538212Y-95412455D01*
X126592210Y-95566774D01*
X126679192Y-95705204D01*
X126794796Y-95820808D01*
X126933225Y-95907789D01*
X127087539Y-95961786D01*
X127087542Y-95961786D01*
X127087544Y-95961787D01*
X127249996Y-95980091D01*
X127250000Y-95980091D01*
X127250004Y-95980091D01*
X127412455Y-95961787D01*
X127412456Y-95961786D01*
X127412461Y-95961786D01*
X127566775Y-95907789D01*
X127705204Y-95820808D01*
X127820808Y-95705204D01*
X127907789Y-95566775D01*
X127931156Y-95499996D01*
X136769909Y-95499996D01*
X136769909Y-95500003D01*
X136788212Y-95662455D01*
X136842210Y-95816774D01*
X136899399Y-95907789D01*
X136929192Y-95955204D01*
X137044796Y-96070808D01*
X137183225Y-96157789D01*
X137337539Y-96211786D01*
X137337542Y-96211786D01*
X137337544Y-96211787D01*
X137499996Y-96230091D01*
X137500000Y-96230091D01*
X137500004Y-96230091D01*
X137662455Y-96211787D01*
X137662456Y-96211786D01*
X137662461Y-96211786D01*
X137816775Y-96157789D01*
X137955204Y-96070808D01*
X138070808Y-95955204D01*
X138157789Y-95816775D01*
X138211786Y-95662461D01*
X138211787Y-95662455D01*
X138230091Y-95500003D01*
X138230091Y-95499996D01*
X138211787Y-95337544D01*
X138211786Y-95337542D01*
X138211786Y-95337539D01*
X138157789Y-95183225D01*
X138070808Y-95044796D01*
X138026008Y-94999996D01*
X146769909Y-94999996D01*
X146769909Y-95000003D01*
X146788212Y-95162455D01*
X146842210Y-95316774D01*
X146842211Y-95316775D01*
X146929192Y-95455204D01*
X147044796Y-95570808D01*
X147183225Y-95657789D01*
X147337539Y-95711786D01*
X147337542Y-95711786D01*
X147337544Y-95711787D01*
X147499996Y-95730091D01*
X147500000Y-95730091D01*
X147500004Y-95730091D01*
X147662455Y-95711787D01*
X147662456Y-95711786D01*
X147662461Y-95711786D01*
X147816775Y-95657789D01*
X147955204Y-95570808D01*
X148070808Y-95455204D01*
X148157789Y-95316775D01*
X148211786Y-95162461D01*
X148211787Y-95162455D01*
X148230091Y-95000003D01*
X148230091Y-94999999D01*
X149644341Y-94999999D01*
X149644341Y-95000000D01*
X149664936Y-95235403D01*
X149664938Y-95235413D01*
X149726094Y-95463655D01*
X149726096Y-95463659D01*
X149726097Y-95463663D01*
X149818798Y-95662461D01*
X149825965Y-95677830D01*
X149825967Y-95677834D01*
X149961501Y-95871395D01*
X149961506Y-95871402D01*
X150128597Y-96038493D01*
X150128603Y-96038498D01*
X150314158Y-96168425D01*
X150357783Y-96223002D01*
X150364977Y-96292500D01*
X150333454Y-96354855D01*
X150314158Y-96371575D01*
X150128597Y-96501505D01*
X149961505Y-96668597D01*
X149825965Y-96862169D01*
X149825964Y-96862171D01*
X149726098Y-97076335D01*
X149726094Y-97076344D01*
X149664938Y-97304586D01*
X149664936Y-97304596D01*
X149644341Y-97539999D01*
X149644341Y-97540000D01*
X149664936Y-97775403D01*
X149664938Y-97775413D01*
X149726094Y-98003655D01*
X149726096Y-98003659D01*
X149726097Y-98003663D01*
X149797227Y-98156202D01*
X149825965Y-98217830D01*
X149825967Y-98217834D01*
X149961501Y-98411395D01*
X149961506Y-98411402D01*
X150128597Y-98578493D01*
X150128603Y-98578498D01*
X150314158Y-98708425D01*
X150357783Y-98763002D01*
X150364977Y-98832500D01*
X150333454Y-98894855D01*
X150314158Y-98911575D01*
X150128597Y-99041505D01*
X149961505Y-99208597D01*
X149825965Y-99402169D01*
X149825964Y-99402171D01*
X149726098Y-99616335D01*
X149726094Y-99616344D01*
X149664938Y-99844586D01*
X149664936Y-99844596D01*
X149644341Y-100079999D01*
X149644341Y-100080000D01*
X149664936Y-100315403D01*
X149664938Y-100315413D01*
X149726094Y-100543655D01*
X149726096Y-100543659D01*
X149726097Y-100543663D01*
X149779201Y-100657544D01*
X149825965Y-100757830D01*
X149825967Y-100757834D01*
X149934281Y-100912521D01*
X149961505Y-100951401D01*
X150128599Y-101118495D01*
X150215283Y-101179192D01*
X150322165Y-101254032D01*
X150322167Y-101254033D01*
X150322170Y-101254035D01*
X150536337Y-101353903D01*
X150764592Y-101415063D01*
X150952918Y-101431539D01*
X150999999Y-101435659D01*
X151000000Y-101435659D01*
X151000001Y-101435659D01*
X151039234Y-101432226D01*
X151235408Y-101415063D01*
X151463663Y-101353903D01*
X151677830Y-101254035D01*
X151871401Y-101118495D01*
X152038495Y-100951401D01*
X152174035Y-100757830D01*
X152273903Y-100543663D01*
X152335063Y-100315408D01*
X152355659Y-100080000D01*
X152335063Y-99844592D01*
X152273903Y-99616337D01*
X152174035Y-99402171D01*
X152173528Y-99401446D01*
X152038494Y-99208597D01*
X151871402Y-99041506D01*
X151871396Y-99041501D01*
X151685842Y-98911575D01*
X151642217Y-98856998D01*
X151635023Y-98787500D01*
X151666546Y-98725145D01*
X151685842Y-98708425D01*
X151728154Y-98678798D01*
X151871401Y-98578495D01*
X152038495Y-98411401D01*
X152174035Y-98217830D01*
X152273903Y-98003663D01*
X152335063Y-97775408D01*
X152355659Y-97540000D01*
X152335063Y-97304592D01*
X152273903Y-97076337D01*
X152174035Y-96862171D01*
X152145073Y-96820808D01*
X152038494Y-96668597D01*
X151871402Y-96501506D01*
X151871396Y-96501501D01*
X151685842Y-96371575D01*
X151642217Y-96316998D01*
X151635023Y-96247500D01*
X151666546Y-96185145D01*
X151685842Y-96168425D01*
X151794685Y-96092212D01*
X151871401Y-96038495D01*
X152038495Y-95871401D01*
X152174035Y-95677830D01*
X152273903Y-95463663D01*
X152335063Y-95235408D01*
X152355659Y-95000000D01*
X152335063Y-94764592D01*
X152273903Y-94536337D01*
X152174035Y-94322171D01*
X152150258Y-94288214D01*
X152038496Y-94128600D01*
X152005240Y-94095344D01*
X151916567Y-94006671D01*
X151883084Y-93945351D01*
X151888068Y-93875659D01*
X151929939Y-93819725D01*
X151960915Y-93802810D01*
X152092331Y-93753796D01*
X152207546Y-93667546D01*
X152293796Y-93552331D01*
X152344091Y-93417483D01*
X152350500Y-93357873D01*
X152350499Y-91562128D01*
X152344091Y-91502517D01*
X152332761Y-91472141D01*
X152293797Y-91367671D01*
X152293793Y-91367664D01*
X152207547Y-91252455D01*
X152207544Y-91252452D01*
X152092335Y-91166206D01*
X152092328Y-91166202D01*
X151957482Y-91115908D01*
X151957483Y-91115908D01*
X151897883Y-91109501D01*
X151897881Y-91109500D01*
X151897873Y-91109500D01*
X151897864Y-91109500D01*
X150102129Y-91109500D01*
X150102123Y-91109501D01*
X150042516Y-91115908D01*
X149907671Y-91166202D01*
X149907664Y-91166206D01*
X149792455Y-91252452D01*
X149792452Y-91252455D01*
X149706206Y-91367664D01*
X149706202Y-91367671D01*
X149655908Y-91502517D01*
X149649501Y-91562116D01*
X149649501Y-91562123D01*
X149649500Y-91562135D01*
X149649500Y-93357870D01*
X149649501Y-93357876D01*
X149655908Y-93417483D01*
X149706202Y-93552328D01*
X149706206Y-93552335D01*
X149792452Y-93667544D01*
X149792455Y-93667547D01*
X149907664Y-93753793D01*
X149907671Y-93753797D01*
X150039081Y-93802810D01*
X150095015Y-93844681D01*
X150119432Y-93910145D01*
X150104580Y-93978418D01*
X150083430Y-94006673D01*
X149961503Y-94128600D01*
X149825965Y-94322169D01*
X149825964Y-94322171D01*
X149726098Y-94536335D01*
X149726094Y-94536344D01*
X149664938Y-94764586D01*
X149664936Y-94764596D01*
X149644341Y-94999999D01*
X148230091Y-94999999D01*
X148230091Y-94999996D01*
X148211787Y-94837544D01*
X148211786Y-94837542D01*
X148211786Y-94837539D01*
X148157789Y-94683225D01*
X148070808Y-94544796D01*
X147955204Y-94429192D01*
X147855865Y-94366773D01*
X147816774Y-94342210D01*
X147662455Y-94288212D01*
X147500004Y-94269909D01*
X147499996Y-94269909D01*
X147337544Y-94288212D01*
X147183225Y-94342210D01*
X147044795Y-94429192D01*
X146929192Y-94544795D01*
X146842210Y-94683225D01*
X146788212Y-94837544D01*
X146769909Y-94999996D01*
X138026008Y-94999996D01*
X137955204Y-94929192D01*
X137896564Y-94892346D01*
X137816774Y-94842210D01*
X137662455Y-94788212D01*
X137500004Y-94769909D01*
X137499996Y-94769909D01*
X137337544Y-94788212D01*
X137183225Y-94842210D01*
X137044795Y-94929192D01*
X136929192Y-95044795D01*
X136842210Y-95183225D01*
X136788212Y-95337544D01*
X136769909Y-95499996D01*
X127931156Y-95499996D01*
X127961786Y-95412461D01*
X127970228Y-95337539D01*
X127980091Y-95250003D01*
X127980091Y-95249996D01*
X127961787Y-95087544D01*
X127961786Y-95087542D01*
X127961786Y-95087539D01*
X127907789Y-94933225D01*
X127820808Y-94794796D01*
X127738693Y-94712681D01*
X127705208Y-94651358D01*
X127710192Y-94581666D01*
X127738693Y-94537319D01*
X127760040Y-94515972D01*
X127820808Y-94455204D01*
X127907789Y-94316775D01*
X127961786Y-94162461D01*
X127961787Y-94162455D01*
X127980091Y-94000003D01*
X127980091Y-93999996D01*
X127961787Y-93837544D01*
X127961786Y-93837542D01*
X127961786Y-93837539D01*
X127907789Y-93683225D01*
X127820808Y-93544796D01*
X127705204Y-93429192D01*
X127678577Y-93412461D01*
X127566774Y-93342210D01*
X127412455Y-93288212D01*
X127250004Y-93269909D01*
X127249996Y-93269909D01*
X127087544Y-93288212D01*
X126933225Y-93342210D01*
X126794795Y-93429192D01*
X126679192Y-93544795D01*
X126592210Y-93683225D01*
X126538212Y-93837544D01*
X126519909Y-93999996D01*
X125480091Y-93999996D01*
X125461787Y-93837544D01*
X125461786Y-93837542D01*
X125461786Y-93837539D01*
X125407789Y-93683225D01*
X125320808Y-93544796D01*
X125205204Y-93429192D01*
X125178577Y-93412461D01*
X125066774Y-93342210D01*
X124912455Y-93288212D01*
X124750004Y-93269909D01*
X124749996Y-93269909D01*
X124587544Y-93288212D01*
X124433225Y-93342210D01*
X124294795Y-93429192D01*
X124179192Y-93544795D01*
X124092210Y-93683225D01*
X124038212Y-93837544D01*
X124019909Y-93999996D01*
X121980091Y-93999996D01*
X121961787Y-93837544D01*
X121961786Y-93837542D01*
X121961786Y-93837539D01*
X121907789Y-93683225D01*
X121820808Y-93544796D01*
X121705204Y-93429192D01*
X121678577Y-93412461D01*
X121566774Y-93342210D01*
X121412455Y-93288212D01*
X121250004Y-93269909D01*
X121249996Y-93269909D01*
X121087544Y-93288212D01*
X120933225Y-93342210D01*
X120794795Y-93429192D01*
X120679192Y-93544795D01*
X120592210Y-93683225D01*
X120538212Y-93837544D01*
X120519909Y-93999996D01*
X116724457Y-93999996D01*
X116711787Y-93887547D01*
X116711786Y-93887545D01*
X116711786Y-93887542D01*
X116657789Y-93733228D01*
X116646946Y-93715972D01*
X116627946Y-93648738D01*
X116646947Y-93584029D01*
X116657789Y-93566775D01*
X116711786Y-93412461D01*
X116711786Y-93412459D01*
X116711787Y-93412457D01*
X116730091Y-93250003D01*
X116730091Y-93249996D01*
X116711787Y-93087544D01*
X116711786Y-93087542D01*
X116711786Y-93087539D01*
X116681153Y-92999996D01*
X136769909Y-92999996D01*
X136769909Y-93000003D01*
X136788212Y-93162455D01*
X136842210Y-93316774D01*
X136929192Y-93455204D01*
X137044796Y-93570808D01*
X137183225Y-93657789D01*
X137337539Y-93711786D01*
X137337542Y-93711786D01*
X137337544Y-93711787D01*
X137499996Y-93730091D01*
X137500000Y-93730091D01*
X137500004Y-93730091D01*
X137662455Y-93711787D01*
X137662456Y-93711786D01*
X137662461Y-93711786D01*
X137816775Y-93657789D01*
X137955204Y-93570808D01*
X138070808Y-93455204D01*
X138157789Y-93316775D01*
X138211786Y-93162461D01*
X138220228Y-93087539D01*
X138230091Y-93000003D01*
X138230091Y-92999996D01*
X138211787Y-92837544D01*
X138211786Y-92837542D01*
X138211786Y-92837539D01*
X138157789Y-92683225D01*
X138070808Y-92544796D01*
X137955204Y-92429192D01*
X137908744Y-92399999D01*
X137816774Y-92342210D01*
X137662455Y-92288212D01*
X137500004Y-92269909D01*
X137499996Y-92269909D01*
X137337544Y-92288212D01*
X137183225Y-92342210D01*
X137044795Y-92429192D01*
X136929192Y-92544795D01*
X136842210Y-92683225D01*
X136788212Y-92837544D01*
X136769909Y-92999996D01*
X116681153Y-92999996D01*
X116657789Y-92933225D01*
X116631240Y-92890972D01*
X116612240Y-92823735D01*
X116631240Y-92759029D01*
X116657789Y-92716778D01*
X116711786Y-92562464D01*
X116711786Y-92562462D01*
X116711787Y-92562460D01*
X116730091Y-92400006D01*
X116730091Y-92399999D01*
X116711787Y-92237547D01*
X116711786Y-92237545D01*
X116711786Y-92237542D01*
X116657789Y-92083228D01*
X116646946Y-92065972D01*
X116628302Y-91999996D01*
X122269909Y-91999996D01*
X122269909Y-92000003D01*
X122288212Y-92162455D01*
X122342210Y-92316774D01*
X122417291Y-92436264D01*
X122429192Y-92455204D01*
X122544796Y-92570808D01*
X122683225Y-92657789D01*
X122837539Y-92711786D01*
X122837542Y-92711786D01*
X122837544Y-92711787D01*
X122999996Y-92730091D01*
X123000000Y-92730091D01*
X123000004Y-92730091D01*
X123162455Y-92711787D01*
X123162456Y-92711786D01*
X123162461Y-92711786D01*
X123316775Y-92657789D01*
X123455204Y-92570808D01*
X123570808Y-92455204D01*
X123657789Y-92316775D01*
X123711786Y-92162461D01*
X123711787Y-92162455D01*
X123730091Y-92000003D01*
X123730091Y-91999996D01*
X123711787Y-91837544D01*
X123711786Y-91837542D01*
X123711786Y-91837539D01*
X123657789Y-91683225D01*
X123570808Y-91544796D01*
X123455204Y-91429192D01*
X123360014Y-91369380D01*
X123316774Y-91342210D01*
X123162455Y-91288212D01*
X123000004Y-91269909D01*
X122999996Y-91269909D01*
X122837544Y-91288212D01*
X122683225Y-91342210D01*
X122544795Y-91429192D01*
X122429192Y-91544795D01*
X122342210Y-91683225D01*
X122288212Y-91837544D01*
X122269909Y-91999996D01*
X116628302Y-91999996D01*
X116627946Y-91998738D01*
X116646947Y-91934029D01*
X116657789Y-91916775D01*
X116711786Y-91762461D01*
X116711786Y-91762459D01*
X116711787Y-91762457D01*
X116730091Y-91600003D01*
X116730091Y-91599996D01*
X116711787Y-91437544D01*
X116711786Y-91437542D01*
X116711786Y-91437539D01*
X116657789Y-91283225D01*
X116570808Y-91144796D01*
X116455204Y-91029192D01*
X116316774Y-90942210D01*
X116162455Y-90888212D01*
X116000004Y-90869909D01*
X115999996Y-90869909D01*
X115837544Y-90888212D01*
X115683225Y-90942210D01*
X115544795Y-91029192D01*
X115429192Y-91144795D01*
X115342210Y-91283225D01*
X115288212Y-91437544D01*
X115269909Y-91599996D01*
X115269909Y-91600003D01*
X115288212Y-91762455D01*
X115342209Y-91916771D01*
X115342212Y-91916776D01*
X115353053Y-91934031D01*
X115372052Y-92001269D01*
X115353055Y-92065969D01*
X115342210Y-92083229D01*
X115288212Y-92237547D01*
X115269909Y-92399999D01*
X115269909Y-92400006D01*
X115288212Y-92562458D01*
X115342210Y-92716777D01*
X115368759Y-92759029D01*
X115387759Y-92826265D01*
X115368760Y-92890971D01*
X115342211Y-92933224D01*
X115288212Y-93087544D01*
X115269909Y-93249996D01*
X115269909Y-93250003D01*
X115288212Y-93412455D01*
X115342209Y-93566771D01*
X115342210Y-93566773D01*
X115342211Y-93566775D01*
X115344745Y-93570808D01*
X115353053Y-93584031D01*
X115372052Y-93651269D01*
X115353055Y-93715969D01*
X115342210Y-93733229D01*
X115288212Y-93887547D01*
X115269909Y-94049999D01*
X115269909Y-94050006D01*
X115288212Y-94212458D01*
X115342209Y-94366774D01*
X115342212Y-94366779D01*
X115353053Y-94384034D01*
X115372052Y-94451272D01*
X115353055Y-94515972D01*
X115342210Y-94533232D01*
X115288212Y-94687550D01*
X115271313Y-94837544D01*
X115269909Y-94850006D01*
X115271659Y-94865541D01*
X115274679Y-94892346D01*
X115262623Y-94961167D01*
X115215273Y-95012546D01*
X115165342Y-95029447D01*
X115087544Y-95038212D01*
X114933225Y-95092210D01*
X114794795Y-95179192D01*
X114679192Y-95294795D01*
X114592210Y-95433225D01*
X114538212Y-95587544D01*
X114519909Y-95749996D01*
X109301008Y-95749996D01*
X109230204Y-95679192D01*
X109203567Y-95662455D01*
X109091774Y-95592210D01*
X108937455Y-95538212D01*
X108775004Y-95519909D01*
X108774996Y-95519909D01*
X108612544Y-95538212D01*
X108458225Y-95592210D01*
X108319795Y-95679192D01*
X108204192Y-95794795D01*
X108117209Y-95933227D01*
X108099208Y-95984670D01*
X108058485Y-96041445D01*
X108023124Y-96060753D01*
X107933223Y-96092211D01*
X107933222Y-96092212D01*
X107794795Y-96179192D01*
X107679192Y-96294795D01*
X107592210Y-96433225D01*
X107538212Y-96587544D01*
X107519909Y-96749996D01*
X103250500Y-96749996D01*
X103250500Y-85267799D01*
X105095741Y-85267799D01*
X105095741Y-85267800D01*
X105116336Y-85503203D01*
X105116338Y-85503213D01*
X105177494Y-85731455D01*
X105177496Y-85731459D01*
X105177497Y-85731463D01*
X105277365Y-85945629D01*
X105277365Y-85945630D01*
X105277367Y-85945634D01*
X105412901Y-86139195D01*
X105412906Y-86139202D01*
X105579997Y-86306293D01*
X105580003Y-86306298D01*
X105765558Y-86436225D01*
X105809183Y-86490802D01*
X105816377Y-86560300D01*
X105784854Y-86622655D01*
X105765558Y-86639375D01*
X105579997Y-86769305D01*
X105412905Y-86936397D01*
X105277365Y-87129969D01*
X105277364Y-87129971D01*
X105177498Y-87344135D01*
X105177494Y-87344144D01*
X105116338Y-87572386D01*
X105116336Y-87572396D01*
X105095741Y-87807799D01*
X105095741Y-87807800D01*
X105116336Y-88043203D01*
X105116338Y-88043213D01*
X105177494Y-88271455D01*
X105177496Y-88271459D01*
X105177497Y-88271463D01*
X105266246Y-88461786D01*
X105277365Y-88485630D01*
X105277367Y-88485634D01*
X105383850Y-88637706D01*
X105410180Y-88675310D01*
X105412901Y-88679195D01*
X105412906Y-88679202D01*
X105579997Y-88846293D01*
X105580003Y-88846298D01*
X105765558Y-88976225D01*
X105809183Y-89030802D01*
X105816377Y-89100300D01*
X105784854Y-89162655D01*
X105765558Y-89179375D01*
X105579997Y-89309305D01*
X105412905Y-89476397D01*
X105277365Y-89669969D01*
X105277364Y-89669971D01*
X105177498Y-89884135D01*
X105177494Y-89884144D01*
X105116338Y-90112386D01*
X105116336Y-90112396D01*
X105095741Y-90347799D01*
X105095741Y-90347800D01*
X105116336Y-90583203D01*
X105116338Y-90583213D01*
X105177494Y-90811455D01*
X105177496Y-90811459D01*
X105177497Y-90811463D01*
X105251940Y-90971106D01*
X105277365Y-91025630D01*
X105277367Y-91025634D01*
X105336091Y-91109500D01*
X105412901Y-91219196D01*
X105412906Y-91219202D01*
X105534830Y-91341126D01*
X105568315Y-91402449D01*
X105563331Y-91472141D01*
X105521459Y-91528074D01*
X105490483Y-91544989D01*
X105359069Y-91594003D01*
X105359064Y-91594006D01*
X105243855Y-91680252D01*
X105243852Y-91680255D01*
X105157606Y-91795464D01*
X105157602Y-91795471D01*
X105107308Y-91930317D01*
X105100901Y-91989916D01*
X105100900Y-91989935D01*
X105100900Y-93785670D01*
X105100901Y-93785676D01*
X105107308Y-93845283D01*
X105157602Y-93980128D01*
X105157606Y-93980135D01*
X105243852Y-94095344D01*
X105243855Y-94095347D01*
X105359064Y-94181593D01*
X105359071Y-94181597D01*
X105493917Y-94231891D01*
X105493916Y-94231891D01*
X105500844Y-94232635D01*
X105553527Y-94238300D01*
X107349272Y-94238299D01*
X107408883Y-94231891D01*
X107543731Y-94181596D01*
X107658946Y-94095346D01*
X107745196Y-93980131D01*
X107795491Y-93845283D01*
X107801900Y-93785673D01*
X107801899Y-93149397D01*
X107821583Y-93082359D01*
X107874387Y-93036604D01*
X107943546Y-93026660D01*
X107966853Y-93032356D01*
X108087539Y-93074586D01*
X108087542Y-93074586D01*
X108087544Y-93074587D01*
X108249996Y-93092891D01*
X108250000Y-93092891D01*
X108250004Y-93092891D01*
X108412455Y-93074587D01*
X108412456Y-93074586D01*
X108412461Y-93074586D01*
X108566775Y-93020589D01*
X108705204Y-92933608D01*
X108820808Y-92818004D01*
X108865574Y-92746757D01*
X108917905Y-92700470D01*
X108932134Y-92695575D01*
X108931985Y-92695149D01*
X108938557Y-92692849D01*
X108938559Y-92692849D01*
X109092873Y-92638852D01*
X109231302Y-92551871D01*
X109346906Y-92436267D01*
X109400817Y-92350467D01*
X109453150Y-92304177D01*
X109522203Y-92293528D01*
X109546759Y-92299397D01*
X109653160Y-92336629D01*
X109653163Y-92336630D01*
X109815617Y-92354934D01*
X109815621Y-92354934D01*
X109815625Y-92354934D01*
X109978076Y-92336630D01*
X109978077Y-92336629D01*
X109978082Y-92336629D01*
X110132396Y-92282632D01*
X110270825Y-92195651D01*
X110386429Y-92080047D01*
X110473410Y-91941618D01*
X110527407Y-91787304D01*
X110530207Y-91762455D01*
X110545712Y-91624846D01*
X110545712Y-91624839D01*
X110527408Y-91462387D01*
X110527407Y-91462385D01*
X110527407Y-91462382D01*
X110473410Y-91308068D01*
X110386429Y-91169639D01*
X110270825Y-91054035D01*
X110176727Y-90994909D01*
X110132395Y-90967053D01*
X110040337Y-90934841D01*
X109993634Y-90918499D01*
X109936860Y-90877778D01*
X109929596Y-90867430D01*
X109900301Y-90820808D01*
X109870808Y-90773869D01*
X109755204Y-90658265D01*
X109635744Y-90583203D01*
X109616774Y-90571283D01*
X109462455Y-90517285D01*
X109300004Y-90498982D01*
X109299996Y-90498982D01*
X109137544Y-90517285D01*
X108983225Y-90571283D01*
X108844795Y-90658265D01*
X108729192Y-90773868D01*
X108642210Y-90912298D01*
X108588212Y-91066617D01*
X108572121Y-91209432D01*
X108545054Y-91273846D01*
X108489859Y-91312588D01*
X108459323Y-91323274D01*
X108430912Y-91341126D01*
X108320893Y-91410255D01*
X108205288Y-91525860D01*
X108205287Y-91525862D01*
X108160522Y-91597104D01*
X108108187Y-91643395D01*
X108093963Y-91648292D01*
X108094111Y-91648715D01*
X108087541Y-91651013D01*
X108087539Y-91651014D01*
X108032549Y-91670255D01*
X107933222Y-91705011D01*
X107856048Y-91753503D01*
X107788812Y-91772503D01*
X107721976Y-91752135D01*
X107690813Y-91722822D01*
X107658946Y-91680254D01*
X107658944Y-91680252D01*
X107658943Y-91680251D01*
X107543735Y-91594006D01*
X107543728Y-91594002D01*
X107412317Y-91544989D01*
X107356383Y-91503118D01*
X107331966Y-91437653D01*
X107346818Y-91369380D01*
X107367963Y-91341132D01*
X107489895Y-91219201D01*
X107625435Y-91025630D01*
X107725303Y-90811463D01*
X107786463Y-90583208D01*
X107807059Y-90347800D01*
X107798502Y-90249996D01*
X129269909Y-90249996D01*
X129269909Y-90250003D01*
X129288212Y-90412455D01*
X129342210Y-90566774D01*
X129429192Y-90705204D01*
X129544797Y-90820809D01*
X129642988Y-90882507D01*
X129689278Y-90934841D01*
X129699926Y-91003895D01*
X129671551Y-91067743D01*
X129642988Y-91092493D01*
X129544797Y-91154190D01*
X129429192Y-91269795D01*
X129342210Y-91408225D01*
X129288212Y-91562544D01*
X129269909Y-91724996D01*
X129269909Y-91725003D01*
X129288212Y-91887455D01*
X129342210Y-92041774D01*
X129418043Y-92162461D01*
X129429192Y-92180204D01*
X129544796Y-92295808D01*
X129683225Y-92382789D01*
X129837539Y-92436786D01*
X129837542Y-92436786D01*
X129837544Y-92436787D01*
X129999996Y-92455091D01*
X130000000Y-92455091D01*
X130000004Y-92455091D01*
X130162455Y-92436787D01*
X130162456Y-92436786D01*
X130162461Y-92436786D01*
X130316775Y-92382789D01*
X130455204Y-92295808D01*
X130570808Y-92180204D01*
X130657789Y-92041775D01*
X130711786Y-91887461D01*
X130711787Y-91887455D01*
X130730091Y-91725003D01*
X130730091Y-91724996D01*
X130711787Y-91562544D01*
X130711786Y-91562542D01*
X130711786Y-91562539D01*
X130657789Y-91408225D01*
X130570808Y-91269796D01*
X130455204Y-91154192D01*
X130357011Y-91092493D01*
X130310721Y-91040159D01*
X130300073Y-90971106D01*
X130328448Y-90907257D01*
X130357010Y-90882507D01*
X130455204Y-90820808D01*
X130570808Y-90705204D01*
X130657789Y-90566775D01*
X130711786Y-90412461D01*
X130730091Y-90250000D01*
X130714586Y-90112392D01*
X130711787Y-90087544D01*
X130711786Y-90087542D01*
X130711786Y-90087539D01*
X130657789Y-89933225D01*
X130570808Y-89794796D01*
X130455204Y-89679192D01*
X130355652Y-89616639D01*
X130316774Y-89592210D01*
X130162455Y-89538212D01*
X130000004Y-89519909D01*
X129999996Y-89519909D01*
X129837544Y-89538212D01*
X129683225Y-89592210D01*
X129544795Y-89679192D01*
X129429192Y-89794795D01*
X129342210Y-89933225D01*
X129288212Y-90087544D01*
X129269909Y-90249996D01*
X107798502Y-90249996D01*
X107786463Y-90112392D01*
X107725303Y-89884137D01*
X107625435Y-89669971D01*
X107574788Y-89597638D01*
X107489894Y-89476397D01*
X107322802Y-89309306D01*
X107322796Y-89309301D01*
X107137242Y-89179375D01*
X107093617Y-89124798D01*
X107086423Y-89055300D01*
X107117946Y-88992945D01*
X107137242Y-88976225D01*
X107259734Y-88890455D01*
X107322801Y-88846295D01*
X107489895Y-88679201D01*
X107625435Y-88485630D01*
X107725303Y-88271463D01*
X107786463Y-88043208D01*
X107807059Y-87807800D01*
X107786463Y-87572392D01*
X107783335Y-87560718D01*
X107784996Y-87490869D01*
X107824158Y-87433006D01*
X107888386Y-87405500D01*
X107944061Y-87411580D01*
X108011960Y-87435339D01*
X108068734Y-87476060D01*
X108088045Y-87511425D01*
X108117210Y-87594773D01*
X108117211Y-87594775D01*
X108204192Y-87733204D01*
X108319796Y-87848808D01*
X108458225Y-87935789D01*
X108612539Y-87989786D01*
X108612542Y-87989786D01*
X108612544Y-87989787D01*
X108774996Y-88008091D01*
X108775000Y-88008091D01*
X108775003Y-88008091D01*
X108880519Y-87996202D01*
X108949341Y-88008256D01*
X109000721Y-88055605D01*
X109018345Y-88123216D01*
X108996619Y-88189621D01*
X108982085Y-88207103D01*
X108916391Y-88272797D01*
X108829410Y-88411225D01*
X108775412Y-88565544D01*
X108757109Y-88727996D01*
X108757109Y-88728003D01*
X108775412Y-88890455D01*
X108829410Y-89044774D01*
X108850162Y-89077800D01*
X108916392Y-89183204D01*
X109031996Y-89298808D01*
X109170425Y-89385789D01*
X109324739Y-89439786D01*
X109324742Y-89439786D01*
X109324744Y-89439787D01*
X109487196Y-89458091D01*
X109487200Y-89458091D01*
X109487204Y-89458091D01*
X109649655Y-89439787D01*
X109649656Y-89439786D01*
X109649661Y-89439786D01*
X109803975Y-89385789D01*
X109942404Y-89298808D01*
X110058008Y-89183204D01*
X110144989Y-89044775D01*
X110198986Y-88890461D01*
X110203962Y-88846298D01*
X110217291Y-88728003D01*
X110217291Y-88727996D01*
X110207118Y-88637706D01*
X110219173Y-88568884D01*
X110266522Y-88517505D01*
X110316455Y-88500603D01*
X110361924Y-88495480D01*
X110412454Y-88489787D01*
X110412454Y-88489786D01*
X110412461Y-88489786D01*
X110566775Y-88435789D01*
X110705204Y-88348808D01*
X110820808Y-88233204D01*
X110907789Y-88094775D01*
X110961786Y-87940461D01*
X110961787Y-87940455D01*
X110980091Y-87778003D01*
X110980091Y-87777996D01*
X110961787Y-87615544D01*
X110961786Y-87615542D01*
X110961786Y-87615539D01*
X110907789Y-87461225D01*
X110820808Y-87322796D01*
X110705204Y-87207192D01*
X110702040Y-87205204D01*
X110566774Y-87120210D01*
X110412455Y-87066212D01*
X110250004Y-87047909D01*
X110249996Y-87047909D01*
X110087544Y-87066212D01*
X109933225Y-87120210D01*
X109794797Y-87207191D01*
X109709329Y-87292659D01*
X109648005Y-87326143D01*
X109578314Y-87321159D01*
X109522380Y-87279287D01*
X109498428Y-87218860D01*
X109486787Y-87115544D01*
X109486786Y-87115542D01*
X109486786Y-87115539D01*
X109447406Y-87002997D01*
X111723951Y-87002997D01*
X111723951Y-87003002D01*
X111742885Y-87171056D01*
X111755530Y-87207192D01*
X111795981Y-87322795D01*
X111798745Y-87330692D01*
X111865561Y-87437028D01*
X111884561Y-87504264D01*
X111865561Y-87568971D01*
X111861828Y-87574911D01*
X111798745Y-87675307D01*
X111742885Y-87834943D01*
X111723951Y-88002997D01*
X111723951Y-88003002D01*
X111742885Y-88171056D01*
X111798745Y-88330692D01*
X111865561Y-88437028D01*
X111884561Y-88504264D01*
X111865561Y-88568972D01*
X111798745Y-88675307D01*
X111742885Y-88834943D01*
X111723951Y-89002997D01*
X111723951Y-89003002D01*
X111742885Y-89171056D01*
X111798745Y-89330694D01*
X111798747Y-89330697D01*
X111888718Y-89473884D01*
X111888723Y-89473890D01*
X112008309Y-89593476D01*
X112008315Y-89593481D01*
X112151502Y-89683452D01*
X112151505Y-89683454D01*
X112151509Y-89683455D01*
X112151510Y-89683456D01*
X112224113Y-89708860D01*
X112311143Y-89739314D01*
X112479197Y-89758249D01*
X112479200Y-89758249D01*
X112479203Y-89758249D01*
X112647256Y-89739314D01*
X112647259Y-89739313D01*
X112806890Y-89683456D01*
X112913228Y-89616638D01*
X112980463Y-89597638D01*
X113045170Y-89616638D01*
X113105789Y-89654727D01*
X113151506Y-89683454D01*
X113151507Y-89683454D01*
X113151510Y-89683456D01*
X113257930Y-89720694D01*
X113311143Y-89739314D01*
X113479197Y-89758249D01*
X113479200Y-89758249D01*
X113479203Y-89758249D01*
X113647256Y-89739314D01*
X113647259Y-89739313D01*
X113806890Y-89683456D01*
X113913228Y-89616638D01*
X113980463Y-89597638D01*
X114045170Y-89616638D01*
X114105789Y-89654727D01*
X114151506Y-89683454D01*
X114151507Y-89683454D01*
X114151510Y-89683456D01*
X114257930Y-89720694D01*
X114311143Y-89739314D01*
X114479197Y-89758249D01*
X114479200Y-89758249D01*
X114479203Y-89758249D01*
X114647256Y-89739314D01*
X114647259Y-89739313D01*
X114806890Y-89683456D01*
X114806892Y-89683454D01*
X114806894Y-89683454D01*
X114806897Y-89683452D01*
X114950084Y-89593481D01*
X114950085Y-89593480D01*
X114950090Y-89593477D01*
X115069677Y-89473890D01*
X115077282Y-89461787D01*
X115159652Y-89330697D01*
X115159654Y-89330694D01*
X115159654Y-89330692D01*
X115159656Y-89330690D01*
X115215513Y-89171059D01*
X115215513Y-89171058D01*
X115215514Y-89171056D01*
X115234449Y-89003002D01*
X115234449Y-89002997D01*
X115215514Y-88834943D01*
X115185791Y-88750000D01*
X115185790Y-88749996D01*
X116269909Y-88749996D01*
X116269909Y-88750003D01*
X116288212Y-88912455D01*
X116342210Y-89066774D01*
X116415368Y-89183204D01*
X116429192Y-89205204D01*
X116544796Y-89320808D01*
X116683225Y-89407789D01*
X116837539Y-89461786D01*
X116837542Y-89461786D01*
X116837544Y-89461787D01*
X116999996Y-89480091D01*
X117000000Y-89480091D01*
X117000004Y-89480091D01*
X117162455Y-89461787D01*
X117162456Y-89461786D01*
X117162461Y-89461786D01*
X117316775Y-89407789D01*
X117455204Y-89320808D01*
X117570808Y-89205204D01*
X117657789Y-89066775D01*
X117711786Y-88912461D01*
X117714265Y-88890461D01*
X117730091Y-88750003D01*
X117730091Y-88749996D01*
X117713228Y-88600331D01*
X117725283Y-88531510D01*
X117772632Y-88480130D01*
X117840242Y-88462506D01*
X117850331Y-88463228D01*
X117999996Y-88480091D01*
X118000000Y-88480091D01*
X118000004Y-88480091D01*
X118162455Y-88461787D01*
X118162456Y-88461786D01*
X118162461Y-88461786D01*
X118316775Y-88407789D01*
X118455204Y-88320808D01*
X118570808Y-88205204D01*
X118657789Y-88066775D01*
X118711786Y-87912461D01*
X118711787Y-87912455D01*
X118730091Y-87750003D01*
X118730091Y-87749996D01*
X118711787Y-87587544D01*
X118711786Y-87587542D01*
X118711786Y-87587539D01*
X118708867Y-87579196D01*
X136709309Y-87579196D01*
X136709309Y-87579203D01*
X136727612Y-87741655D01*
X136781610Y-87895974D01*
X136848858Y-88002997D01*
X136868592Y-88034404D01*
X136984196Y-88150008D01*
X137122625Y-88236989D01*
X137276939Y-88290986D01*
X137276942Y-88290986D01*
X137276944Y-88290987D01*
X137439396Y-88309291D01*
X137439400Y-88309291D01*
X137439404Y-88309291D01*
X137601855Y-88290987D01*
X137601856Y-88290986D01*
X137601861Y-88290986D01*
X137756175Y-88236989D01*
X137894604Y-88150008D01*
X138010208Y-88034404D01*
X138097189Y-87895975D01*
X138151186Y-87741661D01*
X138158662Y-87675310D01*
X138169491Y-87579203D01*
X138169491Y-87579196D01*
X138151187Y-87416744D01*
X138151186Y-87416742D01*
X138151186Y-87416739D01*
X138097189Y-87262425D01*
X138010208Y-87123996D01*
X137894604Y-87008392D01*
X137886018Y-87002997D01*
X137756174Y-86921410D01*
X137601855Y-86867412D01*
X137439404Y-86849109D01*
X137439396Y-86849109D01*
X137276944Y-86867412D01*
X137122625Y-86921410D01*
X136984195Y-87008392D01*
X136868592Y-87123995D01*
X136781610Y-87262425D01*
X136727612Y-87416744D01*
X136709309Y-87579196D01*
X118708867Y-87579196D01*
X118657789Y-87433225D01*
X118570808Y-87294796D01*
X118455204Y-87179192D01*
X118316774Y-87092210D01*
X118162455Y-87038212D01*
X118000004Y-87019909D01*
X117999996Y-87019909D01*
X117837544Y-87038212D01*
X117683225Y-87092210D01*
X117544795Y-87179192D01*
X117429192Y-87294795D01*
X117342210Y-87433225D01*
X117288212Y-87587544D01*
X117269909Y-87749996D01*
X117269909Y-87750004D01*
X117286771Y-87899668D01*
X117274716Y-87968490D01*
X117227367Y-88019869D01*
X117159756Y-88037493D01*
X117149668Y-88036771D01*
X117000004Y-88019909D01*
X116999996Y-88019909D01*
X116837544Y-88038212D01*
X116683225Y-88092210D01*
X116544795Y-88179192D01*
X116429192Y-88294795D01*
X116342210Y-88433225D01*
X116288212Y-88587544D01*
X116269909Y-88749996D01*
X115185790Y-88749996D01*
X115159656Y-88675310D01*
X115159654Y-88675307D01*
X115159654Y-88675306D01*
X115112543Y-88600331D01*
X115092838Y-88568971D01*
X115073838Y-88501737D01*
X115092839Y-88437028D01*
X115159656Y-88330690D01*
X115215513Y-88171059D01*
X115215513Y-88171058D01*
X115215514Y-88171056D01*
X115234449Y-88003002D01*
X115234449Y-88002997D01*
X115215514Y-87834943D01*
X115185791Y-87750000D01*
X115159656Y-87675310D01*
X115159654Y-87675307D01*
X115159654Y-87675306D01*
X115109051Y-87594773D01*
X115092838Y-87568971D01*
X115073838Y-87501737D01*
X115092839Y-87437028D01*
X115159656Y-87330690D01*
X115215513Y-87171059D01*
X115215513Y-87171058D01*
X115215514Y-87171056D01*
X115234449Y-87003002D01*
X115234449Y-87002997D01*
X115215514Y-86834943D01*
X115170812Y-86707192D01*
X115159656Y-86675310D01*
X115159655Y-86675309D01*
X115159654Y-86675305D01*
X115159652Y-86675302D01*
X115069681Y-86532115D01*
X115069676Y-86532109D01*
X114950090Y-86412523D01*
X114950084Y-86412518D01*
X114806897Y-86322547D01*
X114806894Y-86322545D01*
X114647256Y-86266685D01*
X114479203Y-86247751D01*
X114479197Y-86247751D01*
X114311143Y-86266685D01*
X114151507Y-86322545D01*
X114045172Y-86389361D01*
X113977936Y-86408361D01*
X113913228Y-86389361D01*
X113806892Y-86322545D01*
X113806891Y-86322544D01*
X113806890Y-86322544D01*
X113768570Y-86309135D01*
X113647256Y-86266685D01*
X113479203Y-86247751D01*
X113479197Y-86247751D01*
X113311143Y-86266685D01*
X113151507Y-86322545D01*
X113045172Y-86389361D01*
X112977936Y-86408361D01*
X112913228Y-86389361D01*
X112806892Y-86322545D01*
X112806891Y-86322544D01*
X112806890Y-86322544D01*
X112768570Y-86309135D01*
X112647256Y-86266685D01*
X112479203Y-86247751D01*
X112479197Y-86247751D01*
X112311143Y-86266685D01*
X112151505Y-86322545D01*
X112151502Y-86322547D01*
X112008315Y-86412518D01*
X112008309Y-86412523D01*
X111888723Y-86532109D01*
X111888718Y-86532115D01*
X111798747Y-86675302D01*
X111798745Y-86675305D01*
X111742885Y-86834943D01*
X111723951Y-87002997D01*
X109447406Y-87002997D01*
X109432789Y-86961225D01*
X109345808Y-86822796D01*
X109230204Y-86707192D01*
X109179452Y-86675302D01*
X109091777Y-86620212D01*
X109091773Y-86620210D01*
X109013040Y-86592660D01*
X108956264Y-86551938D01*
X108936954Y-86516575D01*
X108907789Y-86433225D01*
X108820808Y-86294796D01*
X108705204Y-86179192D01*
X108685570Y-86166855D01*
X108566774Y-86092210D01*
X108412455Y-86038212D01*
X108250004Y-86019909D01*
X108249996Y-86019909D01*
X108087544Y-86038212D01*
X107933225Y-86092210D01*
X107794797Y-86179191D01*
X107686551Y-86287437D01*
X107680954Y-86290492D01*
X107680602Y-86292114D01*
X107676764Y-86298659D01*
X107592210Y-86433225D01*
X107538212Y-86587544D01*
X107526772Y-86689077D01*
X107499705Y-86753491D01*
X107442110Y-86793046D01*
X107372273Y-86795183D01*
X107327482Y-86772058D01*
X107327236Y-86772410D01*
X107324633Y-86770587D01*
X107323840Y-86770178D01*
X107322808Y-86769312D01*
X107322801Y-86769305D01*
X107300216Y-86753491D01*
X107137242Y-86639375D01*
X107093617Y-86584798D01*
X107086423Y-86515300D01*
X107117946Y-86452945D01*
X107137242Y-86436225D01*
X107177036Y-86408361D01*
X107322801Y-86306295D01*
X107484092Y-86145003D01*
X107489685Y-86141949D01*
X107490038Y-86140328D01*
X107497285Y-86128646D01*
X107584286Y-86004396D01*
X116490909Y-86004396D01*
X116490909Y-86004403D01*
X116509212Y-86166855D01*
X116509213Y-86166860D01*
X116509214Y-86166861D01*
X116513529Y-86179192D01*
X116563210Y-86321174D01*
X116564073Y-86322547D01*
X116650192Y-86459604D01*
X116765796Y-86575208D01*
X116904225Y-86662189D01*
X117058539Y-86716186D01*
X117058542Y-86716186D01*
X117058544Y-86716187D01*
X117220996Y-86734491D01*
X117221000Y-86734491D01*
X117221004Y-86734491D01*
X117383455Y-86716187D01*
X117383456Y-86716186D01*
X117383461Y-86716186D01*
X117537775Y-86662189D01*
X117645141Y-86594726D01*
X117712374Y-86575726D01*
X117777083Y-86594726D01*
X117844025Y-86636789D01*
X117998339Y-86690786D01*
X117998342Y-86690786D01*
X117998344Y-86690787D01*
X118160796Y-86709091D01*
X118160800Y-86709091D01*
X118160804Y-86709091D01*
X118323255Y-86690787D01*
X118323256Y-86690786D01*
X118323261Y-86690786D01*
X118477575Y-86636789D01*
X118616004Y-86549808D01*
X118731608Y-86434204D01*
X118818589Y-86295775D01*
X118872586Y-86141461D01*
X118872841Y-86139201D01*
X118890891Y-85979003D01*
X118890891Y-85978996D01*
X118872587Y-85816544D01*
X118872586Y-85816542D01*
X118872586Y-85816539D01*
X118818589Y-85662225D01*
X118731608Y-85523796D01*
X118616004Y-85408192D01*
X118517999Y-85346611D01*
X118477574Y-85321210D01*
X118343537Y-85274309D01*
X118323261Y-85267214D01*
X118323260Y-85267213D01*
X118323255Y-85267212D01*
X118160804Y-85248909D01*
X118160796Y-85248909D01*
X117998344Y-85267212D01*
X117844025Y-85321210D01*
X117736660Y-85388673D01*
X117669424Y-85407673D01*
X117604716Y-85388672D01*
X117537778Y-85346611D01*
X117383455Y-85292612D01*
X117221004Y-85274309D01*
X117220996Y-85274309D01*
X117058544Y-85292612D01*
X116904225Y-85346610D01*
X116765795Y-85433592D01*
X116650192Y-85549195D01*
X116563210Y-85687625D01*
X116509212Y-85841944D01*
X116490909Y-86004396D01*
X107584286Y-86004396D01*
X107625435Y-85945630D01*
X107725303Y-85731463D01*
X107786463Y-85503208D01*
X107807059Y-85267800D01*
X107786463Y-85032392D01*
X107725303Y-84804137D01*
X107625435Y-84589971D01*
X107609196Y-84566778D01*
X107489894Y-84396397D01*
X107322802Y-84229306D01*
X107322795Y-84229301D01*
X107129234Y-84093767D01*
X107129230Y-84093765D01*
X107003652Y-84035207D01*
X106915063Y-83993897D01*
X106915059Y-83993896D01*
X106915055Y-83993894D01*
X106686813Y-83932738D01*
X106686803Y-83932736D01*
X106451401Y-83912141D01*
X106451399Y-83912141D01*
X106215996Y-83932736D01*
X106215986Y-83932738D01*
X105987744Y-83993894D01*
X105987735Y-83993898D01*
X105773571Y-84093764D01*
X105773569Y-84093765D01*
X105579997Y-84229305D01*
X105412905Y-84396397D01*
X105277365Y-84589969D01*
X105277364Y-84589971D01*
X105177498Y-84804135D01*
X105177494Y-84804144D01*
X105116338Y-85032386D01*
X105116336Y-85032396D01*
X105095741Y-85267799D01*
X103250500Y-85267799D01*
X103250500Y-81999996D01*
X108519909Y-81999996D01*
X108519909Y-82000003D01*
X108538212Y-82162455D01*
X108538213Y-82162460D01*
X108538214Y-82162461D01*
X108540820Y-82169909D01*
X108592210Y-82316774D01*
X108592211Y-82316775D01*
X108679192Y-82455204D01*
X108794796Y-82570808D01*
X108933225Y-82657789D01*
X109087539Y-82711786D01*
X109087542Y-82711786D01*
X109087544Y-82711787D01*
X109249996Y-82730091D01*
X109250000Y-82730091D01*
X109250004Y-82730091D01*
X109412455Y-82711787D01*
X109412456Y-82711786D01*
X109412461Y-82711786D01*
X109459045Y-82695484D01*
X109528823Y-82691922D01*
X109540947Y-82695482D01*
X109587539Y-82711786D01*
X109587543Y-82711786D01*
X109587545Y-82711787D01*
X109587542Y-82711787D01*
X109749996Y-82730091D01*
X109750000Y-82730091D01*
X109750004Y-82730091D01*
X109912455Y-82711787D01*
X109912456Y-82711786D01*
X109912461Y-82711786D01*
X110066775Y-82657789D01*
X110205204Y-82570808D01*
X110320808Y-82455204D01*
X110407789Y-82316775D01*
X110431156Y-82249996D01*
X118769909Y-82249996D01*
X118769909Y-82250003D01*
X118788212Y-82412455D01*
X118842210Y-82566774D01*
X118878796Y-82625000D01*
X118929192Y-82705204D01*
X119044796Y-82820808D01*
X119183225Y-82907789D01*
X119337539Y-82961786D01*
X119337543Y-82961786D01*
X119337545Y-82961787D01*
X119419626Y-82971035D01*
X119484041Y-82998101D01*
X119523596Y-83055695D01*
X119528964Y-83080371D01*
X119538212Y-83162455D01*
X119592210Y-83316774D01*
X119646732Y-83403544D01*
X119679192Y-83455204D01*
X119794796Y-83570808D01*
X119933225Y-83657789D01*
X120087539Y-83711786D01*
X120087542Y-83711786D01*
X120087544Y-83711787D01*
X120256919Y-83730871D01*
X120256637Y-83733365D01*
X120312526Y-83749776D01*
X120358281Y-83802580D01*
X120368225Y-83871738D01*
X120350481Y-83920063D01*
X120342210Y-83933225D01*
X120288212Y-84087544D01*
X120269909Y-84249996D01*
X120269909Y-84250003D01*
X120288212Y-84412455D01*
X120342210Y-84566774D01*
X120412600Y-84678798D01*
X120429192Y-84705204D01*
X120544796Y-84820808D01*
X120683225Y-84907789D01*
X120837539Y-84961786D01*
X120837542Y-84961786D01*
X120837544Y-84961787D01*
X120999996Y-84980091D01*
X121000000Y-84980091D01*
X121000004Y-84980091D01*
X121162457Y-84961787D01*
X121162459Y-84961786D01*
X121162461Y-84961786D01*
X121316775Y-84907789D01*
X121316784Y-84907783D01*
X121321193Y-84905660D01*
X121390134Y-84894305D01*
X121428807Y-84905660D01*
X121433219Y-84907785D01*
X121433225Y-84907789D01*
X121433231Y-84907791D01*
X121433233Y-84907792D01*
X121587542Y-84961787D01*
X121749996Y-84980091D01*
X121750000Y-84980091D01*
X121750004Y-84980091D01*
X121912455Y-84961787D01*
X121912456Y-84961786D01*
X121912461Y-84961786D01*
X122066775Y-84907789D01*
X122205204Y-84820808D01*
X122320808Y-84705204D01*
X122407789Y-84566775D01*
X122461786Y-84412461D01*
X122463596Y-84396397D01*
X122480091Y-84250003D01*
X122480091Y-84249996D01*
X122461787Y-84087544D01*
X122461786Y-84087542D01*
X122461786Y-84087539D01*
X122407789Y-83933225D01*
X122320808Y-83794796D01*
X122205204Y-83679192D01*
X122178577Y-83662461D01*
X122066774Y-83592210D01*
X121912455Y-83538212D01*
X121750004Y-83519909D01*
X121749996Y-83519909D01*
X121587544Y-83538212D01*
X121433221Y-83592211D01*
X121428798Y-83594342D01*
X121359857Y-83605692D01*
X121321202Y-83594342D01*
X121316778Y-83592211D01*
X121162455Y-83538212D01*
X120993081Y-83519129D01*
X120993362Y-83516634D01*
X120937474Y-83500224D01*
X120937276Y-83499996D01*
X124019909Y-83499996D01*
X124019909Y-83500003D01*
X124038212Y-83662455D01*
X124092211Y-83816778D01*
X124094342Y-83821202D01*
X124105692Y-83890143D01*
X124094342Y-83928798D01*
X124092211Y-83933221D01*
X124038212Y-84087544D01*
X124019909Y-84249996D01*
X124019909Y-84250003D01*
X124038212Y-84412455D01*
X124092211Y-84566778D01*
X124094342Y-84571202D01*
X124105692Y-84640143D01*
X124094342Y-84678798D01*
X124092211Y-84683221D01*
X124038212Y-84837544D01*
X124019909Y-84999996D01*
X124019909Y-85000003D01*
X124038212Y-85162455D01*
X124092210Y-85316774D01*
X124149326Y-85407673D01*
X124179192Y-85455204D01*
X124294796Y-85570808D01*
X124433225Y-85657789D01*
X124587539Y-85711786D01*
X124587542Y-85711786D01*
X124587544Y-85711787D01*
X124749996Y-85730091D01*
X124750000Y-85730091D01*
X124750004Y-85730091D01*
X124912455Y-85711787D01*
X124912456Y-85711786D01*
X124912461Y-85711786D01*
X125066775Y-85657789D01*
X125205204Y-85570808D01*
X125320808Y-85455204D01*
X125407789Y-85316775D01*
X125461786Y-85162461D01*
X125461787Y-85162455D01*
X125480091Y-85000003D01*
X125480091Y-84999996D01*
X125461787Y-84837542D01*
X125407792Y-84683233D01*
X125407791Y-84683231D01*
X125407789Y-84683225D01*
X125407785Y-84683219D01*
X125405660Y-84678807D01*
X125394305Y-84609866D01*
X125405660Y-84571193D01*
X125407783Y-84566784D01*
X125407789Y-84566775D01*
X125461786Y-84412461D01*
X125461786Y-84412459D01*
X125461787Y-84412457D01*
X125480091Y-84250003D01*
X125480091Y-84249996D01*
X125461787Y-84087542D01*
X125407792Y-83933233D01*
X125407791Y-83933231D01*
X125407789Y-83933225D01*
X125407785Y-83933219D01*
X125405660Y-83928807D01*
X125394305Y-83859866D01*
X125405660Y-83821193D01*
X125407783Y-83816784D01*
X125407789Y-83816775D01*
X125461786Y-83662461D01*
X125461786Y-83662459D01*
X125461787Y-83662457D01*
X125480091Y-83500003D01*
X125480091Y-83499996D01*
X125461787Y-83337544D01*
X125461786Y-83337542D01*
X125461786Y-83337539D01*
X125407789Y-83183225D01*
X125320808Y-83044796D01*
X125205204Y-82929192D01*
X125171813Y-82908211D01*
X125066774Y-82842210D01*
X124912455Y-82788212D01*
X124750004Y-82769909D01*
X124749996Y-82769909D01*
X124587544Y-82788212D01*
X124433225Y-82842210D01*
X124294795Y-82929192D01*
X124179192Y-83044795D01*
X124092210Y-83183225D01*
X124038212Y-83337544D01*
X124019909Y-83499996D01*
X120937276Y-83499996D01*
X120891719Y-83447420D01*
X120881775Y-83378262D01*
X120899519Y-83329937D01*
X120901944Y-83326076D01*
X120907789Y-83316775D01*
X120961786Y-83162461D01*
X120967607Y-83110798D01*
X120980091Y-83000003D01*
X120980091Y-82999996D01*
X120961787Y-82837542D01*
X120907792Y-82683233D01*
X120907791Y-82683231D01*
X120907789Y-82683225D01*
X120907785Y-82683219D01*
X120905660Y-82678807D01*
X120894305Y-82609866D01*
X120905660Y-82571193D01*
X120907783Y-82566784D01*
X120907789Y-82566775D01*
X120961786Y-82412461D01*
X120961786Y-82412459D01*
X120961787Y-82412457D01*
X120980091Y-82250003D01*
X120980091Y-82249996D01*
X120961787Y-82087544D01*
X120961786Y-82087542D01*
X120961786Y-82087539D01*
X120945850Y-82041996D01*
X127295509Y-82041996D01*
X127295509Y-82042003D01*
X127313812Y-82204455D01*
X127367810Y-82358774D01*
X127454792Y-82497204D01*
X127570396Y-82612808D01*
X127679168Y-82681154D01*
X127708825Y-82699789D01*
X127782254Y-82725483D01*
X127839030Y-82766205D01*
X127864778Y-82831157D01*
X127851322Y-82899719D01*
X127828982Y-82930206D01*
X127749991Y-83009197D01*
X127663010Y-83147625D01*
X127609012Y-83301944D01*
X127590709Y-83464396D01*
X127590709Y-83464403D01*
X127609012Y-83626855D01*
X127663010Y-83781174D01*
X127719916Y-83871738D01*
X127749992Y-83919604D01*
X127865596Y-84035208D01*
X128004025Y-84122189D01*
X128158339Y-84176186D01*
X128158342Y-84176186D01*
X128158344Y-84176187D01*
X128320796Y-84194491D01*
X128320800Y-84194491D01*
X128320804Y-84194491D01*
X128483255Y-84176187D01*
X128483256Y-84176186D01*
X128483261Y-84176186D01*
X128637575Y-84122189D01*
X128776004Y-84035208D01*
X128891608Y-83919604D01*
X128978589Y-83781175D01*
X129032586Y-83626861D01*
X129032587Y-83626855D01*
X129039444Y-83565996D01*
X132899309Y-83565996D01*
X132899309Y-83566003D01*
X132917612Y-83728455D01*
X132971610Y-83882774D01*
X133003004Y-83932737D01*
X133058592Y-84021204D01*
X133174196Y-84136808D01*
X133312625Y-84223789D01*
X133466939Y-84277786D01*
X133466942Y-84277786D01*
X133466944Y-84277787D01*
X133629396Y-84296091D01*
X133629400Y-84296091D01*
X133629404Y-84296091D01*
X133791855Y-84277787D01*
X133791856Y-84277786D01*
X133791861Y-84277786D01*
X133946175Y-84223789D01*
X134084604Y-84136808D01*
X134200208Y-84021204D01*
X134261006Y-83924445D01*
X134313341Y-83878154D01*
X134382395Y-83867506D01*
X134446243Y-83895881D01*
X134470994Y-83924445D01*
X134531792Y-84021204D01*
X134647396Y-84136808D01*
X134708573Y-84175248D01*
X134754863Y-84227582D01*
X134765511Y-84296635D01*
X134737136Y-84360484D01*
X134678747Y-84398856D01*
X134628717Y-84403461D01*
X134467604Y-84385309D01*
X134467596Y-84385309D01*
X134305144Y-84403612D01*
X134150825Y-84457610D01*
X134012395Y-84544592D01*
X133896792Y-84660195D01*
X133809810Y-84798625D01*
X133755812Y-84952944D01*
X133737509Y-85115396D01*
X133737509Y-85115403D01*
X133755812Y-85277855D01*
X133809810Y-85432174D01*
X133824281Y-85455204D01*
X133896792Y-85570604D01*
X134012396Y-85686208D01*
X134150825Y-85773189D01*
X134305139Y-85827186D01*
X134305142Y-85827186D01*
X134305144Y-85827187D01*
X134467596Y-85845491D01*
X134467600Y-85845491D01*
X134467604Y-85845491D01*
X134630055Y-85827187D01*
X134630056Y-85827186D01*
X134630061Y-85827186D01*
X134784375Y-85773189D01*
X134922804Y-85686208D01*
X135038408Y-85570604D01*
X135125389Y-85432175D01*
X135179386Y-85277861D01*
X135179387Y-85277855D01*
X135197691Y-85115403D01*
X135197691Y-85115396D01*
X135179387Y-84952944D01*
X135179386Y-84952942D01*
X135179386Y-84952939D01*
X135125389Y-84798625D01*
X135038408Y-84660196D01*
X134922804Y-84544592D01*
X134861626Y-84506151D01*
X134815336Y-84453817D01*
X134804688Y-84384763D01*
X134833063Y-84320915D01*
X134891453Y-84282543D01*
X134941482Y-84277938D01*
X135102596Y-84296091D01*
X135102600Y-84296091D01*
X135102604Y-84296091D01*
X135265055Y-84277787D01*
X135265056Y-84277786D01*
X135265061Y-84277786D01*
X135419375Y-84223789D01*
X135557804Y-84136808D01*
X135673408Y-84021204D01*
X135760389Y-83882775D01*
X135814386Y-83728461D01*
X135816265Y-83711786D01*
X135832691Y-83566003D01*
X135832691Y-83565996D01*
X135814387Y-83403544D01*
X135814386Y-83403542D01*
X135814386Y-83403539D01*
X135760389Y-83249225D01*
X135673408Y-83110796D01*
X135557804Y-82995192D01*
X135537425Y-82982387D01*
X135419374Y-82908210D01*
X135395899Y-82899996D01*
X136582309Y-82899996D01*
X136582309Y-82900003D01*
X136600612Y-83062455D01*
X136654610Y-83216774D01*
X136677904Y-83253846D01*
X136741592Y-83355204D01*
X136857196Y-83470808D01*
X136995625Y-83557789D01*
X137149939Y-83611786D01*
X137149942Y-83611786D01*
X137149944Y-83611787D01*
X137312396Y-83630091D01*
X137312400Y-83630091D01*
X137312404Y-83630091D01*
X137474855Y-83611787D01*
X137474856Y-83611786D01*
X137474861Y-83611786D01*
X137629175Y-83557789D01*
X137767604Y-83470808D01*
X137883208Y-83355204D01*
X137970189Y-83216775D01*
X138024186Y-83062461D01*
X138024187Y-83062455D01*
X138042491Y-82900003D01*
X138042491Y-82899996D01*
X138024187Y-82737544D01*
X138024186Y-82737542D01*
X138024186Y-82737539D01*
X137970189Y-82583225D01*
X137883208Y-82444796D01*
X137767604Y-82329192D01*
X137747841Y-82316774D01*
X137629174Y-82242210D01*
X137474855Y-82188212D01*
X137312404Y-82169909D01*
X137312396Y-82169909D01*
X137149944Y-82188212D01*
X136995625Y-82242210D01*
X136857195Y-82329192D01*
X136741592Y-82444795D01*
X136654610Y-82583225D01*
X136600612Y-82737544D01*
X136582309Y-82899996D01*
X135395899Y-82899996D01*
X135265055Y-82854212D01*
X135102604Y-82835909D01*
X135102596Y-82835909D01*
X134940144Y-82854212D01*
X134785825Y-82908210D01*
X134647395Y-82995192D01*
X134531792Y-83110795D01*
X134531790Y-83110798D01*
X134470993Y-83207555D01*
X134418658Y-83253846D01*
X134349605Y-83264493D01*
X134285757Y-83236118D01*
X134261007Y-83207555D01*
X134200209Y-83110798D01*
X134200207Y-83110795D01*
X134084604Y-82995192D01*
X133946174Y-82908210D01*
X133791855Y-82854212D01*
X133629404Y-82835909D01*
X133629396Y-82835909D01*
X133466944Y-82854212D01*
X133312625Y-82908210D01*
X133174195Y-82995192D01*
X133058592Y-83110795D01*
X132971610Y-83249225D01*
X132917612Y-83403544D01*
X132899309Y-83565996D01*
X129039444Y-83565996D01*
X129050891Y-83464403D01*
X129050891Y-83464396D01*
X129032587Y-83301944D01*
X129032586Y-83301942D01*
X129032586Y-83301939D01*
X128978589Y-83147625D01*
X128978588Y-83147622D01*
X128971711Y-83136677D01*
X128952711Y-83069440D01*
X128973079Y-83002605D01*
X129026347Y-82957392D01*
X129095604Y-82948155D01*
X129117657Y-82953664D01*
X129128311Y-82957392D01*
X129199742Y-82982387D01*
X129362196Y-83000691D01*
X129362200Y-83000691D01*
X129362204Y-83000691D01*
X129524655Y-82982387D01*
X129524656Y-82982386D01*
X129524661Y-82982386D01*
X129678975Y-82928389D01*
X129817404Y-82841408D01*
X129933008Y-82725804D01*
X130019989Y-82587375D01*
X130073986Y-82433061D01*
X130082356Y-82358774D01*
X130092291Y-82270603D01*
X130092291Y-82270596D01*
X130073987Y-82108144D01*
X130073986Y-82108142D01*
X130073986Y-82108139D01*
X130019989Y-81953825D01*
X129933008Y-81815396D01*
X129817404Y-81699792D01*
X129791038Y-81683225D01*
X129678974Y-81612810D01*
X129524655Y-81558812D01*
X129362204Y-81540509D01*
X129362196Y-81540509D01*
X129199744Y-81558812D01*
X129045425Y-81612810D01*
X128906995Y-81699792D01*
X128869808Y-81736979D01*
X128808485Y-81770464D01*
X128738793Y-81765478D01*
X128682860Y-81723606D01*
X128677135Y-81715270D01*
X128596409Y-81586797D01*
X128480804Y-81471192D01*
X128342374Y-81384210D01*
X128188055Y-81330212D01*
X128025604Y-81311909D01*
X128025596Y-81311909D01*
X127863144Y-81330212D01*
X127708825Y-81384210D01*
X127570395Y-81471192D01*
X127454792Y-81586795D01*
X127367810Y-81725225D01*
X127313812Y-81879544D01*
X127295509Y-82041996D01*
X120945850Y-82041996D01*
X120907789Y-81933225D01*
X120820808Y-81794796D01*
X120705204Y-81679192D01*
X120692254Y-81671055D01*
X120566774Y-81592210D01*
X120412455Y-81538212D01*
X120250004Y-81519909D01*
X120249996Y-81519909D01*
X120087544Y-81538212D01*
X119933221Y-81592211D01*
X119928798Y-81594342D01*
X119859857Y-81605692D01*
X119821202Y-81594342D01*
X119816778Y-81592211D01*
X119662455Y-81538212D01*
X119500004Y-81519909D01*
X119499996Y-81519909D01*
X119337544Y-81538212D01*
X119183225Y-81592210D01*
X119044795Y-81679192D01*
X118929192Y-81794795D01*
X118842210Y-81933225D01*
X118788212Y-82087544D01*
X118769909Y-82249996D01*
X110431156Y-82249996D01*
X110461786Y-82162461D01*
X110471144Y-82079407D01*
X110480091Y-82000003D01*
X110480091Y-81999996D01*
X110461787Y-81837544D01*
X110461786Y-81837542D01*
X110461786Y-81837539D01*
X110407789Y-81683225D01*
X110320808Y-81544796D01*
X110205204Y-81429192D01*
X110066774Y-81342210D01*
X109912455Y-81288212D01*
X109750004Y-81269909D01*
X109749996Y-81269909D01*
X109587540Y-81288213D01*
X109587539Y-81288213D01*
X109540953Y-81304514D01*
X109471174Y-81308075D01*
X109459047Y-81304514D01*
X109412460Y-81288213D01*
X109250004Y-81269909D01*
X109249996Y-81269909D01*
X109087544Y-81288212D01*
X108933225Y-81342210D01*
X108794795Y-81429192D01*
X108679192Y-81544795D01*
X108592210Y-81683225D01*
X108538212Y-81837544D01*
X108519909Y-81999996D01*
X103250500Y-81999996D01*
X103250500Y-80539999D01*
X105081841Y-80539999D01*
X105081841Y-80540000D01*
X105102436Y-80775403D01*
X105102438Y-80775413D01*
X105163594Y-81003655D01*
X105163596Y-81003659D01*
X105163597Y-81003663D01*
X105251339Y-81191825D01*
X105263465Y-81217830D01*
X105263467Y-81217834D01*
X105371781Y-81372521D01*
X105399005Y-81411401D01*
X105566099Y-81578495D01*
X105637936Y-81628796D01*
X105759665Y-81714032D01*
X105759667Y-81714033D01*
X105759670Y-81714035D01*
X105973837Y-81813903D01*
X106202092Y-81875063D01*
X106390418Y-81891539D01*
X106437499Y-81895659D01*
X106437500Y-81895659D01*
X106437501Y-81895659D01*
X106476734Y-81892226D01*
X106672908Y-81875063D01*
X106901163Y-81813903D01*
X107115330Y-81714035D01*
X107308901Y-81578495D01*
X107475995Y-81411401D01*
X107611535Y-81217830D01*
X107711403Y-81003663D01*
X107772563Y-80775408D01*
X107793159Y-80540000D01*
X107772563Y-80304592D01*
X107711403Y-80076337D01*
X107611535Y-79862171D01*
X107548254Y-79771796D01*
X112274509Y-79771796D01*
X112274509Y-79771803D01*
X112292812Y-79934255D01*
X112346810Y-80088574D01*
X112346811Y-80088575D01*
X112433792Y-80227004D01*
X112549396Y-80342608D01*
X112687825Y-80429589D01*
X112842139Y-80483586D01*
X112842142Y-80483586D01*
X112842144Y-80483587D01*
X113004596Y-80501891D01*
X113004600Y-80501891D01*
X113004604Y-80501891D01*
X113167055Y-80483587D01*
X113167056Y-80483586D01*
X113167061Y-80483586D01*
X113321375Y-80429589D01*
X113459804Y-80342608D01*
X113459805Y-80342607D01*
X113465248Y-80338267D01*
X113466759Y-80340162D01*
X113518112Y-80312088D01*
X113587807Y-80317037D01*
X113622815Y-80339523D01*
X113623818Y-80338267D01*
X113629260Y-80342607D01*
X113629261Y-80342608D01*
X113767690Y-80429589D01*
X113922004Y-80483586D01*
X113922007Y-80483586D01*
X113922009Y-80483587D01*
X114084461Y-80501891D01*
X114084465Y-80501891D01*
X114084469Y-80501891D01*
X114246920Y-80483587D01*
X114246921Y-80483586D01*
X114246926Y-80483586D01*
X114401240Y-80429589D01*
X114532660Y-80347011D01*
X114599896Y-80328011D01*
X114664605Y-80347012D01*
X114795418Y-80429208D01*
X114796025Y-80429589D01*
X114950339Y-80483586D01*
X114950342Y-80483586D01*
X114950344Y-80483587D01*
X115112796Y-80501891D01*
X115112800Y-80501891D01*
X115112804Y-80501891D01*
X115275257Y-80483587D01*
X115275259Y-80483586D01*
X115275261Y-80483586D01*
X115429575Y-80429589D01*
X115465928Y-80406746D01*
X115533162Y-80387745D01*
X115597871Y-80406746D01*
X115630533Y-80427269D01*
X115634225Y-80429589D01*
X115788542Y-80483587D01*
X115950996Y-80501891D01*
X115951000Y-80501891D01*
X115951004Y-80501891D01*
X116113457Y-80483587D01*
X116113459Y-80483586D01*
X116113461Y-80483586D01*
X116267775Y-80429589D01*
X116270547Y-80427847D01*
X116272592Y-80427269D01*
X116274048Y-80426568D01*
X116274170Y-80426822D01*
X116337780Y-80408844D01*
X116404616Y-80429208D01*
X116441515Y-80466865D01*
X116472390Y-80516001D01*
X116472392Y-80516004D01*
X116532603Y-80576215D01*
X116566088Y-80637538D01*
X116561104Y-80707230D01*
X116519232Y-80763163D01*
X116458805Y-80787116D01*
X116372744Y-80796812D01*
X116218425Y-80850810D01*
X116079995Y-80937792D01*
X115964392Y-81053395D01*
X115877410Y-81191825D01*
X115823412Y-81346144D01*
X115805109Y-81508596D01*
X115805109Y-81508603D01*
X115823412Y-81671055D01*
X115877410Y-81825374D01*
X115923063Y-81898030D01*
X115964392Y-81963804D01*
X116079996Y-82079408D01*
X116218425Y-82166389D01*
X116372739Y-82220386D01*
X116372742Y-82220386D01*
X116372744Y-82220387D01*
X116535196Y-82238691D01*
X116535200Y-82238691D01*
X116535204Y-82238691D01*
X116697655Y-82220387D01*
X116697656Y-82220386D01*
X116697661Y-82220386D01*
X116851975Y-82166389D01*
X116990404Y-82079408D01*
X117106008Y-81963804D01*
X117192989Y-81825375D01*
X117246986Y-81671061D01*
X117251748Y-81628796D01*
X117265291Y-81508603D01*
X117265291Y-81508596D01*
X117246987Y-81346144D01*
X117246986Y-81346142D01*
X117246986Y-81346139D01*
X117192989Y-81191825D01*
X117106008Y-81053396D01*
X117045796Y-80993184D01*
X117012311Y-80931861D01*
X117017295Y-80862169D01*
X117059167Y-80806236D01*
X117119593Y-80782283D01*
X117180571Y-80775413D01*
X117205654Y-80772587D01*
X117205654Y-80772586D01*
X117205661Y-80772586D01*
X117359975Y-80718589D01*
X117498404Y-80631608D01*
X117614008Y-80516004D01*
X117700989Y-80377575D01*
X117754986Y-80223261D01*
X117754987Y-80223255D01*
X117773291Y-80060803D01*
X117773291Y-80060796D01*
X117754987Y-79898344D01*
X117754986Y-79898342D01*
X117754986Y-79898339D01*
X117700989Y-79744025D01*
X117692551Y-79730596D01*
X133026309Y-79730596D01*
X133026309Y-79730603D01*
X133044612Y-79893055D01*
X133098610Y-80047374D01*
X133143049Y-80118097D01*
X133185592Y-80185804D01*
X133301196Y-80301408D01*
X133439625Y-80388389D01*
X133593939Y-80442386D01*
X133593942Y-80442386D01*
X133593944Y-80442387D01*
X133756396Y-80460691D01*
X133756400Y-80460691D01*
X133756404Y-80460691D01*
X133918855Y-80442387D01*
X133918856Y-80442386D01*
X133918861Y-80442386D01*
X134073175Y-80388389D01*
X134211604Y-80301408D01*
X134327208Y-80185804D01*
X134414189Y-80047375D01*
X134468186Y-79893061D01*
X134469443Y-79881908D01*
X134469444Y-79881902D01*
X140699500Y-79881902D01*
X140699500Y-80118097D01*
X140736446Y-80351368D01*
X140809433Y-80575996D01*
X140914542Y-80782283D01*
X140916657Y-80786433D01*
X141055483Y-80977510D01*
X141222490Y-81144517D01*
X141413567Y-81283343D01*
X141469631Y-81311909D01*
X141624003Y-81390566D01*
X141624005Y-81390566D01*
X141624008Y-81390568D01*
X141742880Y-81429192D01*
X141848631Y-81463553D01*
X142081903Y-81500500D01*
X142081908Y-81500500D01*
X143918097Y-81500500D01*
X144151368Y-81463553D01*
X144375992Y-81390568D01*
X144586433Y-81283343D01*
X144777510Y-81144517D01*
X144944517Y-80977510D01*
X145083343Y-80786433D01*
X145190568Y-80575992D01*
X145263553Y-80351368D01*
X145267252Y-80328011D01*
X145300500Y-80118097D01*
X145300500Y-79881902D01*
X145263553Y-79648631D01*
X145215748Y-79501505D01*
X145190568Y-79424008D01*
X145190566Y-79424005D01*
X145190566Y-79424003D01*
X145089941Y-79226517D01*
X145083343Y-79213567D01*
X144944517Y-79022490D01*
X144777510Y-78855483D01*
X144586433Y-78716657D01*
X144375996Y-78609433D01*
X144151368Y-78536446D01*
X143918097Y-78499500D01*
X143918092Y-78499500D01*
X142081908Y-78499500D01*
X142081903Y-78499500D01*
X141848631Y-78536446D01*
X141624003Y-78609433D01*
X141413566Y-78716657D01*
X141304550Y-78795862D01*
X141222490Y-78855483D01*
X141222488Y-78855485D01*
X141222487Y-78855485D01*
X141055485Y-79022487D01*
X141055485Y-79022488D01*
X141055483Y-79022490D01*
X140995862Y-79104550D01*
X140916657Y-79213566D01*
X140809433Y-79424003D01*
X140736446Y-79648631D01*
X140699500Y-79881902D01*
X134469444Y-79881902D01*
X134486491Y-79730603D01*
X134486491Y-79730596D01*
X134468187Y-79568144D01*
X134468186Y-79568142D01*
X134468186Y-79568139D01*
X134414189Y-79413825D01*
X134327208Y-79275396D01*
X134211604Y-79159792D01*
X134175097Y-79136853D01*
X134073174Y-79072810D01*
X133918855Y-79018812D01*
X133756404Y-79000509D01*
X133756396Y-79000509D01*
X133593944Y-79018812D01*
X133439625Y-79072810D01*
X133301195Y-79159792D01*
X133185592Y-79275395D01*
X133098610Y-79413825D01*
X133044612Y-79568144D01*
X133026309Y-79730596D01*
X117692551Y-79730596D01*
X117614008Y-79605596D01*
X117498404Y-79489992D01*
X117434988Y-79450145D01*
X117359974Y-79403010D01*
X117205655Y-79349012D01*
X117043204Y-79330709D01*
X117043196Y-79330709D01*
X116880744Y-79349012D01*
X116726428Y-79403009D01*
X116726421Y-79403013D01*
X116723637Y-79404762D01*
X116721588Y-79405340D01*
X116720157Y-79406030D01*
X116720036Y-79405779D01*
X116656399Y-79423754D01*
X116589565Y-79403380D01*
X116552682Y-79365732D01*
X116521810Y-79316598D01*
X116406204Y-79200992D01*
X116267774Y-79114010D01*
X116113455Y-79060012D01*
X115951004Y-79041709D01*
X115950996Y-79041709D01*
X115788544Y-79060012D01*
X115634225Y-79114010D01*
X115597871Y-79136853D01*
X115530634Y-79155852D01*
X115465929Y-79136853D01*
X115429574Y-79114010D01*
X115275255Y-79060012D01*
X115112804Y-79041709D01*
X115112796Y-79041709D01*
X114950344Y-79060012D01*
X114796025Y-79114010D01*
X114664604Y-79196588D01*
X114597367Y-79215588D01*
X114532660Y-79196588D01*
X114401239Y-79114010D01*
X114246920Y-79060012D01*
X114084469Y-79041709D01*
X114084461Y-79041709D01*
X113922009Y-79060012D01*
X113767690Y-79114010D01*
X113629257Y-79200994D01*
X113623813Y-79205336D01*
X113622314Y-79203456D01*
X113570828Y-79231537D01*
X113501139Y-79226517D01*
X113466246Y-79204080D01*
X113465247Y-79205333D01*
X113459804Y-79200992D01*
X113321374Y-79114010D01*
X113167055Y-79060012D01*
X113004604Y-79041709D01*
X113004596Y-79041709D01*
X112842144Y-79060012D01*
X112687825Y-79114010D01*
X112549395Y-79200992D01*
X112433792Y-79316595D01*
X112346810Y-79455025D01*
X112292812Y-79609344D01*
X112274509Y-79771796D01*
X107548254Y-79771796D01*
X107519410Y-79730603D01*
X107475996Y-79668600D01*
X107416735Y-79609339D01*
X107354067Y-79546671D01*
X107320584Y-79485351D01*
X107325568Y-79415659D01*
X107367439Y-79359725D01*
X107398415Y-79342810D01*
X107529831Y-79293796D01*
X107645046Y-79207546D01*
X107731296Y-79092331D01*
X107781591Y-78957483D01*
X107788000Y-78897873D01*
X107787999Y-77102128D01*
X107781591Y-77042517D01*
X107761032Y-76987396D01*
X127209709Y-76987396D01*
X127209709Y-76987403D01*
X127228012Y-77149855D01*
X127282010Y-77304174D01*
X127282011Y-77304175D01*
X127368992Y-77442604D01*
X127484596Y-77558208D01*
X127623025Y-77645189D01*
X127777339Y-77699186D01*
X127777342Y-77699186D01*
X127777344Y-77699187D01*
X127939796Y-77717491D01*
X127939800Y-77717491D01*
X127939804Y-77717491D01*
X128102255Y-77699187D01*
X128102256Y-77699186D01*
X128102261Y-77699186D01*
X128256575Y-77645189D01*
X128395004Y-77558208D01*
X128510608Y-77442604D01*
X128597589Y-77304175D01*
X128651586Y-77149861D01*
X128651587Y-77149855D01*
X128669891Y-76987403D01*
X128669891Y-76987396D01*
X128651587Y-76824944D01*
X128651586Y-76824942D01*
X128651586Y-76824939D01*
X128597589Y-76670625D01*
X128510608Y-76532196D01*
X128395004Y-76416592D01*
X128256574Y-76329610D01*
X128102255Y-76275612D01*
X127939804Y-76257309D01*
X127939796Y-76257309D01*
X127777344Y-76275612D01*
X127623025Y-76329610D01*
X127484595Y-76416592D01*
X127368992Y-76532195D01*
X127282010Y-76670625D01*
X127228012Y-76824944D01*
X127209709Y-76987396D01*
X107761032Y-76987396D01*
X107731297Y-76907671D01*
X107731293Y-76907664D01*
X107645047Y-76792455D01*
X107645044Y-76792452D01*
X107529835Y-76706206D01*
X107529828Y-76706202D01*
X107394982Y-76655908D01*
X107394983Y-76655908D01*
X107335383Y-76649501D01*
X107335381Y-76649500D01*
X107335373Y-76649500D01*
X107335364Y-76649500D01*
X105539629Y-76649500D01*
X105539623Y-76649501D01*
X105480016Y-76655908D01*
X105345171Y-76706202D01*
X105345164Y-76706206D01*
X105229955Y-76792452D01*
X105229952Y-76792455D01*
X105143706Y-76907664D01*
X105143702Y-76907671D01*
X105093408Y-77042517D01*
X105087001Y-77102116D01*
X105087001Y-77102123D01*
X105087000Y-77102135D01*
X105087000Y-78897870D01*
X105087001Y-78897876D01*
X105093408Y-78957483D01*
X105143702Y-79092328D01*
X105143706Y-79092335D01*
X105229952Y-79207544D01*
X105229955Y-79207547D01*
X105345164Y-79293793D01*
X105345171Y-79293797D01*
X105476581Y-79342810D01*
X105532515Y-79384681D01*
X105556932Y-79450145D01*
X105542080Y-79518418D01*
X105520930Y-79546673D01*
X105399003Y-79668600D01*
X105263465Y-79862169D01*
X105263464Y-79862171D01*
X105163598Y-80076335D01*
X105163594Y-80076344D01*
X105102438Y-80304586D01*
X105102436Y-80304596D01*
X105081841Y-80539999D01*
X103250500Y-80539999D01*
X103250500Y-72384416D01*
X103270185Y-72317377D01*
X103322989Y-72271622D01*
X103375643Y-72260421D01*
X115066651Y-72368672D01*
G37*
%TD.AperFunction*%
%TD*%
M02*
