%TF.GenerationSoftware,KiCad,Pcbnew,8.0.5*%
%TF.CreationDate,2024-10-31T12:59:41-07:00*%
%TF.ProjectId,team6_pcb,7465616d-365f-4706-9362-2e6b69636164,rev?*%
%TF.SameCoordinates,Original*%
%TF.FileFunction,Legend,Top*%
%TF.FilePolarity,Positive*%
%FSLAX46Y46*%
G04 Gerber Fmt 4.6, Leading zero omitted, Abs format (unit mm)*
G04 Created by KiCad (PCBNEW 8.0.5) date 2024-10-31 12:59:41*
%MOMM*%
%LPD*%
G01*
G04 APERTURE LIST*
%ADD10C,0.150000*%
%ADD11C,0.254000*%
%ADD12C,0.120000*%
%ADD13C,0.200000*%
G04 APERTURE END LIST*
D10*
X109066069Y-114114166D02*
X108589878Y-114447499D01*
X109066069Y-114685594D02*
X108066069Y-114685594D01*
X108066069Y-114685594D02*
X108066069Y-114304642D01*
X108066069Y-114304642D02*
X108113688Y-114209404D01*
X108113688Y-114209404D02*
X108161307Y-114161785D01*
X108161307Y-114161785D02*
X108256545Y-114114166D01*
X108256545Y-114114166D02*
X108399402Y-114114166D01*
X108399402Y-114114166D02*
X108494640Y-114161785D01*
X108494640Y-114161785D02*
X108542259Y-114209404D01*
X108542259Y-114209404D02*
X108589878Y-114304642D01*
X108589878Y-114304642D02*
X108589878Y-114685594D01*
X108066069Y-113780832D02*
X108066069Y-113161785D01*
X108066069Y-113161785D02*
X108447021Y-113495118D01*
X108447021Y-113495118D02*
X108447021Y-113352261D01*
X108447021Y-113352261D02*
X108494640Y-113257023D01*
X108494640Y-113257023D02*
X108542259Y-113209404D01*
X108542259Y-113209404D02*
X108637497Y-113161785D01*
X108637497Y-113161785D02*
X108875592Y-113161785D01*
X108875592Y-113161785D02*
X108970830Y-113209404D01*
X108970830Y-113209404D02*
X109018450Y-113257023D01*
X109018450Y-113257023D02*
X109066069Y-113352261D01*
X109066069Y-113352261D02*
X109066069Y-113637975D01*
X109066069Y-113637975D02*
X109018450Y-113733213D01*
X109018450Y-113733213D02*
X108970830Y-113780832D01*
X140254819Y-83238094D02*
X139254819Y-83238094D01*
X139254819Y-83238094D02*
X139254819Y-82857142D01*
X139254819Y-82857142D02*
X139302438Y-82761904D01*
X139302438Y-82761904D02*
X139350057Y-82714285D01*
X139350057Y-82714285D02*
X139445295Y-82666666D01*
X139445295Y-82666666D02*
X139588152Y-82666666D01*
X139588152Y-82666666D02*
X139683390Y-82714285D01*
X139683390Y-82714285D02*
X139731009Y-82761904D01*
X139731009Y-82761904D02*
X139778628Y-82857142D01*
X139778628Y-82857142D02*
X139778628Y-83238094D01*
X140254819Y-82190475D02*
X140254819Y-81999999D01*
X140254819Y-81999999D02*
X140207200Y-81904761D01*
X140207200Y-81904761D02*
X140159580Y-81857142D01*
X140159580Y-81857142D02*
X140016723Y-81761904D01*
X140016723Y-81761904D02*
X139826247Y-81714285D01*
X139826247Y-81714285D02*
X139445295Y-81714285D01*
X139445295Y-81714285D02*
X139350057Y-81761904D01*
X139350057Y-81761904D02*
X139302438Y-81809523D01*
X139302438Y-81809523D02*
X139254819Y-81904761D01*
X139254819Y-81904761D02*
X139254819Y-82095237D01*
X139254819Y-82095237D02*
X139302438Y-82190475D01*
X139302438Y-82190475D02*
X139350057Y-82238094D01*
X139350057Y-82238094D02*
X139445295Y-82285713D01*
X139445295Y-82285713D02*
X139683390Y-82285713D01*
X139683390Y-82285713D02*
X139778628Y-82238094D01*
X139778628Y-82238094D02*
X139826247Y-82190475D01*
X139826247Y-82190475D02*
X139873866Y-82095237D01*
X139873866Y-82095237D02*
X139873866Y-81904761D01*
X139873866Y-81904761D02*
X139826247Y-81809523D01*
X139826247Y-81809523D02*
X139778628Y-81761904D01*
X139778628Y-81761904D02*
X139683390Y-81714285D01*
X123833333Y-97509580D02*
X123785714Y-97557200D01*
X123785714Y-97557200D02*
X123642857Y-97604819D01*
X123642857Y-97604819D02*
X123547619Y-97604819D01*
X123547619Y-97604819D02*
X123404762Y-97557200D01*
X123404762Y-97557200D02*
X123309524Y-97461961D01*
X123309524Y-97461961D02*
X123261905Y-97366723D01*
X123261905Y-97366723D02*
X123214286Y-97176247D01*
X123214286Y-97176247D02*
X123214286Y-97033390D01*
X123214286Y-97033390D02*
X123261905Y-96842914D01*
X123261905Y-96842914D02*
X123309524Y-96747676D01*
X123309524Y-96747676D02*
X123404762Y-96652438D01*
X123404762Y-96652438D02*
X123547619Y-96604819D01*
X123547619Y-96604819D02*
X123642857Y-96604819D01*
X123642857Y-96604819D02*
X123785714Y-96652438D01*
X123785714Y-96652438D02*
X123833333Y-96700057D01*
X124404762Y-97033390D02*
X124309524Y-96985771D01*
X124309524Y-96985771D02*
X124261905Y-96938152D01*
X124261905Y-96938152D02*
X124214286Y-96842914D01*
X124214286Y-96842914D02*
X124214286Y-96795295D01*
X124214286Y-96795295D02*
X124261905Y-96700057D01*
X124261905Y-96700057D02*
X124309524Y-96652438D01*
X124309524Y-96652438D02*
X124404762Y-96604819D01*
X124404762Y-96604819D02*
X124595238Y-96604819D01*
X124595238Y-96604819D02*
X124690476Y-96652438D01*
X124690476Y-96652438D02*
X124738095Y-96700057D01*
X124738095Y-96700057D02*
X124785714Y-96795295D01*
X124785714Y-96795295D02*
X124785714Y-96842914D01*
X124785714Y-96842914D02*
X124738095Y-96938152D01*
X124738095Y-96938152D02*
X124690476Y-96985771D01*
X124690476Y-96985771D02*
X124595238Y-97033390D01*
X124595238Y-97033390D02*
X124404762Y-97033390D01*
X124404762Y-97033390D02*
X124309524Y-97081009D01*
X124309524Y-97081009D02*
X124261905Y-97128628D01*
X124261905Y-97128628D02*
X124214286Y-97223866D01*
X124214286Y-97223866D02*
X124214286Y-97414342D01*
X124214286Y-97414342D02*
X124261905Y-97509580D01*
X124261905Y-97509580D02*
X124309524Y-97557200D01*
X124309524Y-97557200D02*
X124404762Y-97604819D01*
X124404762Y-97604819D02*
X124595238Y-97604819D01*
X124595238Y-97604819D02*
X124690476Y-97557200D01*
X124690476Y-97557200D02*
X124738095Y-97509580D01*
X124738095Y-97509580D02*
X124785714Y-97414342D01*
X124785714Y-97414342D02*
X124785714Y-97223866D01*
X124785714Y-97223866D02*
X124738095Y-97128628D01*
X124738095Y-97128628D02*
X124690476Y-97081009D01*
X124690476Y-97081009D02*
X124595238Y-97033390D01*
D11*
X132879047Y-103695270D02*
X132758095Y-103634794D01*
X132758095Y-103634794D02*
X132637142Y-103513842D01*
X132637142Y-103513842D02*
X132455714Y-103332413D01*
X132455714Y-103332413D02*
X132334761Y-103271937D01*
X132334761Y-103271937D02*
X132213809Y-103271937D01*
X132274285Y-103574318D02*
X132153333Y-103513842D01*
X132153333Y-103513842D02*
X132032380Y-103392889D01*
X132032380Y-103392889D02*
X131971904Y-103150984D01*
X131971904Y-103150984D02*
X131971904Y-102727651D01*
X131971904Y-102727651D02*
X132032380Y-102485746D01*
X132032380Y-102485746D02*
X132153333Y-102364794D01*
X132153333Y-102364794D02*
X132274285Y-102304318D01*
X132274285Y-102304318D02*
X132516190Y-102304318D01*
X132516190Y-102304318D02*
X132637142Y-102364794D01*
X132637142Y-102364794D02*
X132758095Y-102485746D01*
X132758095Y-102485746D02*
X132818571Y-102727651D01*
X132818571Y-102727651D02*
X132818571Y-103150984D01*
X132818571Y-103150984D02*
X132758095Y-103392889D01*
X132758095Y-103392889D02*
X132637142Y-103513842D01*
X132637142Y-103513842D02*
X132516190Y-103574318D01*
X132516190Y-103574318D02*
X132274285Y-103574318D01*
X133241904Y-102304318D02*
X134028095Y-102304318D01*
X134028095Y-102304318D02*
X133604761Y-102788127D01*
X133604761Y-102788127D02*
X133786190Y-102788127D01*
X133786190Y-102788127D02*
X133907142Y-102848603D01*
X133907142Y-102848603D02*
X133967618Y-102909080D01*
X133967618Y-102909080D02*
X134028095Y-103030032D01*
X134028095Y-103030032D02*
X134028095Y-103332413D01*
X134028095Y-103332413D02*
X133967618Y-103453365D01*
X133967618Y-103453365D02*
X133907142Y-103513842D01*
X133907142Y-103513842D02*
X133786190Y-103574318D01*
X133786190Y-103574318D02*
X133423333Y-103574318D01*
X133423333Y-103574318D02*
X133302380Y-103513842D01*
X133302380Y-103513842D02*
X133241904Y-103453365D01*
D10*
X115958333Y-100084819D02*
X115625000Y-99608628D01*
X115386905Y-100084819D02*
X115386905Y-99084819D01*
X115386905Y-99084819D02*
X115767857Y-99084819D01*
X115767857Y-99084819D02*
X115863095Y-99132438D01*
X115863095Y-99132438D02*
X115910714Y-99180057D01*
X115910714Y-99180057D02*
X115958333Y-99275295D01*
X115958333Y-99275295D02*
X115958333Y-99418152D01*
X115958333Y-99418152D02*
X115910714Y-99513390D01*
X115910714Y-99513390D02*
X115863095Y-99561009D01*
X115863095Y-99561009D02*
X115767857Y-99608628D01*
X115767857Y-99608628D02*
X115386905Y-99608628D01*
X116863095Y-99084819D02*
X116386905Y-99084819D01*
X116386905Y-99084819D02*
X116339286Y-99561009D01*
X116339286Y-99561009D02*
X116386905Y-99513390D01*
X116386905Y-99513390D02*
X116482143Y-99465771D01*
X116482143Y-99465771D02*
X116720238Y-99465771D01*
X116720238Y-99465771D02*
X116815476Y-99513390D01*
X116815476Y-99513390D02*
X116863095Y-99561009D01*
X116863095Y-99561009D02*
X116910714Y-99656247D01*
X116910714Y-99656247D02*
X116910714Y-99894342D01*
X116910714Y-99894342D02*
X116863095Y-99989580D01*
X116863095Y-99989580D02*
X116815476Y-100037200D01*
X116815476Y-100037200D02*
X116720238Y-100084819D01*
X116720238Y-100084819D02*
X116482143Y-100084819D01*
X116482143Y-100084819D02*
X116386905Y-100037200D01*
X116386905Y-100037200D02*
X116339286Y-99989580D01*
X105699405Y-76124819D02*
X105699405Y-75124819D01*
X105699405Y-75124819D02*
X106080357Y-75124819D01*
X106080357Y-75124819D02*
X106175595Y-75172438D01*
X106175595Y-75172438D02*
X106223214Y-75220057D01*
X106223214Y-75220057D02*
X106270833Y-75315295D01*
X106270833Y-75315295D02*
X106270833Y-75458152D01*
X106270833Y-75458152D02*
X106223214Y-75553390D01*
X106223214Y-75553390D02*
X106175595Y-75601009D01*
X106175595Y-75601009D02*
X106080357Y-75648628D01*
X106080357Y-75648628D02*
X105699405Y-75648628D01*
X106842262Y-75553390D02*
X106747024Y-75505771D01*
X106747024Y-75505771D02*
X106699405Y-75458152D01*
X106699405Y-75458152D02*
X106651786Y-75362914D01*
X106651786Y-75362914D02*
X106651786Y-75315295D01*
X106651786Y-75315295D02*
X106699405Y-75220057D01*
X106699405Y-75220057D02*
X106747024Y-75172438D01*
X106747024Y-75172438D02*
X106842262Y-75124819D01*
X106842262Y-75124819D02*
X107032738Y-75124819D01*
X107032738Y-75124819D02*
X107127976Y-75172438D01*
X107127976Y-75172438D02*
X107175595Y-75220057D01*
X107175595Y-75220057D02*
X107223214Y-75315295D01*
X107223214Y-75315295D02*
X107223214Y-75362914D01*
X107223214Y-75362914D02*
X107175595Y-75458152D01*
X107175595Y-75458152D02*
X107127976Y-75505771D01*
X107127976Y-75505771D02*
X107032738Y-75553390D01*
X107032738Y-75553390D02*
X106842262Y-75553390D01*
X106842262Y-75553390D02*
X106747024Y-75601009D01*
X106747024Y-75601009D02*
X106699405Y-75648628D01*
X106699405Y-75648628D02*
X106651786Y-75743866D01*
X106651786Y-75743866D02*
X106651786Y-75934342D01*
X106651786Y-75934342D02*
X106699405Y-76029580D01*
X106699405Y-76029580D02*
X106747024Y-76077200D01*
X106747024Y-76077200D02*
X106842262Y-76124819D01*
X106842262Y-76124819D02*
X107032738Y-76124819D01*
X107032738Y-76124819D02*
X107127976Y-76077200D01*
X107127976Y-76077200D02*
X107175595Y-76029580D01*
X107175595Y-76029580D02*
X107223214Y-75934342D01*
X107223214Y-75934342D02*
X107223214Y-75743866D01*
X107223214Y-75743866D02*
X107175595Y-75648628D01*
X107175595Y-75648628D02*
X107127976Y-75601009D01*
X107127976Y-75601009D02*
X107032738Y-75553390D01*
D11*
X132879047Y-95695270D02*
X132758095Y-95634794D01*
X132758095Y-95634794D02*
X132637142Y-95513842D01*
X132637142Y-95513842D02*
X132455714Y-95332413D01*
X132455714Y-95332413D02*
X132334761Y-95271937D01*
X132334761Y-95271937D02*
X132213809Y-95271937D01*
X132274285Y-95574318D02*
X132153333Y-95513842D01*
X132153333Y-95513842D02*
X132032380Y-95392889D01*
X132032380Y-95392889D02*
X131971904Y-95150984D01*
X131971904Y-95150984D02*
X131971904Y-94727651D01*
X131971904Y-94727651D02*
X132032380Y-94485746D01*
X132032380Y-94485746D02*
X132153333Y-94364794D01*
X132153333Y-94364794D02*
X132274285Y-94304318D01*
X132274285Y-94304318D02*
X132516190Y-94304318D01*
X132516190Y-94304318D02*
X132637142Y-94364794D01*
X132637142Y-94364794D02*
X132758095Y-94485746D01*
X132758095Y-94485746D02*
X132818571Y-94727651D01*
X132818571Y-94727651D02*
X132818571Y-95150984D01*
X132818571Y-95150984D02*
X132758095Y-95392889D01*
X132758095Y-95392889D02*
X132637142Y-95513842D01*
X132637142Y-95513842D02*
X132516190Y-95574318D01*
X132516190Y-95574318D02*
X132274285Y-95574318D01*
X133907142Y-94727651D02*
X133907142Y-95574318D01*
X133604761Y-94243842D02*
X133302380Y-95150984D01*
X133302380Y-95150984D02*
X134088571Y-95150984D01*
X132879047Y-79695270D02*
X132758095Y-79634794D01*
X132758095Y-79634794D02*
X132637142Y-79513842D01*
X132637142Y-79513842D02*
X132455714Y-79332413D01*
X132455714Y-79332413D02*
X132334761Y-79271937D01*
X132334761Y-79271937D02*
X132213809Y-79271937D01*
X132274285Y-79574318D02*
X132153333Y-79513842D01*
X132153333Y-79513842D02*
X132032380Y-79392889D01*
X132032380Y-79392889D02*
X131971904Y-79150984D01*
X131971904Y-79150984D02*
X131971904Y-78727651D01*
X131971904Y-78727651D02*
X132032380Y-78485746D01*
X132032380Y-78485746D02*
X132153333Y-78364794D01*
X132153333Y-78364794D02*
X132274285Y-78304318D01*
X132274285Y-78304318D02*
X132516190Y-78304318D01*
X132516190Y-78304318D02*
X132637142Y-78364794D01*
X132637142Y-78364794D02*
X132758095Y-78485746D01*
X132758095Y-78485746D02*
X132818571Y-78727651D01*
X132818571Y-78727651D02*
X132818571Y-79150984D01*
X132818571Y-79150984D02*
X132758095Y-79392889D01*
X132758095Y-79392889D02*
X132637142Y-79513842D01*
X132637142Y-79513842D02*
X132516190Y-79574318D01*
X132516190Y-79574318D02*
X132274285Y-79574318D01*
X134028095Y-79574318D02*
X133302380Y-79574318D01*
X133665237Y-79574318D02*
X133665237Y-78304318D01*
X133665237Y-78304318D02*
X133544285Y-78485746D01*
X133544285Y-78485746D02*
X133423333Y-78606699D01*
X133423333Y-78606699D02*
X133302380Y-78667175D01*
D10*
X150261905Y-107124819D02*
X150261905Y-106124819D01*
X150261905Y-106124819D02*
X150642857Y-106124819D01*
X150642857Y-106124819D02*
X150738095Y-106172438D01*
X150738095Y-106172438D02*
X150785714Y-106220057D01*
X150785714Y-106220057D02*
X150833333Y-106315295D01*
X150833333Y-106315295D02*
X150833333Y-106458152D01*
X150833333Y-106458152D02*
X150785714Y-106553390D01*
X150785714Y-106553390D02*
X150738095Y-106601009D01*
X150738095Y-106601009D02*
X150642857Y-106648628D01*
X150642857Y-106648628D02*
X150261905Y-106648628D01*
X151214286Y-106220057D02*
X151261905Y-106172438D01*
X151261905Y-106172438D02*
X151357143Y-106124819D01*
X151357143Y-106124819D02*
X151595238Y-106124819D01*
X151595238Y-106124819D02*
X151690476Y-106172438D01*
X151690476Y-106172438D02*
X151738095Y-106220057D01*
X151738095Y-106220057D02*
X151785714Y-106315295D01*
X151785714Y-106315295D02*
X151785714Y-106410533D01*
X151785714Y-106410533D02*
X151738095Y-106553390D01*
X151738095Y-106553390D02*
X151166667Y-107124819D01*
X151166667Y-107124819D02*
X151785714Y-107124819D01*
X105586069Y-115175594D02*
X104586069Y-115175594D01*
X104586069Y-115175594D02*
X104586069Y-114937499D01*
X104586069Y-114937499D02*
X104633688Y-114794642D01*
X104633688Y-114794642D02*
X104728926Y-114699404D01*
X104728926Y-114699404D02*
X104824164Y-114651785D01*
X104824164Y-114651785D02*
X105014640Y-114604166D01*
X105014640Y-114604166D02*
X105157497Y-114604166D01*
X105157497Y-114604166D02*
X105347973Y-114651785D01*
X105347973Y-114651785D02*
X105443211Y-114699404D01*
X105443211Y-114699404D02*
X105538450Y-114794642D01*
X105538450Y-114794642D02*
X105586069Y-114937499D01*
X105586069Y-114937499D02*
X105586069Y-115175594D01*
X105586069Y-113651785D02*
X105586069Y-114223213D01*
X105586069Y-113937499D02*
X104586069Y-113937499D01*
X104586069Y-113937499D02*
X104728926Y-114032737D01*
X104728926Y-114032737D02*
X104824164Y-114127975D01*
X104824164Y-114127975D02*
X104871783Y-114223213D01*
X124509580Y-93166666D02*
X124557200Y-93214285D01*
X124557200Y-93214285D02*
X124604819Y-93357142D01*
X124604819Y-93357142D02*
X124604819Y-93452380D01*
X124604819Y-93452380D02*
X124557200Y-93595237D01*
X124557200Y-93595237D02*
X124461961Y-93690475D01*
X124461961Y-93690475D02*
X124366723Y-93738094D01*
X124366723Y-93738094D02*
X124176247Y-93785713D01*
X124176247Y-93785713D02*
X124033390Y-93785713D01*
X124033390Y-93785713D02*
X123842914Y-93738094D01*
X123842914Y-93738094D02*
X123747676Y-93690475D01*
X123747676Y-93690475D02*
X123652438Y-93595237D01*
X123652438Y-93595237D02*
X123604819Y-93452380D01*
X123604819Y-93452380D02*
X123604819Y-93357142D01*
X123604819Y-93357142D02*
X123652438Y-93214285D01*
X123652438Y-93214285D02*
X123700057Y-93166666D01*
X123604819Y-92309523D02*
X123604819Y-92499999D01*
X123604819Y-92499999D02*
X123652438Y-92595237D01*
X123652438Y-92595237D02*
X123700057Y-92642856D01*
X123700057Y-92642856D02*
X123842914Y-92738094D01*
X123842914Y-92738094D02*
X124033390Y-92785713D01*
X124033390Y-92785713D02*
X124414342Y-92785713D01*
X124414342Y-92785713D02*
X124509580Y-92738094D01*
X124509580Y-92738094D02*
X124557200Y-92690475D01*
X124557200Y-92690475D02*
X124604819Y-92595237D01*
X124604819Y-92595237D02*
X124604819Y-92404761D01*
X124604819Y-92404761D02*
X124557200Y-92309523D01*
X124557200Y-92309523D02*
X124509580Y-92261904D01*
X124509580Y-92261904D02*
X124414342Y-92214285D01*
X124414342Y-92214285D02*
X124176247Y-92214285D01*
X124176247Y-92214285D02*
X124081009Y-92261904D01*
X124081009Y-92261904D02*
X124033390Y-92309523D01*
X124033390Y-92309523D02*
X123985771Y-92404761D01*
X123985771Y-92404761D02*
X123985771Y-92595237D01*
X123985771Y-92595237D02*
X124033390Y-92690475D01*
X124033390Y-92690475D02*
X124081009Y-92738094D01*
X124081009Y-92738094D02*
X124176247Y-92785713D01*
X110993580Y-83377066D02*
X111041200Y-83424685D01*
X111041200Y-83424685D02*
X111088819Y-83567542D01*
X111088819Y-83567542D02*
X111088819Y-83662780D01*
X111088819Y-83662780D02*
X111041200Y-83805637D01*
X111041200Y-83805637D02*
X110945961Y-83900875D01*
X110945961Y-83900875D02*
X110850723Y-83948494D01*
X110850723Y-83948494D02*
X110660247Y-83996113D01*
X110660247Y-83996113D02*
X110517390Y-83996113D01*
X110517390Y-83996113D02*
X110326914Y-83948494D01*
X110326914Y-83948494D02*
X110231676Y-83900875D01*
X110231676Y-83900875D02*
X110136438Y-83805637D01*
X110136438Y-83805637D02*
X110088819Y-83662780D01*
X110088819Y-83662780D02*
X110088819Y-83567542D01*
X110088819Y-83567542D02*
X110136438Y-83424685D01*
X110136438Y-83424685D02*
X110184057Y-83377066D01*
X110184057Y-82996113D02*
X110136438Y-82948494D01*
X110136438Y-82948494D02*
X110088819Y-82853256D01*
X110088819Y-82853256D02*
X110088819Y-82615161D01*
X110088819Y-82615161D02*
X110136438Y-82519923D01*
X110136438Y-82519923D02*
X110184057Y-82472304D01*
X110184057Y-82472304D02*
X110279295Y-82424685D01*
X110279295Y-82424685D02*
X110374533Y-82424685D01*
X110374533Y-82424685D02*
X110517390Y-82472304D01*
X110517390Y-82472304D02*
X111088819Y-83043732D01*
X111088819Y-83043732D02*
X111088819Y-82424685D01*
X105713305Y-95672619D02*
X105713305Y-94672619D01*
X105713305Y-94672619D02*
X106094257Y-94672619D01*
X106094257Y-94672619D02*
X106189495Y-94720238D01*
X106189495Y-94720238D02*
X106237114Y-94767857D01*
X106237114Y-94767857D02*
X106284733Y-94863095D01*
X106284733Y-94863095D02*
X106284733Y-95005952D01*
X106284733Y-95005952D02*
X106237114Y-95101190D01*
X106237114Y-95101190D02*
X106189495Y-95148809D01*
X106189495Y-95148809D02*
X106094257Y-95196428D01*
X106094257Y-95196428D02*
X105713305Y-95196428D01*
X106618067Y-94672619D02*
X107237114Y-94672619D01*
X107237114Y-94672619D02*
X106903781Y-95053571D01*
X106903781Y-95053571D02*
X107046638Y-95053571D01*
X107046638Y-95053571D02*
X107141876Y-95101190D01*
X107141876Y-95101190D02*
X107189495Y-95148809D01*
X107189495Y-95148809D02*
X107237114Y-95244047D01*
X107237114Y-95244047D02*
X107237114Y-95482142D01*
X107237114Y-95482142D02*
X107189495Y-95577380D01*
X107189495Y-95577380D02*
X107141876Y-95625000D01*
X107141876Y-95625000D02*
X107046638Y-95672619D01*
X107046638Y-95672619D02*
X106760924Y-95672619D01*
X106760924Y-95672619D02*
X106665686Y-95625000D01*
X106665686Y-95625000D02*
X106618067Y-95577380D01*
X122957080Y-85686666D02*
X123004700Y-85734285D01*
X123004700Y-85734285D02*
X123052319Y-85877142D01*
X123052319Y-85877142D02*
X123052319Y-85972380D01*
X123052319Y-85972380D02*
X123004700Y-86115237D01*
X123004700Y-86115237D02*
X122909461Y-86210475D01*
X122909461Y-86210475D02*
X122814223Y-86258094D01*
X122814223Y-86258094D02*
X122623747Y-86305713D01*
X122623747Y-86305713D02*
X122480890Y-86305713D01*
X122480890Y-86305713D02*
X122290414Y-86258094D01*
X122290414Y-86258094D02*
X122195176Y-86210475D01*
X122195176Y-86210475D02*
X122099938Y-86115237D01*
X122099938Y-86115237D02*
X122052319Y-85972380D01*
X122052319Y-85972380D02*
X122052319Y-85877142D01*
X122052319Y-85877142D02*
X122099938Y-85734285D01*
X122099938Y-85734285D02*
X122147557Y-85686666D01*
X122385652Y-84829523D02*
X123052319Y-84829523D01*
X122004700Y-85067618D02*
X122718985Y-85305713D01*
X122718985Y-85305713D02*
X122718985Y-84686666D01*
X110708619Y-76493666D02*
X110232428Y-76826999D01*
X110708619Y-77065094D02*
X109708619Y-77065094D01*
X109708619Y-77065094D02*
X109708619Y-76684142D01*
X109708619Y-76684142D02*
X109756238Y-76588904D01*
X109756238Y-76588904D02*
X109803857Y-76541285D01*
X109803857Y-76541285D02*
X109899095Y-76493666D01*
X109899095Y-76493666D02*
X110041952Y-76493666D01*
X110041952Y-76493666D02*
X110137190Y-76541285D01*
X110137190Y-76541285D02*
X110184809Y-76588904D01*
X110184809Y-76588904D02*
X110232428Y-76684142D01*
X110232428Y-76684142D02*
X110232428Y-77065094D01*
X110708619Y-75541285D02*
X110708619Y-76112713D01*
X110708619Y-75826999D02*
X109708619Y-75826999D01*
X109708619Y-75826999D02*
X109851476Y-75922237D01*
X109851476Y-75922237D02*
X109946714Y-76017475D01*
X109946714Y-76017475D02*
X109994333Y-76112713D01*
X150485714Y-90184819D02*
X150485714Y-89184819D01*
X150485714Y-89184819D02*
X150866666Y-89184819D01*
X150866666Y-89184819D02*
X150961904Y-89232438D01*
X150961904Y-89232438D02*
X151009523Y-89280057D01*
X151009523Y-89280057D02*
X151057142Y-89375295D01*
X151057142Y-89375295D02*
X151057142Y-89518152D01*
X151057142Y-89518152D02*
X151009523Y-89613390D01*
X151009523Y-89613390D02*
X150961904Y-89661009D01*
X150961904Y-89661009D02*
X150866666Y-89708628D01*
X150866666Y-89708628D02*
X150485714Y-89708628D01*
X152009523Y-90184819D02*
X151438095Y-90184819D01*
X151723809Y-90184819D02*
X151723809Y-89184819D01*
X151723809Y-89184819D02*
X151628571Y-89327676D01*
X151628571Y-89327676D02*
X151533333Y-89422914D01*
X151533333Y-89422914D02*
X151438095Y-89470533D01*
X152628571Y-89184819D02*
X152723809Y-89184819D01*
X152723809Y-89184819D02*
X152819047Y-89232438D01*
X152819047Y-89232438D02*
X152866666Y-89280057D01*
X152866666Y-89280057D02*
X152914285Y-89375295D01*
X152914285Y-89375295D02*
X152961904Y-89565771D01*
X152961904Y-89565771D02*
X152961904Y-89803866D01*
X152961904Y-89803866D02*
X152914285Y-89994342D01*
X152914285Y-89994342D02*
X152866666Y-90089580D01*
X152866666Y-90089580D02*
X152819047Y-90137200D01*
X152819047Y-90137200D02*
X152723809Y-90184819D01*
X152723809Y-90184819D02*
X152628571Y-90184819D01*
X152628571Y-90184819D02*
X152533333Y-90137200D01*
X152533333Y-90137200D02*
X152485714Y-90089580D01*
X152485714Y-90089580D02*
X152438095Y-89994342D01*
X152438095Y-89994342D02*
X152390476Y-89803866D01*
X152390476Y-89803866D02*
X152390476Y-89565771D01*
X152390476Y-89565771D02*
X152438095Y-89375295D01*
X152438095Y-89375295D02*
X152485714Y-89280057D01*
X152485714Y-89280057D02*
X152533333Y-89232438D01*
X152533333Y-89232438D02*
X152628571Y-89184819D01*
X150261905Y-114124819D02*
X150261905Y-113124819D01*
X150261905Y-113124819D02*
X150642857Y-113124819D01*
X150642857Y-113124819D02*
X150738095Y-113172438D01*
X150738095Y-113172438D02*
X150785714Y-113220057D01*
X150785714Y-113220057D02*
X150833333Y-113315295D01*
X150833333Y-113315295D02*
X150833333Y-113458152D01*
X150833333Y-113458152D02*
X150785714Y-113553390D01*
X150785714Y-113553390D02*
X150738095Y-113601009D01*
X150738095Y-113601009D02*
X150642857Y-113648628D01*
X150642857Y-113648628D02*
X150261905Y-113648628D01*
X151738095Y-113124819D02*
X151261905Y-113124819D01*
X151261905Y-113124819D02*
X151214286Y-113601009D01*
X151214286Y-113601009D02*
X151261905Y-113553390D01*
X151261905Y-113553390D02*
X151357143Y-113505771D01*
X151357143Y-113505771D02*
X151595238Y-113505771D01*
X151595238Y-113505771D02*
X151690476Y-113553390D01*
X151690476Y-113553390D02*
X151738095Y-113601009D01*
X151738095Y-113601009D02*
X151785714Y-113696247D01*
X151785714Y-113696247D02*
X151785714Y-113934342D01*
X151785714Y-113934342D02*
X151738095Y-114029580D01*
X151738095Y-114029580D02*
X151690476Y-114077200D01*
X151690476Y-114077200D02*
X151595238Y-114124819D01*
X151595238Y-114124819D02*
X151357143Y-114124819D01*
X151357143Y-114124819D02*
X151261905Y-114077200D01*
X151261905Y-114077200D02*
X151214286Y-114029580D01*
X118833333Y-84519580D02*
X118785714Y-84567200D01*
X118785714Y-84567200D02*
X118642857Y-84614819D01*
X118642857Y-84614819D02*
X118547619Y-84614819D01*
X118547619Y-84614819D02*
X118404762Y-84567200D01*
X118404762Y-84567200D02*
X118309524Y-84471961D01*
X118309524Y-84471961D02*
X118261905Y-84376723D01*
X118261905Y-84376723D02*
X118214286Y-84186247D01*
X118214286Y-84186247D02*
X118214286Y-84043390D01*
X118214286Y-84043390D02*
X118261905Y-83852914D01*
X118261905Y-83852914D02*
X118309524Y-83757676D01*
X118309524Y-83757676D02*
X118404762Y-83662438D01*
X118404762Y-83662438D02*
X118547619Y-83614819D01*
X118547619Y-83614819D02*
X118642857Y-83614819D01*
X118642857Y-83614819D02*
X118785714Y-83662438D01*
X118785714Y-83662438D02*
X118833333Y-83710057D01*
X119166667Y-83614819D02*
X119785714Y-83614819D01*
X119785714Y-83614819D02*
X119452381Y-83995771D01*
X119452381Y-83995771D02*
X119595238Y-83995771D01*
X119595238Y-83995771D02*
X119690476Y-84043390D01*
X119690476Y-84043390D02*
X119738095Y-84091009D01*
X119738095Y-84091009D02*
X119785714Y-84186247D01*
X119785714Y-84186247D02*
X119785714Y-84424342D01*
X119785714Y-84424342D02*
X119738095Y-84519580D01*
X119738095Y-84519580D02*
X119690476Y-84567200D01*
X119690476Y-84567200D02*
X119595238Y-84614819D01*
X119595238Y-84614819D02*
X119309524Y-84614819D01*
X119309524Y-84614819D02*
X119214286Y-84567200D01*
X119214286Y-84567200D02*
X119166667Y-84519580D01*
X123227080Y-90391666D02*
X123274700Y-90439285D01*
X123274700Y-90439285D02*
X123322319Y-90582142D01*
X123322319Y-90582142D02*
X123322319Y-90677380D01*
X123322319Y-90677380D02*
X123274700Y-90820237D01*
X123274700Y-90820237D02*
X123179461Y-90915475D01*
X123179461Y-90915475D02*
X123084223Y-90963094D01*
X123084223Y-90963094D02*
X122893747Y-91010713D01*
X122893747Y-91010713D02*
X122750890Y-91010713D01*
X122750890Y-91010713D02*
X122560414Y-90963094D01*
X122560414Y-90963094D02*
X122465176Y-90915475D01*
X122465176Y-90915475D02*
X122369938Y-90820237D01*
X122369938Y-90820237D02*
X122322319Y-90677380D01*
X122322319Y-90677380D02*
X122322319Y-90582142D01*
X122322319Y-90582142D02*
X122369938Y-90439285D01*
X122369938Y-90439285D02*
X122417557Y-90391666D01*
X123322319Y-89439285D02*
X123322319Y-90010713D01*
X123322319Y-89724999D02*
X122322319Y-89724999D01*
X122322319Y-89724999D02*
X122465176Y-89820237D01*
X122465176Y-89820237D02*
X122560414Y-89915475D01*
X122560414Y-89915475D02*
X122608033Y-90010713D01*
X123833333Y-101509580D02*
X123785714Y-101557200D01*
X123785714Y-101557200D02*
X123642857Y-101604819D01*
X123642857Y-101604819D02*
X123547619Y-101604819D01*
X123547619Y-101604819D02*
X123404762Y-101557200D01*
X123404762Y-101557200D02*
X123309524Y-101461961D01*
X123309524Y-101461961D02*
X123261905Y-101366723D01*
X123261905Y-101366723D02*
X123214286Y-101176247D01*
X123214286Y-101176247D02*
X123214286Y-101033390D01*
X123214286Y-101033390D02*
X123261905Y-100842914D01*
X123261905Y-100842914D02*
X123309524Y-100747676D01*
X123309524Y-100747676D02*
X123404762Y-100652438D01*
X123404762Y-100652438D02*
X123547619Y-100604819D01*
X123547619Y-100604819D02*
X123642857Y-100604819D01*
X123642857Y-100604819D02*
X123785714Y-100652438D01*
X123785714Y-100652438D02*
X123833333Y-100700057D01*
X124166667Y-100604819D02*
X124833333Y-100604819D01*
X124833333Y-100604819D02*
X124404762Y-101604819D01*
X150261905Y-102124819D02*
X150261905Y-101124819D01*
X150261905Y-101124819D02*
X150642857Y-101124819D01*
X150642857Y-101124819D02*
X150738095Y-101172438D01*
X150738095Y-101172438D02*
X150785714Y-101220057D01*
X150785714Y-101220057D02*
X150833333Y-101315295D01*
X150833333Y-101315295D02*
X150833333Y-101458152D01*
X150833333Y-101458152D02*
X150785714Y-101553390D01*
X150785714Y-101553390D02*
X150738095Y-101601009D01*
X150738095Y-101601009D02*
X150642857Y-101648628D01*
X150642857Y-101648628D02*
X150261905Y-101648628D01*
X151690476Y-101458152D02*
X151690476Y-102124819D01*
X151452381Y-101077200D02*
X151214286Y-101791485D01*
X151214286Y-101791485D02*
X151833333Y-101791485D01*
X128209580Y-86166666D02*
X128257200Y-86214285D01*
X128257200Y-86214285D02*
X128304819Y-86357142D01*
X128304819Y-86357142D02*
X128304819Y-86452380D01*
X128304819Y-86452380D02*
X128257200Y-86595237D01*
X128257200Y-86595237D02*
X128161961Y-86690475D01*
X128161961Y-86690475D02*
X128066723Y-86738094D01*
X128066723Y-86738094D02*
X127876247Y-86785713D01*
X127876247Y-86785713D02*
X127733390Y-86785713D01*
X127733390Y-86785713D02*
X127542914Y-86738094D01*
X127542914Y-86738094D02*
X127447676Y-86690475D01*
X127447676Y-86690475D02*
X127352438Y-86595237D01*
X127352438Y-86595237D02*
X127304819Y-86452380D01*
X127304819Y-86452380D02*
X127304819Y-86357142D01*
X127304819Y-86357142D02*
X127352438Y-86214285D01*
X127352438Y-86214285D02*
X127400057Y-86166666D01*
X127304819Y-85261904D02*
X127304819Y-85738094D01*
X127304819Y-85738094D02*
X127781009Y-85785713D01*
X127781009Y-85785713D02*
X127733390Y-85738094D01*
X127733390Y-85738094D02*
X127685771Y-85642856D01*
X127685771Y-85642856D02*
X127685771Y-85404761D01*
X127685771Y-85404761D02*
X127733390Y-85309523D01*
X127733390Y-85309523D02*
X127781009Y-85261904D01*
X127781009Y-85261904D02*
X127876247Y-85214285D01*
X127876247Y-85214285D02*
X128114342Y-85214285D01*
X128114342Y-85214285D02*
X128209580Y-85261904D01*
X128209580Y-85261904D02*
X128257200Y-85309523D01*
X128257200Y-85309523D02*
X128304819Y-85404761D01*
X128304819Y-85404761D02*
X128304819Y-85642856D01*
X128304819Y-85642856D02*
X128257200Y-85738094D01*
X128257200Y-85738094D02*
X128209580Y-85785713D01*
X105761905Y-97574819D02*
X105761905Y-96574819D01*
X105761905Y-96574819D02*
X106142857Y-96574819D01*
X106142857Y-96574819D02*
X106238095Y-96622438D01*
X106238095Y-96622438D02*
X106285714Y-96670057D01*
X106285714Y-96670057D02*
X106333333Y-96765295D01*
X106333333Y-96765295D02*
X106333333Y-96908152D01*
X106333333Y-96908152D02*
X106285714Y-97003390D01*
X106285714Y-97003390D02*
X106238095Y-97051009D01*
X106238095Y-97051009D02*
X106142857Y-97098628D01*
X106142857Y-97098628D02*
X105761905Y-97098628D01*
X107285714Y-97574819D02*
X106714286Y-97574819D01*
X107000000Y-97574819D02*
X107000000Y-96574819D01*
X107000000Y-96574819D02*
X106904762Y-96717676D01*
X106904762Y-96717676D02*
X106809524Y-96812914D01*
X106809524Y-96812914D02*
X106714286Y-96860533D01*
X114884819Y-98166666D02*
X114408628Y-98499999D01*
X114884819Y-98738094D02*
X113884819Y-98738094D01*
X113884819Y-98738094D02*
X113884819Y-98357142D01*
X113884819Y-98357142D02*
X113932438Y-98261904D01*
X113932438Y-98261904D02*
X113980057Y-98214285D01*
X113980057Y-98214285D02*
X114075295Y-98166666D01*
X114075295Y-98166666D02*
X114218152Y-98166666D01*
X114218152Y-98166666D02*
X114313390Y-98214285D01*
X114313390Y-98214285D02*
X114361009Y-98261904D01*
X114361009Y-98261904D02*
X114408628Y-98357142D01*
X114408628Y-98357142D02*
X114408628Y-98738094D01*
X113980057Y-97785713D02*
X113932438Y-97738094D01*
X113932438Y-97738094D02*
X113884819Y-97642856D01*
X113884819Y-97642856D02*
X113884819Y-97404761D01*
X113884819Y-97404761D02*
X113932438Y-97309523D01*
X113932438Y-97309523D02*
X113980057Y-97261904D01*
X113980057Y-97261904D02*
X114075295Y-97214285D01*
X114075295Y-97214285D02*
X114170533Y-97214285D01*
X114170533Y-97214285D02*
X114313390Y-97261904D01*
X114313390Y-97261904D02*
X114884819Y-97833332D01*
X114884819Y-97833332D02*
X114884819Y-97214285D01*
X117764019Y-88979189D02*
X116764019Y-88979189D01*
X117668780Y-87931571D02*
X117716400Y-87979190D01*
X117716400Y-87979190D02*
X117764019Y-88122047D01*
X117764019Y-88122047D02*
X117764019Y-88217285D01*
X117764019Y-88217285D02*
X117716400Y-88360142D01*
X117716400Y-88360142D02*
X117621161Y-88455380D01*
X117621161Y-88455380D02*
X117525923Y-88502999D01*
X117525923Y-88502999D02*
X117335447Y-88550618D01*
X117335447Y-88550618D02*
X117192590Y-88550618D01*
X117192590Y-88550618D02*
X117002114Y-88502999D01*
X117002114Y-88502999D02*
X116906876Y-88455380D01*
X116906876Y-88455380D02*
X116811638Y-88360142D01*
X116811638Y-88360142D02*
X116764019Y-88217285D01*
X116764019Y-88217285D02*
X116764019Y-88122047D01*
X116764019Y-88122047D02*
X116811638Y-87979190D01*
X116811638Y-87979190D02*
X116859257Y-87931571D01*
X117764019Y-86979190D02*
X117764019Y-87550618D01*
X117764019Y-87264904D02*
X116764019Y-87264904D01*
X116764019Y-87264904D02*
X116906876Y-87360142D01*
X116906876Y-87360142D02*
X117002114Y-87455380D01*
X117002114Y-87455380D02*
X117049733Y-87550618D01*
D11*
X132879047Y-87695270D02*
X132758095Y-87634794D01*
X132758095Y-87634794D02*
X132637142Y-87513842D01*
X132637142Y-87513842D02*
X132455714Y-87332413D01*
X132455714Y-87332413D02*
X132334761Y-87271937D01*
X132334761Y-87271937D02*
X132213809Y-87271937D01*
X132274285Y-87574318D02*
X132153333Y-87513842D01*
X132153333Y-87513842D02*
X132032380Y-87392889D01*
X132032380Y-87392889D02*
X131971904Y-87150984D01*
X131971904Y-87150984D02*
X131971904Y-86727651D01*
X131971904Y-86727651D02*
X132032380Y-86485746D01*
X132032380Y-86485746D02*
X132153333Y-86364794D01*
X132153333Y-86364794D02*
X132274285Y-86304318D01*
X132274285Y-86304318D02*
X132516190Y-86304318D01*
X132516190Y-86304318D02*
X132637142Y-86364794D01*
X132637142Y-86364794D02*
X132758095Y-86485746D01*
X132758095Y-86485746D02*
X132818571Y-86727651D01*
X132818571Y-86727651D02*
X132818571Y-87150984D01*
X132818571Y-87150984D02*
X132758095Y-87392889D01*
X132758095Y-87392889D02*
X132637142Y-87513842D01*
X132637142Y-87513842D02*
X132516190Y-87574318D01*
X132516190Y-87574318D02*
X132274285Y-87574318D01*
X133302380Y-86425270D02*
X133362856Y-86364794D01*
X133362856Y-86364794D02*
X133483809Y-86304318D01*
X133483809Y-86304318D02*
X133786190Y-86304318D01*
X133786190Y-86304318D02*
X133907142Y-86364794D01*
X133907142Y-86364794D02*
X133967618Y-86425270D01*
X133967618Y-86425270D02*
X134028095Y-86546222D01*
X134028095Y-86546222D02*
X134028095Y-86667175D01*
X134028095Y-86667175D02*
X133967618Y-86848603D01*
X133967618Y-86848603D02*
X133241904Y-87574318D01*
X133241904Y-87574318D02*
X134028095Y-87574318D01*
D10*
X119833333Y-77824819D02*
X119500000Y-77348628D01*
X119261905Y-77824819D02*
X119261905Y-76824819D01*
X119261905Y-76824819D02*
X119642857Y-76824819D01*
X119642857Y-76824819D02*
X119738095Y-76872438D01*
X119738095Y-76872438D02*
X119785714Y-76920057D01*
X119785714Y-76920057D02*
X119833333Y-77015295D01*
X119833333Y-77015295D02*
X119833333Y-77158152D01*
X119833333Y-77158152D02*
X119785714Y-77253390D01*
X119785714Y-77253390D02*
X119738095Y-77301009D01*
X119738095Y-77301009D02*
X119642857Y-77348628D01*
X119642857Y-77348628D02*
X119261905Y-77348628D01*
X120690476Y-77158152D02*
X120690476Y-77824819D01*
X120452381Y-76777200D02*
X120214286Y-77491485D01*
X120214286Y-77491485D02*
X120833333Y-77491485D01*
D12*
%TO.C,R3*%
X109401250Y-114101141D02*
X109401250Y-113793859D01*
X110161250Y-114101141D02*
X110161250Y-113793859D01*
%TO.C,P9*%
X140090000Y-84700000D02*
X140690000Y-85000000D01*
X140090000Y-85300000D02*
X140090000Y-84700000D01*
X140690000Y-85000000D02*
X140090000Y-85300000D01*
X140890000Y-76390000D02*
X140890000Y-88610000D01*
X140890000Y-88610000D02*
X153110000Y-88610000D01*
X149810000Y-76390000D02*
X151610000Y-76390000D01*
X149810000Y-88610000D02*
X149810000Y-76390000D01*
X151610000Y-76390000D02*
X151610000Y-88610000D01*
X151610000Y-79250000D02*
X151610000Y-80750000D01*
X151610000Y-80750000D02*
X153110000Y-81000000D01*
X151610000Y-84250000D02*
X151610000Y-85750000D01*
X151610000Y-85750000D02*
X153110000Y-86000000D01*
X151610000Y-88610000D02*
X149810000Y-88610000D01*
X153110000Y-76390000D02*
X140890000Y-76390000D01*
X153110000Y-79000000D02*
X151610000Y-79250000D01*
X153110000Y-81000000D02*
X153110000Y-79000000D01*
X153110000Y-84000000D02*
X151610000Y-84250000D01*
X153110000Y-86000000D02*
X153110000Y-84000000D01*
X153110000Y-88610000D02*
X153110000Y-76390000D01*
%TO.C,C8*%
X123288748Y-98090000D02*
X124711252Y-98090000D01*
X123288748Y-99910000D02*
X124711252Y-99910000D01*
D13*
%TO.C,Q3*%
X131400000Y-100550000D02*
X134600000Y-100550000D01*
X131400000Y-105450000D02*
X131400000Y-100550000D01*
X134600000Y-100550000D02*
X134600000Y-105450000D01*
X134600000Y-105450000D02*
X131400000Y-105450000D01*
X136450000Y-105555000D02*
X134950000Y-105555000D01*
D12*
%TO.C,R5*%
X113947936Y-100540000D02*
X118302064Y-100540000D01*
X113947936Y-103960000D02*
X118302064Y-103960000D01*
%TO.C,P8*%
X105107500Y-76670000D02*
X106437500Y-76670000D01*
X105107500Y-78000000D02*
X105107500Y-76670000D01*
X105107500Y-79270000D02*
X105107500Y-81870000D01*
X105107500Y-79270000D02*
X107767500Y-79270000D01*
X105107500Y-81870000D02*
X107767500Y-81870000D01*
X107767500Y-79270000D02*
X107767500Y-81870000D01*
D13*
%TO.C,Q4*%
X131400000Y-92550000D02*
X134600000Y-92550000D01*
X131400000Y-97450000D02*
X131400000Y-92550000D01*
X134600000Y-92550000D02*
X134600000Y-97450000D01*
X134600000Y-97450000D02*
X131400000Y-97450000D01*
X136450000Y-97555000D02*
X134950000Y-97555000D01*
%TO.C,Q1*%
X131400000Y-76550000D02*
X134600000Y-76550000D01*
X131400000Y-81450000D02*
X131400000Y-76550000D01*
X134600000Y-76550000D02*
X134600000Y-81450000D01*
X134600000Y-81450000D02*
X131400000Y-81450000D01*
X136450000Y-81555000D02*
X134950000Y-81555000D01*
D12*
%TO.C,P2*%
X149670000Y-107670000D02*
X151000000Y-107670000D01*
X149670000Y-109000000D02*
X149670000Y-107670000D01*
X149670000Y-110270000D02*
X149670000Y-112870000D01*
X149670000Y-110270000D02*
X152330000Y-110270000D01*
X149670000Y-112870000D02*
X152330000Y-112870000D01*
X152330000Y-110270000D02*
X152330000Y-112870000D01*
%TO.C,D1*%
X105821250Y-113437500D02*
X105821250Y-116122500D01*
X105821250Y-116122500D02*
X107741250Y-116122500D01*
X107741250Y-116122500D02*
X107741250Y-113437500D01*
%TO.C,C6*%
X125090000Y-93711252D02*
X125090000Y-92288748D01*
X126910000Y-93711252D02*
X126910000Y-92288748D01*
%TO.C,C2*%
X109114000Y-83102564D02*
X109114000Y-83318236D01*
X109834000Y-83102564D02*
X109834000Y-83318236D01*
%TO.C,P3*%
X105121400Y-91617800D02*
X105121400Y-83937800D01*
X107781400Y-83937800D02*
X105121400Y-83937800D01*
X107781400Y-91617800D02*
X105121400Y-91617800D01*
X107781400Y-91617800D02*
X107781400Y-83937800D01*
X107781400Y-92887800D02*
X107781400Y-94217800D01*
X107781400Y-94217800D02*
X106451400Y-94217800D01*
%TO.C,C4*%
X121077500Y-85412164D02*
X121077500Y-85627836D01*
X121797500Y-85412164D02*
X121797500Y-85627836D01*
%TO.C,R1*%
X111161300Y-76564258D02*
X111161300Y-76089742D01*
X112206300Y-76564258D02*
X112206300Y-76089742D01*
%TO.C,P10*%
X149670000Y-91130000D02*
X151000000Y-91130000D01*
X149670000Y-92460000D02*
X149670000Y-91130000D01*
X149670000Y-93730000D02*
X149670000Y-101410000D01*
X149670000Y-93730000D02*
X152330000Y-93730000D01*
X149670000Y-101410000D02*
X152330000Y-101410000D01*
X152330000Y-93730000D02*
X152330000Y-101410000D01*
%TO.C,P5*%
X149670000Y-114670000D02*
X151000000Y-114670000D01*
X149670000Y-116000000D02*
X149670000Y-114670000D01*
X149670000Y-117270000D02*
X149670000Y-117330000D01*
X149670000Y-117270000D02*
X152330000Y-117270000D01*
X149670000Y-117330000D02*
X152330000Y-117330000D01*
X152330000Y-117270000D02*
X152330000Y-117330000D01*
%TO.C,C3*%
X119107836Y-82640000D02*
X118892164Y-82640000D01*
X119107836Y-83360000D02*
X118892164Y-83360000D01*
%TO.C,C1*%
X120927500Y-90084420D02*
X120927500Y-90365580D01*
X121947500Y-90084420D02*
X121947500Y-90365580D01*
%TO.C,C7*%
X123288748Y-102090000D02*
X124711252Y-102090000D01*
X123288748Y-103910000D02*
X124711252Y-103910000D01*
%TO.C,P4*%
X149670000Y-102670000D02*
X151000000Y-102670000D01*
X149670000Y-104000000D02*
X149670000Y-102670000D01*
X149670000Y-105270000D02*
X149670000Y-105330000D01*
X149670000Y-105270000D02*
X152330000Y-105270000D01*
X149670000Y-105330000D02*
X152330000Y-105330000D01*
X152330000Y-105270000D02*
X152330000Y-105330000D01*
%TO.C,C5*%
X125090000Y-85288748D02*
X125090000Y-86711252D01*
X126910000Y-85288748D02*
X126910000Y-86711252D01*
%TO.C,P1*%
X105170000Y-98120000D02*
X106500000Y-98120000D01*
X105170000Y-99450000D02*
X105170000Y-98120000D01*
X105170000Y-100720000D02*
X105170000Y-108400000D01*
X105170000Y-100720000D02*
X107830000Y-100720000D01*
X105170000Y-108400000D02*
X107830000Y-108400000D01*
X107830000Y-100720000D02*
X107830000Y-108400000D01*
%TO.C,R2*%
X112477500Y-97762742D02*
X112477500Y-98237258D01*
X113522500Y-97762742D02*
X113522500Y-98237258D01*
%TO.C,IC1*%
X110869200Y-85393000D02*
X111344200Y-85393000D01*
X110869200Y-85868000D02*
X110869200Y-85393000D01*
X110869200Y-90138000D02*
X110869200Y-90613000D01*
X110869200Y-90613000D02*
X111344200Y-90613000D01*
X115614200Y-85393000D02*
X115849200Y-85393000D01*
X116089200Y-85868000D02*
X116089200Y-85693000D01*
X116089200Y-90138000D02*
X116089200Y-90613000D01*
X116089200Y-90613000D02*
X115614200Y-90613000D01*
X116419200Y-85633000D02*
X116089200Y-85393000D01*
X116419200Y-85153000D01*
X116419200Y-85633000D01*
G36*
X116419200Y-85633000D02*
G01*
X116089200Y-85393000D01*
X116419200Y-85153000D01*
X116419200Y-85633000D01*
G37*
D13*
%TO.C,Q2*%
X131400000Y-84550000D02*
X134600000Y-84550000D01*
X131400000Y-89450000D02*
X131400000Y-84550000D01*
X134600000Y-84550000D02*
X134600000Y-89450000D01*
X134600000Y-89450000D02*
X131400000Y-89450000D01*
X136450000Y-89555000D02*
X134950000Y-89555000D01*
D12*
%TO.C,R4*%
X122177064Y-73040000D02*
X117822936Y-73040000D01*
X122177064Y-76460000D02*
X117822936Y-76460000D01*
%TD*%
M02*
