%TF.GenerationSoftware,KiCad,Pcbnew,8.0.5*%
%TF.CreationDate,2024-10-31T12:59:41-07:00*%
%TF.ProjectId,team6_pcb,7465616d-365f-4706-9362-2e6b69636164,rev?*%
%TF.SameCoordinates,Original*%
%TF.FileFunction,Soldermask,Top*%
%TF.FilePolarity,Negative*%
%FSLAX46Y46*%
G04 Gerber Fmt 4.6, Leading zero omitted, Abs format (unit mm)*
G04 Created by KiCad (PCBNEW 8.0.5) date 2024-10-31 12:59:41*
%MOMM*%
%LPD*%
G01*
G04 APERTURE LIST*
G04 Aperture macros list*
%AMRoundRect*
0 Rectangle with rounded corners*
0 $1 Rounding radius*
0 $2 $3 $4 $5 $6 $7 $8 $9 X,Y pos of 4 corners*
0 Add a 4 corners polygon primitive as box body*
4,1,4,$2,$3,$4,$5,$6,$7,$8,$9,$2,$3,0*
0 Add four circle primitives for the rounded corners*
1,1,$1+$1,$2,$3*
1,1,$1+$1,$4,$5*
1,1,$1+$1,$6,$7*
1,1,$1+$1,$8,$9*
0 Add four rect primitives between the rounded corners*
20,1,$1+$1,$2,$3,$4,$5,0*
20,1,$1+$1,$4,$5,$6,$7,0*
20,1,$1+$1,$6,$7,$8,$9,0*
20,1,$1+$1,$8,$9,$2,$3,0*%
G04 Aperture macros list end*
%ADD10RoundRect,0.135000X0.185000X-0.135000X0.185000X0.135000X-0.185000X0.135000X-0.185000X-0.135000X0*%
%ADD11RoundRect,0.250000X1.550000X-0.750000X1.550000X0.750000X-1.550000X0.750000X-1.550000X-0.750000X0*%
%ADD12O,3.600000X2.000000*%
%ADD13RoundRect,0.250000X-0.325000X-0.650000X0.325000X-0.650000X0.325000X0.650000X-0.325000X0.650000X0*%
%ADD14R,1.500000X0.600000*%
%ADD15RoundRect,0.250000X-0.362500X-1.425000X0.362500X-1.425000X0.362500X1.425000X-0.362500X1.425000X0*%
%ADD16R,1.700000X1.700000*%
%ADD17O,1.700000X1.700000*%
%ADD18RoundRect,0.243750X0.456250X-0.243750X0.456250X0.243750X-0.456250X0.243750X-0.456250X-0.243750X0*%
%ADD19RoundRect,0.250000X0.650000X-0.325000X0.650000X0.325000X-0.650000X0.325000X-0.650000X-0.325000X0*%
%ADD20RoundRect,0.140000X-0.170000X0.140000X-0.170000X-0.140000X0.170000X-0.140000X0.170000X0.140000X0*%
%ADD21RoundRect,0.200000X0.275000X-0.200000X0.275000X0.200000X-0.275000X0.200000X-0.275000X-0.200000X0*%
%ADD22RoundRect,0.140000X0.140000X0.170000X-0.140000X0.170000X-0.140000X-0.170000X0.140000X-0.170000X0*%
%ADD23RoundRect,0.225000X-0.250000X0.225000X-0.250000X-0.225000X0.250000X-0.225000X0.250000X0.225000X0*%
%ADD24RoundRect,0.250000X-0.650000X0.325000X-0.650000X-0.325000X0.650000X-0.325000X0.650000X0.325000X0*%
%ADD25RoundRect,0.200000X-0.275000X0.200000X-0.275000X-0.200000X0.275000X-0.200000X0.275000X0.200000X0*%
%ADD26RoundRect,0.062500X-0.062500X0.375000X-0.062500X-0.375000X0.062500X-0.375000X0.062500X0.375000X0*%
%ADD27RoundRect,0.062500X-0.375000X0.062500X-0.375000X-0.062500X0.375000X-0.062500X0.375000X0.062500X0*%
%ADD28R,3.300000X3.300000*%
%ADD29RoundRect,0.250000X0.362500X1.425000X-0.362500X1.425000X-0.362500X-1.425000X0.362500X-1.425000X0*%
G04 APERTURE END LIST*
D10*
%TO.C,R3*%
X109781250Y-114457500D03*
X109781250Y-113437500D03*
%TD*%
D11*
%TO.C,P9*%
X143000000Y-85000000D03*
D12*
X143000000Y-80000000D03*
%TD*%
D13*
%TO.C,C8*%
X122525000Y-99000000D03*
X125475000Y-99000000D03*
%TD*%
D14*
%TO.C,Q3*%
X135700000Y-104905000D03*
X135700000Y-103635000D03*
X135700000Y-102365000D03*
X135700000Y-101095000D03*
X130300000Y-101095000D03*
X130300000Y-102365000D03*
X130300000Y-103635000D03*
X130300000Y-104905000D03*
%TD*%
D15*
%TO.C,R5*%
X113162500Y-102250000D03*
X119087500Y-102250000D03*
%TD*%
D16*
%TO.C,P8*%
X106437500Y-78000000D03*
D17*
X106437500Y-80540000D03*
%TD*%
D14*
%TO.C,Q4*%
X135700000Y-96905000D03*
X135700000Y-95635000D03*
X135700000Y-94365000D03*
X135700000Y-93095000D03*
X130300000Y-93095000D03*
X130300000Y-94365000D03*
X130300000Y-95635000D03*
X130300000Y-96905000D03*
%TD*%
%TO.C,Q1*%
X135700000Y-80905000D03*
X135700000Y-79635000D03*
X135700000Y-78365000D03*
X135700000Y-77095000D03*
X130300000Y-77095000D03*
X130300000Y-78365000D03*
X130300000Y-79635000D03*
X130300000Y-80905000D03*
%TD*%
D16*
%TO.C,P2*%
X151000000Y-109000000D03*
D17*
X151000000Y-111540000D03*
%TD*%
D18*
%TO.C,D1*%
X106781250Y-115375000D03*
X106781250Y-113500000D03*
%TD*%
D19*
%TO.C,C6*%
X126000000Y-94475000D03*
X126000000Y-91525000D03*
%TD*%
D20*
%TO.C,C2*%
X109474000Y-82730400D03*
X109474000Y-83690400D03*
%TD*%
D16*
%TO.C,P3*%
X106451400Y-92887800D03*
D17*
X106451400Y-90347800D03*
X106451400Y-87807800D03*
X106451400Y-85267800D03*
%TD*%
D20*
%TO.C,C4*%
X121437500Y-85040000D03*
X121437500Y-86000000D03*
%TD*%
D21*
%TO.C,R1*%
X111683800Y-77152000D03*
X111683800Y-75502000D03*
%TD*%
D16*
%TO.C,P10*%
X151000000Y-92460000D03*
D17*
X151000000Y-95000000D03*
X151000000Y-97540000D03*
X151000000Y-100080000D03*
%TD*%
D16*
%TO.C,P5*%
X151000000Y-116000000D03*
%TD*%
D22*
%TO.C,C3*%
X119480000Y-83000000D03*
X118520000Y-83000000D03*
%TD*%
D23*
%TO.C,C1*%
X121437500Y-89450000D03*
X121437500Y-91000000D03*
%TD*%
D13*
%TO.C,C7*%
X122525000Y-103000000D03*
X125475000Y-103000000D03*
%TD*%
D16*
%TO.C,P4*%
X151000000Y-104000000D03*
%TD*%
D24*
%TO.C,C5*%
X126000000Y-84525000D03*
X126000000Y-87475000D03*
%TD*%
D16*
%TO.C,P1*%
X106500000Y-99450000D03*
D17*
X106500000Y-101990000D03*
X106500000Y-104530000D03*
X106500000Y-107070000D03*
%TD*%
D25*
%TO.C,R2*%
X113000000Y-97175000D03*
X113000000Y-98825000D03*
%TD*%
D26*
%TO.C,IC1*%
X115229200Y-85565500D03*
X114729200Y-85565500D03*
X114229200Y-85565500D03*
X113729200Y-85565500D03*
X113229200Y-85565500D03*
X112729200Y-85565500D03*
X112229200Y-85565500D03*
X111729200Y-85565500D03*
D27*
X111041700Y-86253000D03*
X111041700Y-86753000D03*
X111041700Y-87253000D03*
X111041700Y-87753000D03*
X111041700Y-88253000D03*
X111041700Y-88753000D03*
X111041700Y-89253000D03*
X111041700Y-89753000D03*
D26*
X111729200Y-90440500D03*
X112229200Y-90440500D03*
X112729200Y-90440500D03*
X113229200Y-90440500D03*
X113729200Y-90440500D03*
X114229200Y-90440500D03*
X114729200Y-90440500D03*
X115229200Y-90440500D03*
D27*
X115916700Y-89753000D03*
X115916700Y-89253000D03*
X115916700Y-88753000D03*
X115916700Y-88253000D03*
X115916700Y-87753000D03*
X115916700Y-87253000D03*
X115916700Y-86753000D03*
X115916700Y-86253000D03*
D28*
X113479200Y-88003000D03*
%TD*%
D14*
%TO.C,Q2*%
X135700000Y-88905000D03*
X135700000Y-87635000D03*
X135700000Y-86365000D03*
X135700000Y-85095000D03*
X130300000Y-85095000D03*
X130300000Y-86365000D03*
X130300000Y-87635000D03*
X130300000Y-88905000D03*
%TD*%
D29*
%TO.C,R4*%
X122962500Y-74750000D03*
X117037500Y-74750000D03*
%TD*%
M02*
