%TF.GenerationSoftware,KiCad,Pcbnew,8.0.5*%
%TF.CreationDate,2024-10-31T12:59:41-07:00*%
%TF.ProjectId,team6_pcb,7465616d-365f-4706-9362-2e6b69636164,rev?*%
%TF.SameCoordinates,Original*%
%TF.FileFunction,Copper,L2,Inr*%
%TF.FilePolarity,Positive*%
%FSLAX46Y46*%
G04 Gerber Fmt 4.6, Leading zero omitted, Abs format (unit mm)*
G04 Created by KiCad (PCBNEW 8.0.5) date 2024-10-31 12:59:41*
%MOMM*%
%LPD*%
G01*
G04 APERTURE LIST*
G04 Aperture macros list*
%AMRoundRect*
0 Rectangle with rounded corners*
0 $1 Rounding radius*
0 $2 $3 $4 $5 $6 $7 $8 $9 X,Y pos of 4 corners*
0 Add a 4 corners polygon primitive as box body*
4,1,4,$2,$3,$4,$5,$6,$7,$8,$9,$2,$3,0*
0 Add four circle primitives for the rounded corners*
1,1,$1+$1,$2,$3*
1,1,$1+$1,$4,$5*
1,1,$1+$1,$6,$7*
1,1,$1+$1,$8,$9*
0 Add four rect primitives between the rounded corners*
20,1,$1+$1,$2,$3,$4,$5,0*
20,1,$1+$1,$4,$5,$6,$7,0*
20,1,$1+$1,$6,$7,$8,$9,0*
20,1,$1+$1,$8,$9,$2,$3,0*%
G04 Aperture macros list end*
%TA.AperFunction,ComponentPad*%
%ADD10RoundRect,0.250000X1.550000X-0.750000X1.550000X0.750000X-1.550000X0.750000X-1.550000X-0.750000X0*%
%TD*%
%TA.AperFunction,ComponentPad*%
%ADD11O,3.600000X2.000000*%
%TD*%
%TA.AperFunction,ComponentPad*%
%ADD12R,1.700000X1.700000*%
%TD*%
%TA.AperFunction,ComponentPad*%
%ADD13O,1.700000X1.700000*%
%TD*%
%TA.AperFunction,HeatsinkPad*%
%ADD14C,0.500000*%
%TD*%
%TA.AperFunction,ViaPad*%
%ADD15C,0.450000*%
%TD*%
G04 APERTURE END LIST*
D10*
%TO.N,VM*%
%TO.C,P9*%
X143000000Y-85000000D03*
D11*
%TO.N,GND*%
X143000000Y-80000000D03*
%TD*%
D12*
%TO.N,VCC_IO*%
%TO.C,P8*%
X106437500Y-78000000D03*
D13*
%TO.N,GND*%
X106437500Y-80540000D03*
%TD*%
D12*
%TO.N,Net-(IC1-DIR)*%
%TO.C,P2*%
X151000000Y-109000000D03*
D13*
%TO.N,Net-(IC1-STEP)*%
X151000000Y-111540000D03*
%TD*%
D12*
%TO.N,SG_TEST*%
%TO.C,P3*%
X106451400Y-92887800D03*
D13*
%TO.N,CLK16*%
X106451400Y-90347800D03*
%TO.N,DRV_EN*%
X106451400Y-87807800D03*
%TO.N,GND*%
X106451400Y-85267800D03*
%TD*%
D12*
%TO.N,A2*%
%TO.C,P10*%
X151000000Y-92460000D03*
D13*
%TO.N,A1*%
X151000000Y-95000000D03*
%TO.N,B1*%
X151000000Y-97540000D03*
%TO.N,B2*%
X151000000Y-100080000D03*
%TD*%
D12*
%TO.N,GND*%
%TO.C,P5*%
X151000000Y-116000000D03*
%TD*%
%TO.N,GND*%
%TO.C,P4*%
X151000000Y-104000000D03*
%TD*%
%TO.N,CSN*%
%TO.C,P1*%
X106500000Y-99450000D03*
D13*
%TO.N,SCK*%
X106500000Y-101990000D03*
%TO.N,SDI*%
X106500000Y-104530000D03*
%TO.N,SDO*%
X106500000Y-107070000D03*
%TD*%
D14*
%TO.N,GND*%
%TO.C,IC1*%
X114479200Y-87003000D03*
X113479200Y-87003000D03*
X112479200Y-87003000D03*
X114479200Y-88003000D03*
X113479200Y-88003000D03*
X112479200Y-88003000D03*
X114479200Y-89003000D03*
X113479200Y-89003000D03*
X112479200Y-89003000D03*
%TD*%
D15*
%TO.N,GND*%
X107281250Y-116437500D03*
X120250000Y-82250000D03*
X121750000Y-84250000D03*
X124750000Y-84250000D03*
X121500000Y-98250000D03*
X123000000Y-101500000D03*
X119750000Y-104250000D03*
X121000000Y-84250000D03*
X116000000Y-74500000D03*
X109750000Y-82000000D03*
X122500000Y-101750000D03*
X120250000Y-102750000D03*
X109250000Y-82000000D03*
X120250000Y-103500000D03*
X123250000Y-102000000D03*
X121500000Y-99000000D03*
X115750000Y-73000000D03*
X123500000Y-102500000D03*
X124750000Y-85000000D03*
X122750000Y-97750000D03*
X122000000Y-97750000D03*
X118500000Y-104250000D03*
X115750000Y-74000000D03*
X124750000Y-94000000D03*
X118000000Y-102750000D03*
X118000000Y-103500000D03*
X119500000Y-82250000D03*
X116000000Y-73500000D03*
X124750000Y-83500000D03*
X127250000Y-95250000D03*
X106281250Y-116437500D03*
X124750000Y-95250000D03*
X121500000Y-99750000D03*
X120250000Y-83000000D03*
X127250000Y-94000000D03*
%TO.N,VM*%
X121000000Y-88500000D03*
X135000000Y-106000000D03*
X137000000Y-82000000D03*
X135000000Y-90000000D03*
X136000000Y-98000000D03*
X137000000Y-105000000D03*
X124500000Y-87000000D03*
X127000000Y-104000000D03*
X127000000Y-102000000D03*
X127500000Y-88000000D03*
X122000000Y-87000000D03*
X117250000Y-90000000D03*
X126500000Y-88500000D03*
X126000000Y-97500000D03*
X126500000Y-90500000D03*
X137000000Y-89000000D03*
X121000000Y-87000000D03*
X121500000Y-88000000D03*
X136000000Y-90000000D03*
X127000000Y-100000000D03*
X127500000Y-92000000D03*
X137500000Y-97500000D03*
X137000000Y-97000000D03*
X137000000Y-106000000D03*
X127000000Y-103000000D03*
X125000000Y-97500000D03*
X127000000Y-98000000D03*
X136000000Y-106000000D03*
X122000000Y-88500000D03*
X137000000Y-81000000D03*
X124500000Y-92000000D03*
X135000000Y-82000000D03*
X125500000Y-90500000D03*
X137000000Y-98000000D03*
X137500000Y-105500000D03*
X127500000Y-91000000D03*
X127000000Y-99000000D03*
X135000000Y-98000000D03*
X126000000Y-104500000D03*
X125000000Y-104500000D03*
X127500000Y-87000000D03*
X124500000Y-88000000D03*
X125500000Y-101500000D03*
X124500000Y-91000000D03*
X125500000Y-100500000D03*
X137000000Y-90000000D03*
X125500000Y-88500000D03*
X137500000Y-89500000D03*
X137500000Y-81500000D03*
X136000000Y-82000000D03*
%TO.N,VCC_IO*%
X116535200Y-81508600D03*
X123000000Y-92000000D03*
X110781250Y-114437500D03*
X118000000Y-87750000D03*
X115250000Y-95750000D03*
%TO.N,HB2*%
X137250000Y-103750000D03*
X116000000Y-92400003D03*
%TO.N,A1*%
X130000000Y-90250000D03*
X114084465Y-79771800D03*
X147500000Y-95000000D03*
X128320800Y-83464400D03*
X130000000Y-91725000D03*
%TO.N,SDI*%
X108776098Y-91981063D03*
X108775000Y-87278000D03*
X108775000Y-96250000D03*
X108775000Y-103000000D03*
%TO.N,LA1*%
X134467600Y-85115400D03*
X113004600Y-79771800D03*
%TO.N,Net-(IC1-DIR)*%
X144246600Y-108000800D03*
X118160800Y-85979000D03*
%TO.N,SG_TEST*%
X117000000Y-88750000D03*
%TO.N,Net-(IC1-STEP)*%
X117221000Y-86004400D03*
%TO.N,LB2*%
X137775007Y-99649521D03*
X115750000Y-97250000D03*
X143225000Y-106750000D03*
X143250000Y-108250000D03*
%TO.N,HB1*%
X116000000Y-91600000D03*
X137500000Y-95500000D03*
%TO.N,SDO*%
X108250000Y-92362800D03*
X108250000Y-96750000D03*
X108250000Y-86750000D03*
%TO.N,A2*%
X137312400Y-82900000D03*
X127939800Y-76987400D03*
X115112800Y-79771800D03*
%TO.N,SCK*%
X109815621Y-91624843D03*
X110250000Y-87778000D03*
%TO.N,B2*%
X137750000Y-99000000D03*
X116000000Y-93250000D03*
X131750000Y-99000000D03*
X128750000Y-100250000D03*
X143225000Y-99250000D03*
%TO.N,CSN*%
X109487200Y-88728000D03*
X109300000Y-91229073D03*
%TO.N,B1*%
X116000000Y-94050003D03*
X121250000Y-94000000D03*
%TO.N,HA2*%
X133756400Y-79730600D03*
X129362200Y-82270600D03*
X128025600Y-82042000D03*
X115951000Y-79771800D03*
%TO.N,HA1*%
X133629400Y-83566000D03*
X137439400Y-87579200D03*
X135102600Y-83566000D03*
X117043200Y-80060800D03*
%TO.N,LB1*%
X116000000Y-94850006D03*
X137500000Y-93000000D03*
%TD*%
%TA.AperFunction,Conductor*%
%TO.N,GND*%
G36*
X154876052Y-71238389D02*
G01*
X154943000Y-71258369D01*
X154988521Y-71311375D01*
X154999500Y-71362387D01*
X154999500Y-119875500D01*
X154979815Y-119942539D01*
X154927011Y-119988294D01*
X154875500Y-119999500D01*
X103374500Y-119999500D01*
X103307461Y-119979815D01*
X103261706Y-119927011D01*
X103250500Y-119875500D01*
X103250500Y-114437496D01*
X110051159Y-114437496D01*
X110051159Y-114437503D01*
X110069462Y-114599955D01*
X110123460Y-114754274D01*
X110123461Y-114754275D01*
X110210442Y-114892704D01*
X110326046Y-115008308D01*
X110464475Y-115095289D01*
X110618789Y-115149286D01*
X110618792Y-115149286D01*
X110618794Y-115149287D01*
X110781246Y-115167591D01*
X110781250Y-115167591D01*
X110781254Y-115167591D01*
X110943705Y-115149287D01*
X110943706Y-115149286D01*
X110943711Y-115149286D01*
X111098025Y-115095289D01*
X111236454Y-115008308D01*
X111352058Y-114892704D01*
X111439039Y-114754275D01*
X111493036Y-114599961D01*
X111511341Y-114437500D01*
X111493036Y-114275039D01*
X111439039Y-114120725D01*
X111352058Y-113982296D01*
X111236454Y-113866692D01*
X111098024Y-113779710D01*
X110943705Y-113725712D01*
X110781254Y-113707409D01*
X110781246Y-113707409D01*
X110618794Y-113725712D01*
X110464475Y-113779710D01*
X110326045Y-113866692D01*
X110210442Y-113982295D01*
X110123460Y-114120725D01*
X110069462Y-114275044D01*
X110051159Y-114437496D01*
X103250500Y-114437496D01*
X103250500Y-111539999D01*
X149644341Y-111539999D01*
X149644341Y-111540000D01*
X149664936Y-111775403D01*
X149664938Y-111775413D01*
X149726094Y-112003655D01*
X149726096Y-112003659D01*
X149726097Y-112003663D01*
X149825965Y-112217830D01*
X149825967Y-112217834D01*
X149934281Y-112372521D01*
X149961505Y-112411401D01*
X150128599Y-112578495D01*
X150225384Y-112646265D01*
X150322165Y-112714032D01*
X150322167Y-112714033D01*
X150322170Y-112714035D01*
X150536337Y-112813903D01*
X150764592Y-112875063D01*
X150952918Y-112891539D01*
X150999999Y-112895659D01*
X151000000Y-112895659D01*
X151000001Y-112895659D01*
X151039234Y-112892226D01*
X151235408Y-112875063D01*
X151463663Y-112813903D01*
X151677830Y-112714035D01*
X151871401Y-112578495D01*
X152038495Y-112411401D01*
X152174035Y-112217830D01*
X152273903Y-112003663D01*
X152335063Y-111775408D01*
X152355659Y-111540000D01*
X152335063Y-111304592D01*
X152273903Y-111076337D01*
X152174035Y-110862171D01*
X152038495Y-110668599D01*
X151916567Y-110546671D01*
X151883084Y-110485351D01*
X151888068Y-110415659D01*
X151929939Y-110359725D01*
X151960915Y-110342810D01*
X152092331Y-110293796D01*
X152207546Y-110207546D01*
X152293796Y-110092331D01*
X152344091Y-109957483D01*
X152350500Y-109897873D01*
X152350499Y-108102128D01*
X152344091Y-108042517D01*
X152293796Y-107907669D01*
X152293795Y-107907668D01*
X152293793Y-107907664D01*
X152207547Y-107792455D01*
X152207544Y-107792452D01*
X152092335Y-107706206D01*
X152092328Y-107706202D01*
X151957482Y-107655908D01*
X151957483Y-107655908D01*
X151897883Y-107649501D01*
X151897881Y-107649500D01*
X151897873Y-107649500D01*
X151897864Y-107649500D01*
X150102129Y-107649500D01*
X150102123Y-107649501D01*
X150042516Y-107655908D01*
X149907671Y-107706202D01*
X149907664Y-107706206D01*
X149792455Y-107792452D01*
X149792452Y-107792455D01*
X149706206Y-107907664D01*
X149706202Y-107907671D01*
X149655908Y-108042517D01*
X149651068Y-108087539D01*
X149649501Y-108102123D01*
X149649500Y-108102135D01*
X149649500Y-109897870D01*
X149649501Y-109897876D01*
X149655908Y-109957483D01*
X149706202Y-110092328D01*
X149706206Y-110092335D01*
X149792452Y-110207544D01*
X149792455Y-110207547D01*
X149907664Y-110293793D01*
X149907671Y-110293797D01*
X150039081Y-110342810D01*
X150095015Y-110384681D01*
X150119432Y-110450145D01*
X150104580Y-110518418D01*
X150083430Y-110546673D01*
X149961503Y-110668600D01*
X149825965Y-110862169D01*
X149825964Y-110862171D01*
X149726098Y-111076335D01*
X149726094Y-111076344D01*
X149664938Y-111304586D01*
X149664936Y-111304596D01*
X149644341Y-111539999D01*
X103250500Y-111539999D01*
X103250500Y-101989999D01*
X105144341Y-101989999D01*
X105144341Y-101990000D01*
X105164936Y-102225403D01*
X105164938Y-102225413D01*
X105226094Y-102453655D01*
X105226096Y-102453659D01*
X105226097Y-102453663D01*
X105268593Y-102544795D01*
X105325965Y-102667830D01*
X105325967Y-102667834D01*
X105461501Y-102861395D01*
X105461506Y-102861402D01*
X105628597Y-103028493D01*
X105628603Y-103028498D01*
X105814158Y-103158425D01*
X105857783Y-103213002D01*
X105864977Y-103282500D01*
X105833454Y-103344855D01*
X105814158Y-103361575D01*
X105628597Y-103491505D01*
X105461505Y-103658597D01*
X105325965Y-103852169D01*
X105325964Y-103852171D01*
X105226098Y-104066335D01*
X105226094Y-104066344D01*
X105164938Y-104294586D01*
X105164936Y-104294596D01*
X105144341Y-104529999D01*
X105144341Y-104530000D01*
X105164936Y-104765403D01*
X105164938Y-104765413D01*
X105226094Y-104993655D01*
X105226096Y-104993659D01*
X105226097Y-104993663D01*
X105325965Y-105207830D01*
X105325967Y-105207834D01*
X105461501Y-105401395D01*
X105461506Y-105401402D01*
X105628597Y-105568493D01*
X105628603Y-105568498D01*
X105814158Y-105698425D01*
X105857783Y-105753002D01*
X105864977Y-105822500D01*
X105833454Y-105884855D01*
X105814158Y-105901575D01*
X105628597Y-106031505D01*
X105461505Y-106198597D01*
X105325965Y-106392169D01*
X105325964Y-106392171D01*
X105226098Y-106606335D01*
X105226094Y-106606344D01*
X105164938Y-106834586D01*
X105164936Y-106834596D01*
X105144341Y-107069999D01*
X105144341Y-107070000D01*
X105164936Y-107305403D01*
X105164938Y-107305413D01*
X105226094Y-107533655D01*
X105226096Y-107533659D01*
X105226097Y-107533663D01*
X105306555Y-107706206D01*
X105325965Y-107747830D01*
X105325967Y-107747834D01*
X105434281Y-107902521D01*
X105461505Y-107941401D01*
X105628599Y-108108495D01*
X105706804Y-108163255D01*
X105822165Y-108244032D01*
X105822167Y-108244033D01*
X105822170Y-108244035D01*
X106036337Y-108343903D01*
X106264592Y-108405063D01*
X106452918Y-108421539D01*
X106499999Y-108425659D01*
X106500000Y-108425659D01*
X106500001Y-108425659D01*
X106539234Y-108422226D01*
X106735408Y-108405063D01*
X106963663Y-108343903D01*
X107177830Y-108244035D01*
X107371401Y-108108495D01*
X107538495Y-107941401D01*
X107674035Y-107747830D01*
X107773903Y-107533663D01*
X107835063Y-107305408D01*
X107855659Y-107070000D01*
X107835063Y-106834592D01*
X107812396Y-106749996D01*
X142494909Y-106749996D01*
X142494909Y-106750003D01*
X142513212Y-106912455D01*
X142567210Y-107066774D01*
X142654192Y-107205204D01*
X142769795Y-107320807D01*
X142769801Y-107320812D01*
X142900380Y-107402861D01*
X142946671Y-107455195D01*
X142957319Y-107524249D01*
X142928944Y-107588097D01*
X142900381Y-107612847D01*
X142794798Y-107679190D01*
X142794795Y-107679192D01*
X142679192Y-107794795D01*
X142592210Y-107933225D01*
X142538212Y-108087544D01*
X142519909Y-108249996D01*
X142519909Y-108250003D01*
X142538212Y-108412455D01*
X142592210Y-108566774D01*
X142627334Y-108622673D01*
X142679192Y-108705204D01*
X142794796Y-108820808D01*
X142933225Y-108907789D01*
X143087539Y-108961786D01*
X143087542Y-108961786D01*
X143087544Y-108961787D01*
X143249996Y-108980091D01*
X143250000Y-108980091D01*
X143250004Y-108980091D01*
X143412455Y-108961787D01*
X143412456Y-108961786D01*
X143412461Y-108961786D01*
X143566775Y-108907789D01*
X143705204Y-108820808D01*
X143820808Y-108705204D01*
X143820808Y-108705203D01*
X143825732Y-108700280D01*
X143827247Y-108701795D01*
X143875977Y-108667585D01*
X143945789Y-108664729D01*
X143956699Y-108667992D01*
X144084139Y-108712586D01*
X144084142Y-108712586D01*
X144084144Y-108712587D01*
X144246596Y-108730891D01*
X144246600Y-108730891D01*
X144246604Y-108730891D01*
X144409055Y-108712587D01*
X144409056Y-108712586D01*
X144409061Y-108712586D01*
X144563375Y-108658589D01*
X144701804Y-108571608D01*
X144817408Y-108456004D01*
X144904389Y-108317575D01*
X144958386Y-108163261D01*
X144958387Y-108163255D01*
X144976691Y-108000803D01*
X144976691Y-108000796D01*
X144958387Y-107838344D01*
X144958386Y-107838342D01*
X144958386Y-107838339D01*
X144904389Y-107684025D01*
X144817408Y-107545596D01*
X144701804Y-107429992D01*
X144666468Y-107407789D01*
X144563374Y-107343010D01*
X144409055Y-107289012D01*
X144246604Y-107270709D01*
X144246596Y-107270709D01*
X144084143Y-107289012D01*
X143981528Y-107324918D01*
X143911749Y-107328479D01*
X143851122Y-107293749D01*
X143818896Y-107231756D01*
X143825302Y-107162180D01*
X143835578Y-107141909D01*
X143882789Y-107066775D01*
X143936786Y-106912461D01*
X143936787Y-106912455D01*
X143955091Y-106750003D01*
X143955091Y-106749996D01*
X143936787Y-106587544D01*
X143936786Y-106587542D01*
X143936786Y-106587539D01*
X143882789Y-106433225D01*
X143795808Y-106294796D01*
X143680204Y-106179192D01*
X143653567Y-106162455D01*
X143541774Y-106092210D01*
X143387455Y-106038212D01*
X143225004Y-106019909D01*
X143224996Y-106019909D01*
X143062544Y-106038212D01*
X142908225Y-106092210D01*
X142769795Y-106179192D01*
X142654192Y-106294795D01*
X142567210Y-106433225D01*
X142513212Y-106587544D01*
X142494909Y-106749996D01*
X107812396Y-106749996D01*
X107773903Y-106606337D01*
X107674035Y-106392171D01*
X107621243Y-106316775D01*
X107538494Y-106198597D01*
X107371402Y-106031506D01*
X107371396Y-106031501D01*
X107326402Y-105999996D01*
X134269909Y-105999996D01*
X134269909Y-106000003D01*
X134288212Y-106162455D01*
X134342210Y-106316774D01*
X134415382Y-106433225D01*
X134429192Y-106455204D01*
X134544796Y-106570808D01*
X134683225Y-106657789D01*
X134837539Y-106711786D01*
X134837542Y-106711786D01*
X134837544Y-106711787D01*
X134999996Y-106730091D01*
X135000000Y-106730091D01*
X135000004Y-106730091D01*
X135162455Y-106711787D01*
X135162456Y-106711786D01*
X135162461Y-106711786D01*
X135316775Y-106657789D01*
X135434028Y-106584113D01*
X135501264Y-106565113D01*
X135565971Y-106584113D01*
X135683225Y-106657789D01*
X135837539Y-106711786D01*
X135837542Y-106711786D01*
X135837544Y-106711787D01*
X135999996Y-106730091D01*
X136000000Y-106730091D01*
X136000004Y-106730091D01*
X136162455Y-106711787D01*
X136162456Y-106711786D01*
X136162461Y-106711786D01*
X136316775Y-106657789D01*
X136434028Y-106584113D01*
X136501264Y-106565113D01*
X136565971Y-106584113D01*
X136683225Y-106657789D01*
X136837539Y-106711786D01*
X136837542Y-106711786D01*
X136837544Y-106711787D01*
X136999996Y-106730091D01*
X137000000Y-106730091D01*
X137000004Y-106730091D01*
X137162455Y-106711787D01*
X137162456Y-106711786D01*
X137162461Y-106711786D01*
X137316775Y-106657789D01*
X137455204Y-106570808D01*
X137570808Y-106455204D01*
X137657789Y-106316775D01*
X137679277Y-106255364D01*
X137719999Y-106198589D01*
X137755365Y-106179277D01*
X137755608Y-106179192D01*
X137816775Y-106157789D01*
X137955204Y-106070808D01*
X138070808Y-105955204D01*
X138157789Y-105816775D01*
X138211786Y-105662461D01*
X138222373Y-105568498D01*
X138230091Y-105500003D01*
X138230091Y-105499996D01*
X138211787Y-105337544D01*
X138211786Y-105337542D01*
X138211786Y-105337539D01*
X138157789Y-105183225D01*
X138070808Y-105044796D01*
X137955204Y-104929192D01*
X137816775Y-104842211D01*
X137816773Y-104842210D01*
X137755364Y-104820722D01*
X137698588Y-104780000D01*
X137679277Y-104744635D01*
X137673270Y-104727469D01*
X137657789Y-104683225D01*
X137641806Y-104657789D01*
X137587152Y-104570808D01*
X137573918Y-104549746D01*
X137554918Y-104482511D01*
X137575285Y-104415676D01*
X137612938Y-104378782D01*
X137705204Y-104320808D01*
X137820808Y-104205204D01*
X137907789Y-104066775D01*
X137961786Y-103912461D01*
X137968579Y-103852171D01*
X137980091Y-103750003D01*
X137980091Y-103749996D01*
X137961787Y-103587544D01*
X137961786Y-103587542D01*
X137961786Y-103587539D01*
X137907789Y-103433225D01*
X137820808Y-103294796D01*
X137705204Y-103179192D01*
X137672154Y-103158425D01*
X137566774Y-103092210D01*
X137412455Y-103038212D01*
X137250004Y-103019909D01*
X137249996Y-103019909D01*
X137087544Y-103038212D01*
X136933225Y-103092210D01*
X136794795Y-103179192D01*
X136679192Y-103294795D01*
X136592210Y-103433225D01*
X136538212Y-103587544D01*
X136519909Y-103749996D01*
X136519909Y-103750003D01*
X136538212Y-103912455D01*
X136538213Y-103912460D01*
X136538214Y-103912461D01*
X136546061Y-103934886D01*
X136592211Y-104066776D01*
X136676080Y-104200251D01*
X136695081Y-104267488D01*
X136674714Y-104334323D01*
X136637060Y-104371217D01*
X136544798Y-104429190D01*
X136544795Y-104429192D01*
X136429192Y-104544795D01*
X136342210Y-104683225D01*
X136288212Y-104837544D01*
X136269909Y-104999996D01*
X136269909Y-105000004D01*
X136286771Y-105149668D01*
X136274716Y-105218490D01*
X136227367Y-105269869D01*
X136159756Y-105287493D01*
X136149668Y-105286771D01*
X136000004Y-105269909D01*
X135999996Y-105269909D01*
X135837544Y-105288212D01*
X135683225Y-105342210D01*
X135565972Y-105415886D01*
X135498735Y-105434886D01*
X135434028Y-105415886D01*
X135316774Y-105342210D01*
X135162455Y-105288212D01*
X135000004Y-105269909D01*
X134999996Y-105269909D01*
X134837544Y-105288212D01*
X134683225Y-105342210D01*
X134544795Y-105429192D01*
X134429192Y-105544795D01*
X134342210Y-105683225D01*
X134288212Y-105837544D01*
X134269909Y-105999996D01*
X107326402Y-105999996D01*
X107185842Y-105901575D01*
X107142217Y-105846998D01*
X107135023Y-105777500D01*
X107166546Y-105715145D01*
X107185842Y-105698425D01*
X107237212Y-105662455D01*
X107371401Y-105568495D01*
X107538495Y-105401401D01*
X107674035Y-105207830D01*
X107773903Y-104993663D01*
X107835063Y-104765408D01*
X107855659Y-104530000D01*
X107835063Y-104294592D01*
X107773903Y-104066337D01*
X107674035Y-103852171D01*
X107667061Y-103842210D01*
X107538494Y-103658597D01*
X107371402Y-103491506D01*
X107371396Y-103491501D01*
X107185842Y-103361575D01*
X107142217Y-103306998D01*
X107135023Y-103237500D01*
X107166546Y-103175145D01*
X107185842Y-103158425D01*
X107280405Y-103092211D01*
X107371401Y-103028495D01*
X107399900Y-102999996D01*
X108044909Y-102999996D01*
X108044909Y-103000003D01*
X108063212Y-103162455D01*
X108117210Y-103316774D01*
X108134855Y-103344855D01*
X108204192Y-103455204D01*
X108319796Y-103570808D01*
X108458225Y-103657789D01*
X108612539Y-103711786D01*
X108612542Y-103711786D01*
X108612544Y-103711787D01*
X108774996Y-103730091D01*
X108775000Y-103730091D01*
X108775004Y-103730091D01*
X108937455Y-103711787D01*
X108937456Y-103711786D01*
X108937461Y-103711786D01*
X109091775Y-103657789D01*
X109230204Y-103570808D01*
X109345808Y-103455204D01*
X109432789Y-103316775D01*
X109486786Y-103162461D01*
X109487241Y-103158425D01*
X109505091Y-103000003D01*
X109505091Y-102999996D01*
X109486787Y-102837544D01*
X109486786Y-102837542D01*
X109486786Y-102837539D01*
X109432789Y-102683225D01*
X109345808Y-102544796D01*
X109230204Y-102429192D01*
X109091774Y-102342210D01*
X108937455Y-102288212D01*
X108775004Y-102269909D01*
X108774996Y-102269909D01*
X108612544Y-102288212D01*
X108458225Y-102342210D01*
X108319795Y-102429192D01*
X108204192Y-102544795D01*
X108117210Y-102683225D01*
X108063212Y-102837544D01*
X108044909Y-102999996D01*
X107399900Y-102999996D01*
X107538495Y-102861401D01*
X107674035Y-102667830D01*
X107773903Y-102453663D01*
X107835063Y-102225408D01*
X107855659Y-101990000D01*
X107835063Y-101754592D01*
X107778849Y-101544795D01*
X107773905Y-101526344D01*
X107773904Y-101526343D01*
X107773903Y-101526337D01*
X107674035Y-101312171D01*
X107657260Y-101288214D01*
X107538496Y-101118600D01*
X107485868Y-101065972D01*
X107416567Y-100996671D01*
X107383084Y-100935351D01*
X107388068Y-100865659D01*
X107429939Y-100809725D01*
X107460915Y-100792810D01*
X107592331Y-100743796D01*
X107707546Y-100657546D01*
X107793796Y-100542331D01*
X107844091Y-100407483D01*
X107850500Y-100347873D01*
X107850499Y-98552128D01*
X107844091Y-98492517D01*
X107830174Y-98455204D01*
X107793797Y-98357671D01*
X107793793Y-98357664D01*
X107707547Y-98242455D01*
X107707544Y-98242452D01*
X107592335Y-98156206D01*
X107592328Y-98156202D01*
X107457482Y-98105908D01*
X107457483Y-98105908D01*
X107397883Y-98099501D01*
X107397881Y-98099500D01*
X107397873Y-98099500D01*
X107397864Y-98099500D01*
X105602129Y-98099500D01*
X105602123Y-98099501D01*
X105542516Y-98105908D01*
X105407671Y-98156202D01*
X105407664Y-98156206D01*
X105292455Y-98242452D01*
X105292452Y-98242455D01*
X105206206Y-98357664D01*
X105206202Y-98357671D01*
X105155908Y-98492517D01*
X105150288Y-98544795D01*
X105149501Y-98552123D01*
X105149500Y-98552135D01*
X105149500Y-100347870D01*
X105149501Y-100347876D01*
X105155908Y-100407483D01*
X105206202Y-100542328D01*
X105206206Y-100542335D01*
X105292452Y-100657544D01*
X105292455Y-100657547D01*
X105407664Y-100743793D01*
X105407671Y-100743797D01*
X105539081Y-100792810D01*
X105595015Y-100834681D01*
X105619432Y-100900145D01*
X105604580Y-100968418D01*
X105583430Y-100996673D01*
X105461503Y-101118600D01*
X105325965Y-101312169D01*
X105325964Y-101312171D01*
X105226098Y-101526335D01*
X105226094Y-101526344D01*
X105164938Y-101754586D01*
X105164936Y-101754596D01*
X105144341Y-101989999D01*
X103250500Y-101989999D01*
X103250500Y-96749996D01*
X107519909Y-96749996D01*
X107519909Y-96750003D01*
X107538212Y-96912455D01*
X107538213Y-96912460D01*
X107538214Y-96912461D01*
X107544068Y-96929192D01*
X107592210Y-97066774D01*
X107605258Y-97087539D01*
X107679192Y-97205204D01*
X107794796Y-97320808D01*
X107933225Y-97407789D01*
X108087539Y-97461786D01*
X108087542Y-97461786D01*
X108087544Y-97461787D01*
X108249996Y-97480091D01*
X108250000Y-97480091D01*
X108250004Y-97480091D01*
X108412455Y-97461787D01*
X108412456Y-97461786D01*
X108412461Y-97461786D01*
X108566775Y-97407789D01*
X108705204Y-97320808D01*
X108820808Y-97205204D01*
X108907789Y-97066775D01*
X108925789Y-97015332D01*
X108966511Y-96958557D01*
X109001875Y-96939245D01*
X109091775Y-96907789D01*
X109230204Y-96820808D01*
X109345808Y-96705204D01*
X109432789Y-96566775D01*
X109486786Y-96412461D01*
X109486787Y-96412455D01*
X109505091Y-96250003D01*
X109505091Y-96249996D01*
X109486787Y-96087544D01*
X109486786Y-96087542D01*
X109486786Y-96087539D01*
X109432789Y-95933225D01*
X109345808Y-95794796D01*
X109301008Y-95749996D01*
X114519909Y-95749996D01*
X114519909Y-95750003D01*
X114538212Y-95912455D01*
X114592210Y-96066774D01*
X114666588Y-96185145D01*
X114679192Y-96205204D01*
X114794796Y-96320808D01*
X114933225Y-96407789D01*
X115087539Y-96461786D01*
X115087542Y-96461786D01*
X115087544Y-96461787D01*
X115179404Y-96472136D01*
X115213329Y-96475959D01*
X115277743Y-96503025D01*
X115317298Y-96560620D01*
X115319436Y-96630457D01*
X115287128Y-96686860D01*
X115179191Y-96794797D01*
X115092210Y-96933225D01*
X115038212Y-97087544D01*
X115019909Y-97249996D01*
X115019909Y-97250003D01*
X115038212Y-97412455D01*
X115038213Y-97412460D01*
X115038214Y-97412461D01*
X115044068Y-97429192D01*
X115092210Y-97566774D01*
X115092211Y-97566775D01*
X115179192Y-97705204D01*
X115294796Y-97820808D01*
X115433225Y-97907789D01*
X115587539Y-97961786D01*
X115587542Y-97961786D01*
X115587544Y-97961787D01*
X115749996Y-97980091D01*
X115750000Y-97980091D01*
X115750004Y-97980091D01*
X115912455Y-97961787D01*
X115912456Y-97961786D01*
X115912461Y-97961786D01*
X116066775Y-97907789D01*
X116205204Y-97820808D01*
X116320808Y-97705204D01*
X116407789Y-97566775D01*
X116431156Y-97499996D01*
X124269909Y-97499996D01*
X124269909Y-97500003D01*
X124288212Y-97662455D01*
X124342210Y-97816774D01*
X124342211Y-97816775D01*
X124429192Y-97955204D01*
X124544796Y-98070808D01*
X124683225Y-98157789D01*
X124837539Y-98211786D01*
X124837542Y-98211786D01*
X124837544Y-98211787D01*
X124999996Y-98230091D01*
X125000000Y-98230091D01*
X125000004Y-98230091D01*
X125162455Y-98211787D01*
X125162456Y-98211786D01*
X125162461Y-98211786D01*
X125316775Y-98157789D01*
X125434028Y-98084113D01*
X125501264Y-98065113D01*
X125565971Y-98084113D01*
X125600659Y-98105909D01*
X125680705Y-98156206D01*
X125683225Y-98157789D01*
X125837539Y-98211786D01*
X125837542Y-98211786D01*
X125837544Y-98211787D01*
X125999996Y-98230091D01*
X126000000Y-98230091D01*
X126000004Y-98230091D01*
X126162454Y-98211787D01*
X126162454Y-98211786D01*
X126162461Y-98211786D01*
X126172829Y-98208157D01*
X126242605Y-98204594D01*
X126303233Y-98239320D01*
X126330826Y-98284242D01*
X126342209Y-98316773D01*
X126415886Y-98434028D01*
X126434886Y-98501265D01*
X126415886Y-98565972D01*
X126342210Y-98683225D01*
X126288212Y-98837544D01*
X126269909Y-98999996D01*
X126269909Y-99000003D01*
X126288212Y-99162455D01*
X126342210Y-99316774D01*
X126415886Y-99434028D01*
X126434886Y-99501265D01*
X126415886Y-99565972D01*
X126342210Y-99683225D01*
X126288212Y-99837544D01*
X126274040Y-99963330D01*
X126246973Y-100027744D01*
X126189379Y-100067299D01*
X126119542Y-100069436D01*
X126063139Y-100037127D01*
X125955204Y-99929192D01*
X125816774Y-99842210D01*
X125662455Y-99788212D01*
X125500004Y-99769909D01*
X125499996Y-99769909D01*
X125337544Y-99788212D01*
X125183225Y-99842210D01*
X125044795Y-99929192D01*
X124929192Y-100044795D01*
X124842210Y-100183225D01*
X124788212Y-100337544D01*
X124769909Y-100499996D01*
X124769909Y-100500003D01*
X124788212Y-100662455D01*
X124842210Y-100816774D01*
X124915886Y-100934028D01*
X124934886Y-101001265D01*
X124915886Y-101065972D01*
X124842210Y-101183225D01*
X124788212Y-101337544D01*
X124769909Y-101499996D01*
X124769909Y-101500003D01*
X124788212Y-101662455D01*
X124842210Y-101816774D01*
X124842211Y-101816775D01*
X124929192Y-101955204D01*
X125044796Y-102070808D01*
X125183225Y-102157789D01*
X125337539Y-102211786D01*
X125337542Y-102211786D01*
X125337544Y-102211787D01*
X125499996Y-102230091D01*
X125500000Y-102230091D01*
X125500004Y-102230091D01*
X125662455Y-102211787D01*
X125662456Y-102211786D01*
X125662461Y-102211786D01*
X125816775Y-102157789D01*
X125955204Y-102070808D01*
X126063142Y-101962869D01*
X126124461Y-101929387D01*
X126194153Y-101934371D01*
X126250087Y-101976242D01*
X126274040Y-102036669D01*
X126288212Y-102162455D01*
X126342210Y-102316774D01*
X126415886Y-102434028D01*
X126434886Y-102501265D01*
X126415886Y-102565972D01*
X126342210Y-102683225D01*
X126288212Y-102837544D01*
X126269909Y-102999996D01*
X126269909Y-103000003D01*
X126288212Y-103162455D01*
X126342210Y-103316774D01*
X126415886Y-103434028D01*
X126434886Y-103501265D01*
X126415886Y-103565972D01*
X126342212Y-103683222D01*
X126330827Y-103715758D01*
X126290104Y-103772533D01*
X126225151Y-103798279D01*
X126172831Y-103791842D01*
X126162460Y-103788213D01*
X126000004Y-103769909D01*
X125999996Y-103769909D01*
X125837544Y-103788212D01*
X125683225Y-103842210D01*
X125565972Y-103915886D01*
X125498735Y-103934886D01*
X125434028Y-103915886D01*
X125316774Y-103842210D01*
X125162455Y-103788212D01*
X125000004Y-103769909D01*
X124999996Y-103769909D01*
X124837544Y-103788212D01*
X124683225Y-103842210D01*
X124544795Y-103929192D01*
X124429192Y-104044795D01*
X124342210Y-104183225D01*
X124288212Y-104337544D01*
X124269909Y-104499996D01*
X124269909Y-104500003D01*
X124288212Y-104662455D01*
X124342210Y-104816774D01*
X124429192Y-104955204D01*
X124544796Y-105070808D01*
X124683225Y-105157789D01*
X124837539Y-105211786D01*
X124837542Y-105211786D01*
X124837544Y-105211787D01*
X124999996Y-105230091D01*
X125000000Y-105230091D01*
X125000004Y-105230091D01*
X125162455Y-105211787D01*
X125162456Y-105211786D01*
X125162461Y-105211786D01*
X125316775Y-105157789D01*
X125434028Y-105084113D01*
X125501264Y-105065113D01*
X125565971Y-105084113D01*
X125639777Y-105130489D01*
X125670300Y-105149668D01*
X125683225Y-105157789D01*
X125837539Y-105211786D01*
X125837542Y-105211786D01*
X125837544Y-105211787D01*
X125999996Y-105230091D01*
X126000000Y-105230091D01*
X126000004Y-105230091D01*
X126162455Y-105211787D01*
X126162456Y-105211786D01*
X126162461Y-105211786D01*
X126316775Y-105157789D01*
X126455204Y-105070808D01*
X126570808Y-104955204D01*
X126657789Y-104816775D01*
X126669172Y-104784242D01*
X126709891Y-104727469D01*
X126774843Y-104701720D01*
X126827168Y-104708157D01*
X126837542Y-104711787D01*
X126999996Y-104730091D01*
X127000000Y-104730091D01*
X127000004Y-104730091D01*
X127162455Y-104711787D01*
X127162456Y-104711786D01*
X127162461Y-104711786D01*
X127316775Y-104657789D01*
X127455204Y-104570808D01*
X127570808Y-104455204D01*
X127657789Y-104316775D01*
X127711786Y-104162461D01*
X127722567Y-104066776D01*
X127730091Y-104000003D01*
X127730091Y-103999996D01*
X127711787Y-103837544D01*
X127711786Y-103837542D01*
X127711786Y-103837539D01*
X127657789Y-103683225D01*
X127642315Y-103658599D01*
X127587152Y-103570808D01*
X127584113Y-103565971D01*
X127565113Y-103498736D01*
X127584114Y-103434027D01*
X127657788Y-103316776D01*
X127657789Y-103316775D01*
X127711786Y-103162461D01*
X127712241Y-103158425D01*
X127730091Y-103000003D01*
X127730091Y-102999996D01*
X127711787Y-102837544D01*
X127711786Y-102837542D01*
X127711786Y-102837539D01*
X127657789Y-102683225D01*
X127584113Y-102565971D01*
X127565113Y-102498736D01*
X127584114Y-102434027D01*
X127657788Y-102316776D01*
X127657789Y-102316775D01*
X127711786Y-102162461D01*
X127711787Y-102162455D01*
X127730091Y-102000003D01*
X127730091Y-101999996D01*
X127711787Y-101837544D01*
X127711786Y-101837542D01*
X127711786Y-101837539D01*
X127657789Y-101683225D01*
X127570808Y-101544796D01*
X127455204Y-101429192D01*
X127335383Y-101353903D01*
X127316774Y-101342210D01*
X127162455Y-101288212D01*
X127000004Y-101269909D01*
X126999996Y-101269909D01*
X126837544Y-101288212D01*
X126683225Y-101342210D01*
X126544797Y-101429191D01*
X126436860Y-101537128D01*
X126375537Y-101570612D01*
X126305845Y-101565628D01*
X126249912Y-101523756D01*
X126225959Y-101463329D01*
X126211787Y-101337544D01*
X126211786Y-101337542D01*
X126211786Y-101337539D01*
X126157789Y-101183225D01*
X126084113Y-101065971D01*
X126065113Y-100998736D01*
X126084114Y-100934027D01*
X126100601Y-100907789D01*
X126157789Y-100816775D01*
X126211786Y-100662461D01*
X126212313Y-100657789D01*
X126225959Y-100536670D01*
X126253025Y-100472256D01*
X126310619Y-100432701D01*
X126380456Y-100430562D01*
X126436860Y-100462872D01*
X126544796Y-100570808D01*
X126683225Y-100657789D01*
X126837539Y-100711786D01*
X126837542Y-100711786D01*
X126837544Y-100711787D01*
X126999996Y-100730091D01*
X127000000Y-100730091D01*
X127000004Y-100730091D01*
X127162455Y-100711787D01*
X127162456Y-100711786D01*
X127162461Y-100711786D01*
X127316775Y-100657789D01*
X127455204Y-100570808D01*
X127570808Y-100455204D01*
X127657789Y-100316775D01*
X127681156Y-100249996D01*
X128019909Y-100249996D01*
X128019909Y-100250003D01*
X128038212Y-100412455D01*
X128092210Y-100566774D01*
X128092211Y-100566775D01*
X128179192Y-100705204D01*
X128294796Y-100820808D01*
X128433225Y-100907789D01*
X128587539Y-100961786D01*
X128587542Y-100961786D01*
X128587544Y-100961787D01*
X128749996Y-100980091D01*
X128750000Y-100980091D01*
X128750004Y-100980091D01*
X128912455Y-100961787D01*
X128912456Y-100961786D01*
X128912461Y-100961786D01*
X129066775Y-100907789D01*
X129205204Y-100820808D01*
X129320808Y-100705204D01*
X129407789Y-100566775D01*
X129461786Y-100412461D01*
X129462347Y-100407482D01*
X129480091Y-100250003D01*
X129480091Y-100249996D01*
X129461787Y-100087544D01*
X129461786Y-100087542D01*
X129461786Y-100087539D01*
X129407789Y-99933225D01*
X129320808Y-99794796D01*
X129205204Y-99679192D01*
X129066774Y-99592210D01*
X128912455Y-99538212D01*
X128750004Y-99519909D01*
X128749996Y-99519909D01*
X128587544Y-99538212D01*
X128433225Y-99592210D01*
X128294795Y-99679192D01*
X128179192Y-99794795D01*
X128092210Y-99933225D01*
X128038212Y-100087544D01*
X128019909Y-100249996D01*
X127681156Y-100249996D01*
X127711786Y-100162461D01*
X127711787Y-100162455D01*
X127730091Y-100000003D01*
X127730091Y-99999996D01*
X127711787Y-99837544D01*
X127711786Y-99837542D01*
X127711786Y-99837539D01*
X127657789Y-99683225D01*
X127641806Y-99657789D01*
X127587152Y-99570808D01*
X127584113Y-99565971D01*
X127565113Y-99498736D01*
X127584114Y-99434027D01*
X127604587Y-99401446D01*
X127657789Y-99316775D01*
X127711786Y-99162461D01*
X127720228Y-99087539D01*
X127730091Y-99000003D01*
X127730091Y-98999996D01*
X131019909Y-98999996D01*
X131019909Y-99000003D01*
X131038212Y-99162455D01*
X131092210Y-99316774D01*
X131102246Y-99332746D01*
X131179192Y-99455204D01*
X131294796Y-99570808D01*
X131433225Y-99657789D01*
X131587539Y-99711786D01*
X131587542Y-99711786D01*
X131587544Y-99711787D01*
X131749996Y-99730091D01*
X131750000Y-99730091D01*
X131750004Y-99730091D01*
X131912455Y-99711787D01*
X131912456Y-99711786D01*
X131912461Y-99711786D01*
X132066775Y-99657789D01*
X132205204Y-99570808D01*
X132320808Y-99455204D01*
X132407789Y-99316775D01*
X132461786Y-99162461D01*
X132470228Y-99087539D01*
X132480091Y-99000003D01*
X132480091Y-98999996D01*
X132461787Y-98837544D01*
X132461786Y-98837542D01*
X132461786Y-98837539D01*
X132407789Y-98683225D01*
X132320808Y-98544796D01*
X132205204Y-98429192D01*
X132066774Y-98342210D01*
X131912455Y-98288212D01*
X131750004Y-98269909D01*
X131749996Y-98269909D01*
X131587544Y-98288212D01*
X131433225Y-98342210D01*
X131294795Y-98429192D01*
X131179192Y-98544795D01*
X131092210Y-98683225D01*
X131038212Y-98837544D01*
X131019909Y-98999996D01*
X127730091Y-98999996D01*
X127711787Y-98837544D01*
X127711786Y-98837542D01*
X127711786Y-98837539D01*
X127657789Y-98683225D01*
X127641806Y-98657789D01*
X127591984Y-98578498D01*
X127584113Y-98565971D01*
X127565113Y-98498736D01*
X127584114Y-98434027D01*
X127598331Y-98411402D01*
X127657789Y-98316775D01*
X127711786Y-98162461D01*
X127711787Y-98162455D01*
X127730091Y-98000003D01*
X127730091Y-97999996D01*
X134269909Y-97999996D01*
X134269909Y-98000003D01*
X134288212Y-98162455D01*
X134342210Y-98316774D01*
X134415886Y-98434027D01*
X134429192Y-98455204D01*
X134544796Y-98570808D01*
X134683225Y-98657789D01*
X134837539Y-98711786D01*
X134837542Y-98711786D01*
X134837544Y-98711787D01*
X134999996Y-98730091D01*
X135000000Y-98730091D01*
X135000004Y-98730091D01*
X135162455Y-98711787D01*
X135162456Y-98711786D01*
X135162461Y-98711786D01*
X135316775Y-98657789D01*
X135434028Y-98584113D01*
X135501264Y-98565113D01*
X135565971Y-98584113D01*
X135683225Y-98657789D01*
X135837539Y-98711786D01*
X135837542Y-98711786D01*
X135837544Y-98711787D01*
X135999996Y-98730091D01*
X136000000Y-98730091D01*
X136000004Y-98730091D01*
X136162455Y-98711787D01*
X136162456Y-98711786D01*
X136162461Y-98711786D01*
X136316775Y-98657789D01*
X136434028Y-98584113D01*
X136501264Y-98565113D01*
X136565971Y-98584113D01*
X136683225Y-98657789D01*
X136837539Y-98711786D01*
X136837542Y-98711786D01*
X136837544Y-98711787D01*
X136926468Y-98721806D01*
X136990882Y-98748872D01*
X137030437Y-98806467D01*
X137035805Y-98858909D01*
X137019909Y-98999996D01*
X137019909Y-99000003D01*
X137038212Y-99162454D01*
X137038213Y-99162459D01*
X137038214Y-99162461D01*
X137086856Y-99301470D01*
X137093178Y-99319538D01*
X137096739Y-99389316D01*
X137093178Y-99401446D01*
X137063220Y-99487062D01*
X137044916Y-99649517D01*
X137044916Y-99649524D01*
X137063219Y-99811976D01*
X137117217Y-99966295D01*
X137155828Y-100027744D01*
X137204199Y-100104725D01*
X137319803Y-100220329D01*
X137458232Y-100307310D01*
X137612546Y-100361307D01*
X137612549Y-100361307D01*
X137612551Y-100361308D01*
X137775003Y-100379612D01*
X137775007Y-100379612D01*
X137775011Y-100379612D01*
X137937462Y-100361308D01*
X137937463Y-100361307D01*
X137937468Y-100361307D01*
X138091782Y-100307310D01*
X138230211Y-100220329D01*
X138345815Y-100104725D01*
X138432796Y-99966296D01*
X138486793Y-99811982D01*
X138486794Y-99811976D01*
X138505098Y-99649524D01*
X138505098Y-99649517D01*
X138486794Y-99487065D01*
X138486793Y-99487062D01*
X138486793Y-99487060D01*
X138432796Y-99332746D01*
X138431828Y-99329979D01*
X138428267Y-99260200D01*
X138431263Y-99249996D01*
X142494909Y-99249996D01*
X142494909Y-99250003D01*
X142513212Y-99412455D01*
X142567210Y-99566774D01*
X142640380Y-99683223D01*
X142654192Y-99705204D01*
X142769796Y-99820808D01*
X142908225Y-99907789D01*
X143062539Y-99961786D01*
X143062542Y-99961786D01*
X143062544Y-99961787D01*
X143224996Y-99980091D01*
X143225000Y-99980091D01*
X143225004Y-99980091D01*
X143387455Y-99961787D01*
X143387456Y-99961786D01*
X143387461Y-99961786D01*
X143541775Y-99907789D01*
X143680204Y-99820808D01*
X143795808Y-99705204D01*
X143882789Y-99566775D01*
X143936786Y-99412461D01*
X143936787Y-99412455D01*
X143955091Y-99250003D01*
X143955091Y-99249996D01*
X143936787Y-99087544D01*
X143936786Y-99087542D01*
X143936786Y-99087539D01*
X143882789Y-98933225D01*
X143795808Y-98794796D01*
X143680204Y-98679192D01*
X143541774Y-98592210D01*
X143387455Y-98538212D01*
X143225004Y-98519909D01*
X143224996Y-98519909D01*
X143062544Y-98538212D01*
X142908225Y-98592210D01*
X142769795Y-98679192D01*
X142654192Y-98794795D01*
X142567210Y-98933225D01*
X142513212Y-99087544D01*
X142494909Y-99249996D01*
X138431263Y-99249996D01*
X138431823Y-99248087D01*
X138461786Y-99162461D01*
X138470228Y-99087539D01*
X138480091Y-99000003D01*
X138480091Y-98999996D01*
X138461787Y-98837544D01*
X138461786Y-98837542D01*
X138461786Y-98837539D01*
X138407789Y-98683225D01*
X138320808Y-98544796D01*
X138205204Y-98429192D01*
X138066775Y-98342211D01*
X137960714Y-98305098D01*
X137903939Y-98264377D01*
X137878192Y-98199424D01*
X137891648Y-98130863D01*
X137935697Y-98083064D01*
X137955204Y-98070808D01*
X138070808Y-97955204D01*
X138157789Y-97816775D01*
X138211786Y-97662461D01*
X138211787Y-97662455D01*
X138230091Y-97500003D01*
X138230091Y-97499996D01*
X138211787Y-97337544D01*
X138211786Y-97337542D01*
X138211786Y-97337539D01*
X138157789Y-97183225D01*
X138070808Y-97044796D01*
X137955204Y-96929192D01*
X137928567Y-96912455D01*
X137816777Y-96842212D01*
X137816773Y-96842210D01*
X137755364Y-96820722D01*
X137698588Y-96780000D01*
X137679277Y-96744635D01*
X137657789Y-96683225D01*
X137648598Y-96668597D01*
X137570808Y-96544796D01*
X137462872Y-96436860D01*
X137429387Y-96375537D01*
X137434371Y-96305845D01*
X137476243Y-96249912D01*
X137536669Y-96225959D01*
X137594299Y-96219466D01*
X137662455Y-96211787D01*
X137662456Y-96211786D01*
X137662461Y-96211786D01*
X137816775Y-96157789D01*
X137955204Y-96070808D01*
X138070808Y-95955204D01*
X138157789Y-95816775D01*
X138211786Y-95662461D01*
X138211787Y-95662455D01*
X138230091Y-95500003D01*
X138230091Y-95499996D01*
X138211787Y-95337544D01*
X138211786Y-95337542D01*
X138211786Y-95337539D01*
X138157789Y-95183225D01*
X138070808Y-95044796D01*
X138026008Y-94999996D01*
X146769909Y-94999996D01*
X146769909Y-95000003D01*
X146788212Y-95162455D01*
X146842210Y-95316774D01*
X146842211Y-95316775D01*
X146929192Y-95455204D01*
X147044796Y-95570808D01*
X147183225Y-95657789D01*
X147337539Y-95711786D01*
X147337542Y-95711786D01*
X147337544Y-95711787D01*
X147499996Y-95730091D01*
X147500000Y-95730091D01*
X147500004Y-95730091D01*
X147662455Y-95711787D01*
X147662456Y-95711786D01*
X147662461Y-95711786D01*
X147816775Y-95657789D01*
X147955204Y-95570808D01*
X148070808Y-95455204D01*
X148157789Y-95316775D01*
X148211786Y-95162461D01*
X148211787Y-95162455D01*
X148230091Y-95000003D01*
X148230091Y-94999999D01*
X149644341Y-94999999D01*
X149644341Y-95000000D01*
X149664936Y-95235403D01*
X149664938Y-95235413D01*
X149726094Y-95463655D01*
X149726096Y-95463659D01*
X149726097Y-95463663D01*
X149818798Y-95662461D01*
X149825965Y-95677830D01*
X149825967Y-95677834D01*
X149961501Y-95871395D01*
X149961506Y-95871402D01*
X150128597Y-96038493D01*
X150128603Y-96038498D01*
X150314158Y-96168425D01*
X150357783Y-96223002D01*
X150364977Y-96292500D01*
X150333454Y-96354855D01*
X150314158Y-96371575D01*
X150128597Y-96501505D01*
X149961505Y-96668597D01*
X149825965Y-96862169D01*
X149825964Y-96862171D01*
X149726098Y-97076335D01*
X149726094Y-97076344D01*
X149664938Y-97304586D01*
X149664936Y-97304596D01*
X149644341Y-97539999D01*
X149644341Y-97540000D01*
X149664936Y-97775403D01*
X149664938Y-97775413D01*
X149726094Y-98003655D01*
X149726096Y-98003659D01*
X149726097Y-98003663D01*
X149785412Y-98130863D01*
X149825965Y-98217830D01*
X149825967Y-98217834D01*
X149961501Y-98411395D01*
X149961506Y-98411402D01*
X150128597Y-98578493D01*
X150128603Y-98578498D01*
X150314158Y-98708425D01*
X150357783Y-98763002D01*
X150364977Y-98832500D01*
X150333454Y-98894855D01*
X150314158Y-98911575D01*
X150128597Y-99041505D01*
X149961505Y-99208597D01*
X149825965Y-99402169D01*
X149825964Y-99402171D01*
X149726098Y-99616335D01*
X149726094Y-99616344D01*
X149664938Y-99844586D01*
X149664936Y-99844596D01*
X149644341Y-100079999D01*
X149644341Y-100080000D01*
X149664936Y-100315403D01*
X149664938Y-100315413D01*
X149726094Y-100543655D01*
X149726096Y-100543659D01*
X149726097Y-100543663D01*
X149738755Y-100570808D01*
X149825965Y-100757830D01*
X149825967Y-100757834D01*
X149934281Y-100912521D01*
X149961505Y-100951401D01*
X150128599Y-101118495D01*
X150221040Y-101183223D01*
X150322165Y-101254032D01*
X150322167Y-101254033D01*
X150322170Y-101254035D01*
X150536337Y-101353903D01*
X150764592Y-101415063D01*
X150926084Y-101429192D01*
X150999999Y-101435659D01*
X151000000Y-101435659D01*
X151000001Y-101435659D01*
X151073916Y-101429192D01*
X151235408Y-101415063D01*
X151463663Y-101353903D01*
X151677830Y-101254035D01*
X151871401Y-101118495D01*
X152038495Y-100951401D01*
X152174035Y-100757830D01*
X152273903Y-100543663D01*
X152335063Y-100315408D01*
X152355659Y-100080000D01*
X152335063Y-99844592D01*
X152273903Y-99616337D01*
X152174035Y-99402171D01*
X152173528Y-99401446D01*
X152038494Y-99208597D01*
X151871402Y-99041506D01*
X151871396Y-99041501D01*
X151685842Y-98911575D01*
X151642217Y-98856998D01*
X151635023Y-98787500D01*
X151666546Y-98725145D01*
X151685842Y-98708425D01*
X151727591Y-98679192D01*
X151871401Y-98578495D01*
X152038495Y-98411401D01*
X152174035Y-98217830D01*
X152273903Y-98003663D01*
X152335063Y-97775408D01*
X152355659Y-97540000D01*
X152335063Y-97304592D01*
X152273903Y-97076337D01*
X152174035Y-96862171D01*
X152160059Y-96842210D01*
X152038494Y-96668597D01*
X151871402Y-96501506D01*
X151871396Y-96501501D01*
X151685842Y-96371575D01*
X151642217Y-96316998D01*
X151635023Y-96247500D01*
X151666546Y-96185145D01*
X151685842Y-96168425D01*
X151708026Y-96152891D01*
X151871401Y-96038495D01*
X152038495Y-95871401D01*
X152174035Y-95677830D01*
X152273903Y-95463663D01*
X152335063Y-95235408D01*
X152355659Y-95000000D01*
X152335063Y-94764592D01*
X152273903Y-94536337D01*
X152174035Y-94322171D01*
X152150258Y-94288214D01*
X152038496Y-94128600D01*
X152005240Y-94095344D01*
X151916567Y-94006671D01*
X151883084Y-93945351D01*
X151888068Y-93875659D01*
X151929939Y-93819725D01*
X151960915Y-93802810D01*
X152092331Y-93753796D01*
X152207546Y-93667546D01*
X152293796Y-93552331D01*
X152344091Y-93417483D01*
X152350500Y-93357873D01*
X152350499Y-91562128D01*
X152344091Y-91502517D01*
X152343152Y-91500000D01*
X152293797Y-91367671D01*
X152293793Y-91367664D01*
X152207547Y-91252455D01*
X152207544Y-91252452D01*
X152092335Y-91166206D01*
X152092328Y-91166202D01*
X151957482Y-91115908D01*
X151957483Y-91115908D01*
X151897883Y-91109501D01*
X151897881Y-91109500D01*
X151897873Y-91109500D01*
X151897864Y-91109500D01*
X150102129Y-91109500D01*
X150102123Y-91109501D01*
X150042516Y-91115908D01*
X149907671Y-91166202D01*
X149907664Y-91166206D01*
X149792455Y-91252452D01*
X149792452Y-91252455D01*
X149706206Y-91367664D01*
X149706202Y-91367671D01*
X149655908Y-91502517D01*
X149649501Y-91562116D01*
X149649501Y-91562123D01*
X149649500Y-91562135D01*
X149649500Y-93357870D01*
X149649501Y-93357876D01*
X149655908Y-93417483D01*
X149706202Y-93552328D01*
X149706206Y-93552335D01*
X149792452Y-93667544D01*
X149792455Y-93667547D01*
X149907664Y-93753793D01*
X149907671Y-93753797D01*
X150039081Y-93802810D01*
X150095015Y-93844681D01*
X150119432Y-93910145D01*
X150104580Y-93978418D01*
X150083430Y-94006673D01*
X149961503Y-94128600D01*
X149825965Y-94322169D01*
X149825964Y-94322171D01*
X149726098Y-94536335D01*
X149726094Y-94536344D01*
X149664938Y-94764586D01*
X149664936Y-94764596D01*
X149644341Y-94999999D01*
X148230091Y-94999999D01*
X148230091Y-94999996D01*
X148211787Y-94837544D01*
X148211786Y-94837542D01*
X148211786Y-94837539D01*
X148157789Y-94683225D01*
X148070808Y-94544796D01*
X147955204Y-94429192D01*
X147855865Y-94366773D01*
X147816774Y-94342210D01*
X147662455Y-94288212D01*
X147500004Y-94269909D01*
X147499996Y-94269909D01*
X147337544Y-94288212D01*
X147183225Y-94342210D01*
X147044795Y-94429192D01*
X146929192Y-94544795D01*
X146842210Y-94683225D01*
X146788212Y-94837544D01*
X146769909Y-94999996D01*
X138026008Y-94999996D01*
X137955204Y-94929192D01*
X137896564Y-94892346D01*
X137816774Y-94842210D01*
X137662455Y-94788212D01*
X137500004Y-94769909D01*
X137499996Y-94769909D01*
X137337544Y-94788212D01*
X137183225Y-94842210D01*
X137044795Y-94929192D01*
X136929192Y-95044795D01*
X136842210Y-95183225D01*
X136788212Y-95337544D01*
X136769909Y-95499996D01*
X136769909Y-95500003D01*
X136788212Y-95662455D01*
X136842210Y-95816774D01*
X136929192Y-95955204D01*
X137037127Y-96063139D01*
X137070612Y-96124462D01*
X137065628Y-96194154D01*
X137023756Y-96250087D01*
X136963330Y-96274040D01*
X136837544Y-96288212D01*
X136683225Y-96342210D01*
X136544795Y-96429192D01*
X136429192Y-96544795D01*
X136342210Y-96683225D01*
X136288212Y-96837544D01*
X136269909Y-96999996D01*
X136269909Y-97000004D01*
X136286771Y-97149668D01*
X136274716Y-97218490D01*
X136227367Y-97269869D01*
X136159756Y-97287493D01*
X136149668Y-97286771D01*
X136000004Y-97269909D01*
X135999996Y-97269909D01*
X135837544Y-97288212D01*
X135683225Y-97342210D01*
X135565972Y-97415886D01*
X135498735Y-97434886D01*
X135434028Y-97415886D01*
X135316774Y-97342210D01*
X135162455Y-97288212D01*
X135000004Y-97269909D01*
X134999996Y-97269909D01*
X134837544Y-97288212D01*
X134683225Y-97342210D01*
X134544795Y-97429192D01*
X134429192Y-97544795D01*
X134342210Y-97683225D01*
X134288212Y-97837544D01*
X134269909Y-97999996D01*
X127730091Y-97999996D01*
X127711787Y-97837544D01*
X127711786Y-97837542D01*
X127711786Y-97837539D01*
X127657789Y-97683225D01*
X127570808Y-97544796D01*
X127455204Y-97429192D01*
X127428567Y-97412455D01*
X127316774Y-97342210D01*
X127162455Y-97288212D01*
X127000004Y-97269909D01*
X126999996Y-97269909D01*
X126837540Y-97288213D01*
X126837539Y-97288213D01*
X126827166Y-97291843D01*
X126757387Y-97295404D01*
X126696760Y-97260674D01*
X126669171Y-97215754D01*
X126657789Y-97183224D01*
X126590631Y-97076344D01*
X126570808Y-97044796D01*
X126455204Y-96929192D01*
X126428567Y-96912455D01*
X126316774Y-96842210D01*
X126162455Y-96788212D01*
X126000004Y-96769909D01*
X125999996Y-96769909D01*
X125837544Y-96788212D01*
X125683225Y-96842210D01*
X125565972Y-96915886D01*
X125498735Y-96934886D01*
X125434028Y-96915886D01*
X125316774Y-96842210D01*
X125162455Y-96788212D01*
X125000004Y-96769909D01*
X124999996Y-96769909D01*
X124837544Y-96788212D01*
X124683225Y-96842210D01*
X124544795Y-96929192D01*
X124429192Y-97044795D01*
X124342210Y-97183225D01*
X124288212Y-97337544D01*
X124269909Y-97499996D01*
X116431156Y-97499996D01*
X116461786Y-97412461D01*
X116461787Y-97412455D01*
X116480091Y-97250003D01*
X116480091Y-97249996D01*
X116461787Y-97087544D01*
X116461786Y-97087542D01*
X116461786Y-97087539D01*
X116407789Y-96933225D01*
X116320808Y-96794796D01*
X116205204Y-96679192D01*
X116127643Y-96630457D01*
X116066774Y-96592210D01*
X115912455Y-96538212D01*
X115786669Y-96524040D01*
X115722255Y-96496974D01*
X115682700Y-96439379D01*
X115680563Y-96369542D01*
X115712869Y-96313142D01*
X115820808Y-96205204D01*
X115907789Y-96066775D01*
X115961786Y-95912461D01*
X115961787Y-95912455D01*
X115980091Y-95750003D01*
X115980091Y-95750000D01*
X115980091Y-95749996D01*
X115975320Y-95707660D01*
X115987373Y-95638842D01*
X116034721Y-95587462D01*
X116084652Y-95570558D01*
X116162461Y-95561792D01*
X116316775Y-95507795D01*
X116455204Y-95420814D01*
X116570808Y-95305210D01*
X116657789Y-95166781D01*
X116711786Y-95012467D01*
X116711787Y-95012461D01*
X116730091Y-94850009D01*
X116730091Y-94850002D01*
X116711787Y-94687550D01*
X116711786Y-94687548D01*
X116711786Y-94687545D01*
X116657789Y-94533231D01*
X116646946Y-94515975D01*
X116627946Y-94448741D01*
X116646947Y-94384032D01*
X116657789Y-94366778D01*
X116711786Y-94212464D01*
X116711786Y-94212462D01*
X116711787Y-94212460D01*
X116730091Y-94050006D01*
X116730091Y-94049999D01*
X116724457Y-93999996D01*
X120519909Y-93999996D01*
X120519909Y-94000003D01*
X120538212Y-94162455D01*
X120592210Y-94316774D01*
X120675131Y-94448741D01*
X120679192Y-94455204D01*
X120794796Y-94570808D01*
X120933225Y-94657789D01*
X121087539Y-94711786D01*
X121087542Y-94711786D01*
X121087544Y-94711787D01*
X121249996Y-94730091D01*
X121250000Y-94730091D01*
X121250004Y-94730091D01*
X121412455Y-94711787D01*
X121412456Y-94711786D01*
X121412461Y-94711786D01*
X121566775Y-94657789D01*
X121705204Y-94570808D01*
X121820808Y-94455204D01*
X121907789Y-94316775D01*
X121961786Y-94162461D01*
X121961787Y-94162455D01*
X121980091Y-94000003D01*
X121980091Y-93999996D01*
X121961787Y-93837544D01*
X121961786Y-93837542D01*
X121961786Y-93837539D01*
X121907789Y-93683225D01*
X121820808Y-93544796D01*
X121705204Y-93429192D01*
X121678577Y-93412461D01*
X121566774Y-93342210D01*
X121412455Y-93288212D01*
X121250004Y-93269909D01*
X121249996Y-93269909D01*
X121087544Y-93288212D01*
X120933225Y-93342210D01*
X120794795Y-93429192D01*
X120679192Y-93544795D01*
X120592210Y-93683225D01*
X120538212Y-93837544D01*
X120519909Y-93999996D01*
X116724457Y-93999996D01*
X116711787Y-93887547D01*
X116711786Y-93887545D01*
X116711786Y-93887542D01*
X116657789Y-93733228D01*
X116646946Y-93715972D01*
X116627946Y-93648738D01*
X116646947Y-93584029D01*
X116657789Y-93566775D01*
X116711786Y-93412461D01*
X116711786Y-93412459D01*
X116711787Y-93412457D01*
X116730091Y-93250003D01*
X116730091Y-93249996D01*
X116711787Y-93087544D01*
X116711786Y-93087542D01*
X116711786Y-93087539D01*
X116681153Y-92999996D01*
X136769909Y-92999996D01*
X136769909Y-93000003D01*
X136788212Y-93162455D01*
X136842210Y-93316774D01*
X136929192Y-93455204D01*
X137044796Y-93570808D01*
X137183225Y-93657789D01*
X137337539Y-93711786D01*
X137337542Y-93711786D01*
X137337544Y-93711787D01*
X137499996Y-93730091D01*
X137500000Y-93730091D01*
X137500004Y-93730091D01*
X137662455Y-93711787D01*
X137662456Y-93711786D01*
X137662461Y-93711786D01*
X137816775Y-93657789D01*
X137955204Y-93570808D01*
X138070808Y-93455204D01*
X138157789Y-93316775D01*
X138211786Y-93162461D01*
X138220228Y-93087539D01*
X138230091Y-93000003D01*
X138230091Y-92999996D01*
X138211787Y-92837544D01*
X138211786Y-92837542D01*
X138211786Y-92837539D01*
X138157789Y-92683225D01*
X138070808Y-92544796D01*
X137955204Y-92429192D01*
X137908744Y-92399999D01*
X137816774Y-92342210D01*
X137662455Y-92288212D01*
X137500004Y-92269909D01*
X137499996Y-92269909D01*
X137337544Y-92288212D01*
X137183225Y-92342210D01*
X137044795Y-92429192D01*
X136929192Y-92544795D01*
X136842210Y-92683225D01*
X136788212Y-92837544D01*
X136769909Y-92999996D01*
X116681153Y-92999996D01*
X116657789Y-92933225D01*
X116631240Y-92890972D01*
X116612240Y-92823735D01*
X116631240Y-92759029D01*
X116657789Y-92716778D01*
X116711786Y-92562464D01*
X116711786Y-92562462D01*
X116711787Y-92562460D01*
X116730091Y-92400006D01*
X116730091Y-92399999D01*
X116711787Y-92237547D01*
X116711786Y-92237545D01*
X116711786Y-92237542D01*
X116657789Y-92083228D01*
X116646946Y-92065972D01*
X116628302Y-91999996D01*
X122269909Y-91999996D01*
X122269909Y-92000003D01*
X122288212Y-92162455D01*
X122342210Y-92316774D01*
X122417291Y-92436264D01*
X122429192Y-92455204D01*
X122544796Y-92570808D01*
X122683225Y-92657789D01*
X122837539Y-92711786D01*
X122837542Y-92711786D01*
X122837544Y-92711787D01*
X122999996Y-92730091D01*
X123000000Y-92730091D01*
X123000004Y-92730091D01*
X123162455Y-92711787D01*
X123162456Y-92711786D01*
X123162461Y-92711786D01*
X123316775Y-92657789D01*
X123455204Y-92570808D01*
X123570808Y-92455204D01*
X123645006Y-92337119D01*
X123697341Y-92290828D01*
X123766395Y-92280180D01*
X123830243Y-92308555D01*
X123854994Y-92337119D01*
X123929192Y-92455204D01*
X124044796Y-92570808D01*
X124183225Y-92657789D01*
X124337539Y-92711786D01*
X124337542Y-92711786D01*
X124337544Y-92711787D01*
X124499996Y-92730091D01*
X124500000Y-92730091D01*
X124500004Y-92730091D01*
X124662455Y-92711787D01*
X124662456Y-92711786D01*
X124662461Y-92711786D01*
X124816775Y-92657789D01*
X124955204Y-92570808D01*
X125070808Y-92455204D01*
X125157789Y-92316775D01*
X125211786Y-92162461D01*
X125211787Y-92162455D01*
X125230091Y-92000003D01*
X125230091Y-91999996D01*
X125211787Y-91837544D01*
X125211786Y-91837542D01*
X125211786Y-91837539D01*
X125157789Y-91683225D01*
X125155920Y-91680251D01*
X125121105Y-91624843D01*
X125084113Y-91565971D01*
X125065113Y-91498736D01*
X125084114Y-91434027D01*
X125114107Y-91386295D01*
X125157789Y-91316775D01*
X125169172Y-91284242D01*
X125209891Y-91227469D01*
X125274843Y-91201720D01*
X125327168Y-91208157D01*
X125337542Y-91211787D01*
X125499996Y-91230091D01*
X125500000Y-91230091D01*
X125500004Y-91230091D01*
X125662455Y-91211787D01*
X125662456Y-91211786D01*
X125662461Y-91211786D01*
X125816775Y-91157789D01*
X125934028Y-91084113D01*
X126001264Y-91065113D01*
X126065971Y-91084113D01*
X126183225Y-91157789D01*
X126337539Y-91211786D01*
X126337542Y-91211786D01*
X126337544Y-91211787D01*
X126499996Y-91230091D01*
X126500000Y-91230091D01*
X126500004Y-91230091D01*
X126662454Y-91211787D01*
X126662454Y-91211786D01*
X126662461Y-91211786D01*
X126672829Y-91208157D01*
X126742605Y-91204594D01*
X126803233Y-91239320D01*
X126830826Y-91284242D01*
X126842209Y-91316773D01*
X126915886Y-91434028D01*
X126934886Y-91501265D01*
X126915886Y-91565972D01*
X126842210Y-91683225D01*
X126788212Y-91837544D01*
X126769909Y-91999996D01*
X126769909Y-92000003D01*
X126788212Y-92162455D01*
X126842210Y-92316774D01*
X126917291Y-92436264D01*
X126929192Y-92455204D01*
X127044796Y-92570808D01*
X127183225Y-92657789D01*
X127337539Y-92711786D01*
X127337542Y-92711786D01*
X127337544Y-92711787D01*
X127499996Y-92730091D01*
X127500000Y-92730091D01*
X127500004Y-92730091D01*
X127662455Y-92711787D01*
X127662456Y-92711786D01*
X127662461Y-92711786D01*
X127816775Y-92657789D01*
X127955204Y-92570808D01*
X128070808Y-92455204D01*
X128157789Y-92316775D01*
X128211786Y-92162461D01*
X128211787Y-92162455D01*
X128230091Y-92000003D01*
X128230091Y-91999996D01*
X128211787Y-91837544D01*
X128211786Y-91837542D01*
X128211786Y-91837539D01*
X128157789Y-91683225D01*
X128155920Y-91680251D01*
X128121105Y-91624843D01*
X128084113Y-91565971D01*
X128065113Y-91498736D01*
X128084114Y-91434027D01*
X128114107Y-91386295D01*
X128157789Y-91316775D01*
X128211786Y-91162461D01*
X128211787Y-91162455D01*
X128230091Y-91000003D01*
X128230091Y-90999996D01*
X128211787Y-90837544D01*
X128211786Y-90837542D01*
X128211786Y-90837539D01*
X128157789Y-90683225D01*
X128070808Y-90544796D01*
X127955204Y-90429192D01*
X127825670Y-90347800D01*
X127816774Y-90342210D01*
X127662455Y-90288212D01*
X127500004Y-90269909D01*
X127499996Y-90269909D01*
X127337540Y-90288213D01*
X127337539Y-90288213D01*
X127327166Y-90291843D01*
X127257387Y-90295404D01*
X127196760Y-90260674D01*
X127190202Y-90249996D01*
X129269909Y-90249996D01*
X129269909Y-90250003D01*
X129288212Y-90412455D01*
X129342210Y-90566774D01*
X129429192Y-90705204D01*
X129544797Y-90820809D01*
X129642988Y-90882507D01*
X129689278Y-90934841D01*
X129699926Y-91003895D01*
X129671551Y-91067743D01*
X129642988Y-91092493D01*
X129544797Y-91154190D01*
X129429192Y-91269795D01*
X129342210Y-91408225D01*
X129288212Y-91562544D01*
X129269909Y-91724996D01*
X129269909Y-91725003D01*
X129288212Y-91887455D01*
X129342210Y-92041774D01*
X129418043Y-92162461D01*
X129429192Y-92180204D01*
X129544796Y-92295808D01*
X129683225Y-92382789D01*
X129837539Y-92436786D01*
X129837542Y-92436786D01*
X129837544Y-92436787D01*
X129999996Y-92455091D01*
X130000000Y-92455091D01*
X130000004Y-92455091D01*
X130162455Y-92436787D01*
X130162456Y-92436786D01*
X130162461Y-92436786D01*
X130316775Y-92382789D01*
X130455204Y-92295808D01*
X130570808Y-92180204D01*
X130657789Y-92041775D01*
X130711786Y-91887461D01*
X130711787Y-91887455D01*
X130730091Y-91725003D01*
X130730091Y-91724996D01*
X130711787Y-91562544D01*
X130711786Y-91562542D01*
X130711786Y-91562539D01*
X130657789Y-91408225D01*
X130570808Y-91269796D01*
X130455204Y-91154192D01*
X130357011Y-91092493D01*
X130310721Y-91040159D01*
X130300073Y-90971106D01*
X130328448Y-90907257D01*
X130357010Y-90882507D01*
X130455204Y-90820808D01*
X130570808Y-90705204D01*
X130657789Y-90566775D01*
X130711786Y-90412461D01*
X130719072Y-90347799D01*
X130730091Y-90250003D01*
X130730091Y-90249996D01*
X130711787Y-90087544D01*
X130711786Y-90087542D01*
X130711786Y-90087539D01*
X130681153Y-89999996D01*
X134269909Y-89999996D01*
X134269909Y-90000003D01*
X134288212Y-90162455D01*
X134342210Y-90316774D01*
X134429192Y-90455204D01*
X134544796Y-90570808D01*
X134683225Y-90657789D01*
X134837539Y-90711786D01*
X134837542Y-90711786D01*
X134837544Y-90711787D01*
X134999996Y-90730091D01*
X135000000Y-90730091D01*
X135000004Y-90730091D01*
X135162455Y-90711787D01*
X135162456Y-90711786D01*
X135162461Y-90711786D01*
X135316775Y-90657789D01*
X135434028Y-90584113D01*
X135501264Y-90565113D01*
X135565971Y-90584113D01*
X135683225Y-90657789D01*
X135837539Y-90711786D01*
X135837542Y-90711786D01*
X135837544Y-90711787D01*
X135999996Y-90730091D01*
X136000000Y-90730091D01*
X136000004Y-90730091D01*
X136162455Y-90711787D01*
X136162456Y-90711786D01*
X136162461Y-90711786D01*
X136316775Y-90657789D01*
X136434028Y-90584113D01*
X136501264Y-90565113D01*
X136565971Y-90584113D01*
X136683225Y-90657789D01*
X136837539Y-90711786D01*
X136837542Y-90711786D01*
X136837544Y-90711787D01*
X136999996Y-90730091D01*
X137000000Y-90730091D01*
X137000004Y-90730091D01*
X137162455Y-90711787D01*
X137162456Y-90711786D01*
X137162461Y-90711786D01*
X137316775Y-90657789D01*
X137455204Y-90570808D01*
X137570808Y-90455204D01*
X137657789Y-90316775D01*
X137679277Y-90255364D01*
X137719999Y-90198589D01*
X137755365Y-90179277D01*
X137816775Y-90157789D01*
X137955204Y-90070808D01*
X138070808Y-89955204D01*
X138157789Y-89816775D01*
X138211786Y-89662461D01*
X138211787Y-89662455D01*
X138230091Y-89500003D01*
X138230091Y-89499996D01*
X138211787Y-89337544D01*
X138211786Y-89337542D01*
X138211786Y-89337539D01*
X138157789Y-89183225D01*
X138070808Y-89044796D01*
X137955204Y-88929192D01*
X137893555Y-88890455D01*
X137816777Y-88842212D01*
X137816773Y-88842210D01*
X137755364Y-88820722D01*
X137698588Y-88780000D01*
X137679277Y-88744635D01*
X137677417Y-88739320D01*
X137657789Y-88683225D01*
X137570808Y-88544796D01*
X137527916Y-88501904D01*
X137494431Y-88440581D01*
X137499415Y-88370889D01*
X137541287Y-88314956D01*
X137595295Y-88293548D01*
X137595065Y-88292538D01*
X137601621Y-88291041D01*
X137601720Y-88291002D01*
X137601747Y-88290998D01*
X137601861Y-88290986D01*
X137756175Y-88236989D01*
X137894604Y-88150008D01*
X138010208Y-88034404D01*
X138097189Y-87895975D01*
X138151186Y-87741661D01*
X138157770Y-87683225D01*
X138169491Y-87579203D01*
X138169491Y-87579196D01*
X138151187Y-87416744D01*
X138151186Y-87416742D01*
X138151186Y-87416739D01*
X138097189Y-87262425D01*
X138010208Y-87123996D01*
X137894604Y-87008392D01*
X137881242Y-86999996D01*
X137756174Y-86921410D01*
X137601855Y-86867412D01*
X137439404Y-86849109D01*
X137439396Y-86849109D01*
X137276944Y-86867412D01*
X137122625Y-86921410D01*
X136984195Y-87008392D01*
X136868592Y-87123995D01*
X136781610Y-87262425D01*
X136727612Y-87416744D01*
X136709309Y-87579196D01*
X136709309Y-87579203D01*
X136727612Y-87741655D01*
X136781610Y-87895974D01*
X136868592Y-88034404D01*
X136911483Y-88077295D01*
X136944968Y-88138618D01*
X136939984Y-88208310D01*
X136898112Y-88264243D01*
X136844105Y-88285654D01*
X136844335Y-88286662D01*
X136837803Y-88288153D01*
X136837698Y-88288195D01*
X136837546Y-88288212D01*
X136837540Y-88288213D01*
X136837539Y-88288214D01*
X136789696Y-88304954D01*
X136683225Y-88342210D01*
X136544795Y-88429192D01*
X136429192Y-88544795D01*
X136342210Y-88683225D01*
X136288212Y-88837544D01*
X136269909Y-88999996D01*
X136269909Y-89000004D01*
X136286771Y-89149668D01*
X136274716Y-89218490D01*
X136227367Y-89269869D01*
X136159756Y-89287493D01*
X136149668Y-89286771D01*
X136000004Y-89269909D01*
X135999996Y-89269909D01*
X135837544Y-89288212D01*
X135683225Y-89342210D01*
X135565972Y-89415886D01*
X135498735Y-89434886D01*
X135434028Y-89415886D01*
X135316774Y-89342210D01*
X135162455Y-89288212D01*
X135000004Y-89269909D01*
X134999996Y-89269909D01*
X134837544Y-89288212D01*
X134683225Y-89342210D01*
X134544795Y-89429192D01*
X134429192Y-89544795D01*
X134342210Y-89683225D01*
X134288212Y-89837544D01*
X134269909Y-89999996D01*
X130681153Y-89999996D01*
X130657789Y-89933225D01*
X130570808Y-89794796D01*
X130455204Y-89679192D01*
X130428567Y-89662455D01*
X130316774Y-89592210D01*
X130162455Y-89538212D01*
X130000004Y-89519909D01*
X129999996Y-89519909D01*
X129837544Y-89538212D01*
X129683225Y-89592210D01*
X129544795Y-89679192D01*
X129429192Y-89794795D01*
X129342210Y-89933225D01*
X129288212Y-90087544D01*
X129269909Y-90249996D01*
X127190202Y-90249996D01*
X127169171Y-90215754D01*
X127157789Y-90183224D01*
X127070807Y-90044795D01*
X126955204Y-89929192D01*
X126816774Y-89842210D01*
X126662455Y-89788212D01*
X126500004Y-89769909D01*
X126499996Y-89769909D01*
X126337544Y-89788212D01*
X126183225Y-89842210D01*
X126065972Y-89915886D01*
X125998735Y-89934886D01*
X125934028Y-89915886D01*
X125816774Y-89842210D01*
X125662455Y-89788212D01*
X125500004Y-89769909D01*
X125499996Y-89769909D01*
X125337544Y-89788212D01*
X125183225Y-89842210D01*
X125044795Y-89929192D01*
X124929192Y-90044795D01*
X124842212Y-90183222D01*
X124830827Y-90215758D01*
X124790104Y-90272533D01*
X124725151Y-90298279D01*
X124672831Y-90291842D01*
X124662460Y-90288213D01*
X124500004Y-90269909D01*
X124499996Y-90269909D01*
X124337544Y-90288212D01*
X124183225Y-90342210D01*
X124044795Y-90429192D01*
X123929192Y-90544795D01*
X123842210Y-90683225D01*
X123788212Y-90837544D01*
X123769909Y-90999996D01*
X123769909Y-91000003D01*
X123788212Y-91162455D01*
X123788213Y-91162460D01*
X123788214Y-91162461D01*
X123789873Y-91167202D01*
X123842210Y-91316774D01*
X123915886Y-91434028D01*
X123934886Y-91501265D01*
X123915885Y-91565972D01*
X123854993Y-91662880D01*
X123802659Y-91709171D01*
X123733605Y-91719819D01*
X123669757Y-91691444D01*
X123645007Y-91662881D01*
X123570809Y-91544797D01*
X123455204Y-91429192D01*
X123316774Y-91342210D01*
X123162455Y-91288212D01*
X123000004Y-91269909D01*
X122999996Y-91269909D01*
X122837544Y-91288212D01*
X122683225Y-91342210D01*
X122544795Y-91429192D01*
X122429192Y-91544795D01*
X122342210Y-91683225D01*
X122288212Y-91837544D01*
X122269909Y-91999996D01*
X116628302Y-91999996D01*
X116627946Y-91998738D01*
X116646947Y-91934029D01*
X116657789Y-91916775D01*
X116711786Y-91762461D01*
X116711786Y-91762459D01*
X116711787Y-91762457D01*
X116730091Y-91600003D01*
X116730091Y-91599996D01*
X116711787Y-91437544D01*
X116711786Y-91437542D01*
X116711786Y-91437539D01*
X116657789Y-91283225D01*
X116570808Y-91144796D01*
X116455204Y-91029192D01*
X116450143Y-91026012D01*
X116316774Y-90942210D01*
X116162455Y-90888212D01*
X116000004Y-90869909D01*
X115999996Y-90869909D01*
X115837544Y-90888212D01*
X115683225Y-90942210D01*
X115544795Y-91029192D01*
X115429192Y-91144795D01*
X115342210Y-91283225D01*
X115288212Y-91437544D01*
X115269909Y-91599996D01*
X115269909Y-91600003D01*
X115288212Y-91762455D01*
X115342209Y-91916771D01*
X115342212Y-91916776D01*
X115353053Y-91934031D01*
X115372052Y-92001269D01*
X115353055Y-92065969D01*
X115342210Y-92083229D01*
X115288212Y-92237547D01*
X115269909Y-92399999D01*
X115269909Y-92400006D01*
X115288212Y-92562458D01*
X115342210Y-92716777D01*
X115368759Y-92759029D01*
X115387759Y-92826265D01*
X115368760Y-92890971D01*
X115342211Y-92933224D01*
X115288212Y-93087544D01*
X115269909Y-93249996D01*
X115269909Y-93250003D01*
X115288212Y-93412455D01*
X115342209Y-93566771D01*
X115342210Y-93566773D01*
X115342211Y-93566775D01*
X115344745Y-93570808D01*
X115353053Y-93584031D01*
X115372052Y-93651269D01*
X115353055Y-93715969D01*
X115342210Y-93733229D01*
X115288212Y-93887547D01*
X115269909Y-94049999D01*
X115269909Y-94050006D01*
X115288212Y-94212458D01*
X115342209Y-94366774D01*
X115342212Y-94366779D01*
X115353053Y-94384034D01*
X115372052Y-94451272D01*
X115353055Y-94515972D01*
X115342210Y-94533232D01*
X115288212Y-94687550D01*
X115271313Y-94837544D01*
X115269909Y-94850006D01*
X115271659Y-94865541D01*
X115274679Y-94892346D01*
X115262623Y-94961167D01*
X115215273Y-95012546D01*
X115165342Y-95029447D01*
X115087544Y-95038212D01*
X114933225Y-95092210D01*
X114794795Y-95179192D01*
X114679192Y-95294795D01*
X114592210Y-95433225D01*
X114538212Y-95587544D01*
X114519909Y-95749996D01*
X109301008Y-95749996D01*
X109230204Y-95679192D01*
X109203567Y-95662455D01*
X109091774Y-95592210D01*
X108937455Y-95538212D01*
X108775004Y-95519909D01*
X108774996Y-95519909D01*
X108612544Y-95538212D01*
X108458225Y-95592210D01*
X108319795Y-95679192D01*
X108204192Y-95794795D01*
X108117209Y-95933227D01*
X108099208Y-95984670D01*
X108058485Y-96041445D01*
X108023124Y-96060753D01*
X107933223Y-96092211D01*
X107933222Y-96092212D01*
X107794795Y-96179192D01*
X107679192Y-96294795D01*
X107592210Y-96433225D01*
X107538212Y-96587544D01*
X107519909Y-96749996D01*
X103250500Y-96749996D01*
X103250500Y-87807799D01*
X105095741Y-87807799D01*
X105095741Y-87807800D01*
X105116336Y-88043203D01*
X105116338Y-88043213D01*
X105177494Y-88271455D01*
X105177496Y-88271459D01*
X105177497Y-88271463D01*
X105252928Y-88433225D01*
X105277365Y-88485630D01*
X105277367Y-88485634D01*
X105412901Y-88679195D01*
X105412906Y-88679202D01*
X105579997Y-88846293D01*
X105580003Y-88846298D01*
X105765558Y-88976225D01*
X105809183Y-89030802D01*
X105816377Y-89100300D01*
X105784854Y-89162655D01*
X105765558Y-89179375D01*
X105579997Y-89309305D01*
X105412905Y-89476397D01*
X105277365Y-89669969D01*
X105277364Y-89669971D01*
X105177498Y-89884135D01*
X105177494Y-89884144D01*
X105116338Y-90112386D01*
X105116336Y-90112396D01*
X105095741Y-90347799D01*
X105095741Y-90347800D01*
X105116336Y-90583203D01*
X105116338Y-90583213D01*
X105177494Y-90811455D01*
X105177496Y-90811459D01*
X105177497Y-90811463D01*
X105251940Y-90971106D01*
X105277365Y-91025630D01*
X105277367Y-91025634D01*
X105336091Y-91109500D01*
X105412901Y-91219196D01*
X105412906Y-91219202D01*
X105534830Y-91341126D01*
X105568315Y-91402449D01*
X105563331Y-91472141D01*
X105521459Y-91528074D01*
X105490483Y-91544989D01*
X105359069Y-91594003D01*
X105359064Y-91594006D01*
X105243855Y-91680252D01*
X105243852Y-91680255D01*
X105157606Y-91795464D01*
X105157602Y-91795471D01*
X105107308Y-91930317D01*
X105100901Y-91989916D01*
X105100900Y-91989935D01*
X105100900Y-93785670D01*
X105100901Y-93785676D01*
X105107308Y-93845283D01*
X105157602Y-93980128D01*
X105157606Y-93980135D01*
X105243852Y-94095344D01*
X105243855Y-94095347D01*
X105359064Y-94181593D01*
X105359071Y-94181597D01*
X105493917Y-94231891D01*
X105493916Y-94231891D01*
X105500844Y-94232635D01*
X105553527Y-94238300D01*
X107349272Y-94238299D01*
X107408883Y-94231891D01*
X107543731Y-94181596D01*
X107658946Y-94095346D01*
X107745196Y-93980131D01*
X107795491Y-93845283D01*
X107801900Y-93785673D01*
X107801899Y-93149397D01*
X107821583Y-93082359D01*
X107874387Y-93036604D01*
X107943546Y-93026660D01*
X107966853Y-93032356D01*
X108087539Y-93074586D01*
X108087542Y-93074586D01*
X108087544Y-93074587D01*
X108249996Y-93092891D01*
X108250000Y-93092891D01*
X108250004Y-93092891D01*
X108412455Y-93074587D01*
X108412456Y-93074586D01*
X108412461Y-93074586D01*
X108566775Y-93020589D01*
X108705204Y-92933608D01*
X108820808Y-92818004D01*
X108865574Y-92746757D01*
X108917905Y-92700470D01*
X108932134Y-92695575D01*
X108931985Y-92695149D01*
X108938557Y-92692849D01*
X108938559Y-92692849D01*
X109092873Y-92638852D01*
X109231302Y-92551871D01*
X109346906Y-92436267D01*
X109400817Y-92350467D01*
X109453150Y-92304177D01*
X109522203Y-92293528D01*
X109546759Y-92299397D01*
X109653160Y-92336629D01*
X109653163Y-92336630D01*
X109815617Y-92354934D01*
X109815621Y-92354934D01*
X109815625Y-92354934D01*
X109978076Y-92336630D01*
X109978077Y-92336629D01*
X109978082Y-92336629D01*
X110132396Y-92282632D01*
X110270825Y-92195651D01*
X110386429Y-92080047D01*
X110473410Y-91941618D01*
X110527407Y-91787304D01*
X110530207Y-91762455D01*
X110545712Y-91624846D01*
X110545712Y-91624839D01*
X110527408Y-91462387D01*
X110527407Y-91462385D01*
X110527407Y-91462382D01*
X110473410Y-91308068D01*
X110386429Y-91169639D01*
X110270825Y-91054035D01*
X110176727Y-90994909D01*
X110132395Y-90967053D01*
X110040337Y-90934841D01*
X109993634Y-90918499D01*
X109936860Y-90877778D01*
X109929596Y-90867430D01*
X109910817Y-90837544D01*
X109870808Y-90773869D01*
X109755204Y-90658265D01*
X109635744Y-90583203D01*
X109616774Y-90571283D01*
X109462455Y-90517285D01*
X109300004Y-90498982D01*
X109299996Y-90498982D01*
X109137544Y-90517285D01*
X108983225Y-90571283D01*
X108844795Y-90658265D01*
X108729192Y-90773868D01*
X108642210Y-90912298D01*
X108588212Y-91066617D01*
X108572121Y-91209432D01*
X108545054Y-91273846D01*
X108489859Y-91312588D01*
X108459323Y-91323274D01*
X108430912Y-91341126D01*
X108320893Y-91410255D01*
X108205288Y-91525860D01*
X108205287Y-91525862D01*
X108160522Y-91597104D01*
X108108187Y-91643395D01*
X108093963Y-91648292D01*
X108094111Y-91648715D01*
X108087541Y-91651013D01*
X108087539Y-91651014D01*
X108032549Y-91670255D01*
X107933222Y-91705011D01*
X107856048Y-91753503D01*
X107788812Y-91772503D01*
X107721976Y-91752135D01*
X107690813Y-91722822D01*
X107658946Y-91680254D01*
X107658944Y-91680252D01*
X107658943Y-91680251D01*
X107543735Y-91594006D01*
X107543728Y-91594002D01*
X107412317Y-91544989D01*
X107356383Y-91503118D01*
X107331966Y-91437653D01*
X107346818Y-91369380D01*
X107367963Y-91341132D01*
X107489895Y-91219201D01*
X107625435Y-91025630D01*
X107725303Y-90811463D01*
X107786463Y-90583208D01*
X107807059Y-90347800D01*
X107786463Y-90112392D01*
X107725303Y-89884137D01*
X107625435Y-89669971D01*
X107620177Y-89662461D01*
X107489894Y-89476397D01*
X107322802Y-89309306D01*
X107322796Y-89309301D01*
X107137242Y-89179375D01*
X107093617Y-89124798D01*
X107086423Y-89055300D01*
X107117946Y-88992945D01*
X107137242Y-88976225D01*
X107259734Y-88890455D01*
X107322801Y-88846295D01*
X107489895Y-88679201D01*
X107625435Y-88485630D01*
X107725303Y-88271463D01*
X107786463Y-88043208D01*
X107807059Y-87807800D01*
X107805974Y-87795404D01*
X107800568Y-87733605D01*
X107786463Y-87572392D01*
X107783335Y-87560718D01*
X107784996Y-87490869D01*
X107824158Y-87433006D01*
X107888386Y-87405500D01*
X107944061Y-87411580D01*
X108011960Y-87435339D01*
X108068734Y-87476060D01*
X108088045Y-87511425D01*
X108117210Y-87594773D01*
X108117211Y-87594775D01*
X108204192Y-87733204D01*
X108319796Y-87848808D01*
X108458225Y-87935789D01*
X108612539Y-87989786D01*
X108612542Y-87989786D01*
X108612544Y-87989787D01*
X108774996Y-88008091D01*
X108775000Y-88008091D01*
X108775003Y-88008091D01*
X108880519Y-87996202D01*
X108949341Y-88008256D01*
X109000721Y-88055605D01*
X109018345Y-88123216D01*
X108996619Y-88189621D01*
X108982085Y-88207103D01*
X108916391Y-88272797D01*
X108829410Y-88411225D01*
X108775412Y-88565544D01*
X108757109Y-88727996D01*
X108757109Y-88728003D01*
X108775412Y-88890455D01*
X108829410Y-89044774D01*
X108850162Y-89077800D01*
X108916392Y-89183204D01*
X109031996Y-89298808D01*
X109170425Y-89385789D01*
X109324739Y-89439786D01*
X109324742Y-89439786D01*
X109324744Y-89439787D01*
X109487196Y-89458091D01*
X109487200Y-89458091D01*
X109487204Y-89458091D01*
X109649655Y-89439787D01*
X109649656Y-89439786D01*
X109649661Y-89439786D01*
X109803975Y-89385789D01*
X109942404Y-89298808D01*
X110058008Y-89183204D01*
X110144989Y-89044775D01*
X110198986Y-88890461D01*
X110203962Y-88846298D01*
X110214813Y-88749996D01*
X116269909Y-88749996D01*
X116269909Y-88750003D01*
X116288212Y-88912455D01*
X116342210Y-89066774D01*
X116415368Y-89183204D01*
X116429192Y-89205204D01*
X116544796Y-89320808D01*
X116571431Y-89337544D01*
X116637059Y-89378781D01*
X116683350Y-89431116D01*
X116693998Y-89500170D01*
X116676081Y-89549747D01*
X116592210Y-89683225D01*
X116538212Y-89837544D01*
X116519909Y-89999996D01*
X116519909Y-90000003D01*
X116538212Y-90162455D01*
X116592210Y-90316774D01*
X116679192Y-90455204D01*
X116794796Y-90570808D01*
X116933225Y-90657789D01*
X117087539Y-90711786D01*
X117087542Y-90711786D01*
X117087544Y-90711787D01*
X117249996Y-90730091D01*
X117250000Y-90730091D01*
X117250004Y-90730091D01*
X117412455Y-90711787D01*
X117412456Y-90711786D01*
X117412461Y-90711786D01*
X117566775Y-90657789D01*
X117705204Y-90570808D01*
X117820808Y-90455204D01*
X117907789Y-90316775D01*
X117961786Y-90162461D01*
X117961787Y-90162455D01*
X117980091Y-90000003D01*
X117980091Y-89999996D01*
X117961787Y-89837544D01*
X117961786Y-89837542D01*
X117961786Y-89837539D01*
X117907789Y-89683225D01*
X117820808Y-89544796D01*
X117705204Y-89429192D01*
X117684028Y-89415886D01*
X117612941Y-89371219D01*
X117566650Y-89318884D01*
X117556002Y-89249830D01*
X117573919Y-89200253D01*
X117600601Y-89157789D01*
X117657789Y-89066775D01*
X117711786Y-88912461D01*
X117714265Y-88890461D01*
X117730091Y-88750003D01*
X117730091Y-88749996D01*
X117713228Y-88600331D01*
X117725283Y-88531510D01*
X117772632Y-88480130D01*
X117840242Y-88462506D01*
X117850331Y-88463228D01*
X117999996Y-88480091D01*
X118000000Y-88480091D01*
X118000004Y-88480091D01*
X118162455Y-88461787D01*
X118162456Y-88461786D01*
X118162461Y-88461786D01*
X118316775Y-88407789D01*
X118455204Y-88320808D01*
X118570808Y-88205204D01*
X118657789Y-88066775D01*
X118711786Y-87912461D01*
X118711787Y-87912455D01*
X118730091Y-87750003D01*
X118730091Y-87749996D01*
X118711787Y-87587544D01*
X118711786Y-87587542D01*
X118711786Y-87587539D01*
X118657789Y-87433225D01*
X118570808Y-87294796D01*
X118455204Y-87179192D01*
X118428567Y-87162455D01*
X118316774Y-87092210D01*
X118162455Y-87038212D01*
X118000004Y-87019909D01*
X117999996Y-87019909D01*
X117837544Y-87038212D01*
X117683225Y-87092210D01*
X117544795Y-87179192D01*
X117429192Y-87294795D01*
X117342210Y-87433225D01*
X117288212Y-87587544D01*
X117269909Y-87749996D01*
X117269909Y-87750004D01*
X117286771Y-87899668D01*
X117274716Y-87968490D01*
X117227367Y-88019869D01*
X117159756Y-88037493D01*
X117149668Y-88036771D01*
X117000004Y-88019909D01*
X116999996Y-88019909D01*
X116837544Y-88038212D01*
X116683225Y-88092210D01*
X116544795Y-88179192D01*
X116429192Y-88294795D01*
X116342210Y-88433225D01*
X116288212Y-88587544D01*
X116269909Y-88749996D01*
X110214813Y-88749996D01*
X110217291Y-88728003D01*
X110217291Y-88727996D01*
X110207118Y-88637706D01*
X110219173Y-88568884D01*
X110266522Y-88517505D01*
X110316455Y-88500603D01*
X110361924Y-88495480D01*
X110412454Y-88489787D01*
X110412454Y-88489786D01*
X110412461Y-88489786D01*
X110566775Y-88435789D01*
X110705204Y-88348808D01*
X110820808Y-88233204D01*
X110907789Y-88094775D01*
X110961786Y-87940461D01*
X110961787Y-87940455D01*
X110980091Y-87778003D01*
X110980091Y-87777996D01*
X110961787Y-87615544D01*
X110961786Y-87615542D01*
X110961786Y-87615539D01*
X110907789Y-87461225D01*
X110820808Y-87322796D01*
X110705204Y-87207192D01*
X110702040Y-87205204D01*
X110566774Y-87120210D01*
X110412455Y-87066212D01*
X110250004Y-87047909D01*
X110249996Y-87047909D01*
X110087544Y-87066212D01*
X109933225Y-87120210D01*
X109794797Y-87207191D01*
X109709329Y-87292659D01*
X109648005Y-87326143D01*
X109578314Y-87321159D01*
X109522380Y-87279287D01*
X109498428Y-87218860D01*
X109486787Y-87115544D01*
X109486786Y-87115542D01*
X109486786Y-87115539D01*
X109446356Y-86999996D01*
X120269909Y-86999996D01*
X120269909Y-87000003D01*
X120288212Y-87162455D01*
X120342210Y-87316774D01*
X120429192Y-87455204D01*
X120544797Y-87570809D01*
X120662881Y-87645007D01*
X120709171Y-87697342D01*
X120719819Y-87766395D01*
X120691444Y-87830243D01*
X120662881Y-87854993D01*
X120544797Y-87929190D01*
X120429192Y-88044795D01*
X120342210Y-88183225D01*
X120288212Y-88337544D01*
X120269909Y-88499996D01*
X120269909Y-88500003D01*
X120288212Y-88662455D01*
X120342210Y-88816774D01*
X120429192Y-88955204D01*
X120544796Y-89070808D01*
X120683225Y-89157789D01*
X120837539Y-89211786D01*
X120837542Y-89211786D01*
X120837544Y-89211787D01*
X120999996Y-89230091D01*
X121000000Y-89230091D01*
X121000004Y-89230091D01*
X121162455Y-89211787D01*
X121162456Y-89211786D01*
X121162461Y-89211786D01*
X121316775Y-89157789D01*
X121434028Y-89084113D01*
X121501264Y-89065113D01*
X121565971Y-89084113D01*
X121630720Y-89124798D01*
X121670300Y-89149668D01*
X121683225Y-89157789D01*
X121837539Y-89211786D01*
X121837542Y-89211786D01*
X121837544Y-89211787D01*
X121999996Y-89230091D01*
X122000000Y-89230091D01*
X122000004Y-89230091D01*
X122162455Y-89211787D01*
X122162456Y-89211786D01*
X122162461Y-89211786D01*
X122316775Y-89157789D01*
X122455204Y-89070808D01*
X122570808Y-88955204D01*
X122657789Y-88816775D01*
X122711786Y-88662461D01*
X122711787Y-88662455D01*
X122730091Y-88500003D01*
X122730091Y-88499996D01*
X122711787Y-88337544D01*
X122711786Y-88337542D01*
X122711786Y-88337539D01*
X122657789Y-88183225D01*
X122570808Y-88044796D01*
X122455204Y-87929192D01*
X122337119Y-87854994D01*
X122290828Y-87802659D01*
X122280180Y-87733605D01*
X122308555Y-87669757D01*
X122337119Y-87645006D01*
X122384015Y-87615539D01*
X122455204Y-87570808D01*
X122570808Y-87455204D01*
X122657789Y-87316775D01*
X122711786Y-87162461D01*
X122716120Y-87123995D01*
X122730091Y-87000003D01*
X122730091Y-86999996D01*
X123769909Y-86999996D01*
X123769909Y-87000003D01*
X123788212Y-87162455D01*
X123842210Y-87316774D01*
X123915886Y-87434028D01*
X123934886Y-87501265D01*
X123915886Y-87565972D01*
X123842210Y-87683225D01*
X123788212Y-87837544D01*
X123769909Y-87999996D01*
X123769909Y-88000003D01*
X123788212Y-88162455D01*
X123842210Y-88316774D01*
X123915382Y-88433225D01*
X123929192Y-88455204D01*
X124044796Y-88570808D01*
X124183225Y-88657789D01*
X124337539Y-88711786D01*
X124337542Y-88711786D01*
X124337544Y-88711787D01*
X124499996Y-88730091D01*
X124500000Y-88730091D01*
X124500004Y-88730091D01*
X124662454Y-88711787D01*
X124662454Y-88711786D01*
X124662461Y-88711786D01*
X124672829Y-88708157D01*
X124742605Y-88704594D01*
X124803233Y-88739320D01*
X124830826Y-88784242D01*
X124842209Y-88816773D01*
X124929192Y-88955204D01*
X125044796Y-89070808D01*
X125183225Y-89157789D01*
X125337539Y-89211786D01*
X125337542Y-89211786D01*
X125337544Y-89211787D01*
X125499996Y-89230091D01*
X125500000Y-89230091D01*
X125500004Y-89230091D01*
X125662455Y-89211787D01*
X125662456Y-89211786D01*
X125662461Y-89211786D01*
X125816775Y-89157789D01*
X125934028Y-89084113D01*
X126001264Y-89065113D01*
X126065971Y-89084113D01*
X126130720Y-89124798D01*
X126170300Y-89149668D01*
X126183225Y-89157789D01*
X126337539Y-89211786D01*
X126337542Y-89211786D01*
X126337544Y-89211787D01*
X126499996Y-89230091D01*
X126500000Y-89230091D01*
X126500004Y-89230091D01*
X126662455Y-89211787D01*
X126662456Y-89211786D01*
X126662461Y-89211786D01*
X126816775Y-89157789D01*
X126955204Y-89070808D01*
X127070808Y-88955204D01*
X127157789Y-88816775D01*
X127169172Y-88784242D01*
X127209891Y-88727469D01*
X127274843Y-88701720D01*
X127327168Y-88708157D01*
X127337542Y-88711787D01*
X127499996Y-88730091D01*
X127500000Y-88730091D01*
X127500004Y-88730091D01*
X127662455Y-88711787D01*
X127662456Y-88711786D01*
X127662461Y-88711786D01*
X127816775Y-88657789D01*
X127955204Y-88570808D01*
X128070808Y-88455204D01*
X128157789Y-88316775D01*
X128211786Y-88162461D01*
X128213189Y-88150008D01*
X128230091Y-88000003D01*
X128230091Y-87999996D01*
X128211787Y-87837544D01*
X128211786Y-87837542D01*
X128211786Y-87837539D01*
X128157789Y-87683225D01*
X128149326Y-87669757D01*
X128102212Y-87594775D01*
X128084113Y-87565971D01*
X128065113Y-87498736D01*
X128084114Y-87434027D01*
X128100601Y-87407789D01*
X128157789Y-87316775D01*
X128211786Y-87162461D01*
X128216120Y-87123995D01*
X128230091Y-87000003D01*
X128230091Y-86999996D01*
X128211787Y-86837544D01*
X128211786Y-86837542D01*
X128211786Y-86837539D01*
X128157789Y-86683225D01*
X128070808Y-86544796D01*
X127955204Y-86429192D01*
X127934028Y-86415886D01*
X127816774Y-86342210D01*
X127662455Y-86288212D01*
X127500004Y-86269909D01*
X127499996Y-86269909D01*
X127337544Y-86288212D01*
X127183225Y-86342210D01*
X127044795Y-86429192D01*
X126929192Y-86544795D01*
X126842210Y-86683225D01*
X126788212Y-86837544D01*
X126769909Y-86999996D01*
X126769909Y-87000003D01*
X126788212Y-87162455D01*
X126842210Y-87316774D01*
X126915886Y-87434028D01*
X126934886Y-87501265D01*
X126915886Y-87565972D01*
X126842212Y-87683222D01*
X126830827Y-87715758D01*
X126790104Y-87772533D01*
X126725151Y-87798279D01*
X126672831Y-87791842D01*
X126662460Y-87788213D01*
X126500004Y-87769909D01*
X126499996Y-87769909D01*
X126337544Y-87788212D01*
X126183225Y-87842210D01*
X126065972Y-87915886D01*
X125998735Y-87934886D01*
X125934028Y-87915886D01*
X125816774Y-87842210D01*
X125662455Y-87788212D01*
X125500004Y-87769909D01*
X125499996Y-87769909D01*
X125337540Y-87788213D01*
X125337539Y-87788213D01*
X125327166Y-87791843D01*
X125257387Y-87795404D01*
X125196760Y-87760674D01*
X125169171Y-87715754D01*
X125157789Y-87683224D01*
X125157787Y-87683222D01*
X125102212Y-87594775D01*
X125084113Y-87565971D01*
X125065113Y-87498736D01*
X125084114Y-87434027D01*
X125100601Y-87407789D01*
X125157789Y-87316775D01*
X125211786Y-87162461D01*
X125216120Y-87123995D01*
X125230091Y-87000003D01*
X125230091Y-86999996D01*
X125211787Y-86837544D01*
X125211786Y-86837542D01*
X125211786Y-86837539D01*
X125157789Y-86683225D01*
X125070808Y-86544796D01*
X124955204Y-86429192D01*
X124934028Y-86415886D01*
X124816774Y-86342210D01*
X124662455Y-86288212D01*
X124500004Y-86269909D01*
X124499996Y-86269909D01*
X124337544Y-86288212D01*
X124183225Y-86342210D01*
X124044795Y-86429192D01*
X123929192Y-86544795D01*
X123842210Y-86683225D01*
X123788212Y-86837544D01*
X123769909Y-86999996D01*
X122730091Y-86999996D01*
X122711787Y-86837544D01*
X122711786Y-86837542D01*
X122711786Y-86837539D01*
X122657789Y-86683225D01*
X122570808Y-86544796D01*
X122455204Y-86429192D01*
X122434028Y-86415886D01*
X122316774Y-86342210D01*
X122162455Y-86288212D01*
X122000004Y-86269909D01*
X121999996Y-86269909D01*
X121837544Y-86288212D01*
X121683225Y-86342210D01*
X121565972Y-86415886D01*
X121498735Y-86434886D01*
X121434028Y-86415886D01*
X121316774Y-86342210D01*
X121162455Y-86288212D01*
X121000004Y-86269909D01*
X120999996Y-86269909D01*
X120837544Y-86288212D01*
X120683225Y-86342210D01*
X120544795Y-86429192D01*
X120429192Y-86544795D01*
X120342210Y-86683225D01*
X120288212Y-86837544D01*
X120269909Y-86999996D01*
X109446356Y-86999996D01*
X109432789Y-86961225D01*
X109345808Y-86822796D01*
X109230204Y-86707192D01*
X109192061Y-86683225D01*
X109091777Y-86620212D01*
X109091773Y-86620210D01*
X109013040Y-86592660D01*
X108956264Y-86551938D01*
X108936954Y-86516575D01*
X108907789Y-86433225D01*
X108820808Y-86294796D01*
X108705204Y-86179192D01*
X108645146Y-86141455D01*
X108566774Y-86092210D01*
X108412455Y-86038212D01*
X108250004Y-86019909D01*
X108249996Y-86019909D01*
X108087544Y-86038212D01*
X107933225Y-86092210D01*
X107794795Y-86179192D01*
X107679192Y-86294795D01*
X107592210Y-86433225D01*
X107538212Y-86587544D01*
X107526772Y-86689077D01*
X107499705Y-86753491D01*
X107442110Y-86793046D01*
X107372273Y-86795183D01*
X107327482Y-86772058D01*
X107327236Y-86772410D01*
X107324633Y-86770587D01*
X107323840Y-86770178D01*
X107322808Y-86769312D01*
X107322801Y-86769305D01*
X107322790Y-86769297D01*
X107129234Y-86633767D01*
X107129230Y-86633765D01*
X107129228Y-86633764D01*
X106915063Y-86533897D01*
X106915059Y-86533896D01*
X106915055Y-86533894D01*
X106686813Y-86472738D01*
X106686803Y-86472736D01*
X106451401Y-86452141D01*
X106451399Y-86452141D01*
X106215996Y-86472736D01*
X106215986Y-86472738D01*
X105987744Y-86533894D01*
X105987735Y-86533898D01*
X105773571Y-86633764D01*
X105773569Y-86633765D01*
X105579997Y-86769305D01*
X105412905Y-86936397D01*
X105277365Y-87129969D01*
X105277364Y-87129971D01*
X105177498Y-87344135D01*
X105177494Y-87344144D01*
X105116338Y-87572386D01*
X105116336Y-87572396D01*
X105095741Y-87807799D01*
X103250500Y-87807799D01*
X103250500Y-86004396D01*
X116490909Y-86004396D01*
X116490909Y-86004403D01*
X116509212Y-86166855D01*
X116563210Y-86321174D01*
X116622722Y-86415886D01*
X116650192Y-86459604D01*
X116765796Y-86575208D01*
X116904225Y-86662189D01*
X117058539Y-86716186D01*
X117058542Y-86716186D01*
X117058544Y-86716187D01*
X117220996Y-86734491D01*
X117221000Y-86734491D01*
X117221004Y-86734491D01*
X117383455Y-86716187D01*
X117383456Y-86716186D01*
X117383461Y-86716186D01*
X117537775Y-86662189D01*
X117645141Y-86594726D01*
X117712374Y-86575726D01*
X117777084Y-86594727D01*
X117839215Y-86633767D01*
X117844025Y-86636789D01*
X117998339Y-86690786D01*
X117998342Y-86690786D01*
X117998344Y-86690787D01*
X118160796Y-86709091D01*
X118160800Y-86709091D01*
X118160804Y-86709091D01*
X118323255Y-86690787D01*
X118323256Y-86690786D01*
X118323261Y-86690786D01*
X118477575Y-86636789D01*
X118616004Y-86549808D01*
X118731608Y-86434204D01*
X118818589Y-86295775D01*
X118872586Y-86141461D01*
X118878135Y-86092211D01*
X118890891Y-85979003D01*
X118890891Y-85978996D01*
X118872587Y-85816544D01*
X118872586Y-85816542D01*
X118872586Y-85816539D01*
X118818589Y-85662225D01*
X118731608Y-85523796D01*
X118616004Y-85408192D01*
X118517999Y-85346611D01*
X118477574Y-85321210D01*
X118323255Y-85267212D01*
X118160804Y-85248909D01*
X118160796Y-85248909D01*
X117998344Y-85267212D01*
X117844025Y-85321210D01*
X117736660Y-85388673D01*
X117669424Y-85407673D01*
X117604716Y-85388672D01*
X117537778Y-85346611D01*
X117383455Y-85292612D01*
X117221004Y-85274309D01*
X117220996Y-85274309D01*
X117058544Y-85292612D01*
X116904225Y-85346610D01*
X116765795Y-85433592D01*
X116650192Y-85549195D01*
X116563210Y-85687625D01*
X116509212Y-85841944D01*
X116490909Y-86004396D01*
X103250500Y-86004396D01*
X103250500Y-79771796D01*
X112274509Y-79771796D01*
X112274509Y-79771803D01*
X112292812Y-79934255D01*
X112346810Y-80088574D01*
X112346811Y-80088575D01*
X112433792Y-80227004D01*
X112549396Y-80342608D01*
X112687825Y-80429589D01*
X112842139Y-80483586D01*
X112842142Y-80483586D01*
X112842144Y-80483587D01*
X113004596Y-80501891D01*
X113004600Y-80501891D01*
X113004604Y-80501891D01*
X113167055Y-80483587D01*
X113167056Y-80483586D01*
X113167061Y-80483586D01*
X113321375Y-80429589D01*
X113459804Y-80342608D01*
X113459805Y-80342607D01*
X113465248Y-80338267D01*
X113466759Y-80340162D01*
X113518112Y-80312088D01*
X113587807Y-80317037D01*
X113622815Y-80339523D01*
X113623818Y-80338267D01*
X113629260Y-80342607D01*
X113629261Y-80342608D01*
X113767690Y-80429589D01*
X113922004Y-80483586D01*
X113922007Y-80483586D01*
X113922009Y-80483587D01*
X114084461Y-80501891D01*
X114084465Y-80501891D01*
X114084469Y-80501891D01*
X114246920Y-80483587D01*
X114246921Y-80483586D01*
X114246926Y-80483586D01*
X114401240Y-80429589D01*
X114532660Y-80347011D01*
X114599896Y-80328011D01*
X114664605Y-80347012D01*
X114795418Y-80429208D01*
X114796025Y-80429589D01*
X114950339Y-80483586D01*
X114950342Y-80483586D01*
X114950344Y-80483587D01*
X115112796Y-80501891D01*
X115112800Y-80501891D01*
X115112804Y-80501891D01*
X115275257Y-80483587D01*
X115275259Y-80483586D01*
X115275261Y-80483586D01*
X115429575Y-80429589D01*
X115465928Y-80406746D01*
X115533162Y-80387745D01*
X115597871Y-80406746D01*
X115630533Y-80427269D01*
X115634225Y-80429589D01*
X115788542Y-80483587D01*
X115950996Y-80501891D01*
X115951000Y-80501891D01*
X115951004Y-80501891D01*
X116113457Y-80483587D01*
X116113459Y-80483586D01*
X116113461Y-80483586D01*
X116267775Y-80429589D01*
X116270547Y-80427847D01*
X116272592Y-80427269D01*
X116274048Y-80426568D01*
X116274170Y-80426822D01*
X116337780Y-80408844D01*
X116404616Y-80429208D01*
X116441515Y-80466865D01*
X116472390Y-80516001D01*
X116472392Y-80516004D01*
X116532603Y-80576215D01*
X116566088Y-80637538D01*
X116561104Y-80707230D01*
X116519232Y-80763163D01*
X116458805Y-80787116D01*
X116372744Y-80796812D01*
X116218425Y-80850810D01*
X116079995Y-80937792D01*
X115964392Y-81053395D01*
X115877410Y-81191825D01*
X115823412Y-81346144D01*
X115805109Y-81508596D01*
X115805109Y-81508603D01*
X115823412Y-81671055D01*
X115877410Y-81825374D01*
X115911448Y-81879544D01*
X115964392Y-81963804D01*
X116079996Y-82079408D01*
X116218425Y-82166389D01*
X116372739Y-82220386D01*
X116372742Y-82220386D01*
X116372744Y-82220387D01*
X116535196Y-82238691D01*
X116535200Y-82238691D01*
X116535204Y-82238691D01*
X116697655Y-82220387D01*
X116697656Y-82220386D01*
X116697661Y-82220386D01*
X116851975Y-82166389D01*
X116990404Y-82079408D01*
X117027816Y-82041996D01*
X127295509Y-82041996D01*
X127295509Y-82042003D01*
X127313812Y-82204455D01*
X127367810Y-82358774D01*
X127454792Y-82497204D01*
X127570396Y-82612808D01*
X127641981Y-82657788D01*
X127708825Y-82699789D01*
X127782254Y-82725483D01*
X127839030Y-82766205D01*
X127864778Y-82831157D01*
X127851322Y-82899719D01*
X127828982Y-82930206D01*
X127749991Y-83009197D01*
X127663010Y-83147625D01*
X127609012Y-83301944D01*
X127590709Y-83464396D01*
X127590709Y-83464403D01*
X127609012Y-83626855D01*
X127663010Y-83781174D01*
X127723947Y-83878154D01*
X127749992Y-83919604D01*
X127865596Y-84035208D01*
X128004025Y-84122189D01*
X128158339Y-84176186D01*
X128158342Y-84176186D01*
X128158344Y-84176187D01*
X128320796Y-84194491D01*
X128320800Y-84194491D01*
X128320804Y-84194491D01*
X128483255Y-84176187D01*
X128483256Y-84176186D01*
X128483261Y-84176186D01*
X128637575Y-84122189D01*
X128776004Y-84035208D01*
X128891608Y-83919604D01*
X128978589Y-83781175D01*
X129032586Y-83626861D01*
X129032587Y-83626855D01*
X129039444Y-83565996D01*
X132899309Y-83565996D01*
X132899309Y-83566003D01*
X132917612Y-83728455D01*
X132971610Y-83882774D01*
X132971611Y-83882775D01*
X133058592Y-84021204D01*
X133174196Y-84136808D01*
X133312625Y-84223789D01*
X133466939Y-84277786D01*
X133466942Y-84277786D01*
X133466944Y-84277787D01*
X133629396Y-84296091D01*
X133629400Y-84296091D01*
X133629404Y-84296091D01*
X133791855Y-84277787D01*
X133791856Y-84277786D01*
X133791861Y-84277786D01*
X133946175Y-84223789D01*
X134084604Y-84136808D01*
X134200208Y-84021204D01*
X134261006Y-83924445D01*
X134313341Y-83878154D01*
X134382395Y-83867506D01*
X134446243Y-83895881D01*
X134470994Y-83924445D01*
X134531792Y-84021204D01*
X134647396Y-84136808D01*
X134708573Y-84175248D01*
X134754863Y-84227582D01*
X134765511Y-84296635D01*
X134737136Y-84360484D01*
X134678747Y-84398856D01*
X134628717Y-84403461D01*
X134467604Y-84385309D01*
X134467596Y-84385309D01*
X134305144Y-84403612D01*
X134150825Y-84457610D01*
X134012395Y-84544592D01*
X133896792Y-84660195D01*
X133809810Y-84798625D01*
X133755812Y-84952944D01*
X133737509Y-85115396D01*
X133737509Y-85115403D01*
X133755812Y-85277855D01*
X133809810Y-85432174D01*
X133867380Y-85523795D01*
X133896792Y-85570604D01*
X134012396Y-85686208D01*
X134150825Y-85773189D01*
X134305139Y-85827186D01*
X134305142Y-85827186D01*
X134305144Y-85827187D01*
X134467596Y-85845491D01*
X134467600Y-85845491D01*
X134467604Y-85845491D01*
X134630055Y-85827187D01*
X134630056Y-85827186D01*
X134630061Y-85827186D01*
X134784375Y-85773189D01*
X134922804Y-85686208D01*
X135038408Y-85570604D01*
X135125389Y-85432175D01*
X135179386Y-85277861D01*
X135179387Y-85277855D01*
X135197691Y-85115403D01*
X135197691Y-85115396D01*
X135179387Y-84952944D01*
X135179386Y-84952942D01*
X135179386Y-84952939D01*
X135125389Y-84798625D01*
X135038408Y-84660196D01*
X134922804Y-84544592D01*
X134861626Y-84506151D01*
X134815336Y-84453817D01*
X134804688Y-84384763D01*
X134833063Y-84320915D01*
X134891453Y-84282543D01*
X134941482Y-84277938D01*
X135102596Y-84296091D01*
X135102600Y-84296091D01*
X135102604Y-84296091D01*
X135265055Y-84277787D01*
X135265056Y-84277786D01*
X135265061Y-84277786D01*
X135419375Y-84223789D01*
X135457262Y-84199983D01*
X140699500Y-84199983D01*
X140699500Y-85800001D01*
X140699501Y-85800018D01*
X140710000Y-85902796D01*
X140710001Y-85902799D01*
X140765185Y-86069331D01*
X140765187Y-86069336D01*
X140800069Y-86125888D01*
X140857288Y-86218656D01*
X140981344Y-86342712D01*
X141130666Y-86434814D01*
X141297203Y-86489999D01*
X141399991Y-86500500D01*
X144600008Y-86500499D01*
X144702797Y-86489999D01*
X144869334Y-86434814D01*
X145018656Y-86342712D01*
X145142712Y-86218656D01*
X145234814Y-86069334D01*
X145289999Y-85902797D01*
X145300500Y-85800009D01*
X145300499Y-84199992D01*
X145289999Y-84097203D01*
X145234814Y-83930666D01*
X145142712Y-83781344D01*
X145018656Y-83657288D01*
X144870654Y-83566000D01*
X144869336Y-83565187D01*
X144869331Y-83565185D01*
X144847011Y-83557789D01*
X144702797Y-83510001D01*
X144702795Y-83510000D01*
X144600010Y-83499500D01*
X141399998Y-83499500D01*
X141399981Y-83499501D01*
X141297203Y-83510000D01*
X141297200Y-83510001D01*
X141130668Y-83565185D01*
X141130663Y-83565187D01*
X140981342Y-83657289D01*
X140857289Y-83781342D01*
X140765187Y-83930663D01*
X140765186Y-83930666D01*
X140710001Y-84097203D01*
X140710001Y-84097204D01*
X140710000Y-84097204D01*
X140699500Y-84199983D01*
X135457262Y-84199983D01*
X135557804Y-84136808D01*
X135673408Y-84021204D01*
X135760389Y-83882775D01*
X135814386Y-83728461D01*
X135814387Y-83728455D01*
X135832691Y-83566003D01*
X135832691Y-83565996D01*
X135814387Y-83403544D01*
X135814386Y-83403542D01*
X135814386Y-83403539D01*
X135760389Y-83249225D01*
X135673408Y-83110796D01*
X135557804Y-82995192D01*
X135419375Y-82908211D01*
X135419372Y-82908209D01*
X135340525Y-82880619D01*
X135283749Y-82839898D01*
X135258002Y-82774945D01*
X135271458Y-82706383D01*
X135315508Y-82658584D01*
X135316771Y-82657790D01*
X135316775Y-82657789D01*
X135434030Y-82584112D01*
X135501265Y-82565113D01*
X135565971Y-82584113D01*
X135638379Y-82629610D01*
X135670623Y-82649871D01*
X135683225Y-82657789D01*
X135837539Y-82711786D01*
X135837542Y-82711786D01*
X135837544Y-82711787D01*
X135999996Y-82730091D01*
X136000000Y-82730091D01*
X136000004Y-82730091D01*
X136162455Y-82711787D01*
X136162456Y-82711786D01*
X136162461Y-82711786D01*
X136316775Y-82657789D01*
X136416326Y-82595236D01*
X136483558Y-82576237D01*
X136550393Y-82596604D01*
X136595608Y-82649871D01*
X136604847Y-82719127D01*
X136601957Y-82730703D01*
X136602163Y-82730750D01*
X136600613Y-82737540D01*
X136582309Y-82899996D01*
X136582309Y-82900003D01*
X136600612Y-83062455D01*
X136654610Y-83216774D01*
X136677904Y-83253846D01*
X136741592Y-83355204D01*
X136857196Y-83470808D01*
X136995625Y-83557789D01*
X137149939Y-83611786D01*
X137149942Y-83611786D01*
X137149944Y-83611787D01*
X137312396Y-83630091D01*
X137312400Y-83630091D01*
X137312404Y-83630091D01*
X137474855Y-83611787D01*
X137474856Y-83611786D01*
X137474861Y-83611786D01*
X137629175Y-83557789D01*
X137767604Y-83470808D01*
X137883208Y-83355204D01*
X137970189Y-83216775D01*
X138024186Y-83062461D01*
X138024187Y-83062455D01*
X138042491Y-82900003D01*
X138042491Y-82899996D01*
X138024187Y-82737544D01*
X138024186Y-82737540D01*
X138024186Y-82737539D01*
X137970189Y-82583225D01*
X137883208Y-82444796D01*
X137791264Y-82352852D01*
X137757779Y-82291529D01*
X137762763Y-82221837D01*
X137804635Y-82165904D01*
X137812973Y-82160177D01*
X137816771Y-82157790D01*
X137816775Y-82157789D01*
X137955204Y-82070808D01*
X138070808Y-81955204D01*
X138157789Y-81816775D01*
X138211786Y-81662461D01*
X138211787Y-81662455D01*
X138230091Y-81500003D01*
X138230091Y-81499996D01*
X138211787Y-81337544D01*
X138211786Y-81337542D01*
X138211786Y-81337539D01*
X138157789Y-81183225D01*
X138070808Y-81044796D01*
X137955204Y-80929192D01*
X137830462Y-80850811D01*
X137816777Y-80842212D01*
X137816773Y-80842210D01*
X137755364Y-80820722D01*
X137698588Y-80780000D01*
X137679277Y-80744635D01*
X137657789Y-80683225D01*
X137570807Y-80544795D01*
X137455204Y-80429192D01*
X137316774Y-80342210D01*
X137162455Y-80288212D01*
X137000004Y-80269909D01*
X136999996Y-80269909D01*
X136837544Y-80288212D01*
X136683225Y-80342210D01*
X136544795Y-80429192D01*
X136429192Y-80544795D01*
X136342210Y-80683225D01*
X136288212Y-80837544D01*
X136269909Y-80999996D01*
X136269909Y-81000004D01*
X136286771Y-81149668D01*
X136274716Y-81218490D01*
X136227367Y-81269869D01*
X136159756Y-81287493D01*
X136149668Y-81286771D01*
X136000004Y-81269909D01*
X135999996Y-81269909D01*
X135837544Y-81288212D01*
X135683225Y-81342210D01*
X135565972Y-81415886D01*
X135498735Y-81434886D01*
X135434028Y-81415886D01*
X135316774Y-81342210D01*
X135162455Y-81288212D01*
X135000004Y-81269909D01*
X134999996Y-81269909D01*
X134837544Y-81288212D01*
X134683225Y-81342210D01*
X134544795Y-81429192D01*
X134429192Y-81544795D01*
X134342210Y-81683225D01*
X134288212Y-81837544D01*
X134269909Y-81999996D01*
X134269909Y-82000003D01*
X134288212Y-82162455D01*
X134288213Y-82162460D01*
X134288214Y-82162461D01*
X134295379Y-82182939D01*
X134342210Y-82316774D01*
X134368601Y-82358774D01*
X134429192Y-82455204D01*
X134544796Y-82570808D01*
X134683225Y-82657789D01*
X134762073Y-82685379D01*
X134818849Y-82726101D01*
X134844597Y-82791053D01*
X134831141Y-82859615D01*
X134787092Y-82907414D01*
X134647397Y-82995190D01*
X134531792Y-83110795D01*
X134531790Y-83110798D01*
X134470993Y-83207555D01*
X134418658Y-83253846D01*
X134349605Y-83264493D01*
X134285757Y-83236118D01*
X134261007Y-83207555D01*
X134200209Y-83110798D01*
X134200207Y-83110795D01*
X134084604Y-82995192D01*
X133946174Y-82908210D01*
X133791855Y-82854212D01*
X133629404Y-82835909D01*
X133629396Y-82835909D01*
X133466944Y-82854212D01*
X133312625Y-82908210D01*
X133174195Y-82995192D01*
X133058592Y-83110795D01*
X132971610Y-83249225D01*
X132917612Y-83403544D01*
X132899309Y-83565996D01*
X129039444Y-83565996D01*
X129050891Y-83464403D01*
X129050891Y-83464396D01*
X129032587Y-83301944D01*
X129032586Y-83301942D01*
X129032586Y-83301939D01*
X128978589Y-83147625D01*
X128978588Y-83147622D01*
X128971711Y-83136677D01*
X128952711Y-83069440D01*
X128973079Y-83002605D01*
X129026347Y-82957392D01*
X129095604Y-82948155D01*
X129117657Y-82953664D01*
X129128311Y-82957392D01*
X129199742Y-82982387D01*
X129362196Y-83000691D01*
X129362200Y-83000691D01*
X129362204Y-83000691D01*
X129524655Y-82982387D01*
X129524656Y-82982386D01*
X129524661Y-82982386D01*
X129678975Y-82928389D01*
X129817404Y-82841408D01*
X129933008Y-82725804D01*
X130019989Y-82587375D01*
X130073986Y-82433061D01*
X130082356Y-82358774D01*
X130092291Y-82270603D01*
X130092291Y-82270596D01*
X130073987Y-82108144D01*
X130073986Y-82108142D01*
X130073986Y-82108139D01*
X130019989Y-81953825D01*
X129933008Y-81815396D01*
X129817404Y-81699792D01*
X129771679Y-81671061D01*
X129678974Y-81612810D01*
X129524655Y-81558812D01*
X129362204Y-81540509D01*
X129362196Y-81540509D01*
X129199744Y-81558812D01*
X129045425Y-81612810D01*
X128906995Y-81699792D01*
X128869808Y-81736979D01*
X128808485Y-81770464D01*
X128738793Y-81765478D01*
X128682860Y-81723606D01*
X128677135Y-81715270D01*
X128596409Y-81586797D01*
X128480804Y-81471192D01*
X128342374Y-81384210D01*
X128188055Y-81330212D01*
X128025604Y-81311909D01*
X128025596Y-81311909D01*
X127863144Y-81330212D01*
X127708825Y-81384210D01*
X127570395Y-81471192D01*
X127454792Y-81586795D01*
X127367810Y-81725225D01*
X127313812Y-81879544D01*
X127295509Y-82041996D01*
X117027816Y-82041996D01*
X117106008Y-81963804D01*
X117192989Y-81825375D01*
X117246986Y-81671061D01*
X117247956Y-81662455D01*
X117265291Y-81508603D01*
X117265291Y-81508596D01*
X117246987Y-81346144D01*
X117246986Y-81346142D01*
X117246986Y-81346139D01*
X117192989Y-81191825D01*
X117106008Y-81053396D01*
X117045796Y-80993184D01*
X117012311Y-80931861D01*
X117017295Y-80862169D01*
X117059167Y-80806236D01*
X117119593Y-80782283D01*
X117172138Y-80776363D01*
X117205654Y-80772587D01*
X117205654Y-80772586D01*
X117205661Y-80772586D01*
X117359975Y-80718589D01*
X117498404Y-80631608D01*
X117614008Y-80516004D01*
X117700989Y-80377575D01*
X117754986Y-80223261D01*
X117754987Y-80223255D01*
X117773291Y-80060803D01*
X117773291Y-80060796D01*
X117754987Y-79898344D01*
X117754986Y-79898342D01*
X117754986Y-79898339D01*
X117700989Y-79744025D01*
X117692551Y-79730596D01*
X133026309Y-79730596D01*
X133026309Y-79730603D01*
X133044612Y-79893055D01*
X133098610Y-80047374D01*
X133107048Y-80060803D01*
X133185592Y-80185804D01*
X133301196Y-80301408D01*
X133439625Y-80388389D01*
X133593939Y-80442386D01*
X133593942Y-80442386D01*
X133593944Y-80442387D01*
X133756396Y-80460691D01*
X133756400Y-80460691D01*
X133756404Y-80460691D01*
X133918855Y-80442387D01*
X133918856Y-80442386D01*
X133918861Y-80442386D01*
X134073175Y-80388389D01*
X134211604Y-80301408D01*
X134327208Y-80185804D01*
X134414189Y-80047375D01*
X134468186Y-79893061D01*
X134481849Y-79771800D01*
X134486491Y-79730603D01*
X134486491Y-79730596D01*
X134468187Y-79568144D01*
X134468186Y-79568142D01*
X134468186Y-79568139D01*
X134414189Y-79413825D01*
X134327208Y-79275396D01*
X134211604Y-79159792D01*
X134175097Y-79136853D01*
X134073174Y-79072810D01*
X133918855Y-79018812D01*
X133756404Y-79000509D01*
X133756396Y-79000509D01*
X133593944Y-79018812D01*
X133439625Y-79072810D01*
X133301195Y-79159792D01*
X133185592Y-79275395D01*
X133098610Y-79413825D01*
X133044612Y-79568144D01*
X133026309Y-79730596D01*
X117692551Y-79730596D01*
X117614008Y-79605596D01*
X117498404Y-79489992D01*
X117442755Y-79455025D01*
X117359974Y-79403010D01*
X117205655Y-79349012D01*
X117043204Y-79330709D01*
X117043196Y-79330709D01*
X116880744Y-79349012D01*
X116726428Y-79403009D01*
X116726421Y-79403013D01*
X116723637Y-79404762D01*
X116721588Y-79405340D01*
X116720157Y-79406030D01*
X116720036Y-79405779D01*
X116656399Y-79423754D01*
X116589565Y-79403380D01*
X116552682Y-79365732D01*
X116521810Y-79316598D01*
X116406204Y-79200992D01*
X116267774Y-79114010D01*
X116113455Y-79060012D01*
X115951004Y-79041709D01*
X115950996Y-79041709D01*
X115788544Y-79060012D01*
X115634225Y-79114010D01*
X115597871Y-79136853D01*
X115530634Y-79155852D01*
X115465929Y-79136853D01*
X115429574Y-79114010D01*
X115275255Y-79060012D01*
X115112804Y-79041709D01*
X115112796Y-79041709D01*
X114950344Y-79060012D01*
X114796025Y-79114010D01*
X114664604Y-79196588D01*
X114597367Y-79215588D01*
X114532660Y-79196588D01*
X114401239Y-79114010D01*
X114246920Y-79060012D01*
X114084469Y-79041709D01*
X114084461Y-79041709D01*
X113922009Y-79060012D01*
X113767690Y-79114010D01*
X113629257Y-79200994D01*
X113623813Y-79205336D01*
X113622314Y-79203456D01*
X113570828Y-79231537D01*
X113501139Y-79226517D01*
X113466246Y-79204080D01*
X113465247Y-79205333D01*
X113459804Y-79200992D01*
X113321374Y-79114010D01*
X113167055Y-79060012D01*
X113004604Y-79041709D01*
X113004596Y-79041709D01*
X112842144Y-79060012D01*
X112687825Y-79114010D01*
X112549395Y-79200992D01*
X112433792Y-79316595D01*
X112346810Y-79455025D01*
X112292812Y-79609344D01*
X112274509Y-79771796D01*
X103250500Y-79771796D01*
X103250500Y-77102135D01*
X105087000Y-77102135D01*
X105087000Y-78897870D01*
X105087001Y-78897876D01*
X105093408Y-78957483D01*
X105143702Y-79092328D01*
X105143706Y-79092335D01*
X105229952Y-79207544D01*
X105229955Y-79207547D01*
X105345164Y-79293793D01*
X105345171Y-79293797D01*
X105480017Y-79344091D01*
X105480016Y-79344091D01*
X105486944Y-79344835D01*
X105539627Y-79350500D01*
X107335372Y-79350499D01*
X107394983Y-79344091D01*
X107529831Y-79293796D01*
X107645046Y-79207546D01*
X107731296Y-79092331D01*
X107781591Y-78957483D01*
X107788000Y-78897873D01*
X107787999Y-77102128D01*
X107781591Y-77042517D01*
X107761032Y-76987396D01*
X127209709Y-76987396D01*
X127209709Y-76987403D01*
X127228012Y-77149855D01*
X127282010Y-77304174D01*
X127282011Y-77304175D01*
X127368992Y-77442604D01*
X127484596Y-77558208D01*
X127623025Y-77645189D01*
X127777339Y-77699186D01*
X127777342Y-77699186D01*
X127777344Y-77699187D01*
X127939796Y-77717491D01*
X127939800Y-77717491D01*
X127939804Y-77717491D01*
X128102255Y-77699187D01*
X128102256Y-77699186D01*
X128102261Y-77699186D01*
X128256575Y-77645189D01*
X128395004Y-77558208D01*
X128510608Y-77442604D01*
X128597589Y-77304175D01*
X128651586Y-77149861D01*
X128651587Y-77149855D01*
X128669891Y-76987403D01*
X128669891Y-76987396D01*
X128651587Y-76824944D01*
X128651586Y-76824942D01*
X128651586Y-76824939D01*
X128597589Y-76670625D01*
X128510608Y-76532196D01*
X128395004Y-76416592D01*
X128256574Y-76329610D01*
X128102255Y-76275612D01*
X127939804Y-76257309D01*
X127939796Y-76257309D01*
X127777344Y-76275612D01*
X127623025Y-76329610D01*
X127484595Y-76416592D01*
X127368992Y-76532195D01*
X127282010Y-76670625D01*
X127228012Y-76824944D01*
X127209709Y-76987396D01*
X107761032Y-76987396D01*
X107731297Y-76907671D01*
X107731293Y-76907664D01*
X107645047Y-76792455D01*
X107645044Y-76792452D01*
X107529835Y-76706206D01*
X107529828Y-76706202D01*
X107394982Y-76655908D01*
X107394983Y-76655908D01*
X107335383Y-76649501D01*
X107335381Y-76649500D01*
X107335373Y-76649500D01*
X107335364Y-76649500D01*
X105539629Y-76649500D01*
X105539623Y-76649501D01*
X105480016Y-76655908D01*
X105345171Y-76706202D01*
X105345164Y-76706206D01*
X105229955Y-76792452D01*
X105229952Y-76792455D01*
X105143706Y-76907664D01*
X105143702Y-76907671D01*
X105093408Y-77042517D01*
X105087001Y-77102116D01*
X105087001Y-77102123D01*
X105087000Y-77102135D01*
X103250500Y-77102135D01*
X103250500Y-71134507D01*
X103270185Y-71067468D01*
X103322989Y-71021713D01*
X103375045Y-71010508D01*
X154876052Y-71238389D01*
G37*
%TD.AperFunction*%
%TD*%
M02*
